G04 Layer: BottomSilkscreenLayer*
G04 EasyEDA v6.5.38, 2023-12-05 17:56:17*
G04 681b97978217455484aa44bc4d5c6028,9f3f2715377c499da2f37e4e16011465,10*
G04 Gerber Generator version 0.2*
G04 Scale: 100 percent, Rotated: No, Reflected: No *
G04 Dimensions in millimeters *
G04 leading zeros omitted , absolute positions ,4 integer and 5 decimal *
%FSLAX45Y45*%
%MOMM*%

%ADD10C,0.1524*%
%ADD11C,0.2032*%
%ADD12C,0.2540*%

%LPD*%
D10*
X5699988Y9365320D02*
G01*
X5699988Y9256217D01*
X5699988Y9365320D02*
G01*
X5653229Y9365320D01*
X5637644Y9360126D01*
X5632447Y9354929D01*
X5627253Y9344538D01*
X5627253Y9334146D01*
X5632447Y9323755D01*
X5637644Y9318561D01*
X5653229Y9313367D01*
X5699988Y9313367D01*
X5663620Y9313367D02*
G01*
X5627253Y9256217D01*
X5592963Y9344538D02*
G01*
X5582572Y9349734D01*
X5566984Y9365320D01*
X5566984Y9256217D01*
X5480740Y9365320D02*
G01*
X5532694Y9292584D01*
X5454764Y9292584D01*
X5480740Y9365320D02*
G01*
X5480740Y9256217D01*
X2346012Y12226607D02*
G01*
X2236909Y12226607D01*
X2346012Y12226607D02*
G01*
X2346012Y12273366D01*
X2340818Y12288951D01*
X2335621Y12294148D01*
X2325230Y12299342D01*
X2314839Y12299342D01*
X2304448Y12294148D01*
X2299253Y12288951D01*
X2294059Y12273366D01*
X2294059Y12226607D02*
G01*
X2294059Y12273366D01*
X2288862Y12288951D01*
X2283668Y12294148D01*
X2273277Y12299342D01*
X2257689Y12299342D01*
X2247298Y12294148D01*
X2242103Y12288951D01*
X2236909Y12273366D01*
X2236909Y12226607D01*
X2346012Y12370003D02*
G01*
X2236909Y12370003D01*
X2346012Y12333632D02*
G01*
X2346012Y12406370D01*
X2346012Y12440660D02*
G01*
X2236909Y12440660D01*
X2346012Y12440660D02*
G01*
X2236909Y12513396D01*
X2346012Y12513396D02*
G01*
X2236909Y12513396D01*
X2325230Y12547686D02*
G01*
X2330427Y12558077D01*
X2346012Y12573662D01*
X2236909Y12573662D01*
X2593883Y12224575D02*
G01*
X2484780Y12224575D01*
X2593883Y12224575D02*
G01*
X2593883Y12271334D01*
X2588689Y12286919D01*
X2583492Y12292116D01*
X2573101Y12297310D01*
X2562710Y12297310D01*
X2552318Y12292116D01*
X2547124Y12286919D01*
X2541930Y12271334D01*
X2541930Y12224575D02*
G01*
X2541930Y12271334D01*
X2536733Y12286919D01*
X2531539Y12292116D01*
X2521148Y12297310D01*
X2505560Y12297310D01*
X2495168Y12292116D01*
X2489974Y12286919D01*
X2484780Y12271334D01*
X2484780Y12224575D01*
X2593883Y12367971D02*
G01*
X2484780Y12367971D01*
X2593883Y12331600D02*
G01*
X2593883Y12404338D01*
X2593883Y12438628D02*
G01*
X2484780Y12438628D01*
X2593883Y12438628D02*
G01*
X2484780Y12511364D01*
X2593883Y12511364D02*
G01*
X2484780Y12511364D01*
X2593883Y12556045D02*
G01*
X2593883Y12613195D01*
X2552318Y12582022D01*
X2552318Y12597610D01*
X2547124Y12608001D01*
X2541930Y12613195D01*
X2526342Y12618389D01*
X2515951Y12618389D01*
X2500365Y12613195D01*
X2489974Y12602804D01*
X2484780Y12587218D01*
X2484780Y12571630D01*
X2489974Y12556045D01*
X2495168Y12550851D01*
X2505560Y12545654D01*
X2865003Y12217615D02*
G01*
X2755900Y12217615D01*
X2865003Y12217615D02*
G01*
X2865003Y12264374D01*
X2859808Y12279960D01*
X2854612Y12285157D01*
X2844220Y12290351D01*
X2833829Y12290351D01*
X2823438Y12285157D01*
X2818244Y12279960D01*
X2813050Y12264374D01*
X2813050Y12217615D02*
G01*
X2813050Y12264374D01*
X2807853Y12279960D01*
X2802658Y12285157D01*
X2792267Y12290351D01*
X2776679Y12290351D01*
X2766288Y12285157D01*
X2761094Y12279960D01*
X2755900Y12264374D01*
X2755900Y12217615D01*
X2865003Y12361011D02*
G01*
X2755900Y12361011D01*
X2865003Y12324641D02*
G01*
X2865003Y12397379D01*
X2865003Y12431669D02*
G01*
X2755900Y12431669D01*
X2865003Y12431669D02*
G01*
X2755900Y12504404D01*
X2865003Y12504404D02*
G01*
X2755900Y12504404D01*
X2865003Y12601041D02*
G01*
X2865003Y12549085D01*
X2818244Y12543891D01*
X2823438Y12549085D01*
X2828635Y12564671D01*
X2828635Y12580259D01*
X2823438Y12595844D01*
X2813050Y12606235D01*
X2797462Y12611430D01*
X2787070Y12611430D01*
X2771485Y12606235D01*
X2761094Y12595844D01*
X2755900Y12580259D01*
X2755900Y12564671D01*
X2761094Y12549085D01*
X2766288Y12543891D01*
X2776679Y12538694D01*
X3114014Y12204067D02*
G01*
X3004911Y12204067D01*
X3114014Y12204067D02*
G01*
X3114014Y12250826D01*
X3108820Y12266411D01*
X3103623Y12271608D01*
X3093232Y12276802D01*
X3082841Y12276802D01*
X3072450Y12271608D01*
X3067255Y12266411D01*
X3062061Y12250826D01*
X3062061Y12204067D02*
G01*
X3062061Y12250826D01*
X3056864Y12266411D01*
X3051670Y12271608D01*
X3041279Y12276802D01*
X3025691Y12276802D01*
X3015300Y12271608D01*
X3010105Y12266411D01*
X3004911Y12250826D01*
X3004911Y12204067D01*
X3114014Y12347463D02*
G01*
X3004911Y12347463D01*
X3114014Y12311092D02*
G01*
X3114014Y12383830D01*
X3114014Y12418120D02*
G01*
X3004911Y12418120D01*
X3114014Y12418120D02*
G01*
X3004911Y12490856D01*
X3114014Y12490856D02*
G01*
X3004911Y12490856D01*
X3114014Y12597881D02*
G01*
X3004911Y12545928D01*
X3114014Y12525146D02*
G01*
X3114014Y12597881D01*
X3364814Y12204070D02*
G01*
X3255711Y12204070D01*
X3364814Y12204070D02*
G01*
X3364814Y12250828D01*
X3359619Y12266414D01*
X3354423Y12271611D01*
X3344031Y12276805D01*
X3333640Y12276805D01*
X3323249Y12271611D01*
X3318055Y12266414D01*
X3312861Y12250828D01*
X3312861Y12204070D02*
G01*
X3312861Y12250828D01*
X3307664Y12266414D01*
X3302469Y12271611D01*
X3292078Y12276805D01*
X3276490Y12276805D01*
X3266099Y12271611D01*
X3260905Y12266414D01*
X3255711Y12250828D01*
X3255711Y12204070D01*
X3364814Y12347465D02*
G01*
X3255711Y12347465D01*
X3364814Y12311095D02*
G01*
X3364814Y12383833D01*
X3364814Y12418123D02*
G01*
X3255711Y12418123D01*
X3364814Y12418123D02*
G01*
X3255711Y12490858D01*
X3364814Y12490858D02*
G01*
X3255711Y12490858D01*
X3328446Y12592690D02*
G01*
X3312861Y12587495D01*
X3302469Y12577104D01*
X3297273Y12561516D01*
X3297273Y12556322D01*
X3302469Y12540734D01*
X3312861Y12530345D01*
X3328446Y12525148D01*
X3333640Y12525148D01*
X3349228Y12530345D01*
X3359619Y12540734D01*
X3364814Y12556322D01*
X3364814Y12561516D01*
X3359619Y12577104D01*
X3349228Y12587495D01*
X3328446Y12592690D01*
X3302469Y12592690D01*
X3276490Y12587495D01*
X3260905Y12577104D01*
X3255711Y12561516D01*
X3255711Y12551125D01*
X3260905Y12535540D01*
X3271296Y12530345D01*
X3607424Y12209241D02*
G01*
X3498321Y12209241D01*
X3607424Y12209241D02*
G01*
X3607424Y12256000D01*
X3602230Y12271585D01*
X3597033Y12276782D01*
X3586642Y12281976D01*
X3576251Y12281976D01*
X3565860Y12276782D01*
X3560665Y12271585D01*
X3555471Y12256000D01*
X3555471Y12209241D02*
G01*
X3555471Y12256000D01*
X3550274Y12271585D01*
X3545080Y12276782D01*
X3534689Y12281976D01*
X3519101Y12281976D01*
X3508710Y12276782D01*
X3503515Y12271585D01*
X3498321Y12256000D01*
X3498321Y12209241D01*
X3607424Y12352637D02*
G01*
X3498321Y12352637D01*
X3607424Y12316266D02*
G01*
X3607424Y12389004D01*
X3607424Y12423294D02*
G01*
X3498321Y12423294D01*
X3607424Y12423294D02*
G01*
X3498321Y12496030D01*
X3607424Y12496030D02*
G01*
X3498321Y12496030D01*
X3586642Y12530320D02*
G01*
X3591839Y12540711D01*
X3607424Y12556296D01*
X3498321Y12556296D01*
X3586642Y12590586D02*
G01*
X3591839Y12600978D01*
X3607424Y12616566D01*
X3498321Y12616566D01*
X3851267Y12204070D02*
G01*
X3742164Y12204070D01*
X3851267Y12204070D02*
G01*
X3851267Y12250828D01*
X3846073Y12266414D01*
X3840876Y12271611D01*
X3830485Y12276805D01*
X3814899Y12276805D01*
X3804508Y12271611D01*
X3799314Y12266414D01*
X3794117Y12250828D01*
X3794117Y12204070D01*
X3851267Y12311095D02*
G01*
X3742164Y12311095D01*
X3851267Y12383833D02*
G01*
X3742164Y12383833D01*
X3799314Y12311095D02*
G01*
X3799314Y12383833D01*
X3851267Y12449294D02*
G01*
X3846073Y12438905D01*
X3835681Y12428514D01*
X3825290Y12423317D01*
X3809702Y12418123D01*
X3783726Y12418123D01*
X3768140Y12423317D01*
X3757749Y12428514D01*
X3747358Y12438905D01*
X3742164Y12449294D01*
X3742164Y12470076D01*
X3747358Y12480467D01*
X3757749Y12490858D01*
X3768140Y12496055D01*
X3783726Y12501250D01*
X3809702Y12501250D01*
X3825290Y12496055D01*
X3835681Y12490858D01*
X3846073Y12480467D01*
X3851267Y12470076D01*
X3851267Y12449294D01*
X3851267Y12571907D02*
G01*
X3742164Y12571907D01*
X3851267Y12535540D02*
G01*
X3851267Y12608275D01*
X3851267Y12673738D02*
G01*
X3846073Y12663347D01*
X3835681Y12652956D01*
X3825290Y12647762D01*
X3809702Y12642565D01*
X3783726Y12642565D01*
X3768140Y12647762D01*
X3757749Y12652956D01*
X3747358Y12663347D01*
X3742164Y12673738D01*
X3742164Y12694521D01*
X3747358Y12704912D01*
X3757749Y12715303D01*
X3768140Y12720497D01*
X3783726Y12725694D01*
X3809702Y12725694D01*
X3825290Y12720497D01*
X3835681Y12715303D01*
X3846073Y12704912D01*
X3851267Y12694521D01*
X3851267Y12673738D01*
X3851267Y12759984D02*
G01*
X3742164Y12759984D01*
X3851267Y12794274D02*
G01*
X3742164Y12794274D01*
X3851267Y12794274D02*
G01*
X3742164Y12867010D01*
X3851267Y12867010D02*
G01*
X3742164Y12867010D01*
X2345339Y11207925D02*
G01*
X2236236Y11207925D01*
X2345339Y11207925D02*
G01*
X2345339Y11254684D01*
X2340145Y11270269D01*
X2334948Y11275466D01*
X2324557Y11280660D01*
X2314166Y11280660D01*
X2303774Y11275466D01*
X2298580Y11270269D01*
X2293386Y11254684D01*
X2293386Y11207925D02*
G01*
X2293386Y11254684D01*
X2288189Y11270269D01*
X2282995Y11275466D01*
X2272604Y11280660D01*
X2257016Y11280660D01*
X2246624Y11275466D01*
X2241430Y11270269D01*
X2236236Y11254684D01*
X2236236Y11207925D01*
X2345339Y11351320D02*
G01*
X2236236Y11351320D01*
X2345339Y11314950D02*
G01*
X2345339Y11387688D01*
X2345339Y11421978D02*
G01*
X2236236Y11421978D01*
X2345339Y11421978D02*
G01*
X2236236Y11494714D01*
X2345339Y11494714D02*
G01*
X2236236Y11494714D01*
X2319362Y11534200D02*
G01*
X2324557Y11534200D01*
X2334948Y11539395D01*
X2340145Y11544589D01*
X2345339Y11554980D01*
X2345339Y11575762D01*
X2340145Y11586154D01*
X2334948Y11591350D01*
X2324557Y11596545D01*
X2314166Y11596545D01*
X2303774Y11591350D01*
X2288189Y11580959D01*
X2236236Y11529004D01*
X2236236Y11601739D01*
X2624274Y11182433D02*
G01*
X2515171Y11182433D01*
X2624274Y11182433D02*
G01*
X2624274Y11229192D01*
X2619080Y11244778D01*
X2613883Y11249974D01*
X2603492Y11255169D01*
X2593101Y11255169D01*
X2582710Y11249974D01*
X2577515Y11244778D01*
X2572321Y11229192D01*
X2572321Y11182433D02*
G01*
X2572321Y11229192D01*
X2567124Y11244778D01*
X2561930Y11249974D01*
X2551539Y11255169D01*
X2535951Y11255169D01*
X2525560Y11249974D01*
X2520365Y11244778D01*
X2515171Y11229192D01*
X2515171Y11182433D01*
X2624274Y11325829D02*
G01*
X2515171Y11325829D01*
X2624274Y11289459D02*
G01*
X2624274Y11362197D01*
X2624274Y11396487D02*
G01*
X2515171Y11396487D01*
X2624274Y11396487D02*
G01*
X2515171Y11469222D01*
X2624274Y11469222D02*
G01*
X2515171Y11469222D01*
X2624274Y11555468D02*
G01*
X2551539Y11503512D01*
X2551539Y11581444D01*
X2624274Y11555468D02*
G01*
X2515171Y11555468D01*
X2862747Y11173495D02*
G01*
X2753644Y11173495D01*
X2862747Y11173495D02*
G01*
X2862747Y11220254D01*
X2857553Y11235839D01*
X2852356Y11241036D01*
X2841965Y11246230D01*
X2831574Y11246230D01*
X2821183Y11241036D01*
X2815988Y11235839D01*
X2810794Y11220254D01*
X2810794Y11173495D02*
G01*
X2810794Y11220254D01*
X2805597Y11235839D01*
X2800403Y11241036D01*
X2790012Y11246230D01*
X2774424Y11246230D01*
X2764033Y11241036D01*
X2758838Y11235839D01*
X2753644Y11220254D01*
X2753644Y11173495D01*
X2862747Y11316891D02*
G01*
X2753644Y11316891D01*
X2862747Y11280520D02*
G01*
X2862747Y11353258D01*
X2862747Y11387548D02*
G01*
X2753644Y11387548D01*
X2862747Y11387548D02*
G01*
X2753644Y11460284D01*
X2862747Y11460284D02*
G01*
X2753644Y11460284D01*
X2847162Y11556921D02*
G01*
X2857553Y11551724D01*
X2862747Y11536138D01*
X2862747Y11525747D01*
X2857553Y11510159D01*
X2841965Y11499771D01*
X2815988Y11494574D01*
X2790012Y11494574D01*
X2769229Y11499771D01*
X2758838Y11510159D01*
X2753644Y11525747D01*
X2753644Y11530942D01*
X2758838Y11546530D01*
X2769229Y11556921D01*
X2784815Y11562115D01*
X2790012Y11562115D01*
X2805597Y11556921D01*
X2815988Y11546530D01*
X2821183Y11530942D01*
X2821183Y11525747D01*
X2815988Y11510159D01*
X2805597Y11499771D01*
X2790012Y11494574D01*
X3118718Y11158915D02*
G01*
X3009615Y11158915D01*
X3118718Y11158915D02*
G01*
X3118718Y11205674D01*
X3113524Y11221260D01*
X3108327Y11226457D01*
X3097936Y11231651D01*
X3087545Y11231651D01*
X3077154Y11226457D01*
X3071959Y11221260D01*
X3066765Y11205674D01*
X3066765Y11158915D02*
G01*
X3066765Y11205674D01*
X3061568Y11221260D01*
X3056374Y11226457D01*
X3045983Y11231651D01*
X3030395Y11231651D01*
X3020004Y11226457D01*
X3014809Y11221260D01*
X3009615Y11205674D01*
X3009615Y11158915D01*
X3118718Y11302311D02*
G01*
X3009615Y11302311D01*
X3118718Y11265941D02*
G01*
X3118718Y11338679D01*
X3118718Y11372969D02*
G01*
X3009615Y11372969D01*
X3118718Y11372969D02*
G01*
X3009615Y11445704D01*
X3118718Y11445704D02*
G01*
X3009615Y11445704D01*
X3118718Y11505971D02*
G01*
X3113524Y11490385D01*
X3103133Y11485191D01*
X3092742Y11485191D01*
X3082350Y11490385D01*
X3077154Y11500777D01*
X3071959Y11521559D01*
X3066765Y11537144D01*
X3056374Y11547535D01*
X3045983Y11552730D01*
X3030395Y11552730D01*
X3020004Y11547535D01*
X3014809Y11542341D01*
X3009615Y11526753D01*
X3009615Y11505971D01*
X3014809Y11490385D01*
X3020004Y11485191D01*
X3030395Y11479994D01*
X3045983Y11479994D01*
X3056374Y11485191D01*
X3066765Y11495580D01*
X3071959Y11511168D01*
X3077154Y11531950D01*
X3082350Y11542341D01*
X3092742Y11547535D01*
X3103133Y11547535D01*
X3113524Y11542341D01*
X3118718Y11526753D01*
X3118718Y11505971D01*
X3362180Y11159949D02*
G01*
X3253077Y11159949D01*
X3362180Y11159949D02*
G01*
X3362180Y11206708D01*
X3356985Y11222294D01*
X3351789Y11227490D01*
X3341397Y11232685D01*
X3331006Y11232685D01*
X3320615Y11227490D01*
X3315421Y11222294D01*
X3310227Y11206708D01*
X3310227Y11159949D02*
G01*
X3310227Y11206708D01*
X3305030Y11222294D01*
X3299835Y11227490D01*
X3289444Y11232685D01*
X3273856Y11232685D01*
X3263465Y11227490D01*
X3258271Y11222294D01*
X3253077Y11206708D01*
X3253077Y11159949D01*
X3362180Y11303345D02*
G01*
X3253077Y11303345D01*
X3362180Y11266975D02*
G01*
X3362180Y11339713D01*
X3362180Y11374003D02*
G01*
X3253077Y11374003D01*
X3362180Y11374003D02*
G01*
X3253077Y11446738D01*
X3362180Y11446738D02*
G01*
X3253077Y11446738D01*
X3341397Y11481028D02*
G01*
X3346594Y11491419D01*
X3362180Y11507005D01*
X3253077Y11507005D01*
X3362180Y11572468D02*
G01*
X3356985Y11556883D01*
X3341397Y11546492D01*
X3315421Y11541295D01*
X3299835Y11541295D01*
X3273856Y11546492D01*
X3258271Y11556883D01*
X3253077Y11572468D01*
X3253077Y11582859D01*
X3258271Y11598445D01*
X3273856Y11608836D01*
X3299835Y11614033D01*
X3315421Y11614033D01*
X3341397Y11608836D01*
X3356985Y11598445D01*
X3362180Y11582859D01*
X3362180Y11572468D01*
X3615331Y11149977D02*
G01*
X3506228Y11149977D01*
X3615331Y11149977D02*
G01*
X3615331Y11196736D01*
X3610137Y11212321D01*
X3604940Y11217518D01*
X3594549Y11222713D01*
X3584158Y11222713D01*
X3573767Y11217518D01*
X3568572Y11212321D01*
X3563378Y11196736D01*
X3563378Y11149977D02*
G01*
X3563378Y11196736D01*
X3558181Y11212321D01*
X3552987Y11217518D01*
X3542596Y11222713D01*
X3527008Y11222713D01*
X3516617Y11217518D01*
X3511422Y11212321D01*
X3506228Y11196736D01*
X3506228Y11149977D01*
X3615331Y11293373D02*
G01*
X3506228Y11293373D01*
X3615331Y11257003D02*
G01*
X3615331Y11329741D01*
X3615331Y11364031D02*
G01*
X3506228Y11364031D01*
X3615331Y11364031D02*
G01*
X3506228Y11436766D01*
X3615331Y11436766D02*
G01*
X3506228Y11436766D01*
X3594549Y11471056D02*
G01*
X3599746Y11481447D01*
X3615331Y11497033D01*
X3506228Y11497033D01*
X3589355Y11536519D02*
G01*
X3594549Y11536519D01*
X3604940Y11541714D01*
X3610137Y11546911D01*
X3615331Y11557302D01*
X3615331Y11578081D01*
X3610137Y11588473D01*
X3604940Y11593669D01*
X3594549Y11598864D01*
X3584158Y11598864D01*
X3573767Y11593669D01*
X3558181Y11583278D01*
X3506228Y11531323D01*
X3506228Y11604061D01*
X3869519Y11290617D02*
G01*
X3760416Y11332182D01*
X3869519Y11373744D02*
G01*
X3760416Y11332182D01*
X3843543Y11485966D02*
G01*
X3853934Y11480772D01*
X3864325Y11470380D01*
X3869519Y11459989D01*
X3869519Y11439207D01*
X3864325Y11428816D01*
X3853934Y11418425D01*
X3843543Y11413230D01*
X3827955Y11408034D01*
X3801978Y11408034D01*
X3786393Y11413230D01*
X3776002Y11418425D01*
X3765610Y11428816D01*
X3760416Y11439207D01*
X3760416Y11459989D01*
X3765610Y11470380D01*
X3776002Y11480772D01*
X3786393Y11485966D01*
X3843543Y11598188D02*
G01*
X3853934Y11592991D01*
X3864325Y11582603D01*
X3869519Y11572212D01*
X3869519Y11551429D01*
X3864325Y11541038D01*
X3853934Y11530647D01*
X3843543Y11525453D01*
X3827955Y11520256D01*
X3801978Y11520256D01*
X3786393Y11525453D01*
X3776002Y11530647D01*
X3765610Y11541038D01*
X3760416Y11551429D01*
X3760416Y11572212D01*
X3765610Y11582603D01*
X3776002Y11592991D01*
X3786393Y11598188D01*
X4114749Y11372027D02*
G01*
X4125140Y11366830D01*
X4135531Y11356439D01*
X4140725Y11346050D01*
X4140725Y11325268D01*
X4135531Y11314877D01*
X4125140Y11304485D01*
X4114749Y11299289D01*
X4099161Y11294094D01*
X4073184Y11294094D01*
X4057599Y11299289D01*
X4047208Y11304485D01*
X4036816Y11314877D01*
X4031622Y11325268D01*
X4031622Y11346050D01*
X4036816Y11356439D01*
X4047208Y11366830D01*
X4057599Y11372027D01*
X4073184Y11372027D01*
X4073184Y11346050D02*
G01*
X4073184Y11372027D01*
X4140725Y11406317D02*
G01*
X4031622Y11406317D01*
X4140725Y11406317D02*
G01*
X4031622Y11479052D01*
X4140725Y11479052D02*
G01*
X4031622Y11479052D01*
X4140725Y11513342D02*
G01*
X4031622Y11513342D01*
X4140725Y11513342D02*
G01*
X4140725Y11549710D01*
X4135531Y11565298D01*
X4125140Y11575689D01*
X4114749Y11580883D01*
X4099161Y11586080D01*
X4073184Y11586080D01*
X4057599Y11580883D01*
X4047208Y11575689D01*
X4036816Y11565298D01*
X4031622Y11549710D01*
X4031622Y11513342D01*
X3622014Y9989388D02*
G01*
X3627348Y9999802D01*
X3637762Y10010216D01*
X3647922Y10015296D01*
X3668750Y10015296D01*
X3679164Y10010216D01*
X3689578Y9999802D01*
X3694912Y9989388D01*
X3699992Y9973640D01*
X3699992Y9947732D01*
X3694912Y9932238D01*
X3689578Y9921824D01*
X3679164Y9911410D01*
X3668750Y9906330D01*
X3647922Y9906330D01*
X3637762Y9911410D01*
X3627348Y9921824D01*
X3622014Y9932238D01*
X3587724Y9994468D02*
G01*
X3577310Y9999802D01*
X3561816Y10015296D01*
X3561816Y9906330D01*
X5522010Y10116388D02*
G01*
X5527344Y10126802D01*
X5537758Y10137216D01*
X5547918Y10142296D01*
X5568746Y10142296D01*
X5579160Y10137216D01*
X5589574Y10126802D01*
X5594908Y10116388D01*
X5599988Y10100640D01*
X5599988Y10074732D01*
X5594908Y10059238D01*
X5589574Y10048824D01*
X5579160Y10038410D01*
X5568746Y10033330D01*
X5547918Y10033330D01*
X5537758Y10038410D01*
X5527344Y10048824D01*
X5522010Y10059238D01*
X5482640Y10116388D02*
G01*
X5482640Y10121468D01*
X5477306Y10131882D01*
X5472226Y10137216D01*
X5461812Y10142296D01*
X5440984Y10142296D01*
X5430570Y10137216D01*
X5425490Y10131882D01*
X5420156Y10121468D01*
X5420156Y10111054D01*
X5425490Y10100640D01*
X5435904Y10085146D01*
X5487720Y10033330D01*
X5415076Y10033330D01*
X5577966Y7310577D02*
G01*
X5572633Y7300163D01*
X5562218Y7289749D01*
X5552059Y7284669D01*
X5531231Y7284669D01*
X5520816Y7289749D01*
X5510402Y7300163D01*
X5505068Y7310577D01*
X5499988Y7326325D01*
X5499988Y7352233D01*
X5505068Y7367727D01*
X5510402Y7378141D01*
X5520816Y7388555D01*
X5531231Y7393635D01*
X5552059Y7393635D01*
X5562218Y7388555D01*
X5572633Y7378141D01*
X5577966Y7367727D01*
X5622670Y7284669D02*
G01*
X5679820Y7284669D01*
X5648579Y7326325D01*
X5664072Y7326325D01*
X5674486Y7331405D01*
X5679820Y7336485D01*
X5684900Y7352233D01*
X5684900Y7362647D01*
X5679820Y7378141D01*
X5669406Y7388555D01*
X5653659Y7393635D01*
X5638165Y7393635D01*
X5622670Y7388555D01*
X5617336Y7383475D01*
X5612256Y7373061D01*
X7808645Y10718266D02*
G01*
X7813979Y10728680D01*
X7824393Y10739094D01*
X7834553Y10744174D01*
X7855381Y10744174D01*
X7865795Y10739094D01*
X7876209Y10728680D01*
X7881543Y10718266D01*
X7886623Y10702518D01*
X7886623Y10676610D01*
X7881543Y10661116D01*
X7876209Y10650702D01*
X7865795Y10640288D01*
X7855381Y10635208D01*
X7834553Y10635208D01*
X7824393Y10640288D01*
X7813979Y10650702D01*
X7808645Y10661116D01*
X7722539Y10744174D02*
G01*
X7774355Y10671530D01*
X7696377Y10671530D01*
X7722539Y10744174D02*
G01*
X7722539Y10635208D01*
X10983569Y8522004D02*
G01*
X10973155Y8527338D01*
X10962741Y8537752D01*
X10957661Y8547912D01*
X10957661Y8568740D01*
X10962741Y8579154D01*
X10973155Y8589568D01*
X10983569Y8594902D01*
X10999317Y8599982D01*
X11025225Y8599982D01*
X11040719Y8594902D01*
X11051133Y8589568D01*
X11061547Y8579154D01*
X11066627Y8568740D01*
X11066627Y8547912D01*
X11061547Y8537752D01*
X11051133Y8527338D01*
X11040719Y8522004D01*
X10957661Y8425484D02*
G01*
X10957661Y8477300D01*
X11004397Y8482634D01*
X10999317Y8477300D01*
X10993983Y8461806D01*
X10993983Y8446312D01*
X10999317Y8430564D01*
X11009477Y8420150D01*
X11025225Y8415070D01*
X11035639Y8415070D01*
X11051133Y8420150D01*
X11061547Y8430564D01*
X11066627Y8446312D01*
X11066627Y8461806D01*
X11061547Y8477300D01*
X11056467Y8482634D01*
X11046053Y8487714D01*
X8422004Y11316385D02*
G01*
X8427338Y11326799D01*
X8437752Y11337213D01*
X8447913Y11342293D01*
X8468740Y11342293D01*
X8479154Y11337213D01*
X8489568Y11326799D01*
X8494902Y11316385D01*
X8499983Y11300637D01*
X8499983Y11274729D01*
X8494902Y11259235D01*
X8489568Y11248821D01*
X8479154Y11238407D01*
X8468740Y11233327D01*
X8447913Y11233327D01*
X8437752Y11238407D01*
X8427338Y11248821D01*
X8422004Y11259235D01*
X8325484Y11326799D02*
G01*
X8330565Y11337213D01*
X8346313Y11342293D01*
X8356472Y11342293D01*
X8372220Y11337213D01*
X8382634Y11321465D01*
X8387715Y11295557D01*
X8387715Y11269649D01*
X8382634Y11248821D01*
X8372220Y11238407D01*
X8356472Y11233327D01*
X8351393Y11233327D01*
X8335899Y11238407D01*
X8325484Y11248821D01*
X8320150Y11264315D01*
X8320150Y11269649D01*
X8325484Y11285143D01*
X8335899Y11295557D01*
X8351393Y11300637D01*
X8356472Y11300637D01*
X8372220Y11295557D01*
X8382634Y11285143D01*
X8387715Y11269649D01*
X3599992Y9615296D02*
G01*
X3599992Y9506330D01*
X3599992Y9615296D02*
G01*
X3553256Y9615296D01*
X3537762Y9610217D01*
X3532428Y9604883D01*
X3527348Y9594469D01*
X3527348Y9584054D01*
X3532428Y9573640D01*
X3537762Y9568561D01*
X3553256Y9563480D01*
X3599992Y9563480D01*
X3563670Y9563480D02*
G01*
X3527348Y9506330D01*
X3493058Y9594469D02*
G01*
X3482644Y9599803D01*
X3466896Y9615296D01*
X3466896Y9506330D01*
X6099987Y9942296D02*
G01*
X6099987Y9833330D01*
X6099987Y9942296D02*
G01*
X6053251Y9942296D01*
X6037757Y9937216D01*
X6032423Y9931882D01*
X6027343Y9921468D01*
X6027343Y9911054D01*
X6032423Y9900640D01*
X6037757Y9895560D01*
X6053251Y9890480D01*
X6099987Y9890480D01*
X6063665Y9890480D02*
G01*
X6027343Y9833330D01*
X5987719Y9916388D02*
G01*
X5987719Y9921468D01*
X5982639Y9931882D01*
X5977305Y9937216D01*
X5966891Y9942296D01*
X5946317Y9942296D01*
X5935903Y9937216D01*
X5930569Y9931882D01*
X5925489Y9921468D01*
X5925489Y9911054D01*
X5930569Y9900640D01*
X5940983Y9885146D01*
X5993053Y9833330D01*
X5920155Y9833330D01*
X6299987Y7815300D02*
G01*
X6299987Y7706334D01*
X6299987Y7815300D02*
G01*
X6253251Y7815300D01*
X6237757Y7810220D01*
X6232423Y7804886D01*
X6227343Y7794472D01*
X6227343Y7784058D01*
X6232423Y7773644D01*
X6237757Y7768564D01*
X6253251Y7763484D01*
X6299987Y7763484D01*
X6263665Y7763484D02*
G01*
X6227343Y7706334D01*
X6182639Y7815300D02*
G01*
X6125489Y7815300D01*
X6156477Y7773644D01*
X6140983Y7773644D01*
X6130569Y7768564D01*
X6125489Y7763484D01*
X6120155Y7747736D01*
X6120155Y7737322D01*
X6125489Y7721828D01*
X6135903Y7711414D01*
X6151397Y7706334D01*
X6166891Y7706334D01*
X6182639Y7711414D01*
X6187719Y7716494D01*
X6193053Y7726908D01*
X8552756Y10320467D02*
G01*
X8552756Y10211501D01*
X8552756Y10320467D02*
G01*
X8506020Y10320467D01*
X8490526Y10315387D01*
X8485192Y10310053D01*
X8480112Y10299639D01*
X8480112Y10289225D01*
X8485192Y10278811D01*
X8490526Y10273731D01*
X8506020Y10268651D01*
X8552756Y10268651D01*
X8516434Y10268651D02*
G01*
X8480112Y10211501D01*
X8393752Y10320467D02*
G01*
X8445822Y10247823D01*
X8367844Y10247823D01*
X8393752Y10320467D02*
G01*
X8393752Y10211501D01*
X10699978Y9142298D02*
G01*
X10699978Y9033332D01*
X10699978Y9142298D02*
G01*
X10653242Y9142298D01*
X10637748Y9137218D01*
X10632414Y9131884D01*
X10627334Y9121470D01*
X10627334Y9111056D01*
X10632414Y9100642D01*
X10637748Y9095562D01*
X10653242Y9090482D01*
X10699978Y9090482D01*
X10663656Y9090482D02*
G01*
X10627334Y9033332D01*
X10530560Y9142298D02*
G01*
X10582630Y9142298D01*
X10587710Y9095562D01*
X10582630Y9100642D01*
X10566882Y9105976D01*
X10551388Y9105976D01*
X10535894Y9100642D01*
X10525480Y9090482D01*
X10520146Y9074734D01*
X10520146Y9064320D01*
X10525480Y9048826D01*
X10535894Y9038412D01*
X10551388Y9033332D01*
X10566882Y9033332D01*
X10582630Y9038412D01*
X10587710Y9043492D01*
X10593044Y9053906D01*
X9099981Y10815294D02*
G01*
X9099981Y10706328D01*
X9099981Y10815294D02*
G01*
X9053245Y10815294D01*
X9037751Y10810214D01*
X9032417Y10804880D01*
X9027337Y10794466D01*
X9027337Y10784052D01*
X9032417Y10773638D01*
X9037751Y10768558D01*
X9053245Y10763478D01*
X9099981Y10763478D01*
X9063659Y10763478D02*
G01*
X9027337Y10706328D01*
X8930563Y10799800D02*
G01*
X8935897Y10810214D01*
X8951391Y10815294D01*
X8961805Y10815294D01*
X8977299Y10810214D01*
X8987713Y10794466D01*
X8993047Y10768558D01*
X8993047Y10742650D01*
X8987713Y10721822D01*
X8977299Y10711408D01*
X8961805Y10706328D01*
X8956471Y10706328D01*
X8940977Y10711408D01*
X8930563Y10721822D01*
X8925483Y10737316D01*
X8925483Y10742650D01*
X8930563Y10758144D01*
X8940977Y10768558D01*
X8956471Y10773638D01*
X8961805Y10773638D01*
X8977299Y10768558D01*
X8987713Y10758144D01*
X8993047Y10742650D01*
X9222049Y7516347D02*
G01*
X9227245Y7526738D01*
X9237637Y7537129D01*
X9248025Y7542324D01*
X9268807Y7542324D01*
X9279199Y7537129D01*
X9289590Y7526738D01*
X9294787Y7516347D01*
X9299981Y7500759D01*
X9299981Y7474783D01*
X9294787Y7459197D01*
X9289590Y7448806D01*
X9279199Y7438415D01*
X9268807Y7433221D01*
X9248025Y7433221D01*
X9237637Y7438415D01*
X9227245Y7448806D01*
X9222049Y7459197D01*
X9115023Y7542324D02*
G01*
X9166976Y7433221D01*
X9187759Y7542324D02*
G01*
X9115023Y7542324D01*
X12122043Y11116340D02*
G01*
X12127240Y11126731D01*
X12137631Y11137122D01*
X12148019Y11142317D01*
X12168802Y11142317D01*
X12179193Y11137122D01*
X12189584Y11126731D01*
X12194781Y11116340D01*
X12199975Y11100752D01*
X12199975Y11074775D01*
X12194781Y11059190D01*
X12189584Y11048799D01*
X12179193Y11038408D01*
X12168802Y11033213D01*
X12148019Y11033213D01*
X12137631Y11038408D01*
X12127240Y11048799D01*
X12122043Y11059190D01*
X12061776Y11142317D02*
G01*
X12077362Y11137122D01*
X12082559Y11126731D01*
X12082559Y11116340D01*
X12077362Y11105949D01*
X12066971Y11100752D01*
X12046191Y11095558D01*
X12030603Y11090363D01*
X12020212Y11079972D01*
X12015017Y11069581D01*
X12015017Y11053993D01*
X12020212Y11043602D01*
X12025409Y11038408D01*
X12040994Y11033213D01*
X12061776Y11033213D01*
X12077362Y11038408D01*
X12082559Y11043602D01*
X12087753Y11053993D01*
X12087753Y11069581D01*
X12082559Y11079972D01*
X12072167Y11090363D01*
X12056579Y11095558D01*
X12035800Y11100752D01*
X12025409Y11105949D01*
X12020212Y11116340D01*
X12020212Y11126731D01*
X12025409Y11137122D01*
X12040994Y11142317D01*
X12061776Y11142317D01*
X13022041Y7816347D02*
G01*
X13027238Y7826738D01*
X13037629Y7837129D01*
X13048018Y7842323D01*
X13068800Y7842323D01*
X13079191Y7837129D01*
X13089582Y7826738D01*
X13094779Y7816347D01*
X13099973Y7800759D01*
X13099973Y7774782D01*
X13094779Y7759197D01*
X13089582Y7748805D01*
X13079191Y7738414D01*
X13068800Y7733220D01*
X13048018Y7733220D01*
X13037629Y7738414D01*
X13027238Y7748805D01*
X13022041Y7759197D01*
X12920210Y7805955D02*
G01*
X12925407Y7790370D01*
X12935798Y7779979D01*
X12951383Y7774782D01*
X12956578Y7774782D01*
X12972166Y7779979D01*
X12982557Y7790370D01*
X12987751Y7805955D01*
X12987751Y7811150D01*
X12982557Y7826738D01*
X12972166Y7837129D01*
X12956578Y7842323D01*
X12951383Y7842323D01*
X12935798Y7837129D01*
X12925407Y7826738D01*
X12920210Y7805955D01*
X12920210Y7779979D01*
X12925407Y7754000D01*
X12935798Y7738414D01*
X12951383Y7733220D01*
X12961774Y7733220D01*
X12977360Y7738414D01*
X12982557Y7748805D01*
X16522034Y11616339D02*
G01*
X16527231Y11626730D01*
X16537622Y11637121D01*
X16548011Y11642316D01*
X16568793Y11642316D01*
X16579184Y11637121D01*
X16589575Y11626730D01*
X16594772Y11616339D01*
X16599966Y11600751D01*
X16599966Y11574774D01*
X16594772Y11559189D01*
X16589575Y11548798D01*
X16579184Y11538407D01*
X16568793Y11533212D01*
X16548011Y11533212D01*
X16537622Y11538407D01*
X16527231Y11548798D01*
X16522034Y11559189D01*
X16487744Y11621533D02*
G01*
X16477353Y11626730D01*
X16461767Y11642316D01*
X16461767Y11533212D01*
X16396304Y11642316D02*
G01*
X16411892Y11637121D01*
X16422281Y11621533D01*
X16427477Y11595557D01*
X16427477Y11579971D01*
X16422281Y11553992D01*
X16411892Y11538407D01*
X16396304Y11533212D01*
X16385913Y11533212D01*
X16370327Y11538407D01*
X16359936Y11553992D01*
X16354742Y11579971D01*
X16354742Y11595557D01*
X16359936Y11621533D01*
X16370327Y11637121D01*
X16385913Y11642316D01*
X16396304Y11642316D01*
X16522034Y7916346D02*
G01*
X16527231Y7926738D01*
X16537622Y7937129D01*
X16548011Y7942323D01*
X16568793Y7942323D01*
X16579184Y7937129D01*
X16589575Y7926738D01*
X16594772Y7916346D01*
X16599966Y7900758D01*
X16599966Y7874782D01*
X16594772Y7859196D01*
X16589575Y7848805D01*
X16579184Y7838414D01*
X16568793Y7833220D01*
X16548011Y7833220D01*
X16537622Y7838414D01*
X16527231Y7848805D01*
X16522034Y7859196D01*
X16487744Y7921541D02*
G01*
X16477353Y7926738D01*
X16461767Y7942323D01*
X16461767Y7833220D01*
X16427477Y7921541D02*
G01*
X16417086Y7926738D01*
X16401501Y7942323D01*
X16401501Y7833220D01*
X8322050Y6816349D02*
G01*
X8327247Y6826740D01*
X8337638Y6837131D01*
X8348027Y6842325D01*
X8368809Y6842325D01*
X8379200Y6837131D01*
X8389592Y6826740D01*
X8394788Y6816349D01*
X8399983Y6800761D01*
X8399983Y6774784D01*
X8394788Y6759199D01*
X8389592Y6748807D01*
X8379200Y6738416D01*
X8368809Y6733222D01*
X8348027Y6733222D01*
X8337638Y6738416D01*
X8327247Y6748807D01*
X8322050Y6759199D01*
X8287760Y6821543D02*
G01*
X8277369Y6826740D01*
X8261784Y6842325D01*
X8261784Y6733222D01*
X8222297Y6816349D02*
G01*
X8222297Y6821543D01*
X8217103Y6831934D01*
X8211908Y6837131D01*
X8201517Y6842325D01*
X8180735Y6842325D01*
X8170344Y6837131D01*
X8165147Y6831934D01*
X8159953Y6821543D01*
X8159953Y6811152D01*
X8165147Y6800761D01*
X8175538Y6785175D01*
X8227494Y6733222D01*
X8154758Y6733222D01*
X5799988Y11915315D02*
G01*
X5799988Y11806212D01*
X5727252Y11915315D02*
G01*
X5727252Y11806212D01*
X5799988Y11863362D02*
G01*
X5727252Y11863362D01*
X5692962Y11894532D02*
G01*
X5682571Y11899729D01*
X5666983Y11915315D01*
X5666983Y11806212D01*
X10042319Y7599984D02*
G01*
X9933216Y7599984D01*
X10042319Y7599984D02*
G01*
X10042319Y7646743D01*
X10037124Y7662329D01*
X10031928Y7667525D01*
X10021536Y7672720D01*
X10011145Y7672720D01*
X10000754Y7667525D01*
X9995560Y7662329D01*
X9990366Y7646743D01*
X9990366Y7599984D01*
X9990366Y7636352D02*
G01*
X9933216Y7672720D01*
X10042319Y7779748D02*
G01*
X9933216Y7727792D01*
X10042319Y7707010D02*
G01*
X10042319Y7779748D01*
X12457635Y10699978D02*
G01*
X12566738Y10699978D01*
X12457635Y10699978D02*
G01*
X12457635Y10653219D01*
X12462830Y10637634D01*
X12468026Y10632437D01*
X12478418Y10627243D01*
X12488809Y10627243D01*
X12499200Y10632437D01*
X12504394Y10637634D01*
X12509588Y10653219D01*
X12509588Y10699978D01*
X12509588Y10663610D02*
G01*
X12566738Y10627243D01*
X12457635Y10566974D02*
G01*
X12462830Y10582562D01*
X12473221Y10587756D01*
X12483612Y10587756D01*
X12494003Y10582562D01*
X12499200Y10572170D01*
X12504394Y10551388D01*
X12509588Y10535803D01*
X12519980Y10525412D01*
X12530371Y10520215D01*
X12545959Y10520215D01*
X12556350Y10525412D01*
X12561544Y10530606D01*
X12566738Y10546194D01*
X12566738Y10566974D01*
X12561544Y10582562D01*
X12556350Y10587756D01*
X12545959Y10592953D01*
X12530371Y10592953D01*
X12519980Y10587756D01*
X12509588Y10577365D01*
X12504394Y10561779D01*
X12499200Y10540997D01*
X12494003Y10530606D01*
X12483612Y10525412D01*
X12473221Y10525412D01*
X12462830Y10530606D01*
X12457635Y10546194D01*
X12457635Y10566974D01*
X13842311Y7799984D02*
G01*
X13733208Y7799984D01*
X13842311Y7799984D02*
G01*
X13842311Y7846743D01*
X13837117Y7862328D01*
X13831920Y7867525D01*
X13821529Y7872719D01*
X13811138Y7872719D01*
X13800747Y7867525D01*
X13795552Y7862328D01*
X13790358Y7846743D01*
X13790358Y7799984D01*
X13790358Y7836352D02*
G01*
X13733208Y7872719D01*
X13805943Y7974550D02*
G01*
X13790358Y7969356D01*
X13779967Y7958965D01*
X13774770Y7943380D01*
X13774770Y7938183D01*
X13779967Y7922597D01*
X13790358Y7912206D01*
X13805943Y7907009D01*
X13811138Y7907009D01*
X13826726Y7912206D01*
X13837117Y7922597D01*
X13842311Y7938183D01*
X13842311Y7943380D01*
X13837117Y7958965D01*
X13826726Y7969356D01*
X13805943Y7974550D01*
X13779967Y7974550D01*
X13753988Y7969356D01*
X13738402Y7958965D01*
X13733208Y7943380D01*
X13733208Y7932988D01*
X13738402Y7917400D01*
X13748793Y7912206D01*
X16857626Y11299977D02*
G01*
X16966730Y11299977D01*
X16857626Y11299977D02*
G01*
X16857626Y11253218D01*
X16862821Y11237633D01*
X16868018Y11232436D01*
X16878409Y11227241D01*
X16888800Y11227241D01*
X16899191Y11232436D01*
X16904385Y11237633D01*
X16909580Y11253218D01*
X16909580Y11299977D01*
X16909580Y11263609D02*
G01*
X16966730Y11227241D01*
X16878409Y11192951D02*
G01*
X16873212Y11182560D01*
X16857626Y11166972D01*
X16966730Y11166972D01*
X16857626Y11101511D02*
G01*
X16862821Y11117097D01*
X16878409Y11127488D01*
X16904385Y11132682D01*
X16919971Y11132682D01*
X16945950Y11127488D01*
X16961535Y11117097D01*
X16966730Y11101511D01*
X16966730Y11091120D01*
X16961535Y11075532D01*
X16945950Y11065141D01*
X16919971Y11059947D01*
X16904385Y11059947D01*
X16878409Y11065141D01*
X16862821Y11075532D01*
X16857626Y11091120D01*
X16857626Y11101511D01*
X17342304Y7899984D02*
G01*
X17233201Y7899984D01*
X17342304Y7899984D02*
G01*
X17342304Y7946743D01*
X17337110Y7962328D01*
X17331913Y7967525D01*
X17321522Y7972719D01*
X17311131Y7972719D01*
X17300740Y7967525D01*
X17295545Y7962328D01*
X17290351Y7946743D01*
X17290351Y7899984D01*
X17290351Y7936351D02*
G01*
X17233201Y7972719D01*
X17321522Y8007009D02*
G01*
X17326719Y8017400D01*
X17342304Y8032988D01*
X17233201Y8032988D01*
X17321522Y8067278D02*
G01*
X17326719Y8077669D01*
X17342304Y8093255D01*
X17233201Y8093255D01*
X8999981Y6215326D02*
G01*
X8999981Y6106223D01*
X8999981Y6215326D02*
G01*
X8953223Y6215326D01*
X8937637Y6210132D01*
X8932440Y6204935D01*
X8927246Y6194544D01*
X8927246Y6184153D01*
X8932440Y6173762D01*
X8937637Y6168567D01*
X8953223Y6163373D01*
X8999981Y6163373D01*
X8963614Y6163373D02*
G01*
X8927246Y6106223D01*
X8892956Y6194544D02*
G01*
X8882565Y6199741D01*
X8866977Y6215326D01*
X8866977Y6106223D01*
X8827493Y6189350D02*
G01*
X8827493Y6194544D01*
X8822296Y6204935D01*
X8817102Y6210132D01*
X8806710Y6215326D01*
X8785928Y6215326D01*
X8775537Y6210132D01*
X8770343Y6204935D01*
X8765146Y6194544D01*
X8765146Y6184153D01*
X8770343Y6173762D01*
X8780734Y6158176D01*
X8832687Y6106223D01*
X8759952Y6106223D01*
X2757655Y9999979D02*
G01*
X2866758Y9999979D01*
X2757655Y9999979D02*
G01*
X2757655Y9953221D01*
X2762849Y9937635D01*
X2768046Y9932438D01*
X2778437Y9927244D01*
X2788828Y9927244D01*
X2799219Y9932438D01*
X2804413Y9937635D01*
X2809608Y9953221D01*
X2809608Y9999979D01*
X2809608Y9963612D02*
G01*
X2866758Y9927244D01*
X2778437Y9892954D02*
G01*
X2773240Y9882563D01*
X2757655Y9866975D01*
X2866758Y9866975D01*
X2757655Y9822294D02*
G01*
X2757655Y9765144D01*
X2799219Y9796317D01*
X2799219Y9780732D01*
X2804413Y9770341D01*
X2809608Y9765144D01*
X2825196Y9759950D01*
X2835587Y9759950D01*
X2851172Y9765144D01*
X2861563Y9775535D01*
X2866758Y9791123D01*
X2866758Y9806708D01*
X2861563Y9822294D01*
X2856369Y9827491D01*
X2845978Y9832685D01*
X5699988Y8215322D02*
G01*
X5699988Y8106219D01*
X5699988Y8215322D02*
G01*
X5653229Y8215322D01*
X5637644Y8210128D01*
X5632447Y8204931D01*
X5627253Y8194540D01*
X5627253Y8184149D01*
X5632447Y8173758D01*
X5637644Y8168563D01*
X5653229Y8163369D01*
X5699988Y8163369D01*
X5663620Y8163369D02*
G01*
X5627253Y8106219D01*
X5592963Y8194540D02*
G01*
X5582572Y8199737D01*
X5566984Y8215322D01*
X5566984Y8106219D01*
X5470349Y8215322D02*
G01*
X5522302Y8215322D01*
X5527499Y8168563D01*
X5522302Y8173758D01*
X5506717Y8178954D01*
X5491132Y8178954D01*
X5475544Y8173758D01*
X5465152Y8163369D01*
X5459958Y8147781D01*
X5459958Y8137390D01*
X5465152Y8121804D01*
X5475544Y8111413D01*
X5491132Y8106219D01*
X5506717Y8106219D01*
X5522302Y8111413D01*
X5527499Y8116608D01*
X5532694Y8126999D01*
X7473076Y10198387D02*
G01*
X7473076Y10089283D01*
X7473076Y10198387D02*
G01*
X7426317Y10198387D01*
X7410731Y10193192D01*
X7405535Y10187995D01*
X7400340Y10177604D01*
X7400340Y10167213D01*
X7405535Y10156822D01*
X7410731Y10151628D01*
X7426317Y10146433D01*
X7473076Y10146433D01*
X7436708Y10146433D02*
G01*
X7400340Y10089283D01*
X7366050Y10177604D02*
G01*
X7355659Y10182801D01*
X7340071Y10198387D01*
X7340071Y10089283D01*
X7243437Y10182801D02*
G01*
X7248631Y10193192D01*
X7264219Y10198387D01*
X7274610Y10198387D01*
X7290196Y10193192D01*
X7300587Y10177604D01*
X7305781Y10151628D01*
X7305781Y10125651D01*
X7300587Y10104869D01*
X7290196Y10094478D01*
X7274610Y10089283D01*
X7269413Y10089283D01*
X7253828Y10094478D01*
X7243437Y10104869D01*
X7238240Y10120454D01*
X7238240Y10125651D01*
X7243437Y10141237D01*
X7253828Y10151628D01*
X7269413Y10156822D01*
X7274610Y10156822D01*
X7290196Y10151628D01*
X7300587Y10141237D01*
X7305781Y10125651D01*
X10699978Y8642322D02*
G01*
X10699978Y8533218D01*
X10699978Y8642322D02*
G01*
X10653219Y8642322D01*
X10637634Y8637127D01*
X10632437Y8631930D01*
X10627243Y8621539D01*
X10627243Y8611148D01*
X10632437Y8600757D01*
X10637634Y8595563D01*
X10653219Y8590368D01*
X10699978Y8590368D01*
X10663610Y8590368D02*
G01*
X10627243Y8533218D01*
X10592953Y8621539D02*
G01*
X10582562Y8626736D01*
X10566974Y8642322D01*
X10566974Y8533218D01*
X10459948Y8642322D02*
G01*
X10511904Y8533218D01*
X10532684Y8642322D02*
G01*
X10459948Y8642322D01*
X8699982Y10715317D02*
G01*
X8699982Y10606214D01*
X8699982Y10715317D02*
G01*
X8653223Y10715317D01*
X8637638Y10710123D01*
X8632441Y10704926D01*
X8627247Y10694535D01*
X8627247Y10684144D01*
X8632441Y10673753D01*
X8637638Y10668558D01*
X8653223Y10663364D01*
X8699982Y10663364D01*
X8663614Y10663364D02*
G01*
X8627247Y10606214D01*
X8592957Y10694535D02*
G01*
X8582566Y10699732D01*
X8566978Y10715317D01*
X8566978Y10606214D01*
X8506711Y10715317D02*
G01*
X8522296Y10710123D01*
X8527493Y10699732D01*
X8527493Y10689341D01*
X8522296Y10678949D01*
X8511908Y10673753D01*
X8491126Y10668558D01*
X8475538Y10663364D01*
X8465146Y10652973D01*
X8459952Y10642582D01*
X8459952Y10626994D01*
X8465146Y10616603D01*
X8470343Y10611408D01*
X8485929Y10606214D01*
X8506711Y10606214D01*
X8522296Y10611408D01*
X8527493Y10616603D01*
X8532688Y10626994D01*
X8532688Y10642582D01*
X8527493Y10652973D01*
X8517102Y10663364D01*
X8501517Y10668558D01*
X8480734Y10673753D01*
X8470343Y10678949D01*
X8465146Y10689341D01*
X8465146Y10699732D01*
X8470343Y10710123D01*
X8485929Y10715317D01*
X8506711Y10715317D01*
X9099981Y7815323D02*
G01*
X9099981Y7706220D01*
X9099981Y7815323D02*
G01*
X9053222Y7815323D01*
X9037637Y7810129D01*
X9032440Y7804932D01*
X9027246Y7794541D01*
X9027246Y7784150D01*
X9032440Y7773758D01*
X9037637Y7768564D01*
X9053222Y7763370D01*
X9099981Y7763370D01*
X9063614Y7763370D02*
G01*
X9027246Y7706220D01*
X8992956Y7794541D02*
G01*
X8982565Y7799738D01*
X8966977Y7815323D01*
X8966977Y7706220D01*
X8865146Y7778955D02*
G01*
X8870342Y7763370D01*
X8880734Y7752979D01*
X8896319Y7747782D01*
X8901516Y7747782D01*
X8917101Y7752979D01*
X8927492Y7763370D01*
X8932687Y7778955D01*
X8932687Y7784150D01*
X8927492Y7799738D01*
X8917101Y7810129D01*
X8901516Y7815323D01*
X8896319Y7815323D01*
X8880734Y7810129D01*
X8870342Y7799738D01*
X8865146Y7778955D01*
X8865146Y7752979D01*
X8870342Y7727000D01*
X8880734Y7711414D01*
X8896319Y7706220D01*
X8906710Y7706220D01*
X8922296Y7711414D01*
X8927492Y7721805D01*
X12399975Y10415318D02*
G01*
X12399975Y10306215D01*
X12399975Y10415318D02*
G01*
X12353216Y10415318D01*
X12337630Y10410123D01*
X12332434Y10404927D01*
X12327239Y10394535D01*
X12327239Y10384144D01*
X12332434Y10373753D01*
X12337630Y10368559D01*
X12353216Y10363365D01*
X12399975Y10363365D01*
X12363607Y10363365D02*
G01*
X12327239Y10306215D01*
X12287752Y10389341D02*
G01*
X12287752Y10394535D01*
X12282558Y10404927D01*
X12277361Y10410123D01*
X12266970Y10415318D01*
X12246190Y10415318D01*
X12235799Y10410123D01*
X12230602Y10404927D01*
X12225408Y10394535D01*
X12225408Y10384144D01*
X12230602Y10373753D01*
X12240994Y10358168D01*
X12292949Y10306215D01*
X12220211Y10306215D01*
X12154750Y10415318D02*
G01*
X12170336Y10410123D01*
X12180727Y10394535D01*
X12185921Y10368559D01*
X12185921Y10352973D01*
X12180727Y10326994D01*
X12170336Y10311409D01*
X12154750Y10306215D01*
X12144359Y10306215D01*
X12128771Y10311409D01*
X12118380Y10326994D01*
X12113186Y10352973D01*
X12113186Y10368559D01*
X12118380Y10394535D01*
X12128771Y10410123D01*
X12144359Y10415318D01*
X12154750Y10415318D01*
X12899974Y8115322D02*
G01*
X12899974Y8006219D01*
X12899974Y8115322D02*
G01*
X12853215Y8115322D01*
X12837629Y8110128D01*
X12832433Y8104931D01*
X12827238Y8094540D01*
X12827238Y8084149D01*
X12832433Y8073758D01*
X12837629Y8068563D01*
X12853215Y8063369D01*
X12899974Y8063369D01*
X12863606Y8063369D02*
G01*
X12827238Y8006219D01*
X12787751Y8089346D02*
G01*
X12787751Y8094540D01*
X12782557Y8104931D01*
X12777360Y8110128D01*
X12766969Y8115322D01*
X12746189Y8115322D01*
X12735798Y8110128D01*
X12730601Y8104931D01*
X12725407Y8094540D01*
X12725407Y8084149D01*
X12730601Y8073758D01*
X12740993Y8058172D01*
X12792948Y8006219D01*
X12720210Y8006219D01*
X12685920Y8094540D02*
G01*
X12675529Y8099737D01*
X12659944Y8115322D01*
X12659944Y8006219D01*
X16499966Y11015317D02*
G01*
X16499966Y10906213D01*
X16499966Y11015317D02*
G01*
X16453208Y11015317D01*
X16437622Y11010122D01*
X16432425Y11004925D01*
X16427231Y10994534D01*
X16427231Y10984143D01*
X16432425Y10973752D01*
X16437622Y10968558D01*
X16453208Y10963363D01*
X16499966Y10963363D01*
X16463599Y10963363D02*
G01*
X16427231Y10906213D01*
X16387744Y10989340D02*
G01*
X16387744Y10994534D01*
X16382550Y11004925D01*
X16377353Y11010122D01*
X16366962Y11015317D01*
X16346182Y11015317D01*
X16335791Y11010122D01*
X16330594Y11004925D01*
X16325400Y10994534D01*
X16325400Y10984143D01*
X16330594Y10973752D01*
X16340985Y10958167D01*
X16392941Y10906213D01*
X16320203Y10906213D01*
X16280719Y10989340D02*
G01*
X16280719Y10994534D01*
X16275522Y11004925D01*
X16270328Y11010122D01*
X16259936Y11015317D01*
X16239154Y11015317D01*
X16228763Y11010122D01*
X16223569Y11004925D01*
X16218372Y10994534D01*
X16218372Y10984143D01*
X16223569Y10973752D01*
X16233960Y10958167D01*
X16285913Y10906213D01*
X16213178Y10906213D01*
X16399967Y8215322D02*
G01*
X16399967Y8106219D01*
X16399967Y8215322D02*
G01*
X16353208Y8215322D01*
X16337622Y8210128D01*
X16332426Y8204931D01*
X16327231Y8194540D01*
X16327231Y8184149D01*
X16332426Y8173758D01*
X16337622Y8168563D01*
X16353208Y8163369D01*
X16399967Y8163369D01*
X16363599Y8163369D02*
G01*
X16327231Y8106219D01*
X16287744Y8189346D02*
G01*
X16287744Y8194540D01*
X16282550Y8204931D01*
X16277353Y8210128D01*
X16266962Y8215322D01*
X16246182Y8215322D01*
X16235791Y8210128D01*
X16230594Y8204931D01*
X16225400Y8194540D01*
X16225400Y8184149D01*
X16230594Y8173758D01*
X16240986Y8158172D01*
X16292941Y8106219D01*
X16220203Y8106219D01*
X16175522Y8215322D02*
G01*
X16118372Y8215322D01*
X16149546Y8173758D01*
X16133960Y8173758D01*
X16123569Y8168563D01*
X16118372Y8163369D01*
X16113178Y8147781D01*
X16113178Y8137390D01*
X16118372Y8121804D01*
X16128763Y8111413D01*
X16144351Y8106219D01*
X16159937Y8106219D01*
X16175522Y8111413D01*
X16180719Y8116608D01*
X16185913Y8126999D01*
X8499983Y6215326D02*
G01*
X8499983Y6106223D01*
X8499983Y6215326D02*
G01*
X8453224Y6215326D01*
X8437638Y6210132D01*
X8432441Y6204935D01*
X8427247Y6194544D01*
X8427247Y6184153D01*
X8432441Y6173762D01*
X8437638Y6168567D01*
X8453224Y6163373D01*
X8499983Y6163373D01*
X8463615Y6163373D02*
G01*
X8427247Y6106223D01*
X8387760Y6189350D02*
G01*
X8387760Y6194544D01*
X8382566Y6204935D01*
X8377369Y6210132D01*
X8366978Y6215326D01*
X8346198Y6215326D01*
X8335807Y6210132D01*
X8330610Y6204935D01*
X8325416Y6194544D01*
X8325416Y6184153D01*
X8330610Y6173762D01*
X8341001Y6158176D01*
X8392957Y6106223D01*
X8320219Y6106223D01*
X8233976Y6215326D02*
G01*
X8285929Y6142591D01*
X8207997Y6142591D01*
X8233976Y6215326D02*
G01*
X8233976Y6106223D01*
X17784625Y11999976D02*
G01*
X17893728Y11999976D01*
X17784625Y11999976D02*
G01*
X17784625Y11953217D01*
X17789819Y11937631D01*
X17795016Y11932434D01*
X17805407Y11927240D01*
X17815798Y11927240D01*
X17826189Y11932434D01*
X17831384Y11937631D01*
X17836578Y11953217D01*
X17836578Y11999976D01*
X17836578Y11963608D02*
G01*
X17893728Y11927240D01*
X17810601Y11887753D02*
G01*
X17805407Y11887753D01*
X17795016Y11882559D01*
X17789819Y11877362D01*
X17784625Y11866971D01*
X17784625Y11846191D01*
X17789819Y11835800D01*
X17795016Y11830603D01*
X17805407Y11825409D01*
X17815798Y11825409D01*
X17826189Y11830603D01*
X17841775Y11840994D01*
X17893728Y11892950D01*
X17893728Y11820212D01*
X17784625Y11723578D02*
G01*
X17784625Y11775531D01*
X17831384Y11780728D01*
X17826189Y11775531D01*
X17820993Y11759945D01*
X17820993Y11744360D01*
X17826189Y11728772D01*
X17836578Y11718381D01*
X17852166Y11713187D01*
X17862557Y11713187D01*
X17878143Y11718381D01*
X17888534Y11728772D01*
X17893728Y11744360D01*
X17893728Y11759945D01*
X17888534Y11775531D01*
X17883339Y11780728D01*
X17872948Y11785922D01*
X3490353Y10181099D02*
G01*
X3490353Y10040099D01*
X3309632Y10040099D02*
G01*
X3309632Y10181099D01*
X3324872Y10196339D02*
G01*
X3475113Y10196339D01*
X3490353Y9818860D02*
G01*
X3490353Y9959860D01*
X3309632Y9959860D02*
G01*
X3309632Y9818860D01*
X3324872Y9803620D02*
G01*
X3475113Y9803620D01*
X5418869Y9990340D02*
G01*
X5559869Y9990340D01*
X5559869Y9809619D02*
G01*
X5418869Y9809619D01*
X5403629Y9824859D02*
G01*
X5403629Y9975100D01*
X5781108Y9990340D02*
G01*
X5640108Y9990340D01*
X5640108Y9809619D02*
G01*
X5781108Y9809619D01*
X5796348Y9824859D02*
G01*
X5796348Y9975100D01*
X5418869Y7690345D02*
G01*
X5559869Y7690345D01*
X5559869Y7509624D02*
G01*
X5418869Y7509624D01*
X5403629Y7524864D02*
G01*
X5403629Y7675105D01*
X5781108Y7690345D02*
G01*
X5640108Y7690345D01*
X5640108Y7509624D02*
G01*
X5781108Y7509624D01*
X5796348Y7524864D02*
G01*
X5796348Y7675105D01*
X7605504Y10619219D02*
G01*
X7746504Y10619219D01*
X7746504Y10438498D02*
G01*
X7605504Y10438498D01*
X7590264Y10453738D02*
G01*
X7590264Y10603979D01*
X7967743Y10619219D02*
G01*
X7826743Y10619219D01*
X7826743Y10438498D02*
G01*
X7967743Y10438498D01*
X7982983Y10453738D02*
G01*
X7982983Y10603979D01*
X11109617Y8418863D02*
G01*
X11109617Y8559863D01*
X11290338Y8559863D02*
G01*
X11290338Y8418863D01*
X11275098Y8403623D02*
G01*
X11124857Y8403623D01*
X11109617Y8781102D02*
G01*
X11109617Y8640102D01*
X11290338Y8640102D02*
G01*
X11290338Y8781102D01*
X11275098Y8796342D02*
G01*
X11124857Y8796342D01*
X8318863Y11190338D02*
G01*
X8459863Y11190338D01*
X8459863Y11009617D02*
G01*
X8318863Y11009617D01*
X8303623Y11024857D02*
G01*
X8303623Y11175098D01*
X8681102Y11190338D02*
G01*
X8540102Y11190338D01*
X8540102Y11009617D02*
G01*
X8681102Y11009617D01*
X8696342Y11024857D02*
G01*
X8696342Y11175098D01*
X3152373Y9508271D02*
G01*
X3023880Y9508271D01*
X3023880Y9691690D01*
X3152373Y9691690D01*
X3247613Y9508271D02*
G01*
X3376107Y9508271D01*
X3376107Y9691690D01*
X3247613Y9691690D01*
X6052367Y9608271D02*
G01*
X5923874Y9608271D01*
X5923874Y9791689D01*
X6052367Y9791689D01*
X6147607Y9608271D02*
G01*
X6276101Y9608271D01*
X6276101Y9791689D01*
X6147607Y9791689D01*
X6152367Y7908274D02*
G01*
X6023874Y7908274D01*
X6023874Y8091693D01*
X6152367Y8091693D01*
X6247607Y7908274D02*
G01*
X6376101Y7908274D01*
X6376101Y8091693D01*
X6247607Y8091693D01*
X8344466Y10257530D02*
G01*
X8344466Y10129037D01*
X8161047Y10129037D01*
X8161047Y10257530D01*
X8344466Y10352770D02*
G01*
X8344466Y10481264D01*
X8161047Y10481264D01*
X8161047Y10352770D01*
X10652358Y8808272D02*
G01*
X10523865Y8808272D01*
X10523865Y8991691D01*
X10652358Y8991691D01*
X10747598Y8808272D02*
G01*
X10876092Y8808272D01*
X10876092Y8991691D01*
X10747598Y8991691D01*
X9091691Y10952358D02*
G01*
X9091691Y10823864D01*
X8908272Y10823864D01*
X8908272Y10952358D01*
X9091691Y11047597D02*
G01*
X9091691Y11176091D01*
X8908272Y11176091D01*
X8908272Y11047597D01*
X9118836Y7390320D02*
G01*
X9259836Y7390320D01*
X9259836Y7209599D02*
G01*
X9118836Y7209599D01*
X9103596Y7224839D02*
G01*
X9103596Y7375080D01*
X9481075Y7390320D02*
G01*
X9340075Y7390320D01*
X9340075Y7209599D02*
G01*
X9481075Y7209599D01*
X9496315Y7224839D02*
G01*
X9496315Y7375080D01*
X12018754Y10990262D02*
G01*
X12159754Y10990262D01*
X12159754Y10809541D02*
G01*
X12018754Y10809541D01*
X12003514Y10824781D02*
G01*
X12003514Y10975022D01*
X12380993Y10990262D02*
G01*
X12239993Y10990262D01*
X12239993Y10809541D02*
G01*
X12380993Y10809541D01*
X12396233Y10824781D02*
G01*
X12396233Y10975022D01*
X12918930Y7690294D02*
G01*
X13059930Y7690294D01*
X13059930Y7509573D02*
G01*
X12918930Y7509573D01*
X12903690Y7524813D02*
G01*
X12903690Y7675054D01*
X13281169Y7690294D02*
G01*
X13140169Y7690294D01*
X13140169Y7509573D02*
G01*
X13281169Y7509573D01*
X13296409Y7524813D02*
G01*
X13296409Y7675054D01*
X16418796Y11490388D02*
G01*
X16559796Y11490388D01*
X16559796Y11309667D02*
G01*
X16418796Y11309667D01*
X16403556Y11324907D02*
G01*
X16403556Y11475148D01*
X16781035Y11490388D02*
G01*
X16640035Y11490388D01*
X16640035Y11309667D02*
G01*
X16781035Y11309667D01*
X16796275Y11324907D02*
G01*
X16796275Y11475148D01*
X16418796Y7790370D02*
G01*
X16559796Y7790370D01*
X16559796Y7609649D02*
G01*
X16418796Y7609649D01*
X16403556Y7624889D02*
G01*
X16403556Y7775130D01*
X16781035Y7790370D02*
G01*
X16640035Y7790370D01*
X16640035Y7609649D02*
G01*
X16781035Y7609649D01*
X16796275Y7624889D02*
G01*
X16796275Y7775130D01*
X8218914Y6690296D02*
G01*
X8359914Y6690296D01*
X8359914Y6509575D02*
G01*
X8218914Y6509575D01*
X8203674Y6524815D02*
G01*
X8203674Y6675056D01*
X8581153Y6690296D02*
G01*
X8440153Y6690296D01*
X8440153Y6509575D02*
G01*
X8581153Y6509575D01*
X8596393Y6524815D02*
G01*
X8596393Y6675056D01*
D11*
X2183891Y12153900D02*
G01*
X4215891Y12153900D01*
X4215891Y11645900D01*
X2183891Y11645900D01*
X2183891Y12153900D01*
D10*
X9708372Y7647553D02*
G01*
X9708372Y7776047D01*
X9891791Y7776047D01*
X9891791Y7647553D01*
X9708372Y7552314D02*
G01*
X9708372Y7423820D01*
X9891791Y7423820D01*
X9891791Y7552314D01*
X12791709Y10652384D02*
G01*
X12791709Y10523890D01*
X12608290Y10523890D01*
X12608290Y10652384D01*
X12791709Y10747623D02*
G01*
X12791709Y10876117D01*
X12608290Y10876117D01*
X12608290Y10747623D01*
X13508212Y7847705D02*
G01*
X13508212Y7976199D01*
X13691631Y7976199D01*
X13691631Y7847705D01*
X13508212Y7752466D02*
G01*
X13508212Y7623972D01*
X13691631Y7623972D01*
X13691631Y7752466D01*
X17191751Y11252332D02*
G01*
X17191751Y11123838D01*
X17008332Y11123838D01*
X17008332Y11252332D01*
X17191751Y11347571D02*
G01*
X17191751Y11476065D01*
X17008332Y11476065D01*
X17008332Y11347571D01*
X17008332Y7947527D02*
G01*
X17008332Y8076021D01*
X17191751Y8076021D01*
X17191751Y7947527D01*
X17008332Y7852288D02*
G01*
X17008332Y7723794D01*
X17191751Y7723794D01*
X17191751Y7852288D01*
X8891793Y6352418D02*
G01*
X8891793Y6223924D01*
X8708374Y6223924D01*
X8708374Y6352418D01*
X8891793Y6447657D02*
G01*
X8891793Y6576151D01*
X8708374Y6576151D01*
X8708374Y6447657D01*
X3091703Y9952360D02*
G01*
X3091703Y9823866D01*
X2908284Y9823866D01*
X2908284Y9952360D01*
X3091703Y10047599D02*
G01*
X3091703Y10176093D01*
X2908284Y10176093D01*
X2908284Y10047599D01*
X5647608Y9591690D02*
G01*
X5776102Y9591690D01*
X5776102Y9408271D01*
X5647608Y9408271D01*
X5552368Y9591690D02*
G01*
X5423875Y9591690D01*
X5423875Y9408271D01*
X5552368Y9408271D01*
X5647557Y8091693D02*
G01*
X5776051Y8091693D01*
X5776051Y7908274D01*
X5647557Y7908274D01*
X5552318Y8091693D02*
G01*
X5423824Y8091693D01*
X5423824Y7908274D01*
X5552318Y7908274D01*
X7820781Y10274823D02*
G01*
X7949275Y10274823D01*
X7949275Y10091404D01*
X7820781Y10091404D01*
X7725542Y10274823D02*
G01*
X7597048Y10274823D01*
X7597048Y10091404D01*
X7725542Y10091404D01*
X10652384Y8308324D02*
G01*
X10523890Y8308324D01*
X10523890Y8491743D01*
X10652384Y8491743D01*
X10747623Y8308324D02*
G01*
X10876117Y8308324D01*
X10876117Y8491743D01*
X10747623Y8491743D01*
X8547729Y10891789D02*
G01*
X8676223Y10891789D01*
X8676223Y10708370D01*
X8547729Y10708370D01*
X8452490Y10891789D02*
G01*
X8323996Y10891789D01*
X8323996Y10708370D01*
X8452490Y10708370D01*
X9347575Y7891795D02*
G01*
X9476069Y7891795D01*
X9476069Y7708376D01*
X9347575Y7708376D01*
X9252336Y7891795D02*
G01*
X9123842Y7891795D01*
X9123842Y7708376D01*
X9252336Y7708376D01*
X12247493Y10691637D02*
G01*
X12375987Y10691637D01*
X12375987Y10508218D01*
X12247493Y10508218D01*
X12152254Y10691637D02*
G01*
X12023760Y10691637D01*
X12023760Y10508218D01*
X12152254Y10508218D01*
X13147669Y8091693D02*
G01*
X13276163Y8091693D01*
X13276163Y7908274D01*
X13147669Y7908274D01*
X13052430Y8091693D02*
G01*
X12923936Y8091693D01*
X12923936Y7908274D01*
X13052430Y7908274D01*
X16647535Y11191763D02*
G01*
X16776029Y11191763D01*
X16776029Y11008344D01*
X16647535Y11008344D01*
X16552296Y11191763D02*
G01*
X16423802Y11191763D01*
X16423802Y11008344D01*
X16552296Y11008344D01*
X16647535Y8191769D02*
G01*
X16776029Y8191769D01*
X16776029Y8008350D01*
X16647535Y8008350D01*
X16552296Y8191769D02*
G01*
X16423802Y8191769D01*
X16423802Y8008350D01*
X16552296Y8008350D01*
X8447653Y6391671D02*
G01*
X8576147Y6391671D01*
X8576147Y6208252D01*
X8447653Y6208252D01*
X8352414Y6391671D02*
G01*
X8223920Y6391671D01*
X8223920Y6208252D01*
X8352414Y6208252D01*
X17508204Y11947519D02*
G01*
X17508204Y12076013D01*
X17691623Y12076013D01*
X17691623Y11947519D01*
X17508204Y11852280D02*
G01*
X17508204Y11723786D01*
X17691623Y11723786D01*
X17691623Y11852280D01*
G75*
G01*
X3309633Y10181100D02*
G02*
X3324873Y10196340I15240J0D01*
G75*
G01*
X3475114Y10196340D02*
G02*
X3490354Y10181100I0J-15240D01*
G75*
G01*
X3309633Y9818860D02*
G03*
X3324873Y9803620I15240J0D01*
G75*
G01*
X3475114Y9803620D02*
G03*
X3490354Y9818860I0J15240D01*
G75*
G01*
X5418869Y9809620D02*
G02*
X5403629Y9824860I0J15240D01*
G75*
G01*
X5403629Y9975101D02*
G02*
X5418869Y9990341I15240J0D01*
G75*
G01*
X5781109Y9809620D02*
G03*
X5796349Y9824860I0J15240D01*
G75*
G01*
X5796349Y9975101D02*
G03*
X5781109Y9990341I-15240J0D01*
G75*
G01*
X5418869Y7509624D02*
G02*
X5403629Y7524864I0J15240D01*
G75*
G01*
X5403629Y7675105D02*
G02*
X5418869Y7690345I15240J0D01*
G75*
G01*
X5781109Y7509624D02*
G03*
X5796349Y7524864I0J15240D01*
G75*
G01*
X5796349Y7675105D02*
G03*
X5781109Y7690345I-15240J0D01*
G75*
G01*
X7605504Y10438498D02*
G02*
X7590264Y10453738I0J15240D01*
G75*
G01*
X7590264Y10603979D02*
G02*
X7605504Y10619219I15240J0D01*
G75*
G01*
X7967744Y10438498D02*
G03*
X7982984Y10453738I0J15240D01*
G75*
G01*
X7982984Y10603979D02*
G03*
X7967744Y10619219I-15240J0D01*
G75*
G01*
X11290338Y8418863D02*
G02*
X11275098Y8403623I-15240J0D01*
G75*
G01*
X11124857Y8403623D02*
G02*
X11109617Y8418863I0J15240D01*
G75*
G01*
X11290338Y8781103D02*
G03*
X11275098Y8796343I-15240J0D01*
G75*
G01*
X11124857Y8796343D02*
G03*
X11109617Y8781103I0J-15240D01*
G75*
G01*
X8318863Y11009617D02*
G02*
X8303623Y11024857I0J15240D01*
G75*
G01*
X8303623Y11175098D02*
G02*
X8318863Y11190338I15240J0D01*
G75*
G01*
X8681103Y11009617D02*
G03*
X8696343Y11024857I0J15240D01*
G75*
G01*
X8696343Y11175098D02*
G03*
X8681103Y11190338I-15240J0D01*
G75*
G01*
X9118836Y7209600D02*
G02*
X9103596Y7224840I0J15240D01*
G75*
G01*
X9103596Y7375081D02*
G02*
X9118836Y7390321I15240J0D01*
G75*
G01*
X9481076Y7209600D02*
G03*
X9496316Y7224840I0J15240D01*
G75*
G01*
X9496316Y7375081D02*
G03*
X9481076Y7390321I-15240J0D01*
G75*
G01*
X12018754Y10809542D02*
G02*
X12003514Y10824782I0J15240D01*
G75*
G01*
X12003514Y10975023D02*
G02*
X12018754Y10990263I15240J-1D01*
G75*
G01*
X12380994Y10809542D02*
G03*
X12396234Y10824782I0J15240D01*
G75*
G01*
X12396234Y10975023D02*
G03*
X12380994Y10990263I-15240J-1D01*
G75*
G01*
X12918930Y7509574D02*
G02*
X12903690Y7524814I0J15240D01*
G75*
G01*
X12903690Y7675055D02*
G02*
X12918930Y7690294I15240J-1D01*
G75*
G01*
X13281170Y7509574D02*
G03*
X13296410Y7524814I0J15240D01*
G75*
G01*
X13296410Y7675055D02*
G03*
X13281170Y7690294I-15240J-1D01*
G75*
G01*
X16418796Y11309667D02*
G02*
X16403556Y11324908I0J15240D01*
G75*
G01*
X16403556Y11475149D02*
G02*
X16418796Y11490389I15240J0D01*
G75*
G01*
X16781036Y11309667D02*
G03*
X16796276Y11324908I0J15240D01*
G75*
G01*
X16796276Y11475149D02*
G03*
X16781036Y11490389I-15240J0D01*
G75*
G01*
X16418796Y7609650D02*
G02*
X16403556Y7624890I0J15240D01*
G75*
G01*
X16403556Y7775131D02*
G02*
X16418796Y7790371I15240J0D01*
G75*
G01*
X16781036Y7609650D02*
G03*
X16796276Y7624890I0J15240D01*
G75*
G01*
X16796276Y7775131D02*
G03*
X16781036Y7790371I-15240J0D01*
G75*
G01*
X8218914Y6509575D02*
G02*
X8203674Y6524816I0J15240D01*
G75*
G01*
X8203674Y6675057D02*
G02*
X8218914Y6690297I15240J-1D01*
G75*
G01*
X8581154Y6509575D02*
G03*
X8596394Y6524816I0J15240D01*
G75*
G01*
X8596394Y6675057D02*
G03*
X8581154Y6690297I-15240J-1D01*
D12*
G75*
G01
X2193315Y12212277D02*
G03X2193315Y12212277I-11476J0D01*
M02*
