G04 Layer: TopLayer*
G04 EasyEDA v6.5.38, 2023-12-05 17:56:17*
G04 681b97978217455484aa44bc4d5c6028,9f3f2715377c499da2f37e4e16011465,10*
G04 Gerber Generator version 0.2*
G04 Scale: 100 percent, Rotated: No, Reflected: No *
G04 Dimensions in millimeters *
G04 leading zeros omitted , absolute positions ,4 integer and 5 decimal *
%FSLAX45Y45*%
%MOMM*%

%AMMACRO1*21,1,$1,$2,0,0,$3*%
%ADD10C,0.2540*%
%ADD11MACRO1,1.035X1.0325X0.0000*%
%ADD12C,1.8000*%
%ADD13C,1.5748*%
%ADD14MACRO1,1.5748X1.5748X0.0000*%

%LPD*%
D10*
X5474868Y10274935D02*
G01*
X6125108Y10274935D01*
X5474970Y8975089D02*
G01*
X5100065Y9349994D01*
X5100065Y10349992D01*
X5474970Y10725150D01*
X10599927Y10899902D02*
G01*
X8900159Y12599924D01*
X2999993Y12599924D01*
X2818891Y12419076D01*
X2818891Y12026900D01*
X5474868Y10725022D02*
G01*
X6125108Y10725022D01*
X3834993Y11772976D02*
G01*
X4882946Y10725022D01*
X5474868Y10725022D01*
X6800093Y10199880D02*
G01*
X6800093Y10599930D01*
X5500115Y11899900D01*
X5500115Y12149848D01*
X5149989Y12499975D01*
X3199886Y12499975D01*
X3072993Y12373081D01*
X3072993Y12026976D01*
X6499859Y9899904D02*
G01*
X6499859Y10800079D01*
X5199888Y12100052D01*
X5199888Y12199874D01*
X4999990Y12400026D01*
X3450081Y12400026D01*
X3326891Y12277089D01*
X3326891Y12026900D01*
X3980941Y10219181D02*
G01*
X3580891Y11772900D01*
X4400041Y9800084D02*
G01*
X3980990Y10219128D01*
X13625093Y10274935D02*
G01*
X12974853Y10274935D01*
X16474947Y10174986D02*
G01*
X13750036Y10149839D01*
X13625068Y10274808D01*
X9224860Y6600032D02*
G01*
X8924983Y6899910D01*
X8600186Y6899910D01*
X6525006Y8975089D01*
X6125209Y8975089D01*
X10199984Y11099980D02*
G01*
X9499988Y11799976D01*
X5899988Y11799976D01*
X9224860Y6149944D02*
G01*
X9875100Y6149944D01*
X9224860Y6600032D02*
G01*
X9875100Y6600032D01*
X17125188Y10174986D02*
G01*
X17999963Y11024870D01*
X17999963Y11499850D01*
X18331941Y11832081D01*
X18331941Y12124944D01*
X9224860Y10608434D02*
G01*
X9875100Y10608434D01*
X10433357Y9399938D02*
G01*
X11083597Y9399938D01*
X16474846Y8649939D02*
G01*
X17125086Y8649939D01*
X16474947Y10625074D02*
G01*
X17125188Y10625074D01*
X12974853Y10725022D02*
G01*
X13625093Y10725022D01*
X12974853Y8524938D02*
G01*
X13625093Y8524938D01*
X9224860Y8191439D02*
G01*
X9875100Y8191439D01*
X9224860Y11058522D02*
G01*
X9875100Y11058522D01*
X8016364Y9850023D02*
G01*
X8666606Y9850023D01*
X2625115Y9850023D02*
G01*
X1974875Y9850023D01*
X1974875Y9399935D02*
G01*
X2625115Y9399935D01*
X5474868Y8524938D02*
G01*
X6125108Y8524938D01*
X5474868Y8975026D02*
G01*
X3050024Y8975026D01*
X2625115Y9399935D01*
X6125108Y8975026D02*
G01*
X5474868Y8975026D01*
X8016364Y9399935D02*
G01*
X6550017Y9399935D01*
X6125108Y8975026D01*
X8666606Y9399935D02*
G01*
X8016364Y9399935D01*
X9224860Y8641527D02*
G01*
X9224860Y8841681D01*
X8666606Y9399935D01*
X9224860Y8641527D02*
G01*
X9875100Y8641527D01*
X10433357Y9850023D02*
G01*
X9875100Y9291767D01*
X9875100Y8641527D01*
X9875100Y10608434D02*
G01*
X9875100Y10408279D01*
X10433357Y9850023D01*
X11083597Y9850023D02*
G01*
X10433357Y9850023D01*
X12974853Y10274935D02*
G01*
X11508508Y10274935D01*
X11083597Y9850023D01*
X12974853Y8975026D02*
G01*
X13625093Y8975026D01*
X12974853Y10274935D02*
G01*
X12974853Y8975026D01*
X17125188Y10174986D02*
G01*
X16474947Y10174986D01*
X16474947Y9100058D02*
G01*
X16474947Y10174986D01*
X17125086Y9100027D02*
G01*
X16474846Y9100027D01*
D11*
G01*
X18078030Y12124982D03*
G01*
X18332030Y12124982D03*
D12*
G01*
X1974875Y9850023D03*
G01*
X1974875Y9399935D03*
G01*
X2625115Y9850023D03*
G01*
X2625115Y9399935D03*
G01*
X6125108Y10274935D03*
G01*
X6125108Y10725022D03*
G01*
X5474868Y10274935D03*
G01*
X5474868Y10725022D03*
G01*
X6125108Y8524938D03*
G01*
X6125108Y8975026D03*
G01*
X5474868Y8524938D03*
G01*
X5474868Y8975026D03*
G01*
X8016364Y9850023D03*
G01*
X8016364Y9399935D03*
G01*
X8666606Y9850023D03*
G01*
X8666606Y9399935D03*
G01*
X11083597Y9399938D03*
G01*
X11083597Y9850023D03*
G01*
X10433357Y9399938D03*
G01*
X10433357Y9850023D03*
G01*
X9224860Y11058522D03*
G01*
X9224860Y10608434D03*
G01*
X9875100Y11058522D03*
G01*
X9875100Y10608434D03*
G01*
X9875100Y8191439D03*
G01*
X9875100Y8641527D03*
G01*
X9224860Y8191439D03*
G01*
X9224860Y8641527D03*
G01*
X12974853Y10725022D03*
G01*
X12974853Y10274935D03*
G01*
X13625093Y10725022D03*
G01*
X13625093Y10274935D03*
G01*
X13625093Y8524938D03*
G01*
X13625093Y8975026D03*
G01*
X12974853Y8524938D03*
G01*
X12974853Y8975026D03*
G01*
X16474846Y10625020D03*
G01*
X16474846Y10174932D03*
G01*
X17125086Y10625020D03*
G01*
X17125086Y10174932D03*
G01*
X17125086Y8649939D03*
G01*
X17125086Y9100027D03*
G01*
X16474846Y8649939D03*
G01*
X16474846Y9100027D03*
G01*
X9875100Y6149944D03*
G01*
X9875100Y6600032D03*
G01*
X9224860Y6149944D03*
G01*
X9224860Y6600032D03*
D13*
G01*
X4088891Y11772900D03*
G01*
X4088891Y12026900D03*
G01*
X3834891Y11772900D03*
G01*
X3834891Y12026900D03*
G01*
X3580891Y11772900D03*
G01*
X3580891Y12026900D03*
G01*
X3326891Y11772900D03*
G01*
X3326891Y12026900D03*
G01*
X3072891Y11772900D03*
G01*
X3072891Y12026900D03*
G01*
X2818891Y11772900D03*
G01*
X2818891Y12026900D03*
G01*
X2564891Y11772900D03*
G01*
X2564891Y12026900D03*
G01*
X2310891Y11772900D03*
D14*
G01*
X2310892Y12026900D03*
D13*
G01*
X4400041Y9800081D03*
G01*
X10599978Y10899978D03*
G01*
X6799986Y10199979D03*
G01*
X6499986Y9899980D03*
G01*
X10199979Y11099977D03*
G01*
X5899988Y11799976D03*
M02*
