G04 Layer: BottomLayer*
G04 EasyEDA v6.5.38, 2023-12-05 17:56:17*
G04 681b97978217455484aa44bc4d5c6028,9f3f2715377c499da2f37e4e16011465,10*
G04 Gerber Generator version 0.2*
G04 Scale: 100 percent, Rotated: No, Reflected: No *
G04 Dimensions in millimeters *
G04 leading zeros omitted , absolute positions ,4 integer and 5 decimal *
%FSLAX45Y45*%
%MOMM*%

%AMMACRO1*21,1,$1,$2,0,0,$3*%
%ADD10C,0.2540*%
%ADD11R,1.3500X1.4100*%
%ADD12MACRO1,1.35X1.41X0.0000*%
%ADD13MACRO1,1.35X1.41X90.0000*%
%ADD14MACRO1,1.377X1.1325X90.0000*%
%ADD15R,1.3770X1.1325*%
%ADD16MACRO1,1.377X1.1325X0.0000*%
%ADD17MACRO1,1.377X1.1325X-90.0000*%
%ADD18MACRO1,1.035X1.0325X0.0000*%
%ADD19C,1.8000*%
%ADD20C,1.5748*%
%ADD21MACRO1,1.5748X1.5748X0.0000*%
%ADD22C,0.0151*%

%LPD*%
G36*
X210159Y5914339D02*
G01*
X206248Y5915152D01*
X202996Y5917336D01*
X200761Y5920638D01*
X199999Y5924499D01*
X199999Y6154928D01*
X200863Y6159042D01*
X203250Y6162395D01*
X206857Y6164529D01*
X210972Y6165088D01*
X214985Y6163919D01*
X218135Y6161227D01*
X220014Y6157518D01*
X223367Y6144564D01*
X229870Y6126988D01*
X238099Y6110122D01*
X248056Y6094222D01*
X259537Y6079388D01*
X272440Y6065774D01*
X286664Y6053582D01*
X302056Y6042863D01*
X318465Y6033770D01*
X335686Y6026353D01*
X353568Y6020765D01*
X371957Y6016955D01*
X390601Y6015075D01*
X409397Y6015075D01*
X428040Y6016955D01*
X446430Y6020765D01*
X464312Y6026353D01*
X481533Y6033770D01*
X497941Y6042863D01*
X513334Y6053582D01*
X527558Y6065774D01*
X540461Y6079388D01*
X551942Y6094222D01*
X561898Y6110122D01*
X570128Y6126988D01*
X576630Y6144564D01*
X581355Y6162700D01*
X584200Y6181242D01*
X585165Y6199987D01*
X584200Y6218732D01*
X581355Y6237274D01*
X576630Y6255410D01*
X570128Y6272987D01*
X561898Y6289852D01*
X551942Y6305753D01*
X540461Y6320586D01*
X527558Y6334201D01*
X513334Y6346393D01*
X497941Y6357112D01*
X481533Y6366205D01*
X464312Y6373622D01*
X446430Y6379210D01*
X428040Y6383020D01*
X409397Y6384899D01*
X390601Y6384899D01*
X371957Y6383020D01*
X353568Y6379210D01*
X335686Y6373622D01*
X318465Y6366205D01*
X302056Y6357112D01*
X286664Y6346393D01*
X272440Y6334201D01*
X259537Y6320586D01*
X248056Y6305753D01*
X238099Y6289852D01*
X229870Y6272987D01*
X223367Y6255410D01*
X220014Y6242456D01*
X218135Y6238748D01*
X214985Y6236055D01*
X210972Y6234887D01*
X206857Y6235446D01*
X203250Y6237579D01*
X200863Y6240932D01*
X199999Y6245047D01*
X199999Y9579965D01*
X200863Y9584029D01*
X203250Y9587433D01*
X206857Y9589566D01*
X210972Y9590074D01*
X214985Y9588906D01*
X218135Y9586214D01*
X220014Y9582505D01*
X223367Y9569551D01*
X229870Y9551974D01*
X238099Y9535109D01*
X248056Y9519208D01*
X259537Y9504375D01*
X272440Y9490811D01*
X286664Y9478568D01*
X302056Y9467850D01*
X318465Y9458756D01*
X335686Y9451340D01*
X353568Y9445752D01*
X371957Y9441992D01*
X390601Y9440062D01*
X409397Y9440062D01*
X428040Y9441992D01*
X446430Y9445752D01*
X464312Y9451340D01*
X481533Y9458756D01*
X497941Y9467850D01*
X513334Y9478568D01*
X527558Y9490811D01*
X540461Y9504375D01*
X551942Y9519208D01*
X561898Y9535109D01*
X570128Y9551974D01*
X576630Y9569551D01*
X581355Y9587687D01*
X584200Y9606229D01*
X585165Y9624974D01*
X584200Y9643719D01*
X581355Y9662261D01*
X576630Y9680397D01*
X570128Y9697974D01*
X561898Y9714839D01*
X551942Y9730740D01*
X540461Y9745573D01*
X527558Y9759188D01*
X513334Y9771380D01*
X497941Y9782098D01*
X481533Y9791192D01*
X464312Y9798608D01*
X446430Y9804196D01*
X428040Y9808006D01*
X409397Y9809886D01*
X390601Y9809886D01*
X371957Y9808006D01*
X353568Y9804196D01*
X335686Y9798608D01*
X318465Y9791192D01*
X302056Y9782098D01*
X286664Y9771380D01*
X272440Y9759188D01*
X259537Y9745573D01*
X248056Y9730740D01*
X238099Y9714839D01*
X229870Y9697974D01*
X223367Y9680397D01*
X220014Y9667443D01*
X218135Y9663734D01*
X214985Y9661042D01*
X210972Y9659874D01*
X206857Y9660432D01*
X203250Y9662566D01*
X200863Y9665919D01*
X199999Y9670034D01*
X199999Y12604953D01*
X200863Y12609017D01*
X203250Y12612420D01*
X206857Y12614554D01*
X210972Y12615062D01*
X214985Y12613894D01*
X218135Y12611201D01*
X220014Y12607493D01*
X223367Y12594539D01*
X229870Y12576962D01*
X238099Y12560147D01*
X248056Y12544196D01*
X259537Y12529362D01*
X272440Y12515799D01*
X286664Y12503556D01*
X302056Y12492837D01*
X318465Y12483744D01*
X335686Y12476378D01*
X353568Y12470739D01*
X371957Y12466980D01*
X390601Y12465050D01*
X409397Y12465050D01*
X428040Y12466980D01*
X446430Y12470739D01*
X464312Y12476378D01*
X481533Y12483744D01*
X497941Y12492837D01*
X513334Y12503556D01*
X527558Y12515799D01*
X540461Y12529362D01*
X551942Y12544196D01*
X561898Y12560147D01*
X570128Y12576962D01*
X576630Y12594539D01*
X581355Y12612725D01*
X584200Y12631267D01*
X585165Y12649962D01*
X584200Y12668707D01*
X581355Y12687249D01*
X576630Y12705384D01*
X570128Y12723012D01*
X561898Y12739827D01*
X551942Y12755727D01*
X540461Y12770561D01*
X527558Y12784175D01*
X513334Y12796367D01*
X497941Y12807086D01*
X481533Y12816179D01*
X464312Y12823596D01*
X446430Y12829184D01*
X443230Y12829844D01*
X439369Y12831572D01*
X436524Y12834670D01*
X435152Y12838734D01*
X435609Y12842900D01*
X437692Y12846608D01*
X441147Y12849098D01*
X445262Y12849961D01*
X18654674Y12849961D01*
X18658840Y12849098D01*
X18662243Y12846608D01*
X18664377Y12842900D01*
X18664783Y12838734D01*
X18663462Y12834670D01*
X18660618Y12831572D01*
X18656706Y12829844D01*
X18653556Y12829184D01*
X18635675Y12823596D01*
X18618403Y12816179D01*
X18602045Y12807086D01*
X18586653Y12796367D01*
X18572378Y12784175D01*
X18559475Y12770561D01*
X18547994Y12755727D01*
X18538088Y12739827D01*
X18529808Y12723012D01*
X18523305Y12705384D01*
X18518632Y12687249D01*
X18515787Y12668707D01*
X18514822Y12649962D01*
X18515787Y12631267D01*
X18518632Y12612725D01*
X18523305Y12594539D01*
X18529808Y12576962D01*
X18538088Y12560147D01*
X18547994Y12544196D01*
X18559475Y12529362D01*
X18572378Y12515799D01*
X18586653Y12503556D01*
X18602045Y12492837D01*
X18618403Y12483744D01*
X18635675Y12476378D01*
X18653556Y12470739D01*
X18671946Y12466980D01*
X18690590Y12465050D01*
X18709335Y12465050D01*
X18727978Y12466980D01*
X18746368Y12470739D01*
X18764250Y12476378D01*
X18781522Y12483744D01*
X18797879Y12492837D01*
X18813272Y12503556D01*
X18827546Y12515799D01*
X18832423Y12520930D01*
X18835725Y12523266D01*
X18839637Y12524130D01*
X18843548Y12523368D01*
X18846901Y12521184D01*
X18849187Y12517882D01*
X18849949Y12513970D01*
X18849949Y9761016D01*
X18849187Y9757054D01*
X18846901Y9753752D01*
X18843548Y9751568D01*
X18839637Y9750856D01*
X18835725Y9751720D01*
X18832423Y9754006D01*
X18827546Y9759188D01*
X18813272Y9771380D01*
X18797879Y9782098D01*
X18781522Y9791192D01*
X18764250Y9798608D01*
X18746368Y9804196D01*
X18727978Y9808006D01*
X18709335Y9809886D01*
X18690590Y9809886D01*
X18671946Y9808006D01*
X18653556Y9804196D01*
X18635675Y9798608D01*
X18618403Y9791192D01*
X18602045Y9782098D01*
X18586653Y9771380D01*
X18572378Y9759188D01*
X18559475Y9745573D01*
X18547994Y9730740D01*
X18538088Y9714839D01*
X18529808Y9697974D01*
X18523305Y9680397D01*
X18518632Y9662261D01*
X18515787Y9643719D01*
X18514822Y9624974D01*
X18515787Y9606229D01*
X18518632Y9587687D01*
X18523305Y9569551D01*
X18529808Y9551974D01*
X18538088Y9535109D01*
X18547994Y9519208D01*
X18559475Y9504375D01*
X18572378Y9490811D01*
X18586653Y9478568D01*
X18602045Y9467850D01*
X18618403Y9458756D01*
X18635675Y9451340D01*
X18653556Y9445752D01*
X18671946Y9441992D01*
X18690590Y9440062D01*
X18709335Y9440062D01*
X18727978Y9441992D01*
X18746368Y9445752D01*
X18764250Y9451340D01*
X18781522Y9458756D01*
X18797879Y9467850D01*
X18813272Y9478568D01*
X18827546Y9490811D01*
X18832423Y9495942D01*
X18835725Y9498279D01*
X18839637Y9499142D01*
X18843548Y9498380D01*
X18846901Y9496196D01*
X18849187Y9492894D01*
X18849949Y9488982D01*
X18849949Y6336030D01*
X18849187Y6332067D01*
X18846901Y6328765D01*
X18843548Y6326581D01*
X18839637Y6325870D01*
X18835725Y6326682D01*
X18832423Y6329019D01*
X18827546Y6334201D01*
X18813272Y6346393D01*
X18797879Y6357112D01*
X18781522Y6366205D01*
X18764250Y6373622D01*
X18746368Y6379210D01*
X18727978Y6383020D01*
X18709335Y6384899D01*
X18690590Y6384899D01*
X18671946Y6383020D01*
X18653556Y6379210D01*
X18635675Y6373622D01*
X18618403Y6366205D01*
X18602045Y6357112D01*
X18586653Y6346393D01*
X18572378Y6334201D01*
X18559475Y6320586D01*
X18547994Y6305753D01*
X18538088Y6289852D01*
X18529808Y6272987D01*
X18523305Y6255410D01*
X18518632Y6237274D01*
X18515787Y6218732D01*
X18514822Y6199987D01*
X18515787Y6181242D01*
X18518632Y6162700D01*
X18523305Y6144564D01*
X18529808Y6126988D01*
X18538088Y6110122D01*
X18547994Y6094222D01*
X18559475Y6079388D01*
X18572378Y6065774D01*
X18586653Y6053582D01*
X18602045Y6042863D01*
X18618403Y6033770D01*
X18635675Y6026353D01*
X18653556Y6020765D01*
X18671946Y6016955D01*
X18690590Y6015075D01*
X18709335Y6015075D01*
X18727978Y6016955D01*
X18746368Y6020765D01*
X18764250Y6026353D01*
X18781522Y6033770D01*
X18797879Y6042863D01*
X18813272Y6053582D01*
X18827546Y6065774D01*
X18832423Y6070955D01*
X18835725Y6073292D01*
X18839637Y6074105D01*
X18843548Y6073394D01*
X18846901Y6071209D01*
X18849187Y6067907D01*
X18849949Y6063945D01*
X18849949Y6001004D01*
X18850660Y5999276D01*
X18882614Y5967323D01*
X18884798Y5964021D01*
X18885611Y5960160D01*
X18884798Y5956249D01*
X18882614Y5952947D01*
X18879312Y5950762D01*
X18875451Y5950000D01*
X251002Y5950000D01*
X249275Y5949289D01*
X217322Y5917336D01*
X214071Y5915152D01*
G37*

%LPC*%
G36*
X9867849Y6034278D02*
G01*
X9882378Y6034278D01*
X9896805Y6036106D01*
X9910927Y6039713D01*
X9924440Y6045098D01*
X9937191Y6052108D01*
X9948976Y6060643D01*
X9959594Y6070600D01*
X9968839Y6081826D01*
X9976662Y6094120D01*
X9982860Y6107277D01*
X9987330Y6121146D01*
X9990074Y6135420D01*
X9990988Y6149949D01*
X9990074Y6164478D01*
X9987330Y6178753D01*
X9982860Y6192621D01*
X9976662Y6205778D01*
X9968839Y6218072D01*
X9959594Y6229248D01*
X9948976Y6239256D01*
X9937191Y6247790D01*
X9924440Y6254800D01*
X9910927Y6260134D01*
X9896805Y6263792D01*
X9882378Y6265621D01*
X9867849Y6265621D01*
X9853371Y6263792D01*
X9839299Y6260134D01*
X9825736Y6254800D01*
X9812985Y6247790D01*
X9801250Y6239256D01*
X9790633Y6229248D01*
X9781336Y6218072D01*
X9773564Y6205778D01*
X9767366Y6192621D01*
X9762845Y6178753D01*
X9760102Y6164478D01*
X9759188Y6149949D01*
X9760102Y6135420D01*
X9762845Y6121146D01*
X9767366Y6107277D01*
X9773564Y6094120D01*
X9781336Y6081826D01*
X9790633Y6070600D01*
X9801250Y6060643D01*
X9812985Y6052108D01*
X9825736Y6045098D01*
X9839299Y6039713D01*
X9853371Y6036106D01*
G37*
G36*
X9217609Y6034278D02*
G01*
X9232138Y6034278D01*
X9246565Y6036106D01*
X9260687Y6039713D01*
X9274200Y6045098D01*
X9286951Y6052108D01*
X9298736Y6060643D01*
X9309354Y6070600D01*
X9318599Y6081826D01*
X9326422Y6094120D01*
X9332620Y6107277D01*
X9337090Y6121146D01*
X9339834Y6135420D01*
X9340748Y6149949D01*
X9339834Y6164478D01*
X9337090Y6178753D01*
X9332620Y6192621D01*
X9326422Y6205778D01*
X9318599Y6218072D01*
X9309354Y6229248D01*
X9298736Y6239256D01*
X9286951Y6247790D01*
X9274200Y6254800D01*
X9260687Y6260134D01*
X9246565Y6263792D01*
X9232138Y6265621D01*
X9217609Y6265621D01*
X9203131Y6263792D01*
X9189059Y6260134D01*
X9181084Y6256985D01*
X9177223Y6256274D01*
X9173413Y6257086D01*
X9170162Y6259271D01*
X9102496Y6326936D01*
X9096248Y6332067D01*
X9089593Y6335623D01*
X9082328Y6337808D01*
X9074302Y6338570D01*
X8904884Y6338570D01*
X8901023Y6339382D01*
X8897721Y6341567D01*
X8895537Y6344869D01*
X8894724Y6348730D01*
X8894724Y6356045D01*
X8894013Y6362344D01*
X8892133Y6367830D01*
X8889034Y6372707D01*
X8884970Y6376822D01*
X8880043Y6379870D01*
X8874607Y6381800D01*
X8868257Y6382512D01*
X8731707Y6382512D01*
X8725357Y6381800D01*
X8719921Y6379870D01*
X8714994Y6376822D01*
X8710930Y6372707D01*
X8707831Y6367830D01*
X8705951Y6362344D01*
X8705240Y6356045D01*
X8705240Y6348730D01*
X8704427Y6344869D01*
X8702243Y6341567D01*
X8698941Y6339382D01*
X8695080Y6338570D01*
X8592667Y6338570D01*
X8588806Y6339382D01*
X8585504Y6341567D01*
X8583320Y6344869D01*
X8582507Y6348730D01*
X8582507Y6368288D01*
X8581796Y6374587D01*
X8579916Y6380073D01*
X8576818Y6384950D01*
X8572703Y6389065D01*
X8567826Y6392113D01*
X8562390Y6394043D01*
X8556040Y6394754D01*
X8443925Y6394754D01*
X8437626Y6394043D01*
X8432139Y6392113D01*
X8427262Y6389065D01*
X8423148Y6384950D01*
X8420100Y6380073D01*
X8418169Y6374587D01*
X8417458Y6368288D01*
X8417458Y6231686D01*
X8418169Y6225387D01*
X8420100Y6219901D01*
X8423148Y6215024D01*
X8427262Y6210909D01*
X8432139Y6207861D01*
X8437626Y6205931D01*
X8443925Y6205220D01*
X8556040Y6205220D01*
X8562390Y6205931D01*
X8567826Y6207861D01*
X8572703Y6210909D01*
X8576818Y6215024D01*
X8579916Y6219901D01*
X8581796Y6225387D01*
X8582507Y6231686D01*
X8582507Y6251194D01*
X8583320Y6255105D01*
X8585504Y6258407D01*
X8588806Y6260592D01*
X8592667Y6261354D01*
X8695080Y6261354D01*
X8698941Y6260592D01*
X8702243Y6258407D01*
X8704427Y6255105D01*
X8705240Y6251194D01*
X8705240Y6243929D01*
X8705951Y6237579D01*
X8707831Y6232144D01*
X8710930Y6227267D01*
X8714994Y6223152D01*
X8719921Y6220053D01*
X8725357Y6218174D01*
X8731707Y6217462D01*
X8868257Y6217462D01*
X8874607Y6218174D01*
X8880043Y6220053D01*
X8884970Y6223152D01*
X8889034Y6227267D01*
X8892133Y6232144D01*
X8894013Y6237579D01*
X8894724Y6243929D01*
X8894724Y6251194D01*
X8895537Y6255105D01*
X8897721Y6258407D01*
X8901023Y6260592D01*
X8904884Y6261354D01*
X9054642Y6261354D01*
X9058503Y6260592D01*
X9061805Y6258407D01*
X9115399Y6204762D01*
X9117685Y6201359D01*
X9118396Y6197295D01*
X9117126Y6192621D01*
X9112605Y6178753D01*
X9109862Y6164478D01*
X9108948Y6149949D01*
X9109862Y6135420D01*
X9112605Y6121146D01*
X9117126Y6107277D01*
X9123324Y6094120D01*
X9131096Y6081826D01*
X9140393Y6070600D01*
X9151010Y6060643D01*
X9162745Y6052108D01*
X9175496Y6045098D01*
X9189059Y6039713D01*
X9203131Y6036106D01*
G37*
G36*
X8243925Y6205220D02*
G01*
X8356041Y6205220D01*
X8362340Y6205931D01*
X8367826Y6207861D01*
X8372703Y6210909D01*
X8376818Y6215024D01*
X8379866Y6219901D01*
X8381796Y6225387D01*
X8382508Y6231686D01*
X8382508Y6368288D01*
X8381796Y6374587D01*
X8379866Y6380073D01*
X8376818Y6384950D01*
X8372703Y6389065D01*
X8367826Y6392113D01*
X8362340Y6394043D01*
X8356041Y6394754D01*
X8348776Y6394754D01*
X8344865Y6395516D01*
X8341563Y6397701D01*
X8339378Y6401003D01*
X8338616Y6404914D01*
X8338616Y6496405D01*
X8339378Y6500317D01*
X8341563Y6503619D01*
X8344865Y6505803D01*
X8348776Y6506565D01*
X8369909Y6506565D01*
X8376208Y6507276D01*
X8381695Y6509207D01*
X8386572Y6512306D01*
X8390686Y6516370D01*
X8394192Y6520434D01*
X8397951Y6522008D01*
X8402015Y6522008D01*
X8405774Y6520434D01*
X8409279Y6516370D01*
X8413394Y6512306D01*
X8418271Y6509207D01*
X8423757Y6507276D01*
X8430056Y6506565D01*
X8458403Y6506565D01*
X8458403Y6559905D01*
X8406536Y6559905D01*
X8402675Y6560667D01*
X8399373Y6562852D01*
X8397138Y6566153D01*
X8396376Y6570065D01*
X8396376Y6629908D01*
X8397138Y6633819D01*
X8399373Y6637121D01*
X8402675Y6639306D01*
X8406536Y6640068D01*
X8458403Y6640068D01*
X8458403Y6693408D01*
X8430056Y6693408D01*
X8423757Y6692696D01*
X8418271Y6690766D01*
X8413394Y6687667D01*
X8409279Y6683603D01*
X8405774Y6679539D01*
X8402015Y6677964D01*
X8397951Y6677964D01*
X8394192Y6679539D01*
X8390686Y6683603D01*
X8386572Y6687667D01*
X8381695Y6690766D01*
X8376208Y6692696D01*
X8369909Y6693408D01*
X8265312Y6693408D01*
X8261400Y6694170D01*
X8258098Y6696354D01*
X6227521Y8726932D01*
X6221323Y8732062D01*
X6214618Y8735618D01*
X6207404Y8737803D01*
X6199378Y8738616D01*
X5520334Y8738616D01*
X5516422Y8739378D01*
X5513120Y8741613D01*
X4500676Y9754057D01*
X4498543Y9757156D01*
X4497679Y9760813D01*
X4498238Y9764522D01*
X4501083Y9773005D01*
X4503775Y9786416D01*
X4504690Y9800082D01*
X4503775Y9813747D01*
X4501083Y9827158D01*
X4496714Y9840112D01*
X4490669Y9852406D01*
X4483049Y9863785D01*
X4474006Y9874046D01*
X4463745Y9883089D01*
X4452366Y9890709D01*
X4440072Y9896754D01*
X4427118Y9901123D01*
X4413707Y9903815D01*
X4400042Y9904730D01*
X4386376Y9903815D01*
X4372965Y9901123D01*
X4360011Y9896754D01*
X4347718Y9890709D01*
X4336338Y9883089D01*
X4326077Y9874046D01*
X4317034Y9863785D01*
X4309414Y9852406D01*
X4303369Y9840112D01*
X4299000Y9827158D01*
X4296308Y9813747D01*
X4295394Y9800082D01*
X4296308Y9786416D01*
X4299000Y9773005D01*
X4303369Y9760051D01*
X4309414Y9747758D01*
X4317034Y9736378D01*
X4326077Y9726117D01*
X4336338Y9717074D01*
X4347718Y9709454D01*
X4360011Y9703409D01*
X4372965Y9699040D01*
X4386376Y9696348D01*
X4400042Y9695434D01*
X4413707Y9696348D01*
X4427118Y9699040D01*
X4435602Y9701885D01*
X4439310Y9702444D01*
X4442968Y9701580D01*
X4446066Y9699447D01*
X5472480Y8673084D01*
X5478678Y8667953D01*
X5485384Y8664397D01*
X5492597Y8662212D01*
X5500624Y8661400D01*
X6179667Y8661400D01*
X6183579Y8660638D01*
X6186881Y8658402D01*
X8200593Y6644690D01*
X8202777Y6641388D01*
X8203590Y6637528D01*
X8203590Y6533032D01*
X8204301Y6526733D01*
X8206181Y6521297D01*
X8209280Y6516370D01*
X8213344Y6512306D01*
X8218271Y6509207D01*
X8223707Y6507276D01*
X8230057Y6506565D01*
X8251240Y6506565D01*
X8255101Y6505803D01*
X8258403Y6503619D01*
X8260588Y6500317D01*
X8261400Y6496405D01*
X8261400Y6404914D01*
X8260588Y6401003D01*
X8258403Y6397701D01*
X8255101Y6395516D01*
X8251240Y6394754D01*
X8243925Y6394754D01*
X8237575Y6394043D01*
X8232140Y6392113D01*
X8227263Y6389065D01*
X8223148Y6384950D01*
X8220049Y6380073D01*
X8218170Y6374587D01*
X8217458Y6368288D01*
X8217458Y6231686D01*
X8218170Y6225387D01*
X8220049Y6219901D01*
X8223148Y6215024D01*
X8227263Y6210909D01*
X8232140Y6207861D01*
X8237575Y6205931D01*
G37*
G36*
X8731707Y6417462D02*
G01*
X8759190Y6417462D01*
X8759190Y6465316D01*
X8705240Y6465316D01*
X8705240Y6443929D01*
X8705951Y6437630D01*
X8707831Y6432143D01*
X8710930Y6427266D01*
X8714994Y6423152D01*
X8719921Y6420104D01*
X8725357Y6418173D01*
G37*
G36*
X8840774Y6417462D02*
G01*
X8868257Y6417462D01*
X8874607Y6418173D01*
X8880043Y6420104D01*
X8884970Y6423152D01*
X8889034Y6427266D01*
X8892133Y6432143D01*
X8894013Y6437630D01*
X8894724Y6443929D01*
X8894724Y6465316D01*
X8840774Y6465316D01*
G37*
G36*
X9217609Y6484366D02*
G01*
X9232138Y6484366D01*
X9246565Y6486194D01*
X9260687Y6489801D01*
X9274200Y6495186D01*
X9286951Y6502196D01*
X9298736Y6510731D01*
X9309354Y6520688D01*
X9318599Y6531914D01*
X9326422Y6544208D01*
X9332620Y6557365D01*
X9337090Y6571234D01*
X9339834Y6585508D01*
X9340748Y6600037D01*
X9339834Y6614566D01*
X9337090Y6628841D01*
X9332620Y6642709D01*
X9326422Y6655866D01*
X9318599Y6668160D01*
X9309354Y6679336D01*
X9298736Y6689344D01*
X9286951Y6697878D01*
X9274200Y6704888D01*
X9260687Y6710222D01*
X9246565Y6713880D01*
X9232138Y6715709D01*
X9217609Y6715709D01*
X9203131Y6713880D01*
X9189059Y6710222D01*
X9175496Y6704888D01*
X9162745Y6697878D01*
X9151010Y6689344D01*
X9140393Y6679336D01*
X9131096Y6668160D01*
X9123324Y6655866D01*
X9117126Y6642709D01*
X9112605Y6628841D01*
X9109862Y6614566D01*
X9108948Y6600037D01*
X9109862Y6585508D01*
X9112605Y6571234D01*
X9117126Y6557365D01*
X9123324Y6544208D01*
X9131096Y6531914D01*
X9140393Y6520688D01*
X9151010Y6510731D01*
X9162745Y6502196D01*
X9175496Y6495186D01*
X9189059Y6489801D01*
X9203131Y6486194D01*
G37*
G36*
X9867849Y6484366D02*
G01*
X9882378Y6484366D01*
X9896805Y6486194D01*
X9910927Y6489801D01*
X9924440Y6495186D01*
X9937191Y6502196D01*
X9948976Y6510731D01*
X9959594Y6520688D01*
X9968839Y6531914D01*
X9976662Y6544208D01*
X9982860Y6557365D01*
X9987330Y6571234D01*
X9990074Y6585508D01*
X9990988Y6600037D01*
X9990074Y6614566D01*
X9987330Y6628841D01*
X9982860Y6642709D01*
X9976662Y6655866D01*
X9968839Y6668160D01*
X9959594Y6679336D01*
X9948976Y6689344D01*
X9937191Y6697878D01*
X9924440Y6704888D01*
X9910927Y6710222D01*
X9896805Y6713880D01*
X9882378Y6715709D01*
X9867849Y6715709D01*
X9853371Y6713880D01*
X9839299Y6710222D01*
X9825736Y6704888D01*
X9812985Y6697878D01*
X9801250Y6689344D01*
X9790633Y6679336D01*
X9781336Y6668160D01*
X9773564Y6655866D01*
X9767366Y6642709D01*
X9762845Y6628841D01*
X9760102Y6614566D01*
X9759188Y6600037D01*
X9760102Y6585508D01*
X9762845Y6571234D01*
X9767366Y6557365D01*
X9773564Y6544208D01*
X9781336Y6531914D01*
X9790633Y6520688D01*
X9801250Y6510731D01*
X9812985Y6502196D01*
X9825736Y6495186D01*
X9839299Y6489801D01*
X9853371Y6486194D01*
G37*
G36*
X8541562Y6506565D02*
G01*
X8569909Y6506565D01*
X8576259Y6507276D01*
X8581694Y6509207D01*
X8586622Y6512306D01*
X8590686Y6516370D01*
X8593785Y6521297D01*
X8595664Y6526733D01*
X8596376Y6533032D01*
X8596376Y6559905D01*
X8541562Y6559905D01*
G37*
G36*
X8705240Y6534657D02*
G01*
X8759190Y6534657D01*
X8759190Y6582511D01*
X8731707Y6582511D01*
X8725357Y6581800D01*
X8719921Y6579920D01*
X8714994Y6576822D01*
X8710930Y6572707D01*
X8707831Y6567830D01*
X8705951Y6562394D01*
X8705240Y6556044D01*
G37*
G36*
X8840774Y6534657D02*
G01*
X8894724Y6534657D01*
X8894724Y6556044D01*
X8894013Y6562394D01*
X8892133Y6567830D01*
X8889034Y6572707D01*
X8884970Y6576822D01*
X8880043Y6579920D01*
X8874607Y6581800D01*
X8868257Y6582511D01*
X8840774Y6582511D01*
G37*
G36*
X8541562Y6640068D02*
G01*
X8596376Y6640068D01*
X8596376Y6666941D01*
X8595664Y6673240D01*
X8593785Y6678675D01*
X8590686Y6683603D01*
X8586622Y6687667D01*
X8581694Y6690766D01*
X8576259Y6692696D01*
X8569909Y6693408D01*
X8541562Y6693408D01*
G37*
G36*
X9000490Y7061352D02*
G01*
X12499492Y7061352D01*
X12507518Y7062165D01*
X12514732Y7064349D01*
X12521387Y7067905D01*
X12527635Y7073036D01*
X12958165Y7503617D01*
X12961467Y7505801D01*
X12965379Y7506563D01*
X13069925Y7506563D01*
X13076224Y7507274D01*
X13081660Y7509205D01*
X13086588Y7512303D01*
X13090652Y7516368D01*
X13094208Y7520431D01*
X13097916Y7522006D01*
X13102031Y7522006D01*
X13105739Y7520431D01*
X13109295Y7516368D01*
X13113359Y7512303D01*
X13118287Y7509205D01*
X13123722Y7507274D01*
X13130022Y7506563D01*
X13158368Y7506563D01*
X13158368Y7559903D01*
X13106552Y7559903D01*
X13102640Y7560665D01*
X13099338Y7562850D01*
X13097154Y7566152D01*
X13096392Y7570063D01*
X13096392Y7629906D01*
X13097154Y7633817D01*
X13099338Y7637119D01*
X13102640Y7639303D01*
X13106552Y7640066D01*
X13158368Y7640066D01*
X13158368Y7693406D01*
X13130022Y7693406D01*
X13123722Y7692694D01*
X13118287Y7690764D01*
X13113359Y7687665D01*
X13109295Y7683601D01*
X13105739Y7679537D01*
X13102031Y7677962D01*
X13097916Y7677962D01*
X13094208Y7679537D01*
X13090652Y7683601D01*
X13086588Y7687665D01*
X13081660Y7690764D01*
X13076224Y7692694D01*
X13069925Y7693406D01*
X13048742Y7693406D01*
X13044830Y7694168D01*
X13041579Y7696352D01*
X13039344Y7699654D01*
X13038582Y7703566D01*
X13038582Y7895081D01*
X13039344Y7898942D01*
X13041579Y7902244D01*
X13044830Y7904429D01*
X13048742Y7905242D01*
X13056006Y7905242D01*
X13062356Y7905953D01*
X13067792Y7907832D01*
X13072719Y7910931D01*
X13076783Y7914995D01*
X13079882Y7919923D01*
X13081812Y7925358D01*
X13082524Y7931708D01*
X13082524Y8068259D01*
X13081812Y8074609D01*
X13079882Y8080044D01*
X13076783Y8084972D01*
X13072719Y8089036D01*
X13067792Y8092135D01*
X13062356Y8094014D01*
X13056006Y8094725D01*
X12943890Y8094725D01*
X12937591Y8094014D01*
X12932105Y8092135D01*
X12927228Y8089036D01*
X12923113Y8084972D01*
X12920065Y8080044D01*
X12918135Y8074609D01*
X12917424Y8068259D01*
X12917424Y7931708D01*
X12918135Y7925358D01*
X12920065Y7919923D01*
X12923113Y7914995D01*
X12927228Y7910931D01*
X12932105Y7907832D01*
X12937591Y7905953D01*
X12943890Y7905242D01*
X12951206Y7905242D01*
X12955117Y7904429D01*
X12958368Y7902244D01*
X12960604Y7898942D01*
X12961366Y7895081D01*
X12961366Y7703566D01*
X12960604Y7699654D01*
X12958368Y7696352D01*
X12955117Y7694168D01*
X12951206Y7693406D01*
X12930022Y7693406D01*
X12923723Y7692694D01*
X12918236Y7690764D01*
X12913360Y7687665D01*
X12909245Y7683601D01*
X12906197Y7678674D01*
X12904266Y7673238D01*
X12903555Y7666939D01*
X12903555Y7562392D01*
X12902793Y7558481D01*
X12900609Y7555179D01*
X12486944Y7141565D01*
X12483642Y7139381D01*
X12479782Y7138568D01*
X9020200Y7138568D01*
X9016288Y7139381D01*
X9012986Y7141565D01*
X6541566Y9612985D01*
X6539382Y9616287D01*
X6538620Y9620199D01*
X6538620Y9796272D01*
X6539280Y9799980D01*
X6541262Y9803180D01*
X6544259Y9805416D01*
X6552285Y9809378D01*
X6563664Y9816998D01*
X6573977Y9825990D01*
X6582968Y9836302D01*
X6590588Y9847681D01*
X6596634Y9859924D01*
X6601053Y9872878D01*
X6603695Y9886340D01*
X6604609Y9899954D01*
X6603695Y9913620D01*
X6601053Y9927082D01*
X6596634Y9940036D01*
X6590588Y9952278D01*
X6582968Y9963658D01*
X6573977Y9973970D01*
X6563664Y9982962D01*
X6552285Y9990582D01*
X6540042Y9996627D01*
X6527088Y10001046D01*
X6513626Y10003688D01*
X6500012Y10004602D01*
X6486347Y10003688D01*
X6472885Y10001046D01*
X6459931Y9996627D01*
X6447688Y9990582D01*
X6436309Y9982962D01*
X6425996Y9973970D01*
X6417005Y9963658D01*
X6409385Y9952278D01*
X6403340Y9940036D01*
X6398920Y9927082D01*
X6396278Y9913620D01*
X6395364Y9899954D01*
X6396278Y9886340D01*
X6398920Y9872878D01*
X6403340Y9859924D01*
X6409385Y9847681D01*
X6417005Y9836302D01*
X6425996Y9825990D01*
X6436309Y9816998D01*
X6447688Y9809378D01*
X6455714Y9805416D01*
X6458712Y9803180D01*
X6460693Y9799980D01*
X6461404Y9796272D01*
X6461404Y9600488D01*
X6462166Y9592462D01*
X6464350Y9585248D01*
X6467906Y9578543D01*
X6473037Y9572345D01*
X8972346Y7073036D01*
X8978544Y7067905D01*
X8985250Y7064349D01*
X8992463Y7062165D01*
G37*
G36*
X9441586Y7206589D02*
G01*
X9469932Y7206589D01*
X9476232Y7207300D01*
X9481718Y7209180D01*
X9486595Y7212279D01*
X9490710Y7216394D01*
X9493758Y7221270D01*
X9495688Y7226757D01*
X9496399Y7233056D01*
X9496399Y7259878D01*
X9441586Y7259878D01*
G37*
G36*
X9130030Y7206589D02*
G01*
X9269933Y7206589D01*
X9276232Y7207300D01*
X9281668Y7209180D01*
X9286595Y7212279D01*
X9290659Y7216394D01*
X9294215Y7220407D01*
X9297924Y7222032D01*
X9302038Y7222032D01*
X9305747Y7220407D01*
X9309303Y7216394D01*
X9313367Y7212279D01*
X9318294Y7209180D01*
X9323730Y7207300D01*
X9330029Y7206589D01*
X9358376Y7206589D01*
X9358376Y7259878D01*
X9306560Y7259878D01*
X9302648Y7260640D01*
X9299346Y7262875D01*
X9297162Y7266178D01*
X9296400Y7270038D01*
X9296400Y7329931D01*
X9297162Y7333792D01*
X9299346Y7337094D01*
X9302648Y7339330D01*
X9306560Y7340092D01*
X9358376Y7340092D01*
X9358376Y7393381D01*
X9330029Y7393381D01*
X9323730Y7392670D01*
X9318294Y7390790D01*
X9313367Y7387691D01*
X9309303Y7383576D01*
X9305747Y7379563D01*
X9302038Y7377938D01*
X9297924Y7377938D01*
X9294215Y7379563D01*
X9290659Y7383576D01*
X9286595Y7387691D01*
X9281668Y7390790D01*
X9276232Y7392670D01*
X9269933Y7393381D01*
X9248749Y7393381D01*
X9244838Y7394143D01*
X9241586Y7396378D01*
X9239351Y7399680D01*
X9238589Y7403541D01*
X9238589Y7695082D01*
X9239351Y7698943D01*
X9241586Y7702245D01*
X9244838Y7704429D01*
X9248749Y7705242D01*
X9256014Y7705242D01*
X9262364Y7705953D01*
X9267799Y7707833D01*
X9272727Y7710931D01*
X9276791Y7714996D01*
X9279890Y7719923D01*
X9281820Y7725359D01*
X9282531Y7731709D01*
X9282531Y7868259D01*
X9281820Y7874609D01*
X9279890Y7880045D01*
X9276791Y7884972D01*
X9272727Y7889036D01*
X9267799Y7892135D01*
X9262364Y7894015D01*
X9256014Y7894726D01*
X9164015Y7894726D01*
X9160154Y7895539D01*
X9156852Y7897723D01*
X6900621Y10153954D01*
X6898487Y10157053D01*
X6897624Y10160711D01*
X6898182Y10164419D01*
X6901027Y10172903D01*
X6903720Y10186314D01*
X6904634Y10199979D01*
X6903720Y10213644D01*
X6901027Y10227056D01*
X6896658Y10240010D01*
X6890613Y10252303D01*
X6882993Y10263682D01*
X6873951Y10273944D01*
X6863689Y10282986D01*
X6852310Y10290606D01*
X6840016Y10296652D01*
X6827062Y10301020D01*
X6813651Y10303713D01*
X6799986Y10304627D01*
X6786321Y10303713D01*
X6772909Y10301020D01*
X6759956Y10296652D01*
X6747662Y10290606D01*
X6736283Y10282986D01*
X6726021Y10273944D01*
X6716979Y10263682D01*
X6709359Y10252303D01*
X6703314Y10240010D01*
X6698945Y10227056D01*
X6696252Y10213644D01*
X6695338Y10199979D01*
X6696252Y10186314D01*
X6698945Y10172903D01*
X6703314Y10159949D01*
X6709359Y10147655D01*
X6716979Y10136276D01*
X6726021Y10126014D01*
X6736283Y10116972D01*
X6747662Y10109352D01*
X6759956Y10103307D01*
X6772909Y10098938D01*
X6786321Y10096246D01*
X6799986Y10095331D01*
X6813651Y10096246D01*
X6827062Y10098938D01*
X6835546Y10101783D01*
X6839254Y10102342D01*
X6842912Y10101478D01*
X6846011Y10099344D01*
X9114485Y7830921D01*
X9116669Y7827619D01*
X9117431Y7823708D01*
X9117431Y7731709D01*
X9118142Y7725359D01*
X9120073Y7719923D01*
X9123121Y7714996D01*
X9127236Y7710931D01*
X9132112Y7707833D01*
X9137599Y7705953D01*
X9143898Y7705242D01*
X9151213Y7705242D01*
X9155125Y7704429D01*
X9158376Y7702245D01*
X9160611Y7698943D01*
X9161373Y7695082D01*
X9161373Y7403541D01*
X9160611Y7399680D01*
X9158376Y7396378D01*
X9155125Y7394143D01*
X9151213Y7393381D01*
X9130030Y7393381D01*
X9123730Y7392670D01*
X9118244Y7390790D01*
X9113367Y7387691D01*
X9109252Y7383576D01*
X9106204Y7378700D01*
X9104274Y7373213D01*
X9103563Y7366914D01*
X9103563Y7233056D01*
X9104274Y7226757D01*
X9106204Y7221270D01*
X9109252Y7216394D01*
X9113367Y7212279D01*
X9118244Y7209180D01*
X9123730Y7207300D01*
G37*
G36*
X9441586Y7340092D02*
G01*
X9496399Y7340092D01*
X9496399Y7366914D01*
X9495688Y7373213D01*
X9493758Y7378700D01*
X9490710Y7383576D01*
X9486595Y7387691D01*
X9481718Y7390790D01*
X9476232Y7392670D01*
X9469932Y7393381D01*
X9441586Y7393381D01*
G37*
G36*
X9731705Y7417460D02*
G01*
X9759188Y7417460D01*
X9759188Y7465314D01*
X9705238Y7465314D01*
X9705238Y7443927D01*
X9705949Y7437577D01*
X9707829Y7432141D01*
X9710928Y7427264D01*
X9714992Y7423150D01*
X9719919Y7420051D01*
X9725355Y7418171D01*
G37*
G36*
X9840772Y7417460D02*
G01*
X9868255Y7417460D01*
X9874605Y7418171D01*
X9880041Y7420051D01*
X9884968Y7423150D01*
X9889032Y7427264D01*
X9892131Y7432141D01*
X9894011Y7437577D01*
X9894722Y7443927D01*
X9894722Y7465314D01*
X9840772Y7465314D01*
G37*
G36*
X5741568Y7506563D02*
G01*
X5769914Y7506563D01*
X5776264Y7507274D01*
X5781700Y7509205D01*
X5786628Y7512303D01*
X5790692Y7516368D01*
X5793790Y7521295D01*
X5795670Y7526731D01*
X5796381Y7533030D01*
X5796381Y7559903D01*
X5741568Y7559903D01*
G37*
G36*
X13241578Y7506563D02*
G01*
X13269925Y7506563D01*
X13276224Y7507274D01*
X13281710Y7509205D01*
X13286587Y7512303D01*
X13290702Y7516368D01*
X13293750Y7521295D01*
X13295680Y7526731D01*
X13296392Y7533030D01*
X13296392Y7559903D01*
X13241578Y7559903D01*
G37*
G36*
X5430062Y7506563D02*
G01*
X5569915Y7506563D01*
X5576214Y7507274D01*
X5581700Y7509205D01*
X5586577Y7512303D01*
X5590692Y7516368D01*
X5594197Y7520431D01*
X5597956Y7522006D01*
X5602020Y7522006D01*
X5605780Y7520431D01*
X5609285Y7516368D01*
X5613400Y7512303D01*
X5618276Y7509205D01*
X5623763Y7507274D01*
X5630062Y7506563D01*
X5658408Y7506563D01*
X5658408Y7559903D01*
X5606542Y7559903D01*
X5602681Y7560665D01*
X5599379Y7562850D01*
X5597144Y7566152D01*
X5596382Y7570063D01*
X5596382Y7629906D01*
X5597144Y7633817D01*
X5599379Y7637119D01*
X5602681Y7639303D01*
X5606542Y7640066D01*
X5658408Y7640066D01*
X5658408Y7693406D01*
X5630062Y7693406D01*
X5623763Y7692694D01*
X5618276Y7690764D01*
X5613400Y7687665D01*
X5609285Y7683601D01*
X5605780Y7679537D01*
X5602020Y7677962D01*
X5597956Y7677962D01*
X5594197Y7679537D01*
X5590692Y7683601D01*
X5586577Y7687665D01*
X5581700Y7690764D01*
X5576214Y7692694D01*
X5569915Y7693406D01*
X5548782Y7693406D01*
X5544870Y7694168D01*
X5541568Y7696352D01*
X5539384Y7699654D01*
X5538622Y7703566D01*
X5538622Y7895081D01*
X5539384Y7898942D01*
X5541568Y7902244D01*
X5544870Y7904429D01*
X5548782Y7905242D01*
X5556046Y7905242D01*
X5562346Y7905953D01*
X5567832Y7907832D01*
X5572709Y7910931D01*
X5576824Y7914995D01*
X5579872Y7919923D01*
X5581802Y7925358D01*
X5582513Y7931708D01*
X5582513Y8068259D01*
X5581802Y8074609D01*
X5579872Y8080044D01*
X5576824Y8084972D01*
X5572709Y8089036D01*
X5567832Y8092135D01*
X5562346Y8094014D01*
X5556046Y8094725D01*
X5464098Y8094725D01*
X5460238Y8095538D01*
X5456936Y8097723D01*
X5241493Y8312962D01*
X5239258Y8316264D01*
X5238496Y8320176D01*
X5238496Y8799576D01*
X5237683Y8807602D01*
X5235498Y8814816D01*
X5231942Y8821521D01*
X5226812Y8827719D01*
X4627575Y9426956D01*
X4621377Y9432086D01*
X4614672Y9435642D01*
X4607458Y9437827D01*
X4599432Y9438640D01*
X3020212Y9438640D01*
X3016300Y9439402D01*
X3012998Y9441637D01*
X2827731Y9626854D01*
X2821533Y9631984D01*
X2814828Y9635540D01*
X2807614Y9637725D01*
X2799588Y9638538D01*
X2620162Y9638538D01*
X2616250Y9639300D01*
X2612948Y9641535D01*
X1841703Y10412780D01*
X1839468Y10416082D01*
X1838706Y10419994D01*
X1838706Y12029795D01*
X1839468Y12033707D01*
X1841703Y12037009D01*
X2113076Y12308382D01*
X2116378Y12310618D01*
X2120290Y12311380D01*
X2229713Y12311380D01*
X2233625Y12310618D01*
X2236927Y12308382D01*
X2396337Y12148972D01*
X2398572Y12145670D01*
X2399334Y12141758D01*
X2398572Y12137898D01*
X2396337Y12134596D01*
X2393035Y12132411D01*
X2389174Y12131598D01*
X2232812Y12131598D01*
X2226513Y12130887D01*
X2221026Y12129008D01*
X2216150Y12125909D01*
X2212035Y12121845D01*
X2208987Y12116917D01*
X2207056Y12111482D01*
X2206345Y12105132D01*
X2206345Y12064339D01*
X2205380Y12059970D01*
X2202637Y12056465D01*
X2199436Y12053874D01*
X1923034Y11777726D01*
X1917903Y11771477D01*
X1914347Y11764822D01*
X1912162Y11757558D01*
X1911350Y11749582D01*
X1911350Y11150600D01*
X1912162Y11142573D01*
X1914347Y11135360D01*
X1917903Y11128654D01*
X1923034Y11122456D01*
X2902254Y10143185D01*
X2904439Y10139883D01*
X2905252Y10136022D01*
X2905252Y10043922D01*
X2905963Y10037622D01*
X2907842Y10032136D01*
X2910941Y10027259D01*
X2915005Y10023144D01*
X2919933Y10020096D01*
X2925368Y10018166D01*
X2931718Y10017455D01*
X3068269Y10017455D01*
X3074619Y10018166D01*
X3080054Y10020096D01*
X3084982Y10023144D01*
X3089046Y10027259D01*
X3092145Y10032136D01*
X3094024Y10037622D01*
X3094736Y10043922D01*
X3094736Y10051186D01*
X3095548Y10055098D01*
X3097733Y10058400D01*
X3101035Y10060584D01*
X3104896Y10061346D01*
X3296412Y10061346D01*
X3300323Y10060584D01*
X3303625Y10058400D01*
X3305810Y10055098D01*
X3306572Y10051186D01*
X3306572Y10030053D01*
X3307283Y10023754D01*
X3309213Y10018268D01*
X3312312Y10013391D01*
X3316376Y10009276D01*
X3320440Y10005771D01*
X3322015Y10002012D01*
X3322015Y9997948D01*
X3320440Y9994188D01*
X3316376Y9990683D01*
X3312312Y9986568D01*
X3309213Y9981692D01*
X3307283Y9976205D01*
X3306572Y9969906D01*
X3306572Y9941560D01*
X3359912Y9941560D01*
X3359912Y9993426D01*
X3360674Y9997287D01*
X3362858Y10000589D01*
X3366160Y10002824D01*
X3370072Y10003586D01*
X3429914Y10003586D01*
X3433826Y10002824D01*
X3437128Y10000589D01*
X3439312Y9997287D01*
X3440074Y9993426D01*
X3440074Y9941560D01*
X3493414Y9941560D01*
X3493414Y9969906D01*
X3492703Y9976205D01*
X3490772Y9981692D01*
X3487674Y9986568D01*
X3483610Y9990683D01*
X3479546Y9994188D01*
X3477971Y9997948D01*
X3477971Y10002012D01*
X3479546Y10005771D01*
X3483610Y10009276D01*
X3487674Y10013391D01*
X3490772Y10018268D01*
X3492703Y10023754D01*
X3493414Y10030053D01*
X3493414Y10169906D01*
X3492703Y10176256D01*
X3490772Y10181691D01*
X3487674Y10186619D01*
X3483610Y10190683D01*
X3478682Y10193782D01*
X3473246Y10195661D01*
X3466947Y10196372D01*
X3333038Y10196372D01*
X3326739Y10195661D01*
X3321304Y10193782D01*
X3316376Y10190683D01*
X3312312Y10186619D01*
X3309213Y10181691D01*
X3307283Y10176256D01*
X3306572Y10169906D01*
X3306572Y10148722D01*
X3305810Y10144861D01*
X3303625Y10141559D01*
X3300323Y10139375D01*
X3296412Y10138562D01*
X3104896Y10138562D01*
X3101035Y10139375D01*
X3097733Y10141559D01*
X3095548Y10144861D01*
X3094736Y10148722D01*
X3094736Y10156037D01*
X3094024Y10162387D01*
X3092145Y10167823D01*
X3089046Y10172700D01*
X3084982Y10176814D01*
X3080054Y10179913D01*
X3074619Y10181793D01*
X3068269Y10182504D01*
X2976321Y10182504D01*
X2972460Y10183317D01*
X2969158Y10185501D01*
X1991563Y11163096D01*
X1989328Y11166398D01*
X1988566Y11170310D01*
X1988566Y11729821D01*
X1989328Y11733733D01*
X1991563Y11737035D01*
X2193290Y11938609D01*
X2196287Y11940641D01*
X2199792Y11941556D01*
X2203399Y11941149D01*
X2206650Y11939473D01*
X2209088Y11936831D01*
X2212035Y11932107D01*
X2216150Y11928043D01*
X2221026Y11924944D01*
X2226513Y11923064D01*
X2232812Y11922302D01*
X2389174Y11922302D01*
X2395474Y11923064D01*
X2400960Y11924944D01*
X2405837Y11928043D01*
X2409952Y11932107D01*
X2413000Y11937034D01*
X2414930Y11942470D01*
X2415641Y11948820D01*
X2415641Y12105132D01*
X2416403Y12109043D01*
X2418638Y12112345D01*
X2421890Y12114530D01*
X2425801Y12115292D01*
X2429713Y12114530D01*
X2432964Y12112345D01*
X2466492Y12078817D01*
X2468778Y12075363D01*
X2469438Y12071197D01*
X2468321Y12067032D01*
X2463952Y12054078D01*
X2461260Y12040616D01*
X2460345Y12026950D01*
X2461260Y12013336D01*
X2463952Y11999874D01*
X2468321Y11986920D01*
X2474366Y11974677D01*
X2481986Y11963298D01*
X2491028Y11952986D01*
X2501290Y11943994D01*
X2512669Y11936374D01*
X2524963Y11930329D01*
X2537917Y11925909D01*
X2551328Y11923268D01*
X2564993Y11922353D01*
X2578658Y11923268D01*
X2592070Y11925909D01*
X2605024Y11930329D01*
X2617317Y11936374D01*
X2628696Y11943994D01*
X2638958Y11952986D01*
X2648000Y11963298D01*
X2655620Y11974677D01*
X2661666Y11986920D01*
X2666034Y11999874D01*
X2668727Y12013336D01*
X2669641Y12026950D01*
X2668727Y12040616D01*
X2666034Y12054078D01*
X2661666Y12067032D01*
X2655620Y12079274D01*
X2648000Y12090654D01*
X2638958Y12100966D01*
X2628696Y12109958D01*
X2617317Y12117578D01*
X2605024Y12123623D01*
X2592070Y12128042D01*
X2578658Y12130684D01*
X2564993Y12131598D01*
X2551328Y12130684D01*
X2537917Y12128042D01*
X2535377Y12127179D01*
X2531668Y12126620D01*
X2528011Y12127484D01*
X2524912Y12129617D01*
X2277567Y12376912D01*
X2271369Y12382042D01*
X2264664Y12385598D01*
X2257450Y12387783D01*
X2249424Y12388596D01*
X2100580Y12388596D01*
X2092553Y12387783D01*
X2085339Y12385598D01*
X2078634Y12382042D01*
X2072436Y12376912D01*
X1773174Y12077649D01*
X1768043Y12071451D01*
X1764487Y12064746D01*
X1762302Y12057532D01*
X1761489Y12049506D01*
X1761489Y10400284D01*
X1762302Y10392257D01*
X1764487Y10385044D01*
X1768043Y10378338D01*
X1773174Y10372140D01*
X2572308Y9573006D01*
X2578506Y9567875D01*
X2585212Y9564319D01*
X2592425Y9562134D01*
X2600452Y9561322D01*
X2779877Y9561322D01*
X2783789Y9560560D01*
X2787091Y9558324D01*
X2972358Y9373108D01*
X2978556Y9367977D01*
X2985262Y9364421D01*
X2992475Y9362236D01*
X3000502Y9361424D01*
X4579721Y9361424D01*
X4583633Y9360662D01*
X4586935Y9358426D01*
X5158282Y8787079D01*
X5160518Y8783777D01*
X5161280Y8779865D01*
X5161280Y8300466D01*
X5162092Y8292439D01*
X5164277Y8285225D01*
X5167833Y8278520D01*
X5172964Y8272322D01*
X5414467Y8030972D01*
X5416651Y8027670D01*
X5417464Y8023809D01*
X5417464Y7931708D01*
X5418175Y7925358D01*
X5420055Y7919923D01*
X5423154Y7914995D01*
X5427268Y7910931D01*
X5432145Y7907832D01*
X5437581Y7905953D01*
X5443931Y7905242D01*
X5451246Y7905242D01*
X5455107Y7904429D01*
X5458409Y7902244D01*
X5460593Y7898942D01*
X5461406Y7895081D01*
X5461406Y7703566D01*
X5460593Y7699654D01*
X5458409Y7696352D01*
X5455107Y7694168D01*
X5451246Y7693406D01*
X5430062Y7693406D01*
X5423712Y7692694D01*
X5418277Y7690764D01*
X5413349Y7687665D01*
X5409285Y7683601D01*
X5406186Y7678674D01*
X5404307Y7673238D01*
X5403596Y7666939D01*
X5403596Y7533030D01*
X5404307Y7526731D01*
X5406186Y7521295D01*
X5409285Y7516368D01*
X5413349Y7512303D01*
X5418277Y7509205D01*
X5423712Y7507274D01*
G37*
G36*
X9705238Y7534656D02*
G01*
X9759188Y7534656D01*
X9759188Y7582509D01*
X9731705Y7582509D01*
X9725355Y7581798D01*
X9719919Y7579868D01*
X9714992Y7576820D01*
X9710928Y7572705D01*
X9707829Y7567828D01*
X9705949Y7562342D01*
X9705238Y7556042D01*
G37*
G36*
X9840772Y7534656D02*
G01*
X9894722Y7534656D01*
X9894722Y7556042D01*
X9894011Y7562342D01*
X9892131Y7567828D01*
X9889032Y7572705D01*
X9884968Y7576820D01*
X9880041Y7579868D01*
X9874605Y7581798D01*
X9868255Y7582509D01*
X9840772Y7582509D01*
G37*
G36*
X16741546Y7606588D02*
G01*
X16769892Y7606588D01*
X16776242Y7607300D01*
X16781678Y7609179D01*
X16786606Y7612278D01*
X16790670Y7616393D01*
X16793768Y7621270D01*
X16795648Y7626756D01*
X16796359Y7633055D01*
X16796359Y7659878D01*
X16741546Y7659878D01*
G37*
G36*
X16430040Y7606588D02*
G01*
X16569893Y7606588D01*
X16576192Y7607300D01*
X16581678Y7609179D01*
X16586555Y7612278D01*
X16590670Y7616393D01*
X16594175Y7620406D01*
X16597934Y7622031D01*
X16601998Y7622031D01*
X16605757Y7620406D01*
X16609263Y7616393D01*
X16613378Y7612278D01*
X16618254Y7609179D01*
X16623741Y7607300D01*
X16630040Y7606588D01*
X16658386Y7606588D01*
X16658386Y7659878D01*
X16606519Y7659878D01*
X16602659Y7660640D01*
X16599357Y7662875D01*
X16597122Y7666177D01*
X16596360Y7670038D01*
X16596360Y7729931D01*
X16597122Y7733792D01*
X16599357Y7737094D01*
X16602659Y7739329D01*
X16606519Y7740091D01*
X16658386Y7740091D01*
X16658386Y7793380D01*
X16630040Y7793380D01*
X16623741Y7792669D01*
X16618254Y7790789D01*
X16613378Y7787690D01*
X16609263Y7783575D01*
X16605757Y7779562D01*
X16601998Y7777937D01*
X16597934Y7777937D01*
X16594175Y7779562D01*
X16590670Y7783575D01*
X16586555Y7787690D01*
X16581678Y7790789D01*
X16576192Y7792669D01*
X16569893Y7793380D01*
X16548760Y7793380D01*
X16544848Y7794142D01*
X16541546Y7796377D01*
X16539362Y7799679D01*
X16538600Y7803540D01*
X16538600Y7995056D01*
X16539362Y7998968D01*
X16541546Y8002270D01*
X16544848Y8004454D01*
X16548760Y8005216D01*
X16556024Y8005216D01*
X16562324Y8005927D01*
X16567810Y8007858D01*
X16572687Y8010906D01*
X16576801Y8015020D01*
X16579850Y8019897D01*
X16581780Y8025384D01*
X16582491Y8031683D01*
X16582491Y8168284D01*
X16581780Y8174583D01*
X16579850Y8180070D01*
X16576801Y8184946D01*
X16572687Y8189061D01*
X16567810Y8192109D01*
X16562324Y8194040D01*
X16556024Y8194751D01*
X16464026Y8194751D01*
X16460114Y8195513D01*
X16456812Y8197697D01*
X14627606Y10026904D01*
X14621408Y10032034D01*
X14614702Y10035590D01*
X14607489Y10037775D01*
X14599462Y10038588D01*
X12120168Y10038588D01*
X12116308Y10039350D01*
X12113006Y10041585D01*
X11027613Y11126927D01*
X11021415Y11132058D01*
X11014710Y11135614D01*
X11007496Y11137798D01*
X10999470Y11138560D01*
X10303662Y11138560D01*
X10300004Y11139271D01*
X10296804Y11141252D01*
X10294569Y11144250D01*
X10290606Y11152276D01*
X10282986Y11163655D01*
X10273944Y11173968D01*
X10263682Y11182959D01*
X10252303Y11190579D01*
X10240010Y11196624D01*
X10227056Y11201044D01*
X10213644Y11203686D01*
X10199979Y11204600D01*
X10186314Y11203686D01*
X10172903Y11201044D01*
X10159949Y11196624D01*
X10147655Y11190579D01*
X10136276Y11182959D01*
X10126014Y11173968D01*
X10116972Y11163655D01*
X10109352Y11152276D01*
X10103307Y11140033D01*
X10098938Y11127079D01*
X10096246Y11113617D01*
X10095331Y11099952D01*
X10096246Y11086338D01*
X10098938Y11072876D01*
X10103307Y11059922D01*
X10109352Y11047679D01*
X10116972Y11036300D01*
X10126014Y11025987D01*
X10136276Y11016996D01*
X10147655Y11009376D01*
X10159949Y11003330D01*
X10172903Y10998911D01*
X10186314Y10996269D01*
X10199979Y10995355D01*
X10213644Y10996269D01*
X10227056Y10998911D01*
X10240010Y11003330D01*
X10252303Y11009376D01*
X10263682Y11016996D01*
X10273944Y11025987D01*
X10282986Y11036300D01*
X10290606Y11047679D01*
X10294569Y11055705D01*
X10296804Y11058702D01*
X10300004Y11060684D01*
X10303662Y11061344D01*
X10979759Y11061344D01*
X10983671Y11060582D01*
X10986973Y11058398D01*
X12072315Y9973056D01*
X12078563Y9967925D01*
X12085218Y9964369D01*
X12092432Y9962184D01*
X12100458Y9961372D01*
X14579752Y9961372D01*
X14583663Y9960610D01*
X14586966Y9958374D01*
X16414445Y8130895D01*
X16416629Y8127593D01*
X16417442Y8123732D01*
X16417442Y8031683D01*
X16418153Y8025384D01*
X16420033Y8019897D01*
X16423132Y8015020D01*
X16427246Y8010906D01*
X16432123Y8007858D01*
X16437559Y8005927D01*
X16443909Y8005216D01*
X16451224Y8005216D01*
X16455085Y8004454D01*
X16458387Y8002270D01*
X16460571Y7998968D01*
X16461384Y7995056D01*
X16461384Y7803540D01*
X16460571Y7799679D01*
X16458387Y7796377D01*
X16455085Y7794142D01*
X16451224Y7793380D01*
X16430040Y7793380D01*
X16423690Y7792669D01*
X16418255Y7790789D01*
X16413327Y7787690D01*
X16409263Y7783575D01*
X16406164Y7778699D01*
X16404285Y7773212D01*
X16403574Y7766913D01*
X16403574Y7633055D01*
X16404285Y7626756D01*
X16406164Y7621270D01*
X16409263Y7616393D01*
X16413327Y7612278D01*
X16418255Y7609179D01*
X16423690Y7607300D01*
G37*
G36*
X13640765Y7617459D02*
G01*
X13668248Y7617459D01*
X13674598Y7618171D01*
X13680033Y7620050D01*
X13684961Y7623149D01*
X13689025Y7627264D01*
X13692124Y7632141D01*
X13694003Y7637576D01*
X13694714Y7643926D01*
X13694714Y7665313D01*
X13640765Y7665313D01*
G37*
G36*
X13531697Y7617459D02*
G01*
X13559180Y7617459D01*
X13559180Y7665313D01*
X13505230Y7665313D01*
X13505230Y7643926D01*
X13505942Y7637576D01*
X13507821Y7632141D01*
X13510920Y7627264D01*
X13514984Y7623149D01*
X13519912Y7620050D01*
X13525347Y7618171D01*
G37*
G36*
X9731705Y7617459D02*
G01*
X9868255Y7617459D01*
X9874605Y7618171D01*
X9880041Y7620101D01*
X9884968Y7623149D01*
X9889032Y7627264D01*
X9892131Y7632141D01*
X9894011Y7637627D01*
X9894722Y7643926D01*
X9894722Y7756042D01*
X9894011Y7762392D01*
X9892131Y7767828D01*
X9889032Y7772704D01*
X9884968Y7776819D01*
X9880041Y7779918D01*
X9874605Y7781798D01*
X9868255Y7782509D01*
X9731705Y7782509D01*
X9725355Y7781798D01*
X9719919Y7779918D01*
X9714992Y7776819D01*
X9710928Y7772704D01*
X9707829Y7767828D01*
X9705949Y7762392D01*
X9705238Y7756042D01*
X9705238Y7748727D01*
X9704425Y7744866D01*
X9702241Y7741564D01*
X9698939Y7739380D01*
X9695078Y7738567D01*
X9520174Y7738567D01*
X9516313Y7739380D01*
X9513011Y7741564D01*
X9485477Y7769047D01*
X9483293Y7772349D01*
X9482531Y7776260D01*
X9482531Y7868259D01*
X9481820Y7874609D01*
X9479889Y7880045D01*
X9476841Y7884972D01*
X9472726Y7889036D01*
X9467850Y7892135D01*
X9462363Y7894015D01*
X9456064Y7894726D01*
X9448749Y7894726D01*
X9444837Y7895539D01*
X9441586Y7897723D01*
X9439351Y7901025D01*
X9438589Y7904886D01*
X9438589Y8015833D01*
X9437776Y8023859D01*
X9435592Y8031073D01*
X9432036Y8037728D01*
X9426905Y8043976D01*
X9334296Y8136585D01*
X9332061Y8140039D01*
X9331350Y8144103D01*
X9332620Y8148777D01*
X9337090Y8162594D01*
X9339834Y8176920D01*
X9340748Y8191449D01*
X9339834Y8205978D01*
X9337090Y8220252D01*
X9332620Y8234121D01*
X9326422Y8247278D01*
X9318599Y8259572D01*
X9309354Y8270748D01*
X9298736Y8280755D01*
X9286951Y8289290D01*
X9274200Y8296300D01*
X9260687Y8301634D01*
X9246565Y8305292D01*
X9232138Y8307120D01*
X9217609Y8307120D01*
X9203131Y8305292D01*
X9189059Y8301634D01*
X9175496Y8296300D01*
X9162745Y8289290D01*
X9151010Y8280755D01*
X9140393Y8270748D01*
X9131096Y8259572D01*
X9123324Y8247278D01*
X9117126Y8234121D01*
X9112605Y8220252D01*
X9109862Y8205978D01*
X9108948Y8191449D01*
X9109862Y8176920D01*
X9112605Y8162594D01*
X9117126Y8148777D01*
X9123324Y8135620D01*
X9131096Y8123326D01*
X9140393Y8112099D01*
X9151010Y8102142D01*
X9162745Y8093608D01*
X9175496Y8086598D01*
X9189059Y8081213D01*
X9203131Y8077606D01*
X9217609Y8075777D01*
X9232138Y8075777D01*
X9246565Y8077606D01*
X9260687Y8081213D01*
X9268663Y8084362D01*
X9272524Y8085074D01*
X9276334Y8084312D01*
X9279585Y8082127D01*
X9358376Y8003286D01*
X9360611Y7999984D01*
X9361373Y7996123D01*
X9361373Y7904886D01*
X9360611Y7901025D01*
X9358376Y7897723D01*
X9355124Y7895539D01*
X9351213Y7894726D01*
X9343948Y7894726D01*
X9337598Y7894015D01*
X9332163Y7892135D01*
X9327235Y7889036D01*
X9323171Y7884972D01*
X9320072Y7880045D01*
X9318142Y7874609D01*
X9317431Y7868259D01*
X9317431Y7731709D01*
X9318142Y7725359D01*
X9320072Y7719923D01*
X9323171Y7714996D01*
X9327235Y7710931D01*
X9332163Y7707833D01*
X9337598Y7705953D01*
X9343948Y7705242D01*
X9435947Y7705242D01*
X9439808Y7704429D01*
X9443110Y7702245D01*
X9472320Y7673035D01*
X9478568Y7667904D01*
X9485223Y7664348D01*
X9492437Y7662164D01*
X9500463Y7661351D01*
X9695078Y7661351D01*
X9698939Y7660589D01*
X9702241Y7658404D01*
X9704425Y7655102D01*
X9705238Y7651191D01*
X9705238Y7643926D01*
X9705949Y7637627D01*
X9707829Y7632141D01*
X9710928Y7627264D01*
X9714992Y7623149D01*
X9719919Y7620101D01*
X9725355Y7618171D01*
G37*
G36*
X13241578Y7640066D02*
G01*
X13296392Y7640066D01*
X13296392Y7666939D01*
X13295680Y7673238D01*
X13293750Y7678674D01*
X13290702Y7683601D01*
X13286587Y7687665D01*
X13281710Y7690764D01*
X13276224Y7692694D01*
X13269925Y7693406D01*
X13241578Y7693406D01*
G37*
G36*
X5741568Y7640066D02*
G01*
X5796381Y7640066D01*
X5796381Y7666939D01*
X5795670Y7673238D01*
X5793790Y7678674D01*
X5790692Y7683601D01*
X5786628Y7687665D01*
X5781700Y7690764D01*
X5776264Y7692694D01*
X5769914Y7693406D01*
X5741568Y7693406D01*
G37*
G36*
X17031665Y7717434D02*
G01*
X17059198Y7717434D01*
X17059198Y7765338D01*
X17005198Y7765338D01*
X17005198Y7743901D01*
X17005909Y7737602D01*
X17007840Y7732115D01*
X17010888Y7727238D01*
X17015002Y7723124D01*
X17019879Y7720075D01*
X17025366Y7718145D01*
G37*
G36*
X17140732Y7717434D02*
G01*
X17168266Y7717434D01*
X17174565Y7718145D01*
X17180052Y7720075D01*
X17184928Y7723124D01*
X17189043Y7727238D01*
X17192091Y7732115D01*
X17194022Y7737602D01*
X17194733Y7743901D01*
X17194733Y7765338D01*
X17140732Y7765338D01*
G37*
G36*
X13640765Y7734655D02*
G01*
X13694714Y7734655D01*
X13694714Y7756042D01*
X13694003Y7762341D01*
X13692124Y7767828D01*
X13689025Y7772704D01*
X13684961Y7776819D01*
X13680033Y7779867D01*
X13674598Y7781798D01*
X13668248Y7782509D01*
X13640765Y7782509D01*
G37*
G36*
X13505230Y7734655D02*
G01*
X13559180Y7734655D01*
X13559180Y7782509D01*
X13531697Y7782509D01*
X13525347Y7781798D01*
X13519912Y7779867D01*
X13514984Y7776819D01*
X13510920Y7772704D01*
X13507821Y7767828D01*
X13505942Y7762341D01*
X13505230Y7756042D01*
G37*
G36*
X16741546Y7740091D02*
G01*
X16796359Y7740091D01*
X16796359Y7766913D01*
X16795648Y7773212D01*
X16793768Y7778699D01*
X16790670Y7783575D01*
X16786606Y7787690D01*
X16781678Y7790789D01*
X16776242Y7792669D01*
X16769892Y7793380D01*
X16741546Y7793380D01*
G37*
G36*
X13531697Y7817459D02*
G01*
X13668248Y7817459D01*
X13674598Y7818170D01*
X13680033Y7820101D01*
X13684961Y7823149D01*
X13689025Y7827264D01*
X13692124Y7832140D01*
X13694003Y7837627D01*
X13694714Y7843926D01*
X13694714Y7956042D01*
X13694003Y7962392D01*
X13692124Y7967827D01*
X13689025Y7972704D01*
X13684961Y7976819D01*
X13680033Y7979918D01*
X13674598Y7981797D01*
X13668248Y7982508D01*
X13531697Y7982508D01*
X13525347Y7981797D01*
X13519912Y7979918D01*
X13514984Y7976819D01*
X13510920Y7972704D01*
X13507821Y7967827D01*
X13505942Y7962392D01*
X13505230Y7956042D01*
X13505230Y7948726D01*
X13504418Y7944866D01*
X13502233Y7941564D01*
X13498931Y7939379D01*
X13495070Y7938566D01*
X13320166Y7938566D01*
X13316305Y7939379D01*
X13313003Y7941564D01*
X13285469Y7969046D01*
X13283285Y7972348D01*
X13282523Y7976260D01*
X13282523Y8068259D01*
X13281812Y8074609D01*
X13279882Y8080044D01*
X13276834Y8084972D01*
X13272719Y8089036D01*
X13267842Y8092135D01*
X13262356Y8094014D01*
X13256056Y8094725D01*
X13248741Y8094725D01*
X13244830Y8095538D01*
X13241578Y8097723D01*
X13239343Y8101025D01*
X13238581Y8104886D01*
X13238581Y8299297D01*
X13237768Y8307324D01*
X13235584Y8314588D01*
X13232028Y8321243D01*
X13226897Y8327491D01*
X13084302Y8470087D01*
X13082015Y8473541D01*
X13081304Y8477605D01*
X13082625Y8482279D01*
X13087096Y8496096D01*
X13089839Y8510422D01*
X13090753Y8524951D01*
X13089839Y8539480D01*
X13087096Y8553754D01*
X13082625Y8567623D01*
X13076428Y8580780D01*
X13068604Y8593074D01*
X13059308Y8604250D01*
X13048742Y8614206D01*
X13036956Y8622792D01*
X13024205Y8629802D01*
X13010642Y8635136D01*
X12996570Y8638794D01*
X12982143Y8640622D01*
X12967563Y8640622D01*
X12953136Y8638794D01*
X12939064Y8635136D01*
X12925501Y8629802D01*
X12912750Y8622792D01*
X12900964Y8614206D01*
X12890398Y8604250D01*
X12881102Y8593074D01*
X12873278Y8580780D01*
X12867081Y8567623D01*
X12862610Y8553754D01*
X12859867Y8539480D01*
X12858953Y8524951D01*
X12859867Y8510422D01*
X12862610Y8496096D01*
X12867081Y8482279D01*
X12873278Y8469122D01*
X12881102Y8456828D01*
X12890398Y8445601D01*
X12900964Y8435644D01*
X12912750Y8427110D01*
X12925501Y8420100D01*
X12939064Y8414715D01*
X12953136Y8411108D01*
X12967563Y8409279D01*
X12982143Y8409279D01*
X12996570Y8411108D01*
X13010642Y8414715D01*
X13018668Y8417864D01*
X13022478Y8418576D01*
X13026339Y8417814D01*
X13029590Y8415629D01*
X13158368Y8286800D01*
X13160603Y8283498D01*
X13161365Y8279638D01*
X13161365Y8104886D01*
X13160603Y8101025D01*
X13158368Y8097723D01*
X13155117Y8095538D01*
X13151205Y8094725D01*
X13143941Y8094725D01*
X13137591Y8094014D01*
X13132155Y8092135D01*
X13127228Y8089036D01*
X13123163Y8084972D01*
X13120065Y8080044D01*
X13118134Y8074609D01*
X13117423Y8068259D01*
X13117423Y7931708D01*
X13118134Y7925358D01*
X13120065Y7919923D01*
X13123163Y7914995D01*
X13127228Y7910931D01*
X13132155Y7907832D01*
X13137591Y7905953D01*
X13143941Y7905242D01*
X13235940Y7905242D01*
X13239800Y7904429D01*
X13243102Y7902244D01*
X13272312Y7873034D01*
X13278561Y7867903D01*
X13285216Y7864348D01*
X13292429Y7862163D01*
X13300456Y7861350D01*
X13495070Y7861350D01*
X13498931Y7860588D01*
X13502233Y7858404D01*
X13504418Y7855102D01*
X13505230Y7851190D01*
X13505230Y7843926D01*
X13505942Y7837627D01*
X13507821Y7832140D01*
X13510920Y7827264D01*
X13514984Y7823149D01*
X13519912Y7820101D01*
X13525347Y7818170D01*
G37*
G36*
X17005198Y7834630D02*
G01*
X17059198Y7834630D01*
X17059198Y7882534D01*
X17031665Y7882534D01*
X17025366Y7881823D01*
X17019879Y7879892D01*
X17015002Y7876794D01*
X17010888Y7872730D01*
X17007840Y7867802D01*
X17005909Y7862366D01*
X17005198Y7856016D01*
G37*
G36*
X17140732Y7834630D02*
G01*
X17194733Y7834630D01*
X17194733Y7856016D01*
X17194022Y7862366D01*
X17192091Y7867802D01*
X17189043Y7872730D01*
X17184928Y7876794D01*
X17180052Y7879892D01*
X17174565Y7881823D01*
X17168266Y7882534D01*
X17140732Y7882534D01*
G37*
G36*
X6243929Y7905242D02*
G01*
X6265316Y7905242D01*
X6265316Y7959191D01*
X6217462Y7959191D01*
X6217462Y7931708D01*
X6218174Y7925358D01*
X6220104Y7919923D01*
X6223152Y7914995D01*
X6227267Y7910931D01*
X6232144Y7907832D01*
X6237630Y7905953D01*
G37*
G36*
X6334658Y7905242D02*
G01*
X6356045Y7905242D01*
X6362395Y7905953D01*
X6367830Y7907832D01*
X6372707Y7910931D01*
X6376822Y7914995D01*
X6379921Y7919923D01*
X6381800Y7925358D01*
X6382512Y7931708D01*
X6382512Y7959191D01*
X6334658Y7959191D01*
G37*
G36*
X5643930Y7905242D02*
G01*
X5756046Y7905242D01*
X5762396Y7905953D01*
X5767832Y7907832D01*
X5772708Y7910931D01*
X5776823Y7914995D01*
X5779922Y7919923D01*
X5781802Y7925358D01*
X5782513Y7931708D01*
X5782513Y7951216D01*
X5783326Y7955127D01*
X5785510Y7958378D01*
X5788812Y7960614D01*
X5792673Y7961375D01*
X6007303Y7961375D01*
X6011164Y7960614D01*
X6014466Y7958378D01*
X6016650Y7955127D01*
X6017463Y7951216D01*
X6017463Y7931708D01*
X6018174Y7925358D01*
X6020054Y7919923D01*
X6023152Y7914995D01*
X6027267Y7910931D01*
X6032144Y7907832D01*
X6037580Y7905953D01*
X6043930Y7905242D01*
X6156045Y7905242D01*
X6162344Y7905953D01*
X6167831Y7907832D01*
X6172708Y7910931D01*
X6176822Y7914995D01*
X6179870Y7919923D01*
X6181801Y7925358D01*
X6182512Y7931708D01*
X6182512Y8068259D01*
X6181801Y8074609D01*
X6179870Y8080044D01*
X6176822Y8084972D01*
X6172708Y8089036D01*
X6168491Y8091728D01*
X6165951Y8093964D01*
X6164275Y8096961D01*
X6163716Y8100314D01*
X6163716Y8408924D01*
X6164529Y8412886D01*
X6166764Y8416188D01*
X6170117Y8418372D01*
X6174435Y8420100D01*
X6187186Y8427110D01*
X6198971Y8435644D01*
X6209588Y8445601D01*
X6218885Y8456828D01*
X6226657Y8469122D01*
X6232855Y8482279D01*
X6237376Y8496096D01*
X6240068Y8510422D01*
X6240983Y8524951D01*
X6240068Y8539480D01*
X6237376Y8553754D01*
X6232855Y8567623D01*
X6226657Y8580780D01*
X6218885Y8593074D01*
X6209588Y8604250D01*
X6198971Y8614206D01*
X6187186Y8622792D01*
X6174435Y8629802D01*
X6160922Y8635136D01*
X6146800Y8638794D01*
X6132372Y8640622D01*
X6117844Y8640622D01*
X6103416Y8638794D01*
X6089294Y8635136D01*
X6075781Y8629802D01*
X6063030Y8622792D01*
X6051245Y8614206D01*
X6040628Y8604250D01*
X6031331Y8593074D01*
X6023559Y8580780D01*
X6017361Y8567623D01*
X6012840Y8553754D01*
X6010148Y8539480D01*
X6009233Y8524951D01*
X6010148Y8510422D01*
X6012840Y8496096D01*
X6017361Y8482279D01*
X6023559Y8469122D01*
X6031331Y8456828D01*
X6040628Y8445601D01*
X6051245Y8435644D01*
X6063030Y8427110D01*
X6075781Y8420100D01*
X6080099Y8418372D01*
X6083452Y8416188D01*
X6085687Y8412886D01*
X6086500Y8408924D01*
X6086500Y8104886D01*
X6085738Y8101025D01*
X6083503Y8097723D01*
X6080252Y8095538D01*
X6076340Y8094725D01*
X6043930Y8094725D01*
X6037580Y8094014D01*
X6032144Y8092135D01*
X6027267Y8089036D01*
X6023152Y8084972D01*
X6020054Y8080044D01*
X6018174Y8074609D01*
X6017463Y8068259D01*
X6017463Y8048752D01*
X6016650Y8044840D01*
X6014466Y8041589D01*
X6011164Y8039353D01*
X6007303Y8038592D01*
X5792673Y8038592D01*
X5788812Y8039353D01*
X5785510Y8041589D01*
X5783326Y8044840D01*
X5782513Y8048752D01*
X5782513Y8068259D01*
X5781802Y8074609D01*
X5779922Y8080044D01*
X5776823Y8084972D01*
X5772708Y8089036D01*
X5767832Y8092135D01*
X5762396Y8094014D01*
X5756046Y8094725D01*
X5643930Y8094725D01*
X5637631Y8094014D01*
X5632145Y8092135D01*
X5627268Y8089036D01*
X5623153Y8084972D01*
X5620105Y8080044D01*
X5618175Y8074609D01*
X5617464Y8068259D01*
X5617464Y7931708D01*
X5618175Y7925358D01*
X5620105Y7919923D01*
X5623153Y7914995D01*
X5627268Y7910931D01*
X5632145Y7907832D01*
X5637631Y7905953D01*
G37*
G36*
X17031665Y7917434D02*
G01*
X17168266Y7917434D01*
X17174565Y7918145D01*
X17180052Y7920075D01*
X17184928Y7923174D01*
X17189043Y7927238D01*
X17192091Y7932166D01*
X17194022Y7937601D01*
X17194733Y7943951D01*
X17194733Y8056067D01*
X17194022Y8062366D01*
X17192091Y8067852D01*
X17189043Y8072729D01*
X17184928Y8076844D01*
X17180052Y8079892D01*
X17174565Y8081822D01*
X17168266Y8082534D01*
X17076216Y8082534D01*
X17072356Y8083296D01*
X17069054Y8085480D01*
X17027601Y8126933D01*
X17021403Y8132064D01*
X17014698Y8135620D01*
X17007484Y8137804D01*
X16999458Y8138566D01*
X16792651Y8138566D01*
X16788790Y8139379D01*
X16785488Y8141563D01*
X16783304Y8144865D01*
X16782491Y8148726D01*
X16782491Y8168284D01*
X16781780Y8174583D01*
X16779900Y8180070D01*
X16776801Y8184946D01*
X16772686Y8189061D01*
X16767810Y8192109D01*
X16762374Y8194040D01*
X16756024Y8194751D01*
X16748760Y8194751D01*
X16744848Y8195513D01*
X16741546Y8197697D01*
X16739362Y8200999D01*
X16738600Y8204911D01*
X16738600Y8424316D01*
X16737787Y8432342D01*
X16735602Y8439556D01*
X16732046Y8446262D01*
X16726916Y8452459D01*
X16584269Y8595106D01*
X16582034Y8598560D01*
X16581323Y8602624D01*
X16582593Y8607298D01*
X16587114Y8621115D01*
X16589806Y8635390D01*
X16590721Y8649919D01*
X16589806Y8664448D01*
X16587114Y8678773D01*
X16582593Y8692591D01*
X16576395Y8705748D01*
X16568623Y8718042D01*
X16559326Y8729268D01*
X16548709Y8739225D01*
X16536924Y8747760D01*
X16524173Y8754770D01*
X16510660Y8760155D01*
X16496538Y8763762D01*
X16482110Y8765590D01*
X16467582Y8765590D01*
X16453154Y8763762D01*
X16439032Y8760155D01*
X16425519Y8754770D01*
X16412768Y8747760D01*
X16400983Y8739225D01*
X16390366Y8729268D01*
X16381069Y8718042D01*
X16373297Y8705748D01*
X16367099Y8692591D01*
X16362578Y8678773D01*
X16359886Y8664448D01*
X16358971Y8649919D01*
X16359886Y8635390D01*
X16362578Y8621115D01*
X16367099Y8607298D01*
X16373297Y8594090D01*
X16381069Y8581796D01*
X16390366Y8570620D01*
X16400983Y8560663D01*
X16412768Y8552078D01*
X16425519Y8545068D01*
X16439032Y8539734D01*
X16453154Y8536127D01*
X16467582Y8534298D01*
X16482110Y8534298D01*
X16496538Y8536127D01*
X16510660Y8539734D01*
X16518636Y8542883D01*
X16522496Y8543594D01*
X16526306Y8542782D01*
X16529557Y8540597D01*
X16658386Y8411819D01*
X16660571Y8408517D01*
X16661384Y8404606D01*
X16661384Y8204911D01*
X16660571Y8200999D01*
X16658386Y8197697D01*
X16655084Y8195513D01*
X16651224Y8194751D01*
X16643908Y8194751D01*
X16637609Y8194040D01*
X16632123Y8192109D01*
X16627246Y8189061D01*
X16623131Y8184946D01*
X16620083Y8180070D01*
X16618153Y8174583D01*
X16617442Y8168284D01*
X16617442Y8031683D01*
X16618153Y8025384D01*
X16620083Y8019897D01*
X16623131Y8015020D01*
X16627246Y8010906D01*
X16632123Y8007858D01*
X16637609Y8005927D01*
X16643908Y8005216D01*
X16756024Y8005216D01*
X16762374Y8005927D01*
X16767810Y8007858D01*
X16772686Y8010906D01*
X16776801Y8015020D01*
X16779900Y8019897D01*
X16781780Y8025384D01*
X16782491Y8031683D01*
X16782491Y8051190D01*
X16783304Y8055102D01*
X16785488Y8058403D01*
X16788790Y8060588D01*
X16792651Y8061350D01*
X16979747Y8061350D01*
X16983659Y8060588D01*
X16986961Y8058403D01*
X17002252Y8043113D01*
X17004436Y8039811D01*
X17005198Y8035950D01*
X17005198Y7943951D01*
X17005909Y7937601D01*
X17007840Y7932166D01*
X17010888Y7927238D01*
X17015002Y7923174D01*
X17019879Y7920075D01*
X17025366Y7918145D01*
G37*
G36*
X6217462Y8040776D02*
G01*
X6265316Y8040776D01*
X6265316Y8094725D01*
X6243929Y8094725D01*
X6237630Y8094014D01*
X6232144Y8092135D01*
X6227267Y8089036D01*
X6223152Y8084972D01*
X6220104Y8080044D01*
X6218174Y8074609D01*
X6217462Y8068259D01*
G37*
G36*
X6334658Y8040776D02*
G01*
X6382512Y8040776D01*
X6382512Y8068259D01*
X6381800Y8074609D01*
X6379921Y8080044D01*
X6376822Y8084972D01*
X6372707Y8089036D01*
X6367830Y8092135D01*
X6362395Y8094014D01*
X6356045Y8094725D01*
X6334658Y8094725D01*
G37*
G36*
X9867849Y8075777D02*
G01*
X9882378Y8075777D01*
X9896805Y8077606D01*
X9910927Y8081213D01*
X9924440Y8086598D01*
X9937191Y8093608D01*
X9948976Y8102142D01*
X9959594Y8112099D01*
X9968839Y8123326D01*
X9976662Y8135620D01*
X9982860Y8148777D01*
X9987330Y8162594D01*
X9990074Y8176920D01*
X9990988Y8191449D01*
X9990074Y8205978D01*
X9987330Y8220252D01*
X9982860Y8234121D01*
X9976662Y8247278D01*
X9968839Y8259572D01*
X9959594Y8270748D01*
X9948976Y8280755D01*
X9937191Y8289290D01*
X9924440Y8296300D01*
X9910927Y8301634D01*
X9896805Y8305292D01*
X9882378Y8307120D01*
X9867849Y8307120D01*
X9853371Y8305292D01*
X9839299Y8301634D01*
X9825736Y8296300D01*
X9812985Y8289290D01*
X9801250Y8280755D01*
X9790633Y8270748D01*
X9781336Y8259572D01*
X9773564Y8247278D01*
X9767366Y8234121D01*
X9762845Y8220252D01*
X9760102Y8205978D01*
X9759188Y8191449D01*
X9760102Y8176920D01*
X9762845Y8162594D01*
X9767366Y8148777D01*
X9773564Y8135620D01*
X9781336Y8123326D01*
X9790633Y8112099D01*
X9801250Y8102142D01*
X9812985Y8093608D01*
X9825736Y8086598D01*
X9839299Y8081213D01*
X9853371Y8077606D01*
G37*
G36*
X10543895Y8305241D02*
G01*
X10656011Y8305241D01*
X10662361Y8305952D01*
X10667796Y8307831D01*
X10672724Y8310930D01*
X10676788Y8314994D01*
X10679887Y8319922D01*
X10681817Y8325358D01*
X10682528Y8331708D01*
X10682528Y8468258D01*
X10681817Y8474608D01*
X10679887Y8480044D01*
X10676788Y8484971D01*
X10672724Y8489035D01*
X10667796Y8492134D01*
X10662361Y8494014D01*
X10656011Y8494725D01*
X10648746Y8494725D01*
X10644835Y8495538D01*
X10641584Y8497722D01*
X10639348Y8501024D01*
X10638586Y8504885D01*
X10638586Y8795054D01*
X10639348Y8798966D01*
X10641584Y8802268D01*
X10644835Y8804452D01*
X10648746Y8805214D01*
X10656011Y8805214D01*
X10662361Y8805926D01*
X10667796Y8807856D01*
X10672724Y8810904D01*
X10676788Y8815019D01*
X10679887Y8819896D01*
X10681817Y8825382D01*
X10682528Y8831681D01*
X10682528Y8940038D01*
X10683290Y8943949D01*
X10685475Y8947200D01*
X10700105Y8961831D01*
X10703407Y8964066D01*
X10707268Y8964828D01*
X10711180Y8964066D01*
X10714482Y8961831D01*
X10716666Y8958529D01*
X10717428Y8954668D01*
X10717428Y8940749D01*
X10765332Y8940749D01*
X10765332Y8994749D01*
X10757509Y8994749D01*
X10753648Y8995511D01*
X10750346Y8997696D01*
X10748162Y9000998D01*
X10747349Y9004909D01*
X10748162Y9008770D01*
X10750346Y9012072D01*
X11028883Y9290608D01*
X11032134Y9292793D01*
X11035944Y9293606D01*
X11039805Y9292894D01*
X11047780Y9289694D01*
X11061903Y9286087D01*
X11076330Y9284258D01*
X11090859Y9284258D01*
X11105337Y9286087D01*
X11119408Y9289694D01*
X11132921Y9295079D01*
X11145672Y9302089D01*
X11157458Y9310624D01*
X11168075Y9320580D01*
X11177371Y9331807D01*
X11185144Y9344101D01*
X11191341Y9357258D01*
X11195862Y9371126D01*
X11198555Y9385401D01*
X11199469Y9399930D01*
X11198555Y9414459D01*
X11195862Y9428734D01*
X11191341Y9442602D01*
X11185144Y9455759D01*
X11177371Y9468053D01*
X11168075Y9479280D01*
X11157458Y9489236D01*
X11145672Y9497771D01*
X11132921Y9504781D01*
X11119408Y9510166D01*
X11105337Y9513773D01*
X11090859Y9515602D01*
X11076330Y9515602D01*
X11061903Y9513773D01*
X11047780Y9510166D01*
X11034268Y9504781D01*
X11021517Y9497771D01*
X11009731Y9489236D01*
X10999114Y9479280D01*
X10989818Y9468053D01*
X10982045Y9455759D01*
X10975848Y9442602D01*
X10971326Y9428734D01*
X10968634Y9414459D01*
X10967720Y9399930D01*
X10968634Y9385401D01*
X10971326Y9371126D01*
X10975848Y9357258D01*
X10977118Y9352584D01*
X10976406Y9348520D01*
X10974171Y9345117D01*
X10626801Y8997696D01*
X10623499Y8995511D01*
X10619587Y8994749D01*
X10543895Y8994749D01*
X10537596Y8994038D01*
X10532110Y8992108D01*
X10527233Y8989060D01*
X10523118Y8984945D01*
X10520070Y8980068D01*
X10518140Y8974582D01*
X10517428Y8968282D01*
X10517428Y8831681D01*
X10518140Y8825382D01*
X10520070Y8819896D01*
X10523118Y8815019D01*
X10527233Y8810904D01*
X10532110Y8807856D01*
X10537596Y8805926D01*
X10543895Y8805214D01*
X10551210Y8805214D01*
X10555122Y8804452D01*
X10558373Y8802268D01*
X10560608Y8798966D01*
X10561370Y8795054D01*
X10561370Y8504885D01*
X10560608Y8501024D01*
X10558373Y8497722D01*
X10555122Y8495538D01*
X10551210Y8494725D01*
X10543895Y8494725D01*
X10537596Y8494014D01*
X10532110Y8492134D01*
X10527233Y8489035D01*
X10523118Y8484971D01*
X10520070Y8480044D01*
X10518140Y8474608D01*
X10517428Y8468258D01*
X10517428Y8331708D01*
X10518140Y8325358D01*
X10520070Y8319922D01*
X10523118Y8314994D01*
X10527233Y8310930D01*
X10532110Y8307831D01*
X10537596Y8305952D01*
G37*
G36*
X10743946Y8305241D02*
G01*
X10856061Y8305241D01*
X10862360Y8305952D01*
X10867847Y8307831D01*
X10872724Y8310930D01*
X10876838Y8314994D01*
X10879886Y8319922D01*
X10881817Y8325358D01*
X10882528Y8331708D01*
X10882528Y8423706D01*
X10883290Y8427618D01*
X10885474Y8430920D01*
X10913008Y8458403D01*
X10916310Y8460587D01*
X10920171Y8461349D01*
X11096396Y8461349D01*
X11100308Y8460587D01*
X11103610Y8458403D01*
X11105794Y8455101D01*
X11106556Y8451189D01*
X11106556Y8430056D01*
X11107267Y8423706D01*
X11109198Y8418271D01*
X11112296Y8413343D01*
X11116360Y8409279D01*
X11121288Y8406180D01*
X11126724Y8404301D01*
X11133023Y8403590D01*
X11266932Y8403590D01*
X11273231Y8404301D01*
X11278666Y8406180D01*
X11283594Y8409279D01*
X11287658Y8413343D01*
X11290757Y8418271D01*
X11292687Y8423706D01*
X11293398Y8430056D01*
X11293398Y8534603D01*
X11294160Y8538464D01*
X11296345Y8541766D01*
X11726926Y8972346D01*
X11732056Y8978544D01*
X11735612Y8985250D01*
X11737797Y8992463D01*
X11738559Y9000490D01*
X11738559Y9799472D01*
X11737797Y9807498D01*
X11735612Y9814712D01*
X11732056Y9821418D01*
X11726926Y9827615D01*
X10700613Y10853978D01*
X10698480Y10857026D01*
X10697616Y10860684D01*
X10698175Y10864392D01*
X10701020Y10872876D01*
X10703712Y10886338D01*
X10704626Y10899952D01*
X10703712Y10913618D01*
X10701020Y10927080D01*
X10696651Y10940034D01*
X10690606Y10952276D01*
X10682986Y10963656D01*
X10673943Y10973968D01*
X10663682Y10982960D01*
X10652302Y10990580D01*
X10640009Y10996625D01*
X10627055Y11001044D01*
X10613644Y11003686D01*
X10599978Y11004600D01*
X10586313Y11003686D01*
X10572902Y11001044D01*
X10559948Y10996625D01*
X10547654Y10990580D01*
X10536275Y10982960D01*
X10526014Y10973968D01*
X10516971Y10963656D01*
X10509351Y10952276D01*
X10503306Y10940034D01*
X10498937Y10927080D01*
X10496245Y10913618D01*
X10495330Y10899952D01*
X10496245Y10886338D01*
X10498937Y10872876D01*
X10503306Y10859922D01*
X10509351Y10847679D01*
X10516971Y10836300D01*
X10526014Y10825988D01*
X10536275Y10816996D01*
X10547654Y10809376D01*
X10559948Y10803331D01*
X10572902Y10798911D01*
X10586313Y10796270D01*
X10599978Y10795355D01*
X10613644Y10796270D01*
X10627055Y10798911D01*
X10635538Y10801807D01*
X10639247Y10802315D01*
X10642904Y10801451D01*
X10646003Y10799368D01*
X11658396Y9786975D01*
X11660581Y9783673D01*
X11661343Y9779762D01*
X11661343Y9020200D01*
X11660581Y9016288D01*
X11658396Y9012986D01*
X11306759Y8661349D01*
X11303457Y8659164D01*
X11299545Y8658402D01*
X11240058Y8658402D01*
X11240058Y8606536D01*
X11239296Y8602675D01*
X11237112Y8599373D01*
X11233810Y8597138D01*
X11229898Y8596376D01*
X11170056Y8596376D01*
X11166144Y8597138D01*
X11162842Y8599373D01*
X11160658Y8602675D01*
X11159896Y8606536D01*
X11159896Y8658402D01*
X11106556Y8658402D01*
X11106556Y8630056D01*
X11107267Y8623757D01*
X11109198Y8618270D01*
X11112296Y8613394D01*
X11116360Y8609279D01*
X11120424Y8605774D01*
X11121999Y8602014D01*
X11121999Y8597950D01*
X11120424Y8594191D01*
X11116360Y8590686D01*
X11112296Y8586571D01*
X11109198Y8581694D01*
X11107267Y8576208D01*
X11106556Y8569909D01*
X11106556Y8548725D01*
X11105794Y8544864D01*
X11103610Y8541562D01*
X11100308Y8539378D01*
X11096396Y8538565D01*
X10900460Y8538565D01*
X10892434Y8537803D01*
X10885220Y8535619D01*
X10878566Y8532063D01*
X10872317Y8526932D01*
X10843107Y8497722D01*
X10839805Y8495538D01*
X10835944Y8494725D01*
X10743946Y8494725D01*
X10737596Y8494014D01*
X10732160Y8492134D01*
X10727232Y8489035D01*
X10723168Y8484971D01*
X10720070Y8480044D01*
X10718139Y8474608D01*
X10717428Y8468258D01*
X10717428Y8331708D01*
X10718139Y8325358D01*
X10720070Y8319922D01*
X10723168Y8314994D01*
X10727232Y8310930D01*
X10732160Y8307831D01*
X10737596Y8305952D01*
G37*
G36*
X5467604Y8409279D02*
G01*
X5482132Y8409279D01*
X5496560Y8411108D01*
X5510682Y8414715D01*
X5524195Y8420100D01*
X5536946Y8427110D01*
X5548731Y8435644D01*
X5559348Y8445601D01*
X5568645Y8456828D01*
X5576417Y8469122D01*
X5582615Y8482279D01*
X5587136Y8496096D01*
X5589828Y8510422D01*
X5590743Y8524951D01*
X5589828Y8539480D01*
X5587136Y8553754D01*
X5582615Y8567623D01*
X5576417Y8580780D01*
X5568645Y8593074D01*
X5559348Y8604250D01*
X5548731Y8614206D01*
X5536946Y8622792D01*
X5524195Y8629802D01*
X5510682Y8635136D01*
X5496560Y8638794D01*
X5482132Y8640622D01*
X5467604Y8640622D01*
X5453176Y8638794D01*
X5439054Y8635136D01*
X5425541Y8629802D01*
X5412790Y8622792D01*
X5401005Y8614206D01*
X5390388Y8604250D01*
X5381091Y8593074D01*
X5373319Y8580780D01*
X5367121Y8567623D01*
X5362600Y8553754D01*
X5359908Y8539480D01*
X5358993Y8524951D01*
X5359908Y8510422D01*
X5362600Y8496096D01*
X5367121Y8482279D01*
X5373319Y8469122D01*
X5381091Y8456828D01*
X5390388Y8445601D01*
X5401005Y8435644D01*
X5412790Y8427110D01*
X5425541Y8420100D01*
X5439054Y8414715D01*
X5453176Y8411108D01*
G37*
G36*
X13617803Y8409279D02*
G01*
X13632383Y8409279D01*
X13646810Y8411108D01*
X13660882Y8414715D01*
X13674445Y8420100D01*
X13687196Y8427110D01*
X13698982Y8435644D01*
X13709548Y8445601D01*
X13718844Y8456828D01*
X13726668Y8469122D01*
X13732865Y8482279D01*
X13737336Y8496096D01*
X13740079Y8510422D01*
X13740993Y8524951D01*
X13740079Y8539480D01*
X13737336Y8553754D01*
X13732865Y8567623D01*
X13726668Y8580780D01*
X13718844Y8593074D01*
X13709548Y8604250D01*
X13698982Y8614206D01*
X13687196Y8622792D01*
X13674445Y8629802D01*
X13660882Y8635136D01*
X13646810Y8638794D01*
X13632383Y8640622D01*
X13617803Y8640622D01*
X13603376Y8638794D01*
X13589304Y8635136D01*
X13575741Y8629802D01*
X13562990Y8622792D01*
X13551204Y8614206D01*
X13540638Y8604250D01*
X13531342Y8593074D01*
X13523518Y8580780D01*
X13517321Y8567623D01*
X13512850Y8553754D01*
X13510107Y8539480D01*
X13509193Y8524951D01*
X13510107Y8510422D01*
X13512850Y8496096D01*
X13517321Y8482279D01*
X13523518Y8469122D01*
X13531342Y8456828D01*
X13540638Y8445601D01*
X13551204Y8435644D01*
X13562990Y8427110D01*
X13575741Y8420100D01*
X13589304Y8414715D01*
X13603376Y8411108D01*
G37*
G36*
X9867849Y8525865D02*
G01*
X9882378Y8525865D01*
X9896805Y8527694D01*
X9910927Y8531301D01*
X9924440Y8536686D01*
X9937191Y8543696D01*
X9948976Y8552230D01*
X9959594Y8562187D01*
X9968839Y8573414D01*
X9976662Y8585708D01*
X9982860Y8598865D01*
X9987330Y8612682D01*
X9990074Y8627008D01*
X9990988Y8641537D01*
X9990074Y8656066D01*
X9987330Y8670340D01*
X9982860Y8684209D01*
X9976662Y8697366D01*
X9968839Y8709660D01*
X9959594Y8720836D01*
X9948976Y8730843D01*
X9937191Y8739378D01*
X9924440Y8746388D01*
X9910927Y8751722D01*
X9896805Y8755380D01*
X9882378Y8757208D01*
X9867849Y8757208D01*
X9853371Y8755380D01*
X9839299Y8751722D01*
X9825736Y8746388D01*
X9812985Y8739378D01*
X9801250Y8730843D01*
X9790633Y8720836D01*
X9781336Y8709660D01*
X9773564Y8697366D01*
X9767366Y8684209D01*
X9762845Y8670340D01*
X9760102Y8656066D01*
X9759188Y8641537D01*
X9760102Y8627008D01*
X9762845Y8612682D01*
X9767366Y8598865D01*
X9773564Y8585708D01*
X9781336Y8573414D01*
X9790633Y8562187D01*
X9801250Y8552230D01*
X9812985Y8543696D01*
X9825736Y8536686D01*
X9839299Y8531301D01*
X9853371Y8527694D01*
G37*
G36*
X9217609Y8525865D02*
G01*
X9232138Y8525865D01*
X9246565Y8527694D01*
X9260687Y8531301D01*
X9274200Y8536686D01*
X9286951Y8543696D01*
X9298736Y8552230D01*
X9309354Y8562187D01*
X9318599Y8573414D01*
X9326422Y8585708D01*
X9332620Y8598865D01*
X9337090Y8612682D01*
X9339834Y8627008D01*
X9340748Y8641537D01*
X9339834Y8656066D01*
X9337090Y8670340D01*
X9332620Y8684209D01*
X9326422Y8697366D01*
X9318599Y8709660D01*
X9309354Y8720836D01*
X9298736Y8730843D01*
X9286951Y8739378D01*
X9274200Y8746388D01*
X9260687Y8751722D01*
X9246565Y8755380D01*
X9232138Y8757208D01*
X9217609Y8757208D01*
X9203131Y8755380D01*
X9189059Y8751722D01*
X9175496Y8746388D01*
X9162745Y8739378D01*
X9151010Y8730843D01*
X9140393Y8720836D01*
X9131096Y8709660D01*
X9123324Y8697366D01*
X9117126Y8684209D01*
X9112605Y8670340D01*
X9109862Y8656066D01*
X9108948Y8641537D01*
X9109862Y8627008D01*
X9112605Y8612682D01*
X9117126Y8598865D01*
X9123324Y8585708D01*
X9131096Y8573414D01*
X9140393Y8562187D01*
X9151010Y8552230D01*
X9162745Y8543696D01*
X9175496Y8536686D01*
X9189059Y8531301D01*
X9203131Y8527694D01*
G37*
G36*
X17117822Y8534298D02*
G01*
X17132350Y8534298D01*
X17146778Y8536127D01*
X17160900Y8539734D01*
X17174413Y8545068D01*
X17187164Y8552078D01*
X17198949Y8560663D01*
X17209566Y8570620D01*
X17218863Y8581796D01*
X17226635Y8594090D01*
X17232833Y8607298D01*
X17237354Y8621115D01*
X17240046Y8635390D01*
X17240961Y8649919D01*
X17240046Y8664448D01*
X17237354Y8678773D01*
X17232833Y8692591D01*
X17226635Y8705748D01*
X17218863Y8718042D01*
X17209566Y8729268D01*
X17198949Y8739225D01*
X17187164Y8747760D01*
X17174413Y8754770D01*
X17160900Y8760155D01*
X17146778Y8763762D01*
X17132350Y8765590D01*
X17117822Y8765590D01*
X17103394Y8763762D01*
X17089272Y8760155D01*
X17075759Y8754770D01*
X17063008Y8747760D01*
X17051223Y8739225D01*
X17040606Y8729268D01*
X17031309Y8718042D01*
X17023537Y8705748D01*
X17017339Y8692591D01*
X17012818Y8678773D01*
X17010126Y8664448D01*
X17009211Y8649919D01*
X17010126Y8635390D01*
X17012818Y8621115D01*
X17017339Y8607298D01*
X17023537Y8594090D01*
X17031309Y8581796D01*
X17040606Y8570620D01*
X17051223Y8560663D01*
X17063008Y8552078D01*
X17075759Y8545068D01*
X17089272Y8539734D01*
X17103394Y8536127D01*
G37*
G36*
X11240058Y8741562D02*
G01*
X11293398Y8741562D01*
X11293398Y8769908D01*
X11292687Y8776258D01*
X11290757Y8781694D01*
X11287658Y8786622D01*
X11283594Y8790686D01*
X11278666Y8793784D01*
X11273231Y8795664D01*
X11266932Y8796375D01*
X11240058Y8796375D01*
G37*
G36*
X11106556Y8741562D02*
G01*
X11159896Y8741562D01*
X11159896Y8796375D01*
X11133023Y8796375D01*
X11126724Y8795664D01*
X11121288Y8793784D01*
X11116360Y8790686D01*
X11112296Y8786622D01*
X11109198Y8781694D01*
X11107267Y8776258D01*
X11106556Y8769908D01*
G37*
G36*
X10743946Y8805214D02*
G01*
X10765332Y8805214D01*
X10765332Y8859215D01*
X10717428Y8859215D01*
X10717428Y8831681D01*
X10718139Y8825382D01*
X10720070Y8819896D01*
X10723168Y8815019D01*
X10727232Y8810904D01*
X10732160Y8807856D01*
X10737596Y8805926D01*
G37*
G36*
X10834624Y8805214D02*
G01*
X10856061Y8805214D01*
X10862360Y8805926D01*
X10867847Y8807856D01*
X10872724Y8810904D01*
X10876838Y8815019D01*
X10879886Y8819896D01*
X10881817Y8825382D01*
X10882528Y8831681D01*
X10882528Y8859215D01*
X10834624Y8859215D01*
G37*
G36*
X12967563Y8859367D02*
G01*
X12982143Y8859367D01*
X12996570Y8861196D01*
X13010642Y8864803D01*
X13024205Y8870188D01*
X13036956Y8877198D01*
X13048742Y8885732D01*
X13059308Y8895689D01*
X13068604Y8906916D01*
X13076428Y8919210D01*
X13082625Y8932367D01*
X13087096Y8946184D01*
X13089839Y8960510D01*
X13090753Y8975039D01*
X13089839Y8989568D01*
X13087096Y9003842D01*
X13082625Y9017711D01*
X13076428Y9030868D01*
X13068604Y9043162D01*
X13059308Y9054338D01*
X13048742Y9064294D01*
X13036956Y9072880D01*
X13024205Y9079890D01*
X13010642Y9085224D01*
X12996570Y9088882D01*
X12982143Y9090710D01*
X12967563Y9090710D01*
X12953136Y9088882D01*
X12939064Y9085224D01*
X12925501Y9079890D01*
X12912750Y9072880D01*
X12900964Y9064294D01*
X12890398Y9054338D01*
X12881102Y9043162D01*
X12873278Y9030868D01*
X12867081Y9017711D01*
X12862610Y9003842D01*
X12859867Y8989568D01*
X12858953Y8975039D01*
X12859867Y8960510D01*
X12862610Y8946184D01*
X12867081Y8932367D01*
X12873278Y8919210D01*
X12881102Y8906916D01*
X12890398Y8895689D01*
X12900964Y8885732D01*
X12912750Y8877198D01*
X12925501Y8870188D01*
X12939064Y8864803D01*
X12953136Y8861196D01*
G37*
G36*
X6117844Y8859367D02*
G01*
X6132372Y8859367D01*
X6146800Y8861196D01*
X6160922Y8864803D01*
X6174435Y8870188D01*
X6187186Y8877198D01*
X6198971Y8885732D01*
X6209588Y8895689D01*
X6218885Y8906916D01*
X6226657Y8919210D01*
X6232855Y8932367D01*
X6237376Y8946184D01*
X6240068Y8960510D01*
X6240983Y8975039D01*
X6240068Y8989568D01*
X6237376Y9003842D01*
X6232855Y9017711D01*
X6226657Y9030868D01*
X6218885Y9043162D01*
X6209588Y9054338D01*
X6198971Y9064294D01*
X6187186Y9072880D01*
X6174435Y9079890D01*
X6160922Y9085224D01*
X6146800Y9088882D01*
X6132372Y9090710D01*
X6117844Y9090710D01*
X6103416Y9088882D01*
X6089294Y9085224D01*
X6075781Y9079890D01*
X6063030Y9072880D01*
X6051245Y9064294D01*
X6040628Y9054338D01*
X6031331Y9043162D01*
X6023559Y9030868D01*
X6017361Y9017711D01*
X6012840Y9003842D01*
X6010148Y8989568D01*
X6009233Y8975039D01*
X6010148Y8960510D01*
X6012840Y8946184D01*
X6017361Y8932367D01*
X6023559Y8919210D01*
X6031331Y8906916D01*
X6040628Y8895689D01*
X6051245Y8885732D01*
X6063030Y8877198D01*
X6075781Y8870188D01*
X6089294Y8864803D01*
X6103416Y8861196D01*
G37*
G36*
X5467604Y8859367D02*
G01*
X5482132Y8859367D01*
X5496560Y8861196D01*
X5510682Y8864803D01*
X5524195Y8870188D01*
X5536946Y8877198D01*
X5548731Y8885732D01*
X5559348Y8895689D01*
X5568645Y8906916D01*
X5576417Y8919210D01*
X5582615Y8932367D01*
X5587136Y8946184D01*
X5589828Y8960510D01*
X5590743Y8975039D01*
X5589828Y8989568D01*
X5587136Y9003842D01*
X5582615Y9017711D01*
X5576417Y9030868D01*
X5568645Y9043162D01*
X5559348Y9054338D01*
X5548731Y9064294D01*
X5536946Y9072880D01*
X5524195Y9079890D01*
X5510682Y9085224D01*
X5496560Y9088882D01*
X5482132Y9090710D01*
X5467604Y9090710D01*
X5453176Y9088882D01*
X5439054Y9085224D01*
X5425541Y9079890D01*
X5412790Y9072880D01*
X5401005Y9064294D01*
X5390388Y9054338D01*
X5381091Y9043162D01*
X5373319Y9030868D01*
X5367121Y9017711D01*
X5362600Y9003842D01*
X5359908Y8989568D01*
X5358993Y8975039D01*
X5359908Y8960510D01*
X5362600Y8946184D01*
X5367121Y8932367D01*
X5373319Y8919210D01*
X5381091Y8906916D01*
X5390388Y8895689D01*
X5401005Y8885732D01*
X5412790Y8877198D01*
X5425541Y8870188D01*
X5439054Y8864803D01*
X5453176Y8861196D01*
G37*
G36*
X13617803Y8859367D02*
G01*
X13632383Y8859367D01*
X13646810Y8861196D01*
X13660882Y8864803D01*
X13674445Y8870188D01*
X13687196Y8877198D01*
X13698982Y8885732D01*
X13709548Y8895689D01*
X13718844Y8906916D01*
X13726668Y8919210D01*
X13732865Y8932367D01*
X13737336Y8946184D01*
X13740079Y8960510D01*
X13740993Y8975039D01*
X13740079Y8989568D01*
X13737336Y9003842D01*
X13732865Y9017711D01*
X13726668Y9030868D01*
X13718844Y9043162D01*
X13709548Y9054338D01*
X13698982Y9064294D01*
X13687196Y9072880D01*
X13674445Y9079890D01*
X13660882Y9085224D01*
X13646810Y9088882D01*
X13632383Y9090710D01*
X13617803Y9090710D01*
X13603376Y9088882D01*
X13589304Y9085224D01*
X13575741Y9079890D01*
X13562990Y9072880D01*
X13551204Y9064294D01*
X13540638Y9054338D01*
X13531342Y9043162D01*
X13523518Y9030868D01*
X13517321Y9017711D01*
X13512850Y9003842D01*
X13510107Y8989568D01*
X13509193Y8975039D01*
X13510107Y8960510D01*
X13512850Y8946184D01*
X13517321Y8932367D01*
X13523518Y8919210D01*
X13531342Y8906916D01*
X13540638Y8895689D01*
X13551204Y8885732D01*
X13562990Y8877198D01*
X13575741Y8870188D01*
X13589304Y8864803D01*
X13603376Y8861196D01*
G37*
G36*
X10834624Y8940749D02*
G01*
X10882528Y8940749D01*
X10882528Y8968282D01*
X10881817Y8974582D01*
X10879886Y8980068D01*
X10876838Y8984945D01*
X10872724Y8989060D01*
X10867847Y8992108D01*
X10862360Y8994038D01*
X10856061Y8994749D01*
X10834624Y8994749D01*
G37*
G36*
X17117822Y8984386D02*
G01*
X17132350Y8984386D01*
X17146778Y8986215D01*
X17160900Y8989822D01*
X17174413Y8995156D01*
X17187164Y9002166D01*
X17198949Y9010751D01*
X17209566Y9020708D01*
X17218863Y9031884D01*
X17226635Y9044178D01*
X17232833Y9057386D01*
X17237354Y9071203D01*
X17240046Y9085478D01*
X17240961Y9100007D01*
X17240046Y9114536D01*
X17237354Y9128861D01*
X17232833Y9142679D01*
X17226635Y9155836D01*
X17218863Y9168130D01*
X17209566Y9179356D01*
X17198949Y9189313D01*
X17187164Y9197848D01*
X17174413Y9204858D01*
X17160900Y9210243D01*
X17146778Y9213850D01*
X17132350Y9215678D01*
X17117822Y9215678D01*
X17103394Y9213850D01*
X17089272Y9210243D01*
X17075759Y9204858D01*
X17063008Y9197848D01*
X17051223Y9189313D01*
X17040606Y9179356D01*
X17031309Y9168130D01*
X17023537Y9155836D01*
X17017339Y9142679D01*
X17012818Y9128861D01*
X17010126Y9114536D01*
X17009211Y9100007D01*
X17010126Y9085478D01*
X17012818Y9071203D01*
X17017339Y9057386D01*
X17023537Y9044178D01*
X17031309Y9031884D01*
X17040606Y9020708D01*
X17051223Y9010751D01*
X17063008Y9002166D01*
X17075759Y8995156D01*
X17089272Y8989822D01*
X17103394Y8986215D01*
G37*
G36*
X16467582Y8984386D02*
G01*
X16482110Y8984386D01*
X16496538Y8986215D01*
X16510660Y8989822D01*
X16524173Y8995156D01*
X16536924Y9002166D01*
X16548709Y9010751D01*
X16559326Y9020708D01*
X16568623Y9031884D01*
X16576395Y9044178D01*
X16582593Y9057386D01*
X16587114Y9071203D01*
X16589806Y9085478D01*
X16590721Y9100007D01*
X16589806Y9114536D01*
X16587114Y9128861D01*
X16582593Y9142679D01*
X16576395Y9155836D01*
X16568623Y9168130D01*
X16559326Y9179356D01*
X16548709Y9189313D01*
X16536924Y9197848D01*
X16524173Y9204858D01*
X16510660Y9210243D01*
X16496538Y9213850D01*
X16482110Y9215678D01*
X16467582Y9215678D01*
X16453154Y9213850D01*
X16439032Y9210243D01*
X16425519Y9204858D01*
X16412768Y9197848D01*
X16400983Y9189313D01*
X16390366Y9179356D01*
X16381069Y9168130D01*
X16373297Y9155836D01*
X16367099Y9142679D01*
X16362578Y9128861D01*
X16359886Y9114536D01*
X16358971Y9100007D01*
X16359886Y9085478D01*
X16362578Y9071203D01*
X16367099Y9057386D01*
X16373297Y9044178D01*
X16381069Y9031884D01*
X16390366Y9020708D01*
X16400983Y9010751D01*
X16412768Y9002166D01*
X16425519Y8995156D01*
X16439032Y8989822D01*
X16453154Y8986215D01*
G37*
G36*
X1967585Y9284258D02*
G01*
X1982165Y9284258D01*
X1996592Y9286087D01*
X2010664Y9289694D01*
X2024227Y9295079D01*
X2036978Y9302089D01*
X2048764Y9310624D01*
X2059330Y9320580D01*
X2068626Y9331807D01*
X2076450Y9344101D01*
X2082647Y9357258D01*
X2087118Y9371126D01*
X2089861Y9385401D01*
X2090775Y9399930D01*
X2089861Y9414459D01*
X2087118Y9428734D01*
X2082647Y9442602D01*
X2076450Y9455759D01*
X2068626Y9468053D01*
X2059330Y9479280D01*
X2048764Y9489236D01*
X2036978Y9497771D01*
X2024227Y9504781D01*
X2010664Y9510166D01*
X1996592Y9513773D01*
X1982165Y9515602D01*
X1967585Y9515602D01*
X1953158Y9513773D01*
X1939086Y9510166D01*
X1925523Y9504781D01*
X1912772Y9497771D01*
X1900986Y9489236D01*
X1890420Y9479280D01*
X1881124Y9468053D01*
X1873300Y9455759D01*
X1867103Y9442602D01*
X1862632Y9428734D01*
X1859889Y9414459D01*
X1858975Y9399930D01*
X1859889Y9385401D01*
X1862632Y9371126D01*
X1867103Y9357258D01*
X1873300Y9344101D01*
X1881124Y9331807D01*
X1890420Y9320580D01*
X1900986Y9310624D01*
X1912772Y9302089D01*
X1925523Y9295079D01*
X1939086Y9289694D01*
X1953158Y9286087D01*
G37*
G36*
X8659317Y9284258D02*
G01*
X8673896Y9284258D01*
X8688324Y9286087D01*
X8702395Y9289694D01*
X8715959Y9295079D01*
X8728710Y9302089D01*
X8740495Y9310624D01*
X8751062Y9320580D01*
X8760358Y9331807D01*
X8768181Y9344101D01*
X8774379Y9357258D01*
X8778849Y9371126D01*
X8781592Y9385401D01*
X8782507Y9399930D01*
X8781592Y9414459D01*
X8778849Y9428734D01*
X8774379Y9442602D01*
X8768181Y9455759D01*
X8760358Y9468053D01*
X8751062Y9479280D01*
X8740495Y9489236D01*
X8728710Y9497771D01*
X8715959Y9504781D01*
X8702395Y9510166D01*
X8688324Y9513773D01*
X8673896Y9515602D01*
X8659317Y9515602D01*
X8644890Y9513773D01*
X8630818Y9510166D01*
X8617254Y9504781D01*
X8604504Y9497771D01*
X8592718Y9489236D01*
X8582101Y9479280D01*
X8572855Y9468053D01*
X8565032Y9455759D01*
X8558834Y9442602D01*
X8554364Y9428734D01*
X8551621Y9414459D01*
X8550706Y9399930D01*
X8551621Y9385401D01*
X8554364Y9371126D01*
X8558834Y9357258D01*
X8565032Y9344101D01*
X8572855Y9331807D01*
X8582101Y9320580D01*
X8592718Y9310624D01*
X8604504Y9302089D01*
X8617254Y9295079D01*
X8630818Y9289694D01*
X8644890Y9286087D01*
G37*
G36*
X10426090Y9284258D02*
G01*
X10440619Y9284258D01*
X10455097Y9286087D01*
X10469168Y9289694D01*
X10482681Y9295079D01*
X10495432Y9302089D01*
X10507218Y9310624D01*
X10517835Y9320580D01*
X10527131Y9331807D01*
X10534904Y9344101D01*
X10541101Y9357258D01*
X10545622Y9371126D01*
X10548315Y9385401D01*
X10549229Y9399930D01*
X10548315Y9414459D01*
X10545622Y9428734D01*
X10541101Y9442602D01*
X10534904Y9455759D01*
X10527131Y9468053D01*
X10517835Y9479280D01*
X10507218Y9489236D01*
X10495432Y9497771D01*
X10482681Y9504781D01*
X10469168Y9510166D01*
X10455097Y9513773D01*
X10440619Y9515602D01*
X10426090Y9515602D01*
X10411663Y9513773D01*
X10397540Y9510166D01*
X10384028Y9504781D01*
X10371277Y9497771D01*
X10359491Y9489236D01*
X10348874Y9479280D01*
X10339578Y9468053D01*
X10331805Y9455759D01*
X10325608Y9442602D01*
X10321086Y9428734D01*
X10318394Y9414459D01*
X10317480Y9399930D01*
X10318394Y9385401D01*
X10321086Y9371126D01*
X10325608Y9357258D01*
X10331805Y9344101D01*
X10339578Y9331807D01*
X10348874Y9320580D01*
X10359491Y9310624D01*
X10371277Y9302089D01*
X10384028Y9295079D01*
X10397540Y9289694D01*
X10411663Y9286087D01*
G37*
G36*
X2617825Y9284258D02*
G01*
X2632405Y9284258D01*
X2646832Y9286087D01*
X2660904Y9289694D01*
X2674467Y9295079D01*
X2687218Y9302089D01*
X2699004Y9310624D01*
X2709570Y9320580D01*
X2718866Y9331807D01*
X2726690Y9344101D01*
X2732887Y9357258D01*
X2737358Y9371126D01*
X2740101Y9385401D01*
X2741015Y9399930D01*
X2740101Y9414459D01*
X2737358Y9428734D01*
X2732887Y9442602D01*
X2726690Y9455759D01*
X2718866Y9468053D01*
X2709570Y9479280D01*
X2699004Y9489236D01*
X2687218Y9497771D01*
X2674467Y9504781D01*
X2660904Y9510166D01*
X2646832Y9513773D01*
X2632405Y9515602D01*
X2617825Y9515602D01*
X2603398Y9513773D01*
X2589326Y9510166D01*
X2575763Y9504781D01*
X2563012Y9497771D01*
X2551226Y9489236D01*
X2540660Y9479280D01*
X2531364Y9468053D01*
X2523540Y9455759D01*
X2517343Y9442602D01*
X2512872Y9428734D01*
X2510129Y9414459D01*
X2509215Y9399930D01*
X2510129Y9385401D01*
X2512872Y9371126D01*
X2517343Y9357258D01*
X2523540Y9344101D01*
X2531364Y9331807D01*
X2540660Y9320580D01*
X2551226Y9310624D01*
X2563012Y9302089D01*
X2575763Y9295079D01*
X2589326Y9289694D01*
X2603398Y9286087D01*
G37*
G36*
X8009077Y9284258D02*
G01*
X8023656Y9284258D01*
X8038084Y9286087D01*
X8052155Y9289694D01*
X8065719Y9295079D01*
X8078470Y9302089D01*
X8090255Y9310624D01*
X8100822Y9320580D01*
X8110118Y9331807D01*
X8117941Y9344101D01*
X8124139Y9357258D01*
X8128609Y9371126D01*
X8131352Y9385401D01*
X8132267Y9399930D01*
X8131352Y9414459D01*
X8128609Y9428734D01*
X8124139Y9442602D01*
X8117941Y9455759D01*
X8110118Y9468053D01*
X8100822Y9479280D01*
X8090255Y9489236D01*
X8078470Y9497771D01*
X8065719Y9504781D01*
X8052155Y9510166D01*
X8038084Y9513773D01*
X8023656Y9515602D01*
X8009077Y9515602D01*
X7994650Y9513773D01*
X7980578Y9510166D01*
X7967014Y9504781D01*
X7954264Y9497771D01*
X7942478Y9489236D01*
X7931861Y9479280D01*
X7922615Y9468053D01*
X7914792Y9455759D01*
X7908594Y9442602D01*
X7904124Y9428734D01*
X7901381Y9414459D01*
X7900466Y9399930D01*
X7901381Y9385401D01*
X7904124Y9371126D01*
X7908594Y9357258D01*
X7914792Y9344101D01*
X7922615Y9331807D01*
X7931861Y9320580D01*
X7942478Y9310624D01*
X7954264Y9302089D01*
X7967014Y9295079D01*
X7980578Y9289694D01*
X7994650Y9286087D01*
G37*
G36*
X5443931Y9405213D02*
G01*
X5556046Y9405213D01*
X5562346Y9405924D01*
X5567832Y9407855D01*
X5572709Y9410903D01*
X5576824Y9415018D01*
X5579872Y9419894D01*
X5581802Y9425381D01*
X5582513Y9431680D01*
X5582513Y9568281D01*
X5581802Y9574580D01*
X5579872Y9580067D01*
X5576824Y9584944D01*
X5572709Y9589058D01*
X5567832Y9592106D01*
X5562346Y9594037D01*
X5556046Y9594748D01*
X5548782Y9594748D01*
X5544870Y9595510D01*
X5541568Y9597694D01*
X5539384Y9600996D01*
X5538622Y9604908D01*
X5538622Y9796424D01*
X5539384Y9800285D01*
X5541568Y9803587D01*
X5544870Y9805822D01*
X5548782Y9806584D01*
X5569915Y9806584D01*
X5576214Y9807295D01*
X5581700Y9809175D01*
X5586577Y9812274D01*
X5590692Y9816388D01*
X5594197Y9820402D01*
X5597956Y9822027D01*
X5602020Y9822027D01*
X5605780Y9820402D01*
X5609285Y9816388D01*
X5613400Y9812274D01*
X5618276Y9809175D01*
X5623763Y9807295D01*
X5630062Y9806584D01*
X5658408Y9806584D01*
X5658408Y9859873D01*
X5606542Y9859873D01*
X5602681Y9860635D01*
X5599379Y9862870D01*
X5597144Y9866172D01*
X5596382Y9870033D01*
X5596382Y9929926D01*
X5597144Y9933787D01*
X5599379Y9937089D01*
X5602681Y9939324D01*
X5606542Y9940086D01*
X5658408Y9940086D01*
X5658408Y9993376D01*
X5630062Y9993376D01*
X5623763Y9992664D01*
X5618276Y9990785D01*
X5613400Y9987686D01*
X5609285Y9983571D01*
X5605780Y9979558D01*
X5602020Y9977932D01*
X5597956Y9977932D01*
X5594197Y9979558D01*
X5590692Y9983571D01*
X5586577Y9987686D01*
X5581700Y9990785D01*
X5576214Y9992664D01*
X5569915Y9993376D01*
X5465368Y9993376D01*
X5461508Y9994138D01*
X5458206Y9996373D01*
X5427624Y10026904D01*
X5421426Y10032034D01*
X5414772Y10035590D01*
X5407507Y10037775D01*
X5399481Y10038588D01*
X3920185Y10038588D01*
X3916324Y10039350D01*
X3913022Y10041585D01*
X3627628Y10326928D01*
X3621430Y10332059D01*
X3614724Y10335615D01*
X3607511Y10337800D01*
X3599484Y10338562D01*
X3120186Y10338562D01*
X3116326Y10339374D01*
X3113024Y10341559D01*
X2352598Y11101984D01*
X2350363Y11105286D01*
X2349601Y11109198D01*
X2349601Y11669268D01*
X2350312Y11672976D01*
X2352294Y11676176D01*
X2355291Y11678412D01*
X2363317Y11682374D01*
X2374696Y11689994D01*
X2384958Y11698986D01*
X2394000Y11709298D01*
X2401620Y11720677D01*
X2407666Y11732920D01*
X2412034Y11745874D01*
X2414727Y11759336D01*
X2415641Y11772950D01*
X2414727Y11786616D01*
X2412034Y11800078D01*
X2407666Y11813032D01*
X2401620Y11825274D01*
X2394000Y11836654D01*
X2384958Y11846966D01*
X2374696Y11855958D01*
X2363317Y11863578D01*
X2351024Y11869623D01*
X2338070Y11874042D01*
X2324658Y11876684D01*
X2310993Y11877598D01*
X2297328Y11876684D01*
X2283917Y11874042D01*
X2270963Y11869623D01*
X2258669Y11863578D01*
X2247290Y11855958D01*
X2237028Y11846966D01*
X2227986Y11836654D01*
X2220366Y11825274D01*
X2214321Y11813032D01*
X2209952Y11800078D01*
X2207260Y11786616D01*
X2206345Y11772950D01*
X2207260Y11759336D01*
X2209952Y11745874D01*
X2214321Y11732920D01*
X2220366Y11720677D01*
X2227986Y11709298D01*
X2237028Y11698986D01*
X2247290Y11689994D01*
X2258669Y11682374D01*
X2266696Y11678412D01*
X2269693Y11676176D01*
X2271674Y11672976D01*
X2272385Y11669268D01*
X2272385Y11089487D01*
X2273198Y11081461D01*
X2275382Y11074196D01*
X2278938Y11067542D01*
X2284069Y11061344D01*
X3072333Y10273030D01*
X3078581Y10267899D01*
X3085236Y10264343D01*
X3092450Y10262158D01*
X3100476Y10261346D01*
X3579774Y10261346D01*
X3583686Y10260584D01*
X3586987Y10258399D01*
X3872331Y9973056D01*
X3878579Y9967925D01*
X3885234Y9964369D01*
X3892448Y9962184D01*
X3900474Y9961372D01*
X5379770Y9961372D01*
X5383682Y9960610D01*
X5386984Y9958374D01*
X5400598Y9944760D01*
X5402783Y9941458D01*
X5403596Y9937597D01*
X5403596Y9833051D01*
X5404307Y9826752D01*
X5406186Y9821265D01*
X5409285Y9816388D01*
X5413349Y9812274D01*
X5418277Y9809175D01*
X5423712Y9807295D01*
X5430062Y9806584D01*
X5451246Y9806584D01*
X5455107Y9805822D01*
X5458409Y9803587D01*
X5460593Y9800285D01*
X5461406Y9796424D01*
X5461406Y9604908D01*
X5460593Y9600996D01*
X5458409Y9597694D01*
X5455107Y9595510D01*
X5451246Y9594748D01*
X5443931Y9594748D01*
X5437581Y9594037D01*
X5432145Y9592106D01*
X5427268Y9589058D01*
X5423154Y9584944D01*
X5420055Y9580067D01*
X5418175Y9574580D01*
X5417464Y9568281D01*
X5417464Y9431680D01*
X5418175Y9425381D01*
X5420055Y9419894D01*
X5423154Y9415018D01*
X5427268Y9410903D01*
X5432145Y9407855D01*
X5437581Y9405924D01*
G37*
G36*
X5643930Y9405213D02*
G01*
X5756046Y9405213D01*
X5762396Y9405924D01*
X5767832Y9407855D01*
X5772708Y9410903D01*
X5776823Y9415018D01*
X5779922Y9419894D01*
X5781802Y9425381D01*
X5782513Y9431680D01*
X5782513Y9523730D01*
X5783326Y9527590D01*
X5785510Y9530892D01*
X5900115Y9645497D01*
X5903417Y9647682D01*
X5907278Y9648494D01*
X5911189Y9647682D01*
X5914491Y9645497D01*
X5916676Y9642195D01*
X5917438Y9638334D01*
X5917438Y9631680D01*
X5918149Y9625380D01*
X5920079Y9619894D01*
X5923127Y9615017D01*
X5927242Y9610902D01*
X5932119Y9607854D01*
X5937605Y9605924D01*
X5943904Y9605213D01*
X6056020Y9605213D01*
X6062370Y9605924D01*
X6067806Y9607854D01*
X6072733Y9610902D01*
X6076797Y9615017D01*
X6079896Y9619894D01*
X6081826Y9625380D01*
X6082538Y9631680D01*
X6082538Y9768281D01*
X6081826Y9774580D01*
X6079896Y9780066D01*
X6076797Y9784943D01*
X6072733Y9789058D01*
X6067806Y9792106D01*
X6062370Y9794036D01*
X6056020Y9794748D01*
X6048756Y9794748D01*
X6044844Y9795510D01*
X6041593Y9797694D01*
X6039358Y9800996D01*
X6038596Y9804908D01*
X6038596Y10129621D01*
X6039358Y10133482D01*
X6041593Y10136784D01*
X6070396Y10165638D01*
X6073648Y10167823D01*
X6077458Y10168585D01*
X6081318Y10167874D01*
X6089294Y10164724D01*
X6103416Y10161117D01*
X6117844Y10159288D01*
X6132372Y10159288D01*
X6146800Y10161117D01*
X6160922Y10164724D01*
X6174435Y10170058D01*
X6187186Y10177068D01*
X6198971Y10185654D01*
X6209588Y10195610D01*
X6218885Y10206837D01*
X6226657Y10219080D01*
X6232855Y10232288D01*
X6237376Y10246106D01*
X6240068Y10260431D01*
X6240983Y10274909D01*
X6240068Y10289438D01*
X6237376Y10303764D01*
X6232855Y10317581D01*
X6226657Y10330789D01*
X6218885Y10343032D01*
X6217462Y10344759D01*
X6215634Y10348061D01*
X6215176Y10351871D01*
X6216091Y10355529D01*
X6218326Y10358628D01*
X6221577Y10360660D01*
X6225286Y10361371D01*
X7435951Y10361371D01*
X7439812Y10360609D01*
X7443114Y10358374D01*
X7587538Y10213949D01*
X7589774Y10210647D01*
X7590536Y10206786D01*
X7590536Y10114788D01*
X7591247Y10108438D01*
X7593177Y10103002D01*
X7596225Y10098074D01*
X7600340Y10094010D01*
X7605217Y10090912D01*
X7610703Y10088981D01*
X7617002Y10088270D01*
X7729118Y10088270D01*
X7735468Y10088981D01*
X7740903Y10090912D01*
X7745831Y10094010D01*
X7749895Y10098074D01*
X7752994Y10103002D01*
X7754874Y10108438D01*
X7755585Y10114788D01*
X7755585Y10251338D01*
X7754874Y10257637D01*
X7752994Y10263124D01*
X7749895Y10268000D01*
X7745831Y10272115D01*
X7740903Y10275163D01*
X7735468Y10277094D01*
X7729118Y10277805D01*
X7721853Y10277805D01*
X7717942Y10278567D01*
X7714640Y10280802D01*
X7712456Y10284053D01*
X7711694Y10287965D01*
X7711694Y10425277D01*
X7712456Y10429189D01*
X7714640Y10432491D01*
X7717942Y10434675D01*
X7721853Y10435437D01*
X7756550Y10435437D01*
X7762849Y10436148D01*
X7768336Y10438079D01*
X7773212Y10441178D01*
X7777327Y10445242D01*
X7780832Y10449306D01*
X7784592Y10450880D01*
X7788656Y10450880D01*
X7792415Y10449306D01*
X7795920Y10445242D01*
X7800035Y10441178D01*
X7804912Y10438079D01*
X7810398Y10436148D01*
X7816697Y10435437D01*
X7845044Y10435437D01*
X7845044Y10488777D01*
X7793177Y10488777D01*
X7789316Y10489539D01*
X7786014Y10491724D01*
X7783779Y10495026D01*
X7783017Y10498937D01*
X7783017Y10558780D01*
X7783779Y10562691D01*
X7786014Y10565993D01*
X7789316Y10568178D01*
X7793177Y10568940D01*
X7845044Y10568940D01*
X7845044Y10622280D01*
X7816697Y10622280D01*
X7810398Y10621568D01*
X7804912Y10619638D01*
X7800035Y10616539D01*
X7795920Y10612475D01*
X7792415Y10608411D01*
X7788656Y10606836D01*
X7784592Y10606836D01*
X7780832Y10608411D01*
X7777327Y10612475D01*
X7773212Y10616539D01*
X7768336Y10619638D01*
X7762849Y10621568D01*
X7756550Y10622280D01*
X7616698Y10622280D01*
X7610348Y10621568D01*
X7604912Y10619638D01*
X7599984Y10616539D01*
X7595920Y10612475D01*
X7592822Y10607548D01*
X7590942Y10602112D01*
X7590231Y10595813D01*
X7590231Y10461904D01*
X7590942Y10455605D01*
X7592822Y10450169D01*
X7595920Y10445242D01*
X7599984Y10441178D01*
X7604912Y10438079D01*
X7610348Y10436148D01*
X7616698Y10435437D01*
X7624318Y10435437D01*
X7628178Y10434675D01*
X7631480Y10432491D01*
X7633716Y10429189D01*
X7634478Y10425277D01*
X7634478Y10300766D01*
X7633716Y10296906D01*
X7631480Y10293604D01*
X7628178Y10291368D01*
X7624318Y10290606D01*
X7620406Y10291368D01*
X7617104Y10293604D01*
X7483805Y10426903D01*
X7477556Y10432034D01*
X7470902Y10435590D01*
X7463637Y10437774D01*
X7455662Y10438587D01*
X3329178Y10438587D01*
X3325266Y10439349D01*
X3321964Y10441584D01*
X3319526Y10444022D01*
X3317341Y10447324D01*
X3316528Y10451185D01*
X3317341Y10455097D01*
X3319526Y10458399D01*
X3322828Y10460583D01*
X3326688Y10461345D01*
X7199477Y10461345D01*
X7207503Y10462158D01*
X7214717Y10464342D01*
X7221423Y10467898D01*
X7227620Y10473029D01*
X7513015Y10758373D01*
X7516317Y10760608D01*
X7520178Y10761370D01*
X8307273Y10761370D01*
X8311184Y10760608D01*
X8314486Y10758373D01*
X8316671Y10755122D01*
X8317433Y10751210D01*
X8317433Y10731703D01*
X8318144Y10725353D01*
X8320074Y10719917D01*
X8323122Y10714990D01*
X8327237Y10710926D01*
X8332114Y10707827D01*
X8337600Y10705947D01*
X8343900Y10705236D01*
X8456015Y10705236D01*
X8462365Y10705947D01*
X8467801Y10707827D01*
X8472728Y10710926D01*
X8476792Y10714990D01*
X8479891Y10719917D01*
X8481822Y10725353D01*
X8482533Y10731703D01*
X8482533Y10868253D01*
X8481822Y10874603D01*
X8479891Y10880039D01*
X8476792Y10884966D01*
X8472728Y10889030D01*
X8467801Y10892129D01*
X8462365Y10894009D01*
X8456015Y10894720D01*
X8448751Y10894720D01*
X8444839Y10895533D01*
X8441588Y10897717D01*
X8439353Y10901019D01*
X8438591Y10904880D01*
X8438591Y10996422D01*
X8439353Y11000282D01*
X8441588Y11003584D01*
X8444839Y11005820D01*
X8448751Y11006582D01*
X8469934Y11006582D01*
X8476234Y11007293D01*
X8481669Y11009172D01*
X8486597Y11012271D01*
X8490661Y11016386D01*
X8494217Y11020399D01*
X8497925Y11022025D01*
X8502040Y11022025D01*
X8505748Y11020399D01*
X8509304Y11016386D01*
X8513368Y11012271D01*
X8518296Y11009172D01*
X8523732Y11007293D01*
X8530031Y11006582D01*
X8558377Y11006582D01*
X8558377Y11059871D01*
X8506561Y11059871D01*
X8502650Y11060633D01*
X8499348Y11062868D01*
X8497163Y11066170D01*
X8496401Y11070031D01*
X8496401Y11129924D01*
X8497163Y11133785D01*
X8499348Y11137087D01*
X8502650Y11139322D01*
X8506561Y11140084D01*
X8558377Y11140084D01*
X8558377Y11193373D01*
X8530031Y11193373D01*
X8523732Y11192662D01*
X8518296Y11190782D01*
X8513368Y11187684D01*
X8509304Y11183569D01*
X8505748Y11179556D01*
X8502040Y11177930D01*
X8497925Y11177930D01*
X8494217Y11179556D01*
X8490661Y11183569D01*
X8486597Y11187684D01*
X8481669Y11190782D01*
X8476234Y11192662D01*
X8469934Y11193373D01*
X8330031Y11193373D01*
X8323732Y11192662D01*
X8318246Y11190782D01*
X8313369Y11187684D01*
X8309254Y11183569D01*
X8306206Y11178692D01*
X8304275Y11173206D01*
X8303564Y11166906D01*
X8303564Y11033048D01*
X8304275Y11026749D01*
X8306206Y11021263D01*
X8309254Y11016386D01*
X8313369Y11012271D01*
X8318246Y11009172D01*
X8323732Y11007293D01*
X8330031Y11006582D01*
X8351215Y11006582D01*
X8355126Y11005820D01*
X8358378Y11003584D01*
X8360613Y11000282D01*
X8361375Y10996422D01*
X8361375Y10904880D01*
X8360613Y10901019D01*
X8358378Y10897717D01*
X8355126Y10895533D01*
X8351215Y10894720D01*
X8343900Y10894720D01*
X8337600Y10894009D01*
X8332114Y10892129D01*
X8327237Y10889030D01*
X8323122Y10884966D01*
X8320074Y10880039D01*
X8318144Y10874603D01*
X8317433Y10868253D01*
X8317433Y10848746D01*
X8316671Y10844834D01*
X8314486Y10841583D01*
X8311184Y10839348D01*
X8307273Y10838586D01*
X7500467Y10838586D01*
X7492441Y10837773D01*
X7485227Y10835589D01*
X7478572Y10832033D01*
X7472324Y10826902D01*
X7186980Y10541558D01*
X7183678Y10539374D01*
X7179767Y10538561D01*
X3320186Y10538561D01*
X3316325Y10539374D01*
X3313023Y10541558D01*
X2860598Y10993983D01*
X2858363Y10997285D01*
X2857601Y11001197D01*
X2857601Y11669268D01*
X2858312Y11672976D01*
X2860294Y11676176D01*
X2863291Y11678412D01*
X2871317Y11682374D01*
X2882696Y11689994D01*
X2892958Y11698986D01*
X2902000Y11709298D01*
X2909620Y11720677D01*
X2915666Y11732920D01*
X2920034Y11745874D01*
X2922727Y11759336D01*
X2923641Y11772950D01*
X2922727Y11786616D01*
X2920034Y11800078D01*
X2915666Y11813032D01*
X2909620Y11825274D01*
X2902000Y11836654D01*
X2892958Y11846966D01*
X2882696Y11855958D01*
X2871317Y11863578D01*
X2859024Y11869623D01*
X2846070Y11874042D01*
X2832658Y11876684D01*
X2818993Y11877598D01*
X2805328Y11876684D01*
X2791917Y11874042D01*
X2778963Y11869623D01*
X2766669Y11863578D01*
X2755290Y11855958D01*
X2745028Y11846966D01*
X2735986Y11836654D01*
X2728366Y11825274D01*
X2722321Y11813032D01*
X2717952Y11800078D01*
X2715260Y11786616D01*
X2714345Y11772950D01*
X2715260Y11759336D01*
X2717952Y11745874D01*
X2722321Y11732920D01*
X2728366Y11720677D01*
X2735986Y11709298D01*
X2745028Y11698986D01*
X2755290Y11689994D01*
X2766669Y11682374D01*
X2774696Y11678412D01*
X2777693Y11676176D01*
X2779674Y11672976D01*
X2780385Y11669268D01*
X2780385Y11007699D01*
X2779623Y11003788D01*
X2777388Y11000486D01*
X2774137Y10998301D01*
X2770225Y10997539D01*
X2766314Y10998301D01*
X2763062Y11000486D01*
X2606598Y11156950D01*
X2604363Y11160252D01*
X2603601Y11164163D01*
X2603601Y11669268D01*
X2604312Y11672976D01*
X2606294Y11676176D01*
X2609291Y11678412D01*
X2617317Y11682374D01*
X2628696Y11689994D01*
X2638958Y11698986D01*
X2648000Y11709298D01*
X2655620Y11720677D01*
X2661666Y11732920D01*
X2666034Y11745874D01*
X2668727Y11759336D01*
X2669641Y11772950D01*
X2668727Y11786616D01*
X2666034Y11800078D01*
X2661666Y11813032D01*
X2655620Y11825274D01*
X2648000Y11836654D01*
X2638958Y11846966D01*
X2628696Y11855958D01*
X2617317Y11863578D01*
X2605024Y11869623D01*
X2592070Y11874042D01*
X2578658Y11876684D01*
X2564993Y11877598D01*
X2551328Y11876684D01*
X2537917Y11874042D01*
X2524963Y11869623D01*
X2512669Y11863578D01*
X2501290Y11855958D01*
X2491028Y11846966D01*
X2481986Y11836654D01*
X2474366Y11825274D01*
X2468321Y11813032D01*
X2463952Y11800078D01*
X2461260Y11786616D01*
X2460345Y11772950D01*
X2461260Y11759336D01*
X2463952Y11745874D01*
X2468321Y11732920D01*
X2474366Y11720677D01*
X2481986Y11709298D01*
X2491028Y11698986D01*
X2501290Y11689994D01*
X2512669Y11682374D01*
X2520696Y11678412D01*
X2523693Y11676176D01*
X2525674Y11672976D01*
X2526385Y11669268D01*
X2526385Y11144453D01*
X2527198Y11136426D01*
X2529382Y11129213D01*
X2532938Y11122558D01*
X2538069Y11116310D01*
X3281324Y10373055D01*
X3287572Y10367924D01*
X3294227Y10364368D01*
X3301441Y10362184D01*
X3309467Y10361371D01*
X5374690Y10361371D01*
X5378399Y10360660D01*
X5381650Y10358628D01*
X5383885Y10355529D01*
X5384800Y10351871D01*
X5384342Y10348061D01*
X5382514Y10344759D01*
X5381091Y10343032D01*
X5373319Y10330789D01*
X5367121Y10317581D01*
X5362600Y10303764D01*
X5359908Y10289438D01*
X5358993Y10274909D01*
X5359908Y10260431D01*
X5362600Y10246106D01*
X5367121Y10232288D01*
X5373319Y10219080D01*
X5381091Y10206837D01*
X5390388Y10195610D01*
X5401005Y10185654D01*
X5412790Y10177068D01*
X5425541Y10170058D01*
X5439054Y10164724D01*
X5453176Y10161117D01*
X5467604Y10159288D01*
X5482132Y10159288D01*
X5496560Y10161117D01*
X5510682Y10164724D01*
X5524195Y10170058D01*
X5536946Y10177068D01*
X5548731Y10185654D01*
X5559348Y10195610D01*
X5568645Y10206837D01*
X5576417Y10219080D01*
X5581802Y10230510D01*
X5584037Y10233558D01*
X5587238Y10235590D01*
X5590997Y10236301D01*
X6007354Y10236301D01*
X6011265Y10235539D01*
X6014567Y10233355D01*
X6016752Y10230053D01*
X6017514Y10226141D01*
X6016752Y10222280D01*
X6014567Y10218978D01*
X5973064Y10177475D01*
X5967933Y10171226D01*
X5964377Y10164572D01*
X5962192Y10157358D01*
X5961380Y10149332D01*
X5961380Y9804908D01*
X5960618Y9800996D01*
X5958382Y9797694D01*
X5955131Y9795510D01*
X5951220Y9794748D01*
X5943904Y9794748D01*
X5937605Y9794036D01*
X5932119Y9792106D01*
X5927242Y9789058D01*
X5923127Y9784943D01*
X5920079Y9780066D01*
X5918149Y9774580D01*
X5917438Y9768281D01*
X5917438Y9748723D01*
X5916676Y9744862D01*
X5914491Y9741560D01*
X5911189Y9739376D01*
X5907278Y9738563D01*
X5900470Y9738563D01*
X5892444Y9737801D01*
X5885230Y9735616D01*
X5878576Y9732060D01*
X5872327Y9726930D01*
X5743143Y9597694D01*
X5739841Y9595510D01*
X5735929Y9594748D01*
X5643930Y9594748D01*
X5637631Y9594037D01*
X5632145Y9592106D01*
X5627268Y9589058D01*
X5623153Y9584944D01*
X5620105Y9580067D01*
X5618175Y9574580D01*
X5617464Y9568281D01*
X5617464Y9431680D01*
X5618175Y9425381D01*
X5620105Y9419894D01*
X5623153Y9415018D01*
X5627268Y9410903D01*
X5632145Y9407855D01*
X5637631Y9405924D01*
G37*
G36*
X3334664Y9505238D02*
G01*
X3356051Y9505238D01*
X3362401Y9505950D01*
X3367836Y9507829D01*
X3372713Y9510928D01*
X3376828Y9514992D01*
X3379927Y9519920D01*
X3381806Y9525355D01*
X3382518Y9531705D01*
X3382518Y9559188D01*
X3334664Y9559188D01*
G37*
G36*
X3243935Y9505238D02*
G01*
X3265322Y9505238D01*
X3265322Y9559188D01*
X3217468Y9559188D01*
X3217468Y9531705D01*
X3218180Y9525355D01*
X3220110Y9519920D01*
X3223158Y9514992D01*
X3227273Y9510928D01*
X3232150Y9507829D01*
X3237636Y9505950D01*
G37*
G36*
X3043936Y9505238D02*
G01*
X3156051Y9505238D01*
X3162350Y9505950D01*
X3167837Y9507829D01*
X3172714Y9510928D01*
X3176828Y9514992D01*
X3179876Y9519920D01*
X3181807Y9525355D01*
X3182518Y9531705D01*
X3182518Y9668256D01*
X3181807Y9674606D01*
X3179876Y9680041D01*
X3176828Y9684969D01*
X3172714Y9689033D01*
X3167837Y9692132D01*
X3162350Y9694011D01*
X3156051Y9694722D01*
X3148736Y9694722D01*
X3144875Y9695535D01*
X3141573Y9697720D01*
X3139389Y9701022D01*
X3138627Y9704882D01*
X3138627Y9799472D01*
X3137814Y9807498D01*
X3135630Y9814712D01*
X3132074Y9821418D01*
X3126943Y9827615D01*
X3097733Y9856825D01*
X3095548Y9860127D01*
X3094736Y9864039D01*
X3094736Y9956038D01*
X3094024Y9962337D01*
X3092145Y9967823D01*
X3089046Y9972700D01*
X3084982Y9976815D01*
X3080054Y9979863D01*
X3074619Y9981793D01*
X3068269Y9982504D01*
X2931718Y9982504D01*
X2925368Y9981793D01*
X2919933Y9979863D01*
X2915005Y9976815D01*
X2910941Y9972700D01*
X2907842Y9967823D01*
X2905963Y9962337D01*
X2905252Y9956038D01*
X2905252Y9948722D01*
X2904439Y9944862D01*
X2902254Y9941560D01*
X2898952Y9939375D01*
X2895092Y9938562D01*
X2703271Y9938562D01*
X2700172Y9939070D01*
X2697327Y9940544D01*
X2687218Y9947859D01*
X2674467Y9954869D01*
X2660904Y9960254D01*
X2646832Y9963861D01*
X2632405Y9965690D01*
X2617825Y9965690D01*
X2603398Y9963861D01*
X2589326Y9960254D01*
X2575763Y9954869D01*
X2563012Y9947859D01*
X2551226Y9939324D01*
X2540660Y9929368D01*
X2531364Y9918141D01*
X2523540Y9905847D01*
X2517343Y9892690D01*
X2512872Y9878822D01*
X2510129Y9864547D01*
X2509215Y9850018D01*
X2510129Y9835489D01*
X2512872Y9821214D01*
X2517343Y9807346D01*
X2523540Y9794189D01*
X2531364Y9781895D01*
X2540660Y9770719D01*
X2551226Y9760712D01*
X2563012Y9752177D01*
X2575763Y9745167D01*
X2589326Y9739833D01*
X2603398Y9736175D01*
X2617825Y9734346D01*
X2632405Y9734346D01*
X2646832Y9736175D01*
X2660904Y9739833D01*
X2674467Y9745167D01*
X2687218Y9752177D01*
X2699004Y9760712D01*
X2709570Y9770719D01*
X2718866Y9781895D01*
X2726690Y9794189D01*
X2732887Y9807346D01*
X2737358Y9821214D01*
X2740101Y9835489D01*
X2740964Y9850577D01*
X2741574Y9854641D01*
X2743708Y9858146D01*
X2747060Y9860534D01*
X2751124Y9861346D01*
X2895092Y9861346D01*
X2898952Y9860584D01*
X2902254Y9858400D01*
X2904439Y9855098D01*
X2905252Y9851186D01*
X2905252Y9843922D01*
X2905963Y9837572D01*
X2907842Y9832136D01*
X2910941Y9827260D01*
X2915005Y9823145D01*
X2919933Y9820046D01*
X2925368Y9818166D01*
X2931718Y9817455D01*
X3023717Y9817455D01*
X3027629Y9816642D01*
X3030931Y9814458D01*
X3058414Y9786975D01*
X3060598Y9783673D01*
X3061411Y9779762D01*
X3061411Y9704882D01*
X3060598Y9701022D01*
X3058414Y9697720D01*
X3055112Y9695535D01*
X3051251Y9694722D01*
X3043936Y9694722D01*
X3037586Y9694011D01*
X3032150Y9692132D01*
X3027273Y9689033D01*
X3023158Y9684969D01*
X3020060Y9680041D01*
X3018180Y9674606D01*
X3017469Y9668256D01*
X3017469Y9531705D01*
X3018180Y9525355D01*
X3020060Y9519920D01*
X3023158Y9514992D01*
X3027273Y9510928D01*
X3032150Y9507829D01*
X3037586Y9505950D01*
G37*
G36*
X6143955Y9605213D02*
G01*
X6165342Y9605213D01*
X6165342Y9659213D01*
X6117437Y9659213D01*
X6117437Y9631680D01*
X6118148Y9625380D01*
X6120079Y9619894D01*
X6123178Y9615017D01*
X6127242Y9610902D01*
X6132169Y9607854D01*
X6137605Y9605924D01*
G37*
G36*
X6234633Y9605213D02*
G01*
X6256070Y9605213D01*
X6262370Y9605924D01*
X6267856Y9607854D01*
X6272733Y9610902D01*
X6276848Y9615017D01*
X6279896Y9619894D01*
X6281826Y9625380D01*
X6282537Y9631680D01*
X6282537Y9659213D01*
X6234633Y9659213D01*
G37*
G36*
X3334664Y9640773D02*
G01*
X3382518Y9640773D01*
X3382518Y9668256D01*
X3381806Y9674606D01*
X3379927Y9680041D01*
X3376828Y9684969D01*
X3372713Y9689033D01*
X3367836Y9692132D01*
X3362401Y9694011D01*
X3356051Y9694722D01*
X3334664Y9694722D01*
G37*
G36*
X3217468Y9640773D02*
G01*
X3265322Y9640773D01*
X3265322Y9694722D01*
X3243935Y9694722D01*
X3237636Y9694011D01*
X3232150Y9692132D01*
X3227273Y9689033D01*
X3223158Y9684969D01*
X3220110Y9680041D01*
X3218180Y9674606D01*
X3217468Y9668256D01*
G37*
G36*
X1967585Y9734346D02*
G01*
X1982165Y9734346D01*
X1996592Y9736175D01*
X2010664Y9739833D01*
X2024227Y9745167D01*
X2036978Y9752177D01*
X2048764Y9760712D01*
X2059330Y9770719D01*
X2068626Y9781895D01*
X2076450Y9794189D01*
X2082647Y9807346D01*
X2087118Y9821214D01*
X2089861Y9835489D01*
X2090775Y9850018D01*
X2089861Y9864547D01*
X2087118Y9878822D01*
X2082647Y9892690D01*
X2076450Y9905847D01*
X2068626Y9918141D01*
X2059330Y9929368D01*
X2048764Y9939324D01*
X2036978Y9947859D01*
X2024227Y9954869D01*
X2010664Y9960254D01*
X1996592Y9963861D01*
X1982165Y9965690D01*
X1967585Y9965690D01*
X1953158Y9963861D01*
X1939086Y9960254D01*
X1925523Y9954869D01*
X1912772Y9947859D01*
X1900986Y9939324D01*
X1890420Y9929368D01*
X1881124Y9918141D01*
X1873300Y9905847D01*
X1867103Y9892690D01*
X1862632Y9878822D01*
X1859889Y9864547D01*
X1858975Y9850018D01*
X1859889Y9835489D01*
X1862632Y9821214D01*
X1867103Y9807346D01*
X1873300Y9794189D01*
X1881124Y9781895D01*
X1890420Y9770719D01*
X1900986Y9760712D01*
X1912772Y9752177D01*
X1925523Y9745167D01*
X1939086Y9739833D01*
X1953158Y9736175D01*
G37*
G36*
X8659317Y9734346D02*
G01*
X8673896Y9734346D01*
X8688324Y9736175D01*
X8702395Y9739782D01*
X8715959Y9745167D01*
X8728710Y9752177D01*
X8740495Y9760712D01*
X8751062Y9770668D01*
X8760358Y9781895D01*
X8768181Y9794189D01*
X8774379Y9807346D01*
X8778849Y9821214D01*
X8781592Y9835489D01*
X8782507Y9850018D01*
X8781592Y9864547D01*
X8778849Y9878822D01*
X8774379Y9892690D01*
X8768181Y9905847D01*
X8760358Y9918141D01*
X8751062Y9929368D01*
X8740495Y9939324D01*
X8728710Y9947859D01*
X8715959Y9954869D01*
X8702395Y9960254D01*
X8688324Y9963861D01*
X8673896Y9965690D01*
X8659317Y9965690D01*
X8644890Y9963861D01*
X8630818Y9960254D01*
X8617254Y9954869D01*
X8604504Y9947859D01*
X8592718Y9939324D01*
X8582101Y9929368D01*
X8572855Y9918141D01*
X8565032Y9905847D01*
X8558834Y9892690D01*
X8554364Y9878822D01*
X8551621Y9864547D01*
X8550706Y9850018D01*
X8551621Y9835489D01*
X8554364Y9821214D01*
X8558834Y9807346D01*
X8565032Y9794189D01*
X8572855Y9781895D01*
X8582101Y9770668D01*
X8592718Y9760712D01*
X8604504Y9752177D01*
X8617254Y9745167D01*
X8630818Y9739782D01*
X8644890Y9736175D01*
G37*
G36*
X11076330Y9734346D02*
G01*
X11090859Y9734346D01*
X11105337Y9736175D01*
X11119408Y9739833D01*
X11132921Y9745167D01*
X11145672Y9752177D01*
X11157458Y9760712D01*
X11168075Y9770719D01*
X11177371Y9781895D01*
X11185144Y9794189D01*
X11191341Y9807346D01*
X11195862Y9821214D01*
X11198555Y9835489D01*
X11199469Y9850018D01*
X11198555Y9864547D01*
X11195862Y9878822D01*
X11191341Y9892690D01*
X11185144Y9905847D01*
X11177371Y9918141D01*
X11168075Y9929368D01*
X11157458Y9939324D01*
X11145672Y9947859D01*
X11132921Y9954869D01*
X11119408Y9960254D01*
X11105337Y9963861D01*
X11090859Y9965690D01*
X11076330Y9965690D01*
X11061903Y9963861D01*
X11047780Y9960254D01*
X11034268Y9954869D01*
X11021517Y9947859D01*
X11009731Y9939324D01*
X10999114Y9929368D01*
X10989818Y9918141D01*
X10982045Y9905847D01*
X10975848Y9892690D01*
X10971326Y9878822D01*
X10968634Y9864547D01*
X10967720Y9850018D01*
X10968634Y9835489D01*
X10971326Y9821214D01*
X10975848Y9807346D01*
X10982045Y9794189D01*
X10989818Y9781895D01*
X10999114Y9770719D01*
X11009731Y9760712D01*
X11021517Y9752177D01*
X11034268Y9745167D01*
X11047780Y9739833D01*
X11061903Y9736175D01*
G37*
G36*
X10426090Y9734346D02*
G01*
X10440619Y9734346D01*
X10455097Y9736175D01*
X10469168Y9739833D01*
X10482681Y9745167D01*
X10495432Y9752177D01*
X10507218Y9760712D01*
X10517835Y9770719D01*
X10527131Y9781895D01*
X10534904Y9794189D01*
X10541101Y9807346D01*
X10545622Y9821214D01*
X10548315Y9835489D01*
X10549229Y9850018D01*
X10548315Y9864547D01*
X10545622Y9878822D01*
X10541101Y9892690D01*
X10534904Y9905847D01*
X10527131Y9918141D01*
X10517835Y9929368D01*
X10507218Y9939324D01*
X10495432Y9947859D01*
X10482681Y9954869D01*
X10469168Y9960254D01*
X10455097Y9963861D01*
X10440619Y9965690D01*
X10426090Y9965690D01*
X10411663Y9963861D01*
X10397540Y9960254D01*
X10384028Y9954869D01*
X10371277Y9947859D01*
X10359491Y9939324D01*
X10348874Y9929368D01*
X10339578Y9918141D01*
X10331805Y9905847D01*
X10325608Y9892690D01*
X10321086Y9878822D01*
X10318394Y9864547D01*
X10317480Y9850018D01*
X10318394Y9835489D01*
X10321086Y9821214D01*
X10325608Y9807346D01*
X10331805Y9794189D01*
X10339578Y9781895D01*
X10348874Y9770719D01*
X10359491Y9760712D01*
X10371277Y9752177D01*
X10384028Y9745167D01*
X10397540Y9739833D01*
X10411663Y9736175D01*
G37*
G36*
X8009077Y9734346D02*
G01*
X8023656Y9734346D01*
X8038084Y9736175D01*
X8052155Y9739782D01*
X8065719Y9745167D01*
X8078470Y9752177D01*
X8090255Y9760712D01*
X8100822Y9770668D01*
X8110118Y9781895D01*
X8117941Y9794189D01*
X8124139Y9807346D01*
X8128609Y9821214D01*
X8131352Y9835489D01*
X8132267Y9850018D01*
X8131352Y9864547D01*
X8128609Y9878822D01*
X8124139Y9892690D01*
X8117941Y9905847D01*
X8110118Y9918141D01*
X8100822Y9929368D01*
X8090255Y9939324D01*
X8078470Y9947859D01*
X8065719Y9954869D01*
X8061401Y9956596D01*
X8058048Y9958781D01*
X8055762Y9962083D01*
X8055000Y9966045D01*
X8055000Y10039248D01*
X8054187Y10047274D01*
X8052003Y10054488D01*
X8048447Y10061194D01*
X8043316Y10067391D01*
X7961528Y10149230D01*
X7959293Y10152481D01*
X7958531Y10156393D01*
X7959293Y10160304D01*
X7961528Y10163556D01*
X7964830Y10165791D01*
X7968691Y10166553D01*
X8147862Y10166553D01*
X8151723Y10165791D01*
X8155025Y10163556D01*
X8157209Y10160304D01*
X8158022Y10156393D01*
X8158022Y10149078D01*
X8158734Y10142778D01*
X8160613Y10137292D01*
X8163712Y10132415D01*
X8167776Y10128300D01*
X8172703Y10125252D01*
X8178139Y10123322D01*
X8184489Y10122611D01*
X8321040Y10122611D01*
X8327339Y10123322D01*
X8332825Y10125252D01*
X8337702Y10128300D01*
X8341817Y10132415D01*
X8344916Y10137292D01*
X8346795Y10142778D01*
X8347506Y10149078D01*
X8347506Y10261193D01*
X8346795Y10267543D01*
X8344916Y10272979D01*
X8341817Y10277906D01*
X8337702Y10281970D01*
X8332825Y10285069D01*
X8327339Y10286949D01*
X8321040Y10287660D01*
X8184489Y10287660D01*
X8178139Y10286949D01*
X8172703Y10285069D01*
X8167776Y10281970D01*
X8163712Y10277906D01*
X8160613Y10272979D01*
X8158734Y10267543D01*
X8158022Y10261193D01*
X8158022Y10253929D01*
X8157209Y10250017D01*
X8155025Y10246766D01*
X8151723Y10244531D01*
X8147862Y10243769D01*
X7965541Y10243769D01*
X7961934Y10244429D01*
X7958785Y10246360D01*
X7956499Y10249255D01*
X7955432Y10252811D01*
X7954924Y10257637D01*
X7952994Y10263124D01*
X7949895Y10268000D01*
X7945831Y10272115D01*
X7940903Y10275163D01*
X7935468Y10277094D01*
X7929118Y10277805D01*
X7817002Y10277805D01*
X7810703Y10277094D01*
X7805216Y10275163D01*
X7800340Y10272115D01*
X7796225Y10268000D01*
X7793177Y10263124D01*
X7791246Y10257637D01*
X7790535Y10251338D01*
X7790535Y10114788D01*
X7791246Y10108438D01*
X7793177Y10103002D01*
X7796225Y10098074D01*
X7800340Y10094010D01*
X7805216Y10090912D01*
X7810703Y10088981D01*
X7817002Y10088270D01*
X7909001Y10088270D01*
X7912912Y10087508D01*
X7916214Y10085324D01*
X7974787Y10026751D01*
X7976971Y10023449D01*
X7977784Y10019538D01*
X7977784Y9966045D01*
X7976971Y9962083D01*
X7974685Y9958781D01*
X7971332Y9956596D01*
X7967014Y9954869D01*
X7954264Y9947859D01*
X7942478Y9939324D01*
X7931861Y9929368D01*
X7922615Y9918141D01*
X7914792Y9905847D01*
X7908594Y9892690D01*
X7904124Y9878822D01*
X7901381Y9864547D01*
X7900466Y9850018D01*
X7901381Y9835489D01*
X7904124Y9821214D01*
X7908594Y9807346D01*
X7914792Y9794189D01*
X7922615Y9781895D01*
X7931861Y9770668D01*
X7942478Y9760712D01*
X7954264Y9752177D01*
X7967014Y9745167D01*
X7980578Y9739782D01*
X7994650Y9736175D01*
G37*
G36*
X6117437Y9740747D02*
G01*
X6165342Y9740747D01*
X6165342Y9794748D01*
X6143955Y9794748D01*
X6137605Y9794036D01*
X6132169Y9792106D01*
X6127242Y9789058D01*
X6123178Y9784943D01*
X6120079Y9780066D01*
X6118148Y9774580D01*
X6117437Y9768281D01*
G37*
G36*
X6234633Y9740747D02*
G01*
X6282537Y9740747D01*
X6282537Y9768281D01*
X6281826Y9774580D01*
X6279896Y9780066D01*
X6276848Y9784943D01*
X6272733Y9789058D01*
X6267856Y9792106D01*
X6262370Y9794036D01*
X6256070Y9794748D01*
X6234633Y9794748D01*
G37*
G36*
X3333038Y9803587D02*
G01*
X3359912Y9803587D01*
X3359912Y9858400D01*
X3306572Y9858400D01*
X3306572Y9830054D01*
X3307283Y9823704D01*
X3309213Y9818268D01*
X3312312Y9813340D01*
X3316376Y9809276D01*
X3321304Y9806178D01*
X3326739Y9804298D01*
G37*
G36*
X3440074Y9803587D02*
G01*
X3466947Y9803587D01*
X3473246Y9804298D01*
X3478682Y9806178D01*
X3483610Y9809276D01*
X3487674Y9813340D01*
X3490772Y9818268D01*
X3492703Y9823704D01*
X3493414Y9830054D01*
X3493414Y9858400D01*
X3440074Y9858400D01*
G37*
G36*
X5741568Y9806584D02*
G01*
X5769914Y9806584D01*
X5776264Y9807295D01*
X5781700Y9809175D01*
X5786628Y9812274D01*
X5790692Y9816388D01*
X5793790Y9821265D01*
X5795670Y9826752D01*
X5796381Y9833051D01*
X5796381Y9859873D01*
X5741568Y9859873D01*
G37*
G36*
X5741568Y9940086D02*
G01*
X5796381Y9940086D01*
X5796381Y9966909D01*
X5795670Y9973208D01*
X5793790Y9978694D01*
X5790692Y9983571D01*
X5786628Y9987686D01*
X5781700Y9990785D01*
X5776264Y9992664D01*
X5769914Y9993376D01*
X5741568Y9993376D01*
G37*
G36*
X17117822Y10059263D02*
G01*
X17132350Y10059263D01*
X17146778Y10061092D01*
X17160900Y10064699D01*
X17174413Y10070084D01*
X17187164Y10077094D01*
X17198949Y10085628D01*
X17209566Y10095585D01*
X17218863Y10106812D01*
X17226635Y10119106D01*
X17232833Y10132263D01*
X17237354Y10146131D01*
X17240046Y10160406D01*
X17240961Y10174935D01*
X17240046Y10189464D01*
X17237354Y10203738D01*
X17232833Y10217607D01*
X17226635Y10230764D01*
X17218863Y10243058D01*
X17209566Y10254284D01*
X17198949Y10264241D01*
X17187164Y10272776D01*
X17174413Y10279786D01*
X17160900Y10285171D01*
X17146778Y10288778D01*
X17132350Y10290606D01*
X17117822Y10290606D01*
X17103394Y10288778D01*
X17089272Y10285171D01*
X17075759Y10279786D01*
X17063008Y10272776D01*
X17051223Y10264241D01*
X17040606Y10254284D01*
X17031309Y10243058D01*
X17023537Y10230764D01*
X17017339Y10217607D01*
X17012818Y10203738D01*
X17010126Y10189464D01*
X17009211Y10174935D01*
X17010126Y10160406D01*
X17012818Y10146131D01*
X17017339Y10132263D01*
X17023537Y10119106D01*
X17031309Y10106812D01*
X17040606Y10095585D01*
X17051223Y10085628D01*
X17063008Y10077094D01*
X17075759Y10070084D01*
X17089272Y10064699D01*
X17103394Y10061092D01*
G37*
G36*
X16467582Y10059263D02*
G01*
X16482110Y10059263D01*
X16496538Y10061092D01*
X16510660Y10064699D01*
X16524173Y10070084D01*
X16536924Y10077094D01*
X16548709Y10085628D01*
X16559326Y10095585D01*
X16568623Y10106812D01*
X16576395Y10119106D01*
X16582593Y10132263D01*
X16587114Y10146131D01*
X16589806Y10160406D01*
X16590721Y10174935D01*
X16589806Y10189464D01*
X16587114Y10203738D01*
X16582593Y10217607D01*
X16576395Y10230764D01*
X16568623Y10243058D01*
X16559326Y10254284D01*
X16548709Y10264241D01*
X16536924Y10272776D01*
X16524173Y10279786D01*
X16510660Y10285171D01*
X16496538Y10288778D01*
X16482110Y10290606D01*
X16467582Y10290606D01*
X16453154Y10288778D01*
X16439032Y10285171D01*
X16425519Y10279786D01*
X16412768Y10272776D01*
X16400983Y10264241D01*
X16390366Y10254284D01*
X16381069Y10243058D01*
X16373297Y10230764D01*
X16367099Y10217607D01*
X16362578Y10203738D01*
X16359886Y10189464D01*
X16358971Y10174935D01*
X16359886Y10160406D01*
X16362578Y10146131D01*
X16367099Y10132263D01*
X16373297Y10119106D01*
X16381069Y10106812D01*
X16390366Y10095585D01*
X16400983Y10085628D01*
X16412768Y10077094D01*
X16425519Y10070084D01*
X16439032Y10064699D01*
X16453154Y10061092D01*
G37*
G36*
X13617803Y10159288D02*
G01*
X13632383Y10159288D01*
X13646810Y10161117D01*
X13660882Y10164724D01*
X13674445Y10170058D01*
X13687196Y10177068D01*
X13698982Y10185654D01*
X13709548Y10195610D01*
X13718844Y10206837D01*
X13726668Y10219080D01*
X13732865Y10232288D01*
X13737336Y10246106D01*
X13740079Y10260431D01*
X13740993Y10274909D01*
X13740079Y10289438D01*
X13737336Y10303764D01*
X13732865Y10317581D01*
X13726668Y10330789D01*
X13718844Y10343032D01*
X13709548Y10354259D01*
X13698982Y10364216D01*
X13687196Y10372801D01*
X13674445Y10379811D01*
X13660882Y10385145D01*
X13646810Y10388752D01*
X13632383Y10390581D01*
X13617803Y10390581D01*
X13603376Y10388752D01*
X13589304Y10385145D01*
X13575741Y10379811D01*
X13562990Y10372801D01*
X13551204Y10364216D01*
X13540638Y10354259D01*
X13531342Y10343032D01*
X13523518Y10330789D01*
X13517321Y10317581D01*
X13512850Y10303764D01*
X13510107Y10289438D01*
X13509193Y10274909D01*
X13510107Y10260431D01*
X13512850Y10246106D01*
X13517321Y10232288D01*
X13523518Y10219080D01*
X13531342Y10206837D01*
X13540638Y10195610D01*
X13551204Y10185654D01*
X13562990Y10177068D01*
X13575741Y10170058D01*
X13589304Y10164724D01*
X13603376Y10161117D01*
G37*
G36*
X12967563Y10159288D02*
G01*
X12982143Y10159288D01*
X12996570Y10161117D01*
X13010642Y10164724D01*
X13024205Y10170058D01*
X13036956Y10177068D01*
X13048742Y10185654D01*
X13059308Y10195610D01*
X13068604Y10206837D01*
X13076428Y10219080D01*
X13082625Y10232288D01*
X13087096Y10246106D01*
X13089839Y10260431D01*
X13090753Y10274909D01*
X13089839Y10289438D01*
X13087096Y10303764D01*
X13082625Y10317581D01*
X13076428Y10330789D01*
X13068604Y10343032D01*
X13059308Y10354259D01*
X13048742Y10364216D01*
X13036956Y10372801D01*
X13024205Y10379811D01*
X13010642Y10385145D01*
X12996570Y10388752D01*
X12982143Y10390581D01*
X12967563Y10390581D01*
X12953136Y10388752D01*
X12939064Y10385145D01*
X12925501Y10379811D01*
X12912750Y10372801D01*
X12900964Y10364216D01*
X12890398Y10354259D01*
X12881102Y10343032D01*
X12873278Y10330789D01*
X12867081Y10317581D01*
X12862610Y10303764D01*
X12859867Y10289438D01*
X12858953Y10274909D01*
X12859867Y10260431D01*
X12862610Y10246106D01*
X12867081Y10232288D01*
X12873278Y10219080D01*
X12881102Y10206837D01*
X12890398Y10195610D01*
X12900964Y10185654D01*
X12912750Y10177068D01*
X12925501Y10170058D01*
X12939064Y10164724D01*
X12953136Y10161117D01*
G37*
G36*
X8184489Y10322610D02*
G01*
X8211972Y10322610D01*
X8211972Y10370515D01*
X8158022Y10370515D01*
X8158022Y10349077D01*
X8158734Y10342778D01*
X8160613Y10337292D01*
X8163712Y10332415D01*
X8167776Y10328300D01*
X8172703Y10325252D01*
X8178139Y10323322D01*
G37*
G36*
X8293557Y10322610D02*
G01*
X8321040Y10322610D01*
X8327339Y10323322D01*
X8332825Y10325252D01*
X8337702Y10328300D01*
X8341817Y10332415D01*
X8344916Y10337292D01*
X8346795Y10342778D01*
X8347506Y10349077D01*
X8347506Y10370515D01*
X8293557Y10370515D01*
G37*
G36*
X7928203Y10435437D02*
G01*
X7956550Y10435437D01*
X7962900Y10436148D01*
X7968335Y10438079D01*
X7973263Y10441178D01*
X7977327Y10445242D01*
X7980425Y10450169D01*
X7982305Y10455605D01*
X7983016Y10461904D01*
X7983016Y10488777D01*
X7928203Y10488777D01*
G37*
G36*
X8158022Y10439806D02*
G01*
X8211972Y10439806D01*
X8211972Y10487710D01*
X8184489Y10487710D01*
X8178139Y10486999D01*
X8172703Y10485069D01*
X8167776Y10481970D01*
X8163712Y10477906D01*
X8160613Y10472978D01*
X8158734Y10467543D01*
X8158022Y10461193D01*
G37*
G36*
X8293557Y10439806D02*
G01*
X8347506Y10439806D01*
X8347506Y10461193D01*
X8346795Y10467543D01*
X8344916Y10472978D01*
X8341817Y10477906D01*
X8337702Y10481970D01*
X8332825Y10485069D01*
X8327339Y10486999D01*
X8321040Y10487710D01*
X8293557Y10487710D01*
G37*
G36*
X9217609Y10492790D02*
G01*
X9232138Y10492790D01*
X9246565Y10494619D01*
X9260687Y10498226D01*
X9274200Y10503560D01*
X9286951Y10510570D01*
X9298736Y10519156D01*
X9309354Y10529112D01*
X9318599Y10540339D01*
X9326422Y10552582D01*
X9332620Y10565790D01*
X9337090Y10579608D01*
X9339834Y10593933D01*
X9340748Y10608411D01*
X9339834Y10622940D01*
X9337090Y10637266D01*
X9332620Y10651083D01*
X9326422Y10664240D01*
X9318599Y10676534D01*
X9309354Y10687761D01*
X9298736Y10697718D01*
X9286951Y10706303D01*
X9274200Y10713313D01*
X9260687Y10718647D01*
X9246565Y10722254D01*
X9232138Y10724083D01*
X9217609Y10724083D01*
X9203131Y10722254D01*
X9189059Y10718647D01*
X9175496Y10713313D01*
X9162745Y10706303D01*
X9151010Y10697718D01*
X9140393Y10687761D01*
X9131096Y10676534D01*
X9123324Y10664240D01*
X9117126Y10651083D01*
X9112605Y10637266D01*
X9109862Y10622940D01*
X9108948Y10608411D01*
X9109862Y10593933D01*
X9112605Y10579608D01*
X9117126Y10565790D01*
X9123324Y10552582D01*
X9131096Y10540339D01*
X9140393Y10529112D01*
X9151010Y10519156D01*
X9162745Y10510570D01*
X9175496Y10503560D01*
X9189059Y10498226D01*
X9203131Y10494619D01*
G37*
G36*
X9867849Y10492790D02*
G01*
X9882378Y10492790D01*
X9896805Y10494619D01*
X9910927Y10498226D01*
X9924440Y10503560D01*
X9937191Y10510570D01*
X9948976Y10519156D01*
X9959594Y10529112D01*
X9968839Y10540339D01*
X9976662Y10552582D01*
X9982860Y10565790D01*
X9987330Y10579608D01*
X9990074Y10593933D01*
X9990988Y10608411D01*
X9990074Y10622940D01*
X9987330Y10637266D01*
X9982860Y10651083D01*
X9976662Y10664240D01*
X9968839Y10676534D01*
X9959594Y10687761D01*
X9948976Y10697718D01*
X9937191Y10706303D01*
X9924440Y10713313D01*
X9910927Y10718647D01*
X9896805Y10722254D01*
X9882378Y10724083D01*
X9867849Y10724083D01*
X9853371Y10722254D01*
X9839299Y10718647D01*
X9825736Y10713313D01*
X9812985Y10706303D01*
X9801250Y10697718D01*
X9790633Y10687761D01*
X9781336Y10676534D01*
X9773564Y10664240D01*
X9767366Y10651083D01*
X9762845Y10637266D01*
X9760102Y10622940D01*
X9759188Y10608411D01*
X9760102Y10593933D01*
X9762845Y10579608D01*
X9767366Y10565790D01*
X9773564Y10552582D01*
X9781336Y10540339D01*
X9790633Y10529112D01*
X9801250Y10519156D01*
X9812985Y10510570D01*
X9825736Y10503560D01*
X9839299Y10498226D01*
X9853371Y10494619D01*
G37*
G36*
X12243917Y10505236D02*
G01*
X12356033Y10505236D01*
X12362383Y10505948D01*
X12367818Y10507827D01*
X12372695Y10510926D01*
X12376810Y10514990D01*
X12379909Y10519918D01*
X12381788Y10525353D01*
X12382500Y10531703D01*
X12382500Y10551210D01*
X12383312Y10555122D01*
X12385497Y10558373D01*
X12388799Y10560608D01*
X12392660Y10561370D01*
X12595047Y10561370D01*
X12598958Y10560608D01*
X12602260Y10558373D01*
X12604445Y10555122D01*
X12605207Y10551210D01*
X12605207Y10543895D01*
X12605918Y10537596D01*
X12607848Y10532110D01*
X12610896Y10527233D01*
X12615011Y10523118D01*
X12619888Y10520070D01*
X12625374Y10518140D01*
X12631674Y10517428D01*
X12768275Y10517428D01*
X12774574Y10518140D01*
X12780060Y10520070D01*
X12784937Y10523118D01*
X12789052Y10527233D01*
X12792100Y10532110D01*
X12794030Y10537596D01*
X12794742Y10543895D01*
X12794742Y10635945D01*
X12795504Y10639806D01*
X12797688Y10643108D01*
X12838023Y10683443D01*
X12841325Y10685627D01*
X12845237Y10686389D01*
X12858750Y10686389D01*
X12862509Y10685678D01*
X12865709Y10683646D01*
X12867944Y10680598D01*
X12873278Y10669168D01*
X12881102Y10656925D01*
X12890398Y10645698D01*
X12900964Y10635742D01*
X12912750Y10627156D01*
X12925501Y10620146D01*
X12939064Y10614812D01*
X12953136Y10611205D01*
X12967563Y10609376D01*
X12982143Y10609376D01*
X12996570Y10611205D01*
X13010642Y10614812D01*
X13024205Y10620146D01*
X13036956Y10627156D01*
X13048742Y10635742D01*
X13059308Y10645698D01*
X13068604Y10656925D01*
X13076428Y10669168D01*
X13082625Y10682376D01*
X13087096Y10696194D01*
X13089839Y10710519D01*
X13090753Y10724997D01*
X13089839Y10739526D01*
X13087096Y10753852D01*
X13082625Y10767669D01*
X13076428Y10780877D01*
X13068604Y10793120D01*
X13059308Y10804347D01*
X13048742Y10814304D01*
X13036956Y10822889D01*
X13024205Y10829899D01*
X13010642Y10835233D01*
X12996570Y10838840D01*
X12982143Y10840669D01*
X12967563Y10840669D01*
X12953136Y10838840D01*
X12939064Y10835233D01*
X12925501Y10829899D01*
X12912750Y10822889D01*
X12900964Y10814304D01*
X12890398Y10804347D01*
X12881102Y10793120D01*
X12873278Y10780877D01*
X12867944Y10769447D01*
X12865709Y10766399D01*
X12862509Y10764367D01*
X12858750Y10763605D01*
X12825526Y10763605D01*
X12817500Y10762843D01*
X12805664Y10759186D01*
X12801498Y10759694D01*
X12797942Y10761878D01*
X12795554Y10765332D01*
X12740741Y10765332D01*
X12740741Y10717174D01*
X12744602Y10715294D01*
X12747294Y10711992D01*
X12748463Y10707878D01*
X12747802Y10703661D01*
X12745516Y10700105D01*
X12730886Y10685475D01*
X12727584Y10683290D01*
X12723672Y10682528D01*
X12631674Y10682528D01*
X12625374Y10681817D01*
X12619888Y10679887D01*
X12615011Y10676788D01*
X12610896Y10672724D01*
X12607848Y10667796D01*
X12605918Y10662361D01*
X12605207Y10656011D01*
X12605207Y10648746D01*
X12604445Y10644835D01*
X12602260Y10641584D01*
X12598958Y10639348D01*
X12595047Y10638586D01*
X12392660Y10638586D01*
X12388799Y10639348D01*
X12385497Y10641584D01*
X12383312Y10644835D01*
X12382500Y10648746D01*
X12382500Y10668254D01*
X12381788Y10674604D01*
X12379909Y10680039D01*
X12376810Y10684967D01*
X12372695Y10689031D01*
X12367818Y10692130D01*
X12362383Y10694009D01*
X12356033Y10694720D01*
X12243917Y10694720D01*
X12237618Y10694009D01*
X12232132Y10692130D01*
X12227255Y10689031D01*
X12223140Y10684967D01*
X12220092Y10680039D01*
X12218162Y10674604D01*
X12217450Y10668254D01*
X12217450Y10531703D01*
X12218162Y10525353D01*
X12220092Y10519918D01*
X12223140Y10514990D01*
X12227255Y10510926D01*
X12232132Y10507827D01*
X12237618Y10505948D01*
G37*
G36*
X12043918Y10505236D02*
G01*
X12156033Y10505236D01*
X12162332Y10505948D01*
X12167819Y10507827D01*
X12172696Y10510926D01*
X12176810Y10514990D01*
X12179858Y10519918D01*
X12181789Y10525353D01*
X12182500Y10531703D01*
X12182500Y10668254D01*
X12181789Y10674604D01*
X12179858Y10680039D01*
X12176810Y10684967D01*
X12172696Y10689031D01*
X12167819Y10692130D01*
X12162332Y10694009D01*
X12156033Y10694720D01*
X12148769Y10694720D01*
X12144857Y10695533D01*
X12141555Y10697718D01*
X12139371Y10701020D01*
X12138609Y10704880D01*
X12138609Y10796422D01*
X12139371Y10800283D01*
X12141555Y10803585D01*
X12144857Y10805820D01*
X12148769Y10806582D01*
X12169902Y10806582D01*
X12176201Y10807293D01*
X12181687Y10809173D01*
X12186564Y10812272D01*
X12190679Y10816386D01*
X12194184Y10820400D01*
X12197943Y10822025D01*
X12202007Y10822025D01*
X12205766Y10820400D01*
X12209272Y10816386D01*
X12213386Y10812272D01*
X12218263Y10809173D01*
X12223750Y10807293D01*
X12230049Y10806582D01*
X12258395Y10806582D01*
X12258395Y10859871D01*
X12206528Y10859871D01*
X12202668Y10860633D01*
X12199366Y10862868D01*
X12197130Y10866170D01*
X12196368Y10870031D01*
X12196368Y10929924D01*
X12197130Y10933785D01*
X12199366Y10937087D01*
X12202668Y10939322D01*
X12206528Y10940084D01*
X12258395Y10940084D01*
X12258395Y10993374D01*
X12230049Y10993374D01*
X12223750Y10992662D01*
X12218263Y10990783D01*
X12213386Y10987684D01*
X12209272Y10983569D01*
X12205766Y10979556D01*
X12202007Y10977930D01*
X12197943Y10977930D01*
X12194184Y10979556D01*
X12190679Y10983569D01*
X12186564Y10987684D01*
X12181687Y10990783D01*
X12176201Y10992662D01*
X12169902Y10993374D01*
X12030049Y10993374D01*
X12023699Y10992662D01*
X12018264Y10990783D01*
X12013336Y10987684D01*
X12009272Y10983569D01*
X12006173Y10978692D01*
X12004294Y10973206D01*
X12003582Y10966907D01*
X12003582Y10833049D01*
X12004294Y10826750D01*
X12006173Y10821263D01*
X12009272Y10816386D01*
X12013336Y10812272D01*
X12018264Y10809173D01*
X12023699Y10807293D01*
X12030049Y10806582D01*
X12051233Y10806582D01*
X12055094Y10805820D01*
X12058396Y10803585D01*
X12060580Y10800283D01*
X12061393Y10796422D01*
X12061393Y10717733D01*
X12060580Y10713821D01*
X12058396Y10710519D01*
X12055094Y10708335D01*
X12051233Y10707573D01*
X12047321Y10708335D01*
X12044019Y10710519D01*
X11427612Y11326926D01*
X11421414Y11332057D01*
X11414709Y11335613D01*
X11407495Y11337798D01*
X11399469Y11338610D01*
X7800492Y11338610D01*
X7792466Y11337798D01*
X7785201Y11335613D01*
X7778546Y11332057D01*
X7772349Y11326926D01*
X7086955Y10641584D01*
X7083653Y10639348D01*
X7079792Y10638586D01*
X6225286Y10638586D01*
X6221577Y10639298D01*
X6218326Y10641330D01*
X6216091Y10644428D01*
X6215176Y10648086D01*
X6215634Y10651896D01*
X6217462Y10655198D01*
X6218885Y10656925D01*
X6226657Y10669168D01*
X6232855Y10682376D01*
X6237376Y10696194D01*
X6240068Y10710519D01*
X6240983Y10724997D01*
X6240068Y10739526D01*
X6237376Y10753852D01*
X6232855Y10767669D01*
X6226657Y10780877D01*
X6218885Y10793120D01*
X6209588Y10804347D01*
X6198971Y10814304D01*
X6187186Y10822889D01*
X6174435Y10829899D01*
X6160922Y10835233D01*
X6146800Y10838840D01*
X6132372Y10840669D01*
X6117844Y10840669D01*
X6103416Y10838840D01*
X6089294Y10835233D01*
X6075781Y10829899D01*
X6063030Y10822889D01*
X6051245Y10814304D01*
X6040628Y10804347D01*
X6031331Y10793120D01*
X6023559Y10780877D01*
X6017361Y10767669D01*
X6012840Y10753852D01*
X6010148Y10739526D01*
X6009233Y10724997D01*
X6010148Y10710519D01*
X6012840Y10696194D01*
X6017361Y10682376D01*
X6023559Y10669168D01*
X6031331Y10656925D01*
X6032754Y10655198D01*
X6034582Y10651896D01*
X6035040Y10648086D01*
X6034125Y10644428D01*
X6031890Y10641330D01*
X6028639Y10639298D01*
X6024930Y10638586D01*
X5575046Y10638586D01*
X5571337Y10639298D01*
X5568086Y10641330D01*
X5565851Y10644428D01*
X5564936Y10648086D01*
X5565394Y10651896D01*
X5567222Y10655198D01*
X5568645Y10656925D01*
X5576417Y10669168D01*
X5582615Y10682376D01*
X5587136Y10696194D01*
X5589828Y10710519D01*
X5590743Y10724997D01*
X5589828Y10739526D01*
X5587136Y10753852D01*
X5582615Y10767669D01*
X5576417Y10780877D01*
X5568645Y10793120D01*
X5559348Y10804347D01*
X5548731Y10814304D01*
X5536946Y10822889D01*
X5524195Y10829899D01*
X5510682Y10835233D01*
X5496560Y10838840D01*
X5482132Y10840669D01*
X5467604Y10840669D01*
X5453176Y10838840D01*
X5439054Y10835233D01*
X5425541Y10829899D01*
X5412790Y10822889D01*
X5401005Y10814304D01*
X5390388Y10804347D01*
X5381091Y10793120D01*
X5373319Y10780877D01*
X5367121Y10767669D01*
X5362600Y10753852D01*
X5359908Y10739526D01*
X5358993Y10724997D01*
X5359908Y10710519D01*
X5362600Y10696194D01*
X5367121Y10682376D01*
X5373319Y10669168D01*
X5381091Y10656925D01*
X5382514Y10655198D01*
X5384342Y10651896D01*
X5384800Y10648086D01*
X5383885Y10644428D01*
X5381650Y10641330D01*
X5378399Y10639298D01*
X5374690Y10638586D01*
X3620211Y10638586D01*
X3616299Y10639348D01*
X3612997Y10641584D01*
X3114598Y11139982D01*
X3112363Y11143284D01*
X3111601Y11147196D01*
X3111601Y11669268D01*
X3112312Y11672976D01*
X3114294Y11676176D01*
X3117291Y11678412D01*
X3125317Y11682374D01*
X3136696Y11689994D01*
X3146958Y11698986D01*
X3156000Y11709298D01*
X3163620Y11720677D01*
X3169666Y11732920D01*
X3174034Y11745874D01*
X3176727Y11759336D01*
X3177641Y11772950D01*
X3176727Y11786616D01*
X3174034Y11800078D01*
X3169666Y11813032D01*
X3163620Y11825274D01*
X3156000Y11836654D01*
X3146958Y11846966D01*
X3136696Y11855958D01*
X3125317Y11863578D01*
X3113024Y11869623D01*
X3100070Y11874042D01*
X3086658Y11876684D01*
X3072993Y11877598D01*
X3059328Y11876684D01*
X3045917Y11874042D01*
X3032963Y11869623D01*
X3020669Y11863578D01*
X3009290Y11855958D01*
X2999028Y11846966D01*
X2989986Y11836654D01*
X2982366Y11825274D01*
X2976321Y11813032D01*
X2971952Y11800078D01*
X2969260Y11786616D01*
X2968345Y11772950D01*
X2969260Y11759336D01*
X2971952Y11745874D01*
X2976321Y11732920D01*
X2982366Y11720677D01*
X2989986Y11709298D01*
X2999028Y11698986D01*
X3009290Y11689994D01*
X3020669Y11682374D01*
X3028696Y11678412D01*
X3031693Y11676176D01*
X3033674Y11672976D01*
X3034385Y11669268D01*
X3034385Y11127486D01*
X3035198Y11119459D01*
X3037382Y11112195D01*
X3040938Y11105540D01*
X3046069Y11099342D01*
X3572357Y10573054D01*
X3578555Y10567924D01*
X3585210Y10564368D01*
X3592474Y10562183D01*
X3600500Y10561370D01*
X7099503Y10561370D01*
X7107529Y10562183D01*
X7114743Y10564368D01*
X7121398Y10567924D01*
X7127646Y10573054D01*
X7812989Y11258397D01*
X7816291Y11260582D01*
X7820202Y11261394D01*
X11379758Y11261394D01*
X11383670Y11260582D01*
X11386972Y11258397D01*
X12014454Y10630916D01*
X12016638Y10627614D01*
X12017451Y10623702D01*
X12017451Y10531703D01*
X12018162Y10525353D01*
X12020042Y10519918D01*
X12023140Y10514990D01*
X12027255Y10510926D01*
X12032132Y10507827D01*
X12037568Y10505948D01*
G37*
G36*
X17117822Y10509351D02*
G01*
X17132350Y10509351D01*
X17146778Y10511180D01*
X17160900Y10514787D01*
X17174413Y10520172D01*
X17187164Y10527182D01*
X17198949Y10535716D01*
X17209566Y10545673D01*
X17218863Y10556900D01*
X17226635Y10569194D01*
X17232833Y10582351D01*
X17237354Y10596219D01*
X17240046Y10610494D01*
X17240961Y10625023D01*
X17240046Y10639552D01*
X17237354Y10653826D01*
X17232833Y10667695D01*
X17226635Y10680852D01*
X17218863Y10693146D01*
X17209566Y10704372D01*
X17198949Y10714329D01*
X17187164Y10722864D01*
X17174413Y10729874D01*
X17160900Y10735259D01*
X17146778Y10738866D01*
X17132350Y10740694D01*
X17117822Y10740694D01*
X17103394Y10738866D01*
X17089272Y10735259D01*
X17075759Y10729874D01*
X17063008Y10722864D01*
X17051223Y10714329D01*
X17040606Y10704372D01*
X17031309Y10693146D01*
X17023537Y10680852D01*
X17017339Y10667695D01*
X17012818Y10653826D01*
X17010126Y10639552D01*
X17009211Y10625023D01*
X17010126Y10610494D01*
X17012818Y10596219D01*
X17017339Y10582351D01*
X17023537Y10569194D01*
X17031309Y10556900D01*
X17040606Y10545673D01*
X17051223Y10535716D01*
X17063008Y10527182D01*
X17075759Y10520172D01*
X17089272Y10514787D01*
X17103394Y10511180D01*
G37*
G36*
X16467582Y10509351D02*
G01*
X16482110Y10509351D01*
X16496538Y10511180D01*
X16510660Y10514787D01*
X16524173Y10520172D01*
X16536924Y10527182D01*
X16548709Y10535716D01*
X16559326Y10545673D01*
X16568623Y10556900D01*
X16576395Y10569194D01*
X16582593Y10582351D01*
X16587114Y10596219D01*
X16589806Y10610494D01*
X16590721Y10625023D01*
X16589806Y10639552D01*
X16587114Y10653826D01*
X16584269Y10662513D01*
X16583812Y10666374D01*
X16584828Y10670133D01*
X16587216Y10673232D01*
X16727017Y10797692D01*
X16732046Y10803788D01*
X16735602Y10810494D01*
X16737787Y10817707D01*
X16738600Y10825734D01*
X16738600Y10995050D01*
X16739362Y10998962D01*
X16741597Y11002264D01*
X16744848Y11004448D01*
X16748760Y11005210D01*
X16756024Y11005210D01*
X16762374Y11005921D01*
X16767810Y11007852D01*
X16772686Y11010900D01*
X16776801Y11015014D01*
X16779900Y11019891D01*
X16781780Y11025378D01*
X16782491Y11031677D01*
X16782491Y11123726D01*
X16783304Y11127587D01*
X16785488Y11130889D01*
X16812971Y11158372D01*
X16816273Y11160607D01*
X16820184Y11161369D01*
X16995038Y11161369D01*
X16998950Y11160607D01*
X17002252Y11158372D01*
X17004436Y11155121D01*
X17005198Y11151209D01*
X17005198Y11143894D01*
X17005909Y11137595D01*
X17007840Y11132108D01*
X17010888Y11127232D01*
X17015002Y11123117D01*
X17019879Y11120069D01*
X17025366Y11118138D01*
X17031665Y11117427D01*
X17168266Y11117427D01*
X17174565Y11118138D01*
X17180052Y11120069D01*
X17184928Y11123117D01*
X17189043Y11127232D01*
X17192091Y11132108D01*
X17194022Y11137595D01*
X17194733Y11143894D01*
X17194733Y11256010D01*
X17194022Y11262360D01*
X17192091Y11267795D01*
X17189043Y11272723D01*
X17184928Y11276787D01*
X17180052Y11279886D01*
X17174565Y11281816D01*
X17168266Y11282527D01*
X17031665Y11282527D01*
X17025366Y11281816D01*
X17019879Y11279886D01*
X17015002Y11276787D01*
X17010888Y11272723D01*
X17007840Y11267795D01*
X17005909Y11262360D01*
X17005198Y11256010D01*
X17005198Y11248745D01*
X17004436Y11244834D01*
X17002252Y11241582D01*
X16998950Y11239347D01*
X16995038Y11238585D01*
X16800474Y11238585D01*
X16792448Y11237772D01*
X16785234Y11235588D01*
X16778528Y11232032D01*
X16772331Y11226901D01*
X16743121Y11197691D01*
X16739819Y11195507D01*
X16735907Y11194745D01*
X16643908Y11194745D01*
X16637609Y11194034D01*
X16632123Y11192103D01*
X16627246Y11189055D01*
X16623131Y11184940D01*
X16620083Y11180064D01*
X16618153Y11174577D01*
X16617442Y11168278D01*
X16617442Y11031677D01*
X16618153Y11025378D01*
X16620083Y11019891D01*
X16623131Y11015014D01*
X16627246Y11010900D01*
X16632123Y11007852D01*
X16637609Y11005921D01*
X16643908Y11005210D01*
X16651224Y11005210D01*
X16655135Y11004448D01*
X16658386Y11002264D01*
X16660622Y10998962D01*
X16661384Y10995050D01*
X16661384Y10847120D01*
X16660469Y10842955D01*
X16657980Y10839500D01*
X16536060Y10731093D01*
X16532453Y10729010D01*
X16528338Y10728553D01*
X16524173Y10729874D01*
X16510660Y10735259D01*
X16496538Y10738866D01*
X16482110Y10740694D01*
X16467582Y10740694D01*
X16453154Y10738866D01*
X16439032Y10735259D01*
X16425519Y10729874D01*
X16412768Y10722864D01*
X16400983Y10714329D01*
X16390366Y10704372D01*
X16381069Y10693146D01*
X16373297Y10680852D01*
X16367099Y10667695D01*
X16362578Y10653826D01*
X16359886Y10639552D01*
X16358971Y10625023D01*
X16359886Y10610494D01*
X16362578Y10596219D01*
X16367099Y10582351D01*
X16373297Y10569194D01*
X16381069Y10556900D01*
X16390366Y10545673D01*
X16400983Y10535716D01*
X16412768Y10527182D01*
X16425519Y10520172D01*
X16439032Y10514787D01*
X16453154Y10511180D01*
G37*
G36*
X7928203Y10568940D02*
G01*
X7983016Y10568940D01*
X7983016Y10595813D01*
X7982305Y10602112D01*
X7980425Y10607548D01*
X7977327Y10612475D01*
X7973263Y10616539D01*
X7968335Y10619638D01*
X7962900Y10621568D01*
X7956550Y10622280D01*
X7928203Y10622280D01*
G37*
G36*
X13617803Y10609376D02*
G01*
X13632383Y10609376D01*
X13646810Y10611205D01*
X13660882Y10614812D01*
X13674445Y10620146D01*
X13687196Y10627156D01*
X13698982Y10635742D01*
X13709548Y10645698D01*
X13718844Y10656925D01*
X13726668Y10669168D01*
X13732865Y10682376D01*
X13737336Y10696194D01*
X13740079Y10710519D01*
X13740993Y10724997D01*
X13740079Y10739526D01*
X13737336Y10753852D01*
X13732865Y10767669D01*
X13726668Y10780877D01*
X13718844Y10793120D01*
X13709548Y10804347D01*
X13698982Y10814304D01*
X13687196Y10822889D01*
X13674445Y10829899D01*
X13660882Y10835233D01*
X13646810Y10838840D01*
X13632383Y10840669D01*
X13617803Y10840669D01*
X13603376Y10838840D01*
X13589304Y10835233D01*
X13575741Y10829899D01*
X13562990Y10822889D01*
X13551204Y10814304D01*
X13540638Y10804347D01*
X13531342Y10793120D01*
X13523518Y10780877D01*
X13517321Y10767669D01*
X13512850Y10753852D01*
X13510107Y10739526D01*
X13509193Y10724997D01*
X13510107Y10710519D01*
X13512850Y10696194D01*
X13517321Y10682376D01*
X13523518Y10669168D01*
X13531342Y10656925D01*
X13540638Y10645698D01*
X13551204Y10635742D01*
X13562990Y10627156D01*
X13575741Y10620146D01*
X13589304Y10614812D01*
X13603376Y10611205D01*
G37*
G36*
X4000500Y10661345D02*
G01*
X4999482Y10661345D01*
X5007508Y10662158D01*
X5014722Y10664342D01*
X5021376Y10667898D01*
X5027625Y10673029D01*
X5212892Y10858296D01*
X5216194Y10860532D01*
X5220106Y10861294D01*
X7099553Y10861294D01*
X7107580Y10862056D01*
X7114794Y10864291D01*
X7121499Y10867847D01*
X7127697Y10872927D01*
X7612938Y11358422D01*
X7616240Y11360658D01*
X7620152Y11361420D01*
X11679783Y11361420D01*
X11683695Y11360658D01*
X11686997Y11358422D01*
X11972340Y11073130D01*
X11978538Y11067999D01*
X11985193Y11064443D01*
X11992457Y11062258D01*
X12000484Y11061446D01*
X16407282Y11061446D01*
X16411143Y11060684D01*
X16414445Y11058448D01*
X16416629Y11055197D01*
X16417442Y11051286D01*
X16417442Y11031677D01*
X16418153Y11025378D01*
X16420033Y11019891D01*
X16423132Y11015014D01*
X16427246Y11010900D01*
X16432123Y11007852D01*
X16437559Y11005921D01*
X16443909Y11005210D01*
X16556024Y11005210D01*
X16562324Y11005921D01*
X16567810Y11007852D01*
X16572687Y11010900D01*
X16576801Y11015014D01*
X16579850Y11019891D01*
X16581780Y11025378D01*
X16582491Y11031677D01*
X16582491Y11168278D01*
X16581780Y11174577D01*
X16579850Y11180064D01*
X16576801Y11184940D01*
X16572687Y11189055D01*
X16567810Y11192103D01*
X16562324Y11194034D01*
X16556024Y11194745D01*
X16548760Y11194745D01*
X16544848Y11195507D01*
X16541546Y11197691D01*
X16539362Y11200993D01*
X16538600Y11204905D01*
X16538600Y11296396D01*
X16539362Y11300307D01*
X16541546Y11303609D01*
X16544848Y11305794D01*
X16548760Y11306556D01*
X16569893Y11306556D01*
X16576192Y11307267D01*
X16581678Y11309197D01*
X16586555Y11312296D01*
X16590670Y11316360D01*
X16594175Y11320424D01*
X16597934Y11321999D01*
X16601998Y11321999D01*
X16605757Y11320424D01*
X16609263Y11316360D01*
X16613378Y11312296D01*
X16618254Y11309197D01*
X16623741Y11307267D01*
X16630040Y11306556D01*
X16658386Y11306556D01*
X16658386Y11359896D01*
X16606519Y11359896D01*
X16602659Y11360658D01*
X16599357Y11362842D01*
X16597122Y11366144D01*
X16596360Y11370056D01*
X16596360Y11429898D01*
X16597122Y11433810D01*
X16599357Y11437112D01*
X16602659Y11439296D01*
X16606519Y11440058D01*
X16658386Y11440058D01*
X16658386Y11493398D01*
X16630040Y11493398D01*
X16623741Y11492687D01*
X16618254Y11490756D01*
X16613378Y11487658D01*
X16609263Y11483594D01*
X16605757Y11479530D01*
X16601998Y11477955D01*
X16597934Y11477955D01*
X16594175Y11479530D01*
X16590670Y11483594D01*
X16586555Y11487658D01*
X16581678Y11490756D01*
X16576192Y11492687D01*
X16569893Y11493398D01*
X16430040Y11493398D01*
X16423690Y11492687D01*
X16418255Y11490756D01*
X16413327Y11487658D01*
X16409263Y11483594D01*
X16406164Y11478666D01*
X16404285Y11473230D01*
X16403574Y11466931D01*
X16403574Y11333022D01*
X16404285Y11326723D01*
X16406164Y11321288D01*
X16409263Y11316360D01*
X16413327Y11312296D01*
X16418255Y11309197D01*
X16423690Y11307267D01*
X16430040Y11306556D01*
X16451224Y11306556D01*
X16455085Y11305794D01*
X16458387Y11303609D01*
X16460571Y11300307D01*
X16461384Y11296396D01*
X16461384Y11204905D01*
X16460571Y11200993D01*
X16458387Y11197691D01*
X16455085Y11195507D01*
X16451224Y11194745D01*
X16443909Y11194745D01*
X16437559Y11194034D01*
X16432123Y11192103D01*
X16427246Y11189055D01*
X16423132Y11184940D01*
X16420033Y11180064D01*
X16418153Y11174577D01*
X16417442Y11168278D01*
X16417442Y11148822D01*
X16416629Y11144910D01*
X16414445Y11141659D01*
X16411143Y11139424D01*
X16407282Y11138662D01*
X12020194Y11138662D01*
X12016282Y11139424D01*
X12012980Y11141659D01*
X11727637Y11426952D01*
X11721439Y11432082D01*
X11714734Y11435638D01*
X11707520Y11437823D01*
X11699494Y11438636D01*
X7600442Y11438636D01*
X7592415Y11437823D01*
X7585202Y11435638D01*
X7578496Y11432082D01*
X7572298Y11427002D01*
X7087057Y10941507D01*
X7083755Y10939272D01*
X7079843Y10938510D01*
X5200396Y10938510D01*
X5192369Y10937697D01*
X5185156Y10935512D01*
X5178450Y10931956D01*
X5172252Y10926826D01*
X4986934Y10741558D01*
X4983632Y10739374D01*
X4979771Y10738561D01*
X4020210Y10738561D01*
X4016298Y10739374D01*
X4012996Y10741558D01*
X3368598Y11386007D01*
X3366363Y11389309D01*
X3365601Y11393170D01*
X3365601Y11669268D01*
X3366312Y11672976D01*
X3368294Y11676176D01*
X3371291Y11678412D01*
X3379317Y11682374D01*
X3390696Y11689994D01*
X3400958Y11698986D01*
X3410000Y11709298D01*
X3417620Y11720677D01*
X3423665Y11732920D01*
X3428034Y11745874D01*
X3430727Y11759336D01*
X3431641Y11772950D01*
X3430727Y11786616D01*
X3428034Y11800078D01*
X3423665Y11813032D01*
X3417620Y11825274D01*
X3410000Y11836654D01*
X3400958Y11846966D01*
X3390696Y11855958D01*
X3379317Y11863578D01*
X3367024Y11869623D01*
X3354070Y11874042D01*
X3340658Y11876684D01*
X3326993Y11877598D01*
X3313328Y11876684D01*
X3299917Y11874042D01*
X3286963Y11869623D01*
X3274669Y11863578D01*
X3263290Y11855958D01*
X3253028Y11846966D01*
X3243986Y11836654D01*
X3236366Y11825274D01*
X3230321Y11813032D01*
X3225952Y11800078D01*
X3223260Y11786616D01*
X3222345Y11772950D01*
X3223260Y11759336D01*
X3225952Y11745874D01*
X3230321Y11732920D01*
X3236366Y11720677D01*
X3243986Y11709298D01*
X3253028Y11698986D01*
X3263290Y11689994D01*
X3274669Y11682374D01*
X3282696Y11678412D01*
X3285693Y11676176D01*
X3287674Y11672976D01*
X3288385Y11669268D01*
X3288385Y11373459D01*
X3289198Y11365433D01*
X3291382Y11358219D01*
X3294938Y11351564D01*
X3300069Y11345316D01*
X3972356Y10673029D01*
X3978554Y10667898D01*
X3985260Y10664342D01*
X3992473Y10662158D01*
G37*
G36*
X8543950Y10705236D02*
G01*
X8656066Y10705236D01*
X8662365Y10705947D01*
X8667851Y10707827D01*
X8672728Y10710926D01*
X8676843Y10714990D01*
X8679891Y10719917D01*
X8681821Y10725353D01*
X8682532Y10731703D01*
X8682532Y10823702D01*
X8683294Y10827613D01*
X8685479Y10830915D01*
X8713012Y10858398D01*
X8716314Y10860582D01*
X8720175Y10861344D01*
X8895080Y10861344D01*
X8898940Y10860582D01*
X8902242Y10858398D01*
X8904427Y10855096D01*
X8905240Y10851184D01*
X8905240Y10843920D01*
X8905951Y10837570D01*
X8907830Y10832134D01*
X8910929Y10827258D01*
X8914993Y10823143D01*
X8919921Y10820044D01*
X8925356Y10818164D01*
X8931706Y10817453D01*
X9068257Y10817453D01*
X9074607Y10818164D01*
X9080042Y10820044D01*
X9084970Y10823143D01*
X9089034Y10827258D01*
X9092133Y10832134D01*
X9094012Y10837570D01*
X9094724Y10843920D01*
X9094724Y10869574D01*
X9095536Y10873486D01*
X9097721Y10876788D01*
X9170162Y10949228D01*
X9173413Y10951362D01*
X9177223Y10952175D01*
X9181084Y10951464D01*
X9189059Y10948314D01*
X9203131Y10944707D01*
X9217609Y10942878D01*
X9232138Y10942878D01*
X9246565Y10944707D01*
X9260687Y10948314D01*
X9274200Y10953648D01*
X9286951Y10960658D01*
X9298736Y10969244D01*
X9309354Y10979200D01*
X9318599Y10990427D01*
X9326422Y11002670D01*
X9332620Y11015878D01*
X9337090Y11029696D01*
X9339834Y11044021D01*
X9340748Y11058499D01*
X9339834Y11073028D01*
X9337090Y11087354D01*
X9332620Y11101171D01*
X9326422Y11114328D01*
X9318599Y11126622D01*
X9309354Y11137849D01*
X9298736Y11147806D01*
X9286951Y11156391D01*
X9274200Y11163401D01*
X9260687Y11168735D01*
X9246565Y11172342D01*
X9232138Y11174171D01*
X9217609Y11174171D01*
X9203131Y11172342D01*
X9189059Y11168735D01*
X9175496Y11163401D01*
X9162745Y11156391D01*
X9151010Y11147806D01*
X9140393Y11137849D01*
X9131096Y11126622D01*
X9123324Y11114328D01*
X9117126Y11101171D01*
X9112605Y11087354D01*
X9109964Y11073587D01*
X9108744Y11070285D01*
X9106458Y11067643D01*
X9103461Y11065916D01*
X9100007Y11065306D01*
X9040774Y11065306D01*
X9040774Y11017453D01*
X9068257Y11017453D01*
X9074607Y11018164D01*
X9080042Y11020094D01*
X9084970Y11023142D01*
X9089034Y11027257D01*
X9092133Y11032134D01*
X9092590Y11033506D01*
X9094927Y11037265D01*
X9098584Y11039652D01*
X9102953Y11040262D01*
X9107170Y11039043D01*
X9110421Y11036096D01*
X9112148Y11032032D01*
X9112605Y11029696D01*
X9117126Y11015878D01*
X9118396Y11011204D01*
X9117685Y11007140D01*
X9115399Y11003686D01*
X9092895Y10981131D01*
X9090101Y10979200D01*
X9086850Y10978235D01*
X9083446Y10978438D01*
X9074607Y10981791D01*
X9068257Y10982502D01*
X8931706Y10982502D01*
X8925356Y10981791D01*
X8919921Y10979861D01*
X8914993Y10976813D01*
X8910929Y10972698D01*
X8907830Y10967821D01*
X8905951Y10962335D01*
X8905240Y10956036D01*
X8905240Y10948720D01*
X8904427Y10944860D01*
X8902242Y10941558D01*
X8898940Y10939373D01*
X8895080Y10938560D01*
X8700465Y10938560D01*
X8692438Y10937798D01*
X8685225Y10935614D01*
X8678570Y10932058D01*
X8672322Y10926927D01*
X8643112Y10897717D01*
X8639810Y10895533D01*
X8635949Y10894720D01*
X8543950Y10894720D01*
X8537600Y10894009D01*
X8532164Y10892129D01*
X8527237Y10889030D01*
X8523173Y10884966D01*
X8520074Y10880039D01*
X8518144Y10874603D01*
X8517432Y10868253D01*
X8517432Y10731703D01*
X8518144Y10725353D01*
X8520074Y10719917D01*
X8523173Y10714990D01*
X8527237Y10710926D01*
X8532164Y10707827D01*
X8537600Y10705947D01*
G37*
G36*
X12631674Y10717428D02*
G01*
X12659207Y10717428D01*
X12659207Y10765332D01*
X12605207Y10765332D01*
X12605207Y10743946D01*
X12605918Y10737596D01*
X12607848Y10732160D01*
X12610896Y10727232D01*
X12615011Y10723168D01*
X12619888Y10720070D01*
X12625374Y10718139D01*
G37*
G36*
X12341555Y10806582D02*
G01*
X12369901Y10806582D01*
X12376251Y10807293D01*
X12381687Y10809173D01*
X12386614Y10812272D01*
X12390678Y10816386D01*
X12393777Y10821263D01*
X12395657Y10826750D01*
X12396368Y10833049D01*
X12396368Y10859871D01*
X12341555Y10859871D01*
G37*
G36*
X12740741Y10834624D02*
G01*
X12794742Y10834624D01*
X12794742Y10856061D01*
X12794030Y10862360D01*
X12792100Y10867847D01*
X12789052Y10872724D01*
X12784937Y10876838D01*
X12780060Y10879886D01*
X12774574Y10881817D01*
X12768275Y10882528D01*
X12740741Y10882528D01*
G37*
G36*
X12605207Y10834624D02*
G01*
X12659207Y10834624D01*
X12659207Y10882528D01*
X12631674Y10882528D01*
X12625374Y10881817D01*
X12619888Y10879886D01*
X12615011Y10876838D01*
X12610896Y10872724D01*
X12607848Y10867847D01*
X12605918Y10862360D01*
X12605207Y10856061D01*
G37*
G36*
X12341555Y10940084D02*
G01*
X12396368Y10940084D01*
X12396368Y10966907D01*
X12395657Y10973206D01*
X12393777Y10978692D01*
X12390678Y10983569D01*
X12386614Y10987684D01*
X12381687Y10990783D01*
X12376251Y10992662D01*
X12369901Y10993374D01*
X12341555Y10993374D01*
G37*
G36*
X9867849Y10942878D02*
G01*
X9882378Y10942878D01*
X9896805Y10944707D01*
X9910927Y10948314D01*
X9924440Y10953648D01*
X9937191Y10960658D01*
X9948976Y10969244D01*
X9959594Y10979200D01*
X9968839Y10990427D01*
X9976662Y11002670D01*
X9982860Y11015878D01*
X9987330Y11029696D01*
X9990074Y11044021D01*
X9990988Y11058499D01*
X9990074Y11073028D01*
X9987330Y11087354D01*
X9982860Y11101171D01*
X9976662Y11114328D01*
X9968839Y11126622D01*
X9959594Y11137849D01*
X9948976Y11147806D01*
X9937191Y11156391D01*
X9924440Y11163401D01*
X9910927Y11168735D01*
X9896805Y11172342D01*
X9882378Y11174171D01*
X9867849Y11174171D01*
X9853371Y11172342D01*
X9839299Y11168735D01*
X9825736Y11163401D01*
X9812985Y11156391D01*
X9801250Y11147806D01*
X9790633Y11137849D01*
X9781336Y11126622D01*
X9773564Y11114328D01*
X9767366Y11101171D01*
X9762845Y11087354D01*
X9760102Y11073028D01*
X9759188Y11058499D01*
X9760102Y11044021D01*
X9762845Y11029696D01*
X9767366Y11015878D01*
X9773564Y11002670D01*
X9781336Y10990427D01*
X9790633Y10979200D01*
X9801250Y10969244D01*
X9812985Y10960658D01*
X9825736Y10953648D01*
X9839299Y10948314D01*
X9853371Y10944707D01*
G37*
G36*
X8641588Y11006582D02*
G01*
X8669934Y11006582D01*
X8676233Y11007293D01*
X8681720Y11009172D01*
X8686596Y11012271D01*
X8690711Y11016386D01*
X8693759Y11021263D01*
X8695690Y11026749D01*
X8696401Y11033048D01*
X8696401Y11059871D01*
X8641588Y11059871D01*
G37*
G36*
X8931706Y11017453D02*
G01*
X8959189Y11017453D01*
X8959189Y11065306D01*
X8905240Y11065306D01*
X8905240Y11043920D01*
X8905951Y11037620D01*
X8907830Y11032134D01*
X8910929Y11027257D01*
X8914993Y11023142D01*
X8919921Y11020094D01*
X8925356Y11018164D01*
G37*
G36*
X9040774Y11134648D02*
G01*
X9094724Y11134648D01*
X9094724Y11156035D01*
X9094012Y11162385D01*
X9092133Y11167821D01*
X9089034Y11172698D01*
X9084970Y11176812D01*
X9080042Y11179911D01*
X9074607Y11181791D01*
X9068257Y11182502D01*
X9040774Y11182502D01*
G37*
G36*
X8905240Y11134648D02*
G01*
X8959189Y11134648D01*
X8959189Y11182502D01*
X8931706Y11182502D01*
X8925356Y11181791D01*
X8919921Y11179911D01*
X8914993Y11176812D01*
X8910929Y11172698D01*
X8907830Y11167821D01*
X8905951Y11162385D01*
X8905240Y11156035D01*
G37*
G36*
X8641588Y11140084D02*
G01*
X8696401Y11140084D01*
X8696401Y11166906D01*
X8695690Y11173206D01*
X8693759Y11178692D01*
X8690711Y11183569D01*
X8686596Y11187684D01*
X8681720Y11190782D01*
X8676233Y11192662D01*
X8669934Y11193373D01*
X8641588Y11193373D01*
G37*
G36*
X16741546Y11306556D02*
G01*
X16769892Y11306556D01*
X16776242Y11307267D01*
X16781678Y11309197D01*
X16786606Y11312296D01*
X16790670Y11316360D01*
X16793768Y11321288D01*
X16795648Y11326723D01*
X16796359Y11333022D01*
X16796359Y11359896D01*
X16741546Y11359896D01*
G37*
G36*
X17031665Y11317427D02*
G01*
X17059198Y11317427D01*
X17059198Y11365331D01*
X17005198Y11365331D01*
X17005198Y11343944D01*
X17005909Y11337594D01*
X17007840Y11332159D01*
X17010888Y11327231D01*
X17015002Y11323167D01*
X17019879Y11320068D01*
X17025366Y11318138D01*
G37*
G36*
X17140732Y11317427D02*
G01*
X17168266Y11317427D01*
X17174565Y11318138D01*
X17180052Y11320068D01*
X17184928Y11323167D01*
X17189043Y11327231D01*
X17192091Y11332159D01*
X17194022Y11337594D01*
X17194733Y11343944D01*
X17194733Y11365331D01*
X17140732Y11365331D01*
G37*
G36*
X17005198Y11434622D02*
G01*
X17059198Y11434622D01*
X17059198Y11482527D01*
X17031665Y11482527D01*
X17025366Y11481816D01*
X17019879Y11479885D01*
X17015002Y11476837D01*
X17010888Y11472722D01*
X17007840Y11467846D01*
X17005909Y11462359D01*
X17005198Y11456060D01*
G37*
G36*
X17140732Y11434622D02*
G01*
X17194733Y11434622D01*
X17194733Y11456060D01*
X17194022Y11462359D01*
X17192091Y11467846D01*
X17189043Y11472722D01*
X17184928Y11476837D01*
X17180052Y11479885D01*
X17174565Y11481816D01*
X17168266Y11482527D01*
X17140732Y11482527D01*
G37*
G36*
X16741546Y11440058D02*
G01*
X16796359Y11440058D01*
X16796359Y11466931D01*
X16795648Y11473230D01*
X16793768Y11478666D01*
X16790670Y11483594D01*
X16786606Y11487658D01*
X16781678Y11490756D01*
X16776242Y11492687D01*
X16769892Y11493398D01*
X16741546Y11493398D01*
G37*
G36*
X5400497Y11561368D02*
G01*
X17399457Y11561368D01*
X17407483Y11562130D01*
X17414748Y11564366D01*
X17421402Y11567922D01*
X17427600Y11573002D01*
X17569078Y11714480D01*
X17572329Y11716664D01*
X17576241Y11717426D01*
X17668240Y11717426D01*
X17674590Y11718137D01*
X17680025Y11720068D01*
X17684953Y11723116D01*
X17689017Y11727230D01*
X17692116Y11732107D01*
X17693995Y11737594D01*
X17694706Y11743893D01*
X17694706Y11751208D01*
X17695519Y11755120D01*
X17697704Y11758371D01*
X17701006Y11760606D01*
X17704866Y11761368D01*
X17752466Y11761368D01*
X17760492Y11762181D01*
X17767706Y11764365D01*
X17774361Y11767921D01*
X17780609Y11773052D01*
X18051983Y12044426D01*
X18055285Y12046610D01*
X18059196Y12047372D01*
X18129097Y12047372D01*
X18135396Y12048083D01*
X18140883Y12050014D01*
X18145760Y12053062D01*
X18149874Y12057176D01*
X18152922Y12062053D01*
X18154853Y12067540D01*
X18155564Y12073839D01*
X18155564Y12176099D01*
X18154853Y12182398D01*
X18152922Y12187885D01*
X18149874Y12192762D01*
X18145760Y12196876D01*
X18140883Y12199924D01*
X18135396Y12201855D01*
X18129097Y12202566D01*
X18026837Y12202566D01*
X18020538Y12201855D01*
X18015051Y12199924D01*
X18010174Y12196876D01*
X18006060Y12192762D01*
X18003012Y12187885D01*
X18001081Y12182398D01*
X18000370Y12176099D01*
X18000370Y12106198D01*
X17999608Y12102287D01*
X17997373Y12098985D01*
X17739969Y11841581D01*
X17736667Y11839346D01*
X17732756Y11838584D01*
X17704866Y11838584D01*
X17701006Y11839346D01*
X17697704Y11841581D01*
X17695519Y11844832D01*
X17694706Y11848744D01*
X17694706Y11856008D01*
X17693995Y11862358D01*
X17692116Y11867794D01*
X17689017Y11872722D01*
X17684953Y11876786D01*
X17680025Y11879884D01*
X17674590Y11881815D01*
X17668240Y11882526D01*
X17531689Y11882526D01*
X17525339Y11881815D01*
X17519904Y11879884D01*
X17514976Y11876786D01*
X17510912Y11872722D01*
X17507813Y11867794D01*
X17505934Y11862358D01*
X17505222Y11856008D01*
X17505222Y11764010D01*
X17504410Y11760149D01*
X17502225Y11756847D01*
X17386960Y11641582D01*
X17383658Y11639346D01*
X17379746Y11638584D01*
X5420207Y11638584D01*
X5416296Y11639346D01*
X5412994Y11641582D01*
X4827625Y12226899D01*
X4821428Y12232030D01*
X4814722Y12235586D01*
X4807508Y12237770D01*
X4799482Y12238583D01*
X3900474Y12238583D01*
X3892448Y12237770D01*
X3885234Y12235586D01*
X3878579Y12232030D01*
X3872331Y12226899D01*
X3808069Y12162637D01*
X3802938Y12156389D01*
X3799382Y12149734D01*
X3797198Y12142520D01*
X3796385Y12134494D01*
X3796385Y12130684D01*
X3795674Y12126976D01*
X3793693Y12123775D01*
X3790696Y12121540D01*
X3782669Y12117578D01*
X3771290Y12109958D01*
X3761028Y12100966D01*
X3751986Y12090654D01*
X3744366Y12079274D01*
X3738321Y12067032D01*
X3733952Y12054078D01*
X3731260Y12040616D01*
X3730345Y12026950D01*
X3731260Y12013336D01*
X3733952Y11999874D01*
X3738321Y11986920D01*
X3744366Y11974677D01*
X3751986Y11963298D01*
X3761028Y11952986D01*
X3771290Y11943994D01*
X3782669Y11936374D01*
X3794963Y11930329D01*
X3807917Y11925909D01*
X3821328Y11923268D01*
X3834993Y11922353D01*
X3848658Y11923268D01*
X3862070Y11925909D01*
X3875024Y11930329D01*
X3887317Y11936374D01*
X3898696Y11943994D01*
X3908958Y11952986D01*
X3918000Y11963298D01*
X3925620Y11974677D01*
X3931665Y11986920D01*
X3936034Y11999874D01*
X3938727Y12013336D01*
X3939641Y12026950D01*
X3938727Y12040616D01*
X3936034Y12054078D01*
X3931665Y12067032D01*
X3925620Y12079274D01*
X3918000Y12090654D01*
X3908958Y12100966D01*
X3898696Y12109958D01*
X3888536Y12116765D01*
X3885488Y12119965D01*
X3884066Y12124232D01*
X3884625Y12128652D01*
X3887012Y12132411D01*
X3913022Y12158370D01*
X3916324Y12160605D01*
X3920185Y12161367D01*
X4779772Y12161367D01*
X4783683Y12160605D01*
X4786985Y12158370D01*
X5372354Y11573052D01*
X5378551Y11567922D01*
X5385257Y11564366D01*
X5392470Y11562181D01*
G37*
G36*
X3834993Y11668353D02*
G01*
X3848658Y11669268D01*
X3862070Y11671909D01*
X3875024Y11676329D01*
X3887317Y11682374D01*
X3898696Y11689994D01*
X3908958Y11698986D01*
X3918000Y11709298D01*
X3925620Y11720677D01*
X3931665Y11732920D01*
X3936034Y11745874D01*
X3938727Y11759336D01*
X3939641Y11772950D01*
X3938727Y11786616D01*
X3936034Y11800078D01*
X3931665Y11813032D01*
X3925620Y11825274D01*
X3918000Y11836654D01*
X3908958Y11846966D01*
X3898696Y11855958D01*
X3887317Y11863578D01*
X3875024Y11869623D01*
X3862070Y11874042D01*
X3848658Y11876684D01*
X3834993Y11877598D01*
X3821328Y11876684D01*
X3807917Y11874042D01*
X3794963Y11869623D01*
X3782669Y11863578D01*
X3771290Y11855958D01*
X3761028Y11846966D01*
X3751986Y11836654D01*
X3744366Y11825274D01*
X3738321Y11813032D01*
X3733952Y11800078D01*
X3731260Y11786616D01*
X3730345Y11772950D01*
X3731260Y11759336D01*
X3733952Y11745874D01*
X3738321Y11732920D01*
X3744366Y11720677D01*
X3751986Y11709298D01*
X3761028Y11698986D01*
X3771290Y11689994D01*
X3782669Y11682374D01*
X3794963Y11676329D01*
X3807917Y11671909D01*
X3821328Y11669268D01*
G37*
G36*
X3580993Y11668353D02*
G01*
X3594658Y11669268D01*
X3608070Y11671909D01*
X3621024Y11676329D01*
X3633317Y11682374D01*
X3644696Y11689994D01*
X3654958Y11698986D01*
X3664000Y11709298D01*
X3671620Y11720677D01*
X3677665Y11732920D01*
X3682034Y11745874D01*
X3684727Y11759336D01*
X3685641Y11772950D01*
X3684727Y11786616D01*
X3682034Y11800078D01*
X3677665Y11813032D01*
X3671620Y11825274D01*
X3664000Y11836654D01*
X3654958Y11846966D01*
X3644696Y11855958D01*
X3633317Y11863578D01*
X3621024Y11869623D01*
X3608070Y11874042D01*
X3594658Y11876684D01*
X3580993Y11877598D01*
X3567328Y11876684D01*
X3553917Y11874042D01*
X3540963Y11869623D01*
X3528669Y11863578D01*
X3517290Y11855958D01*
X3507028Y11846966D01*
X3497986Y11836654D01*
X3490366Y11825274D01*
X3484321Y11813032D01*
X3479952Y11800078D01*
X3477260Y11786616D01*
X3476345Y11772950D01*
X3477260Y11759336D01*
X3479952Y11745874D01*
X3484321Y11732920D01*
X3490366Y11720677D01*
X3497986Y11709298D01*
X3507028Y11698986D01*
X3517290Y11689994D01*
X3528669Y11682374D01*
X3540963Y11676329D01*
X3553917Y11671909D01*
X3567328Y11669268D01*
G37*
G36*
X4043273Y11679123D02*
G01*
X4043273Y11727230D01*
X3995115Y11727230D01*
X3998366Y11720677D01*
X4005986Y11709298D01*
X4015028Y11698986D01*
X4025290Y11689994D01*
X4036669Y11682374D01*
G37*
G36*
X4134713Y11679123D02*
G01*
X4141317Y11682374D01*
X4152696Y11689994D01*
X4162958Y11698986D01*
X4172000Y11709298D01*
X4179620Y11720677D01*
X4182872Y11727230D01*
X4134713Y11727230D01*
G37*
G36*
X5900013Y11695328D02*
G01*
X5913628Y11696242D01*
X5927090Y11698935D01*
X5940044Y11703304D01*
X5952286Y11709349D01*
X5963666Y11716969D01*
X5973978Y11726011D01*
X5982970Y11736273D01*
X5990590Y11747652D01*
X5996635Y11759946D01*
X6001054Y11772900D01*
X6003696Y11786311D01*
X6004610Y11799976D01*
X6003696Y11813641D01*
X6001054Y11827052D01*
X5996635Y11840006D01*
X5990590Y11852300D01*
X5982970Y11863679D01*
X5973978Y11873941D01*
X5963666Y11882983D01*
X5952286Y11890603D01*
X5940044Y11896648D01*
X5927090Y11901017D01*
X5913628Y11903710D01*
X5900013Y11904624D01*
X5886348Y11903710D01*
X5872886Y11901017D01*
X5864402Y11898172D01*
X5860694Y11897614D01*
X5857087Y11898477D01*
X5853988Y11900611D01*
X5427624Y12326924D01*
X5421426Y12332055D01*
X5414721Y12335611D01*
X5407507Y12337796D01*
X5399481Y12338558D01*
X3750462Y12338558D01*
X3742486Y12337796D01*
X3735222Y12335611D01*
X3728567Y12332055D01*
X3722319Y12326924D01*
X3554069Y12158624D01*
X3548938Y12152426D01*
X3545382Y12145721D01*
X3543198Y12138507D01*
X3542334Y12129719D01*
X3541420Y12126366D01*
X3539490Y12123572D01*
X3536696Y12121540D01*
X3528669Y12117578D01*
X3517290Y12109958D01*
X3507028Y12100966D01*
X3497986Y12090654D01*
X3490366Y12079274D01*
X3484321Y12067032D01*
X3479952Y12054078D01*
X3477260Y12040616D01*
X3476345Y12026950D01*
X3477260Y12013336D01*
X3479952Y11999874D01*
X3484321Y11986920D01*
X3490366Y11974677D01*
X3497986Y11963298D01*
X3507028Y11952986D01*
X3517290Y11943994D01*
X3528669Y11936374D01*
X3540963Y11930329D01*
X3553917Y11925909D01*
X3567328Y11923268D01*
X3580993Y11922353D01*
X3594658Y11923268D01*
X3608070Y11925909D01*
X3621024Y11930329D01*
X3633317Y11936374D01*
X3644696Y11943994D01*
X3654958Y11952986D01*
X3664000Y11963298D01*
X3671620Y11974677D01*
X3677665Y11986920D01*
X3682034Y11999874D01*
X3684727Y12013336D01*
X3685641Y12026950D01*
X3684727Y12040616D01*
X3682034Y12054078D01*
X3677665Y12067032D01*
X3671620Y12079274D01*
X3664000Y12090654D01*
X3654958Y12100966D01*
X3644696Y12109958D01*
X3636924Y12115139D01*
X3633876Y12118390D01*
X3632454Y12122607D01*
X3633012Y12127026D01*
X3635400Y12130786D01*
X3763010Y12258395D01*
X3766312Y12260580D01*
X3770172Y12261342D01*
X5379770Y12261342D01*
X5383682Y12260580D01*
X5386984Y12258395D01*
X5799378Y11846001D01*
X5801512Y11842902D01*
X5802325Y11839244D01*
X5801817Y11835536D01*
X5798921Y11827052D01*
X5796280Y11813641D01*
X5795365Y11799976D01*
X5796280Y11786311D01*
X5798921Y11772900D01*
X5803341Y11759946D01*
X5809386Y11747652D01*
X5817006Y11736273D01*
X5825998Y11726011D01*
X5836310Y11716969D01*
X5847689Y11709349D01*
X5859932Y11703304D01*
X5872886Y11698935D01*
X5886348Y11696242D01*
G37*
G36*
X3995115Y11818670D02*
G01*
X4043273Y11818670D01*
X4043273Y11866829D01*
X4036669Y11863578D01*
X4025290Y11855958D01*
X4015028Y11846966D01*
X4005986Y11836654D01*
X3998366Y11825274D01*
G37*
G36*
X4134713Y11818670D02*
G01*
X4182872Y11818670D01*
X4179620Y11825274D01*
X4172000Y11836654D01*
X4162958Y11846966D01*
X4152696Y11855958D01*
X4141317Y11863578D01*
X4134713Y11866829D01*
G37*
G36*
X17640757Y11917426D02*
G01*
X17668240Y11917426D01*
X17674590Y11918137D01*
X17680025Y11920067D01*
X17684953Y11923166D01*
X17689017Y11927230D01*
X17692116Y11932158D01*
X17693995Y11937593D01*
X17694706Y11943943D01*
X17694706Y11965330D01*
X17640757Y11965330D01*
G37*
G36*
X17531689Y11917426D02*
G01*
X17559172Y11917426D01*
X17559172Y11965330D01*
X17505222Y11965330D01*
X17505222Y11943943D01*
X17505934Y11937593D01*
X17507813Y11932158D01*
X17510912Y11927230D01*
X17514976Y11923166D01*
X17519904Y11920067D01*
X17525339Y11918137D01*
G37*
G36*
X3326993Y11922353D02*
G01*
X3340658Y11923268D01*
X3354070Y11925909D01*
X3367024Y11930329D01*
X3379317Y11936374D01*
X3390696Y11943994D01*
X3400958Y11952986D01*
X3410000Y11963298D01*
X3417620Y11974677D01*
X3423665Y11986920D01*
X3428034Y11999874D01*
X3430727Y12013336D01*
X3431641Y12026950D01*
X3430727Y12040616D01*
X3428034Y12054078D01*
X3423665Y12067032D01*
X3417620Y12079274D01*
X3410000Y12090654D01*
X3400958Y12100966D01*
X3390696Y12109958D01*
X3379317Y12117578D01*
X3367024Y12123623D01*
X3354070Y12128042D01*
X3340658Y12130684D01*
X3326993Y12131598D01*
X3313328Y12130684D01*
X3299917Y12128042D01*
X3286963Y12123623D01*
X3274669Y12117578D01*
X3263290Y12109958D01*
X3253028Y12100966D01*
X3243986Y12090654D01*
X3236366Y12079274D01*
X3230321Y12067032D01*
X3225952Y12054078D01*
X3223260Y12040616D01*
X3222345Y12026950D01*
X3223260Y12013336D01*
X3225952Y11999874D01*
X3230321Y11986920D01*
X3236366Y11974677D01*
X3243986Y11963298D01*
X3253028Y11952986D01*
X3263290Y11943994D01*
X3274669Y11936374D01*
X3286963Y11930329D01*
X3299917Y11925909D01*
X3313328Y11923268D01*
G37*
G36*
X4088993Y11922353D02*
G01*
X4102658Y11923268D01*
X4116070Y11925909D01*
X4129024Y11930329D01*
X4141317Y11936374D01*
X4152696Y11943994D01*
X4162958Y11952986D01*
X4172000Y11963298D01*
X4179620Y11974677D01*
X4185665Y11986920D01*
X4190034Y11999874D01*
X4192727Y12013336D01*
X4193641Y12026950D01*
X4192727Y12040616D01*
X4190034Y12054078D01*
X4185665Y12067032D01*
X4179620Y12079274D01*
X4172000Y12090654D01*
X4162958Y12100966D01*
X4152696Y12109958D01*
X4141317Y12117578D01*
X4129024Y12123623D01*
X4116070Y12128042D01*
X4102658Y12130684D01*
X4088993Y12131598D01*
X4075328Y12130684D01*
X4061917Y12128042D01*
X4048963Y12123623D01*
X4036669Y12117578D01*
X4025290Y12109958D01*
X4015028Y12100966D01*
X4005986Y12090654D01*
X3998366Y12079274D01*
X3992321Y12067032D01*
X3987952Y12054078D01*
X3985260Y12040616D01*
X3984345Y12026950D01*
X3985260Y12013336D01*
X3987952Y11999874D01*
X3992321Y11986920D01*
X3998366Y11974677D01*
X4005986Y11963298D01*
X4015028Y11952986D01*
X4025290Y11943994D01*
X4036669Y11936374D01*
X4048963Y11930329D01*
X4061917Y11925909D01*
X4075328Y11923268D01*
G37*
G36*
X3072993Y11922353D02*
G01*
X3086658Y11923268D01*
X3100070Y11925909D01*
X3113024Y11930329D01*
X3125317Y11936374D01*
X3136696Y11943994D01*
X3146958Y11952986D01*
X3156000Y11963298D01*
X3163620Y11974677D01*
X3169666Y11986920D01*
X3174034Y11999874D01*
X3176727Y12013336D01*
X3177641Y12026950D01*
X3176727Y12040616D01*
X3174034Y12054078D01*
X3169666Y12067032D01*
X3163620Y12079274D01*
X3156000Y12090654D01*
X3146958Y12100966D01*
X3136696Y12109958D01*
X3125317Y12117578D01*
X3113024Y12123623D01*
X3100070Y12128042D01*
X3086658Y12130684D01*
X3072993Y12131598D01*
X3059328Y12130684D01*
X3045917Y12128042D01*
X3032963Y12123623D01*
X3020669Y12117578D01*
X3009290Y12109958D01*
X2999028Y12100966D01*
X2989986Y12090654D01*
X2982366Y12079274D01*
X2976321Y12067032D01*
X2971952Y12054078D01*
X2969260Y12040616D01*
X2968345Y12026950D01*
X2969260Y12013336D01*
X2971952Y11999874D01*
X2976321Y11986920D01*
X2982366Y11974677D01*
X2989986Y11963298D01*
X2999028Y11952986D01*
X3009290Y11943994D01*
X3020669Y11936374D01*
X3032963Y11930329D01*
X3045917Y11925909D01*
X3059328Y11923268D01*
G37*
G36*
X2818993Y11922353D02*
G01*
X2832658Y11923268D01*
X2846070Y11925909D01*
X2859024Y11930329D01*
X2871317Y11936374D01*
X2882696Y11943994D01*
X2892958Y11952986D01*
X2902000Y11963298D01*
X2909620Y11974677D01*
X2915666Y11986920D01*
X2920034Y11999874D01*
X2922727Y12013336D01*
X2923641Y12026950D01*
X2922727Y12040616D01*
X2920034Y12054078D01*
X2915666Y12067032D01*
X2909620Y12079274D01*
X2902000Y12090654D01*
X2892958Y12100966D01*
X2882696Y12109958D01*
X2871317Y12117578D01*
X2859024Y12123623D01*
X2846070Y12128042D01*
X2832658Y12130684D01*
X2818993Y12131598D01*
X2805328Y12130684D01*
X2791917Y12128042D01*
X2778963Y12123623D01*
X2766669Y12117578D01*
X2755290Y12109958D01*
X2745028Y12100966D01*
X2735986Y12090654D01*
X2728366Y12079274D01*
X2722321Y12067032D01*
X2717952Y12054078D01*
X2715260Y12040616D01*
X2714345Y12026950D01*
X2715260Y12013336D01*
X2717952Y11999874D01*
X2722321Y11986920D01*
X2728366Y11974677D01*
X2735986Y11963298D01*
X2745028Y11952986D01*
X2755290Y11943994D01*
X2766669Y11936374D01*
X2778963Y11930329D01*
X2791917Y11925909D01*
X2805328Y11923268D01*
G37*
G36*
X17505222Y12034621D02*
G01*
X17559172Y12034621D01*
X17559172Y12082526D01*
X17531689Y12082526D01*
X17525339Y12081814D01*
X17519904Y12079884D01*
X17514976Y12076836D01*
X17510912Y12072721D01*
X17507813Y12067844D01*
X17505934Y12062358D01*
X17505222Y12056059D01*
G37*
G36*
X17640757Y12034621D02*
G01*
X17694706Y12034621D01*
X17694706Y12056059D01*
X17693995Y12062358D01*
X17692116Y12067844D01*
X17689017Y12072721D01*
X17684953Y12076836D01*
X17680025Y12079884D01*
X17674590Y12081814D01*
X17668240Y12082526D01*
X17640757Y12082526D01*
G37*
G36*
X18280837Y12047372D02*
G01*
X18383097Y12047372D01*
X18389396Y12048083D01*
X18394883Y12050014D01*
X18399760Y12053062D01*
X18403874Y12057176D01*
X18406922Y12062053D01*
X18408853Y12067540D01*
X18409564Y12073839D01*
X18409564Y12176099D01*
X18408853Y12182398D01*
X18406922Y12187885D01*
X18403874Y12192762D01*
X18399760Y12196876D01*
X18394883Y12199924D01*
X18389396Y12201855D01*
X18383097Y12202566D01*
X18280837Y12202566D01*
X18274538Y12201855D01*
X18269051Y12199924D01*
X18264174Y12196876D01*
X18260060Y12192762D01*
X18257012Y12187885D01*
X18255081Y12182398D01*
X18254370Y12176099D01*
X18254370Y12073839D01*
X18255081Y12067540D01*
X18257012Y12062053D01*
X18260060Y12057176D01*
X18264174Y12053062D01*
X18269051Y12050014D01*
X18274538Y12048083D01*
G37*
G36*
X9543542Y12315088D02*
G01*
X9562338Y12315088D01*
X9580981Y12316968D01*
X9599371Y12320727D01*
X9617252Y12326366D01*
X9634474Y12333732D01*
X9650882Y12342876D01*
X9666274Y12353544D01*
X9680498Y12365786D01*
X9693402Y12379401D01*
X9704882Y12394184D01*
X9714839Y12410135D01*
X9723069Y12426950D01*
X9729622Y12444526D01*
X9734296Y12462713D01*
X9737140Y12481255D01*
X9738106Y12499949D01*
X9737140Y12518694D01*
X9734296Y12537236D01*
X9729622Y12555423D01*
X9723069Y12573000D01*
X9714839Y12589814D01*
X9704882Y12605766D01*
X9693402Y12620548D01*
X9680498Y12634163D01*
X9666274Y12646406D01*
X9650882Y12657074D01*
X9634474Y12666218D01*
X9617252Y12673584D01*
X9599371Y12679222D01*
X9580981Y12682982D01*
X9562338Y12684861D01*
X9543542Y12684861D01*
X9524898Y12682982D01*
X9506559Y12679222D01*
X9488627Y12673584D01*
X9471406Y12666218D01*
X9454997Y12657074D01*
X9439605Y12646406D01*
X9425381Y12634163D01*
X9412478Y12620548D01*
X9400997Y12605766D01*
X9391040Y12589814D01*
X9382810Y12573000D01*
X9376308Y12555423D01*
X9371584Y12537236D01*
X9368739Y12518694D01*
X9367774Y12499949D01*
X9368739Y12481255D01*
X9371584Y12462713D01*
X9376308Y12444526D01*
X9382810Y12426950D01*
X9391040Y12410135D01*
X9400997Y12394184D01*
X9412478Y12379401D01*
X9425381Y12365786D01*
X9439605Y12353544D01*
X9454997Y12342876D01*
X9471406Y12333732D01*
X9488627Y12326366D01*
X9506559Y12320727D01*
X9524898Y12316968D01*
G37*

%LPD*%
D10*
X6125108Y10274935D02*
G01*
X5999988Y10149814D01*
X5999988Y9699980D01*
X4999967Y10699978D02*
G01*
X3999991Y10699978D01*
X3326993Y11372977D01*
X3326993Y11772976D01*
X7099983Y10599978D02*
G01*
X3599990Y10599978D01*
X3072993Y11126975D01*
X3072993Y11772976D01*
X7199983Y10499979D02*
G01*
X3299990Y10499979D01*
X2818993Y10980976D01*
X2818993Y11772976D01*
X7673080Y10183037D02*
G01*
X7456139Y10399979D01*
X3308969Y10399979D01*
X2564993Y11143955D01*
X2564993Y11772976D01*
X5499994Y9899977D02*
G01*
X5399991Y9999979D01*
X3899992Y9999979D01*
X3599990Y10299979D01*
X3099991Y10299979D01*
X2310993Y11088977D01*
X2310993Y11772976D01*
X5500115Y7999984D02*
G01*
X5199888Y8299958D01*
X5199888Y8800084D01*
X4599940Y9400031D01*
X2999993Y9400031D01*
X2800095Y9599929D01*
X2599943Y9599929D01*
X1800097Y10399776D01*
X1800097Y12050013D01*
X2100072Y12349987D01*
X2249931Y12349987D01*
X2564891Y12035028D01*
X2564891Y12026900D01*
X2999993Y10100055D02*
G01*
X1949958Y11150092D01*
X1949958Y11750039D01*
X2227072Y12026900D01*
X2310891Y12026900D01*
X5899988Y11799976D02*
G01*
X5399989Y12299975D01*
X3749987Y12299975D01*
X3580993Y12130981D01*
X3580993Y12026976D01*
X17399967Y11599974D02*
G01*
X5399989Y11599976D01*
X4799990Y12199975D01*
X3899992Y12199975D01*
X3834993Y12134977D01*
X3834993Y12026976D01*
X17599967Y11799973D02*
G01*
X17399967Y11599974D01*
X16499842Y11100054D02*
G01*
X11999973Y11100054D01*
X11699999Y11400030D01*
X7599934Y11400030D01*
X7100056Y10899899D01*
X5199893Y10899899D01*
X4999967Y10699978D01*
X12099975Y10599978D02*
G01*
X11399974Y11299979D01*
X7799981Y11299979D01*
X7099983Y10599978D01*
X8399983Y10799978D02*
G01*
X7499982Y10799978D01*
X7199983Y10499979D01*
X11199972Y8499983D02*
G01*
X11699974Y8999984D01*
X11699974Y9799977D01*
X10599978Y10899973D01*
X10599978Y10899978D01*
X12999974Y7599984D02*
G01*
X12499975Y7099985D01*
X8999981Y7099985D01*
X6499986Y9599980D01*
X6499986Y9899980D01*
X7686624Y10528858D02*
G01*
X7673080Y10515315D01*
X7673080Y10183037D01*
X7873083Y10183037D02*
G01*
X7895206Y10205161D01*
X8252764Y10205161D01*
X16499966Y8099983D02*
G01*
X14599965Y9999979D01*
X12099975Y9999979D01*
X10999975Y11099977D01*
X10199979Y11099977D01*
X18077967Y12124977D02*
G01*
X17752964Y11799976D01*
X17599964Y11799976D01*
X12999974Y7599984D02*
G01*
X12999974Y7999984D01*
X13199973Y7999984D02*
G01*
X13299973Y7899984D01*
X13599972Y7899984D01*
X12974853Y8524938D02*
G01*
X13199973Y8299818D01*
X13199973Y7999984D01*
X9199984Y7799981D02*
G01*
X6799986Y10199979D01*
X6799986Y10199979D01*
X9199981Y7299985D02*
G01*
X9199981Y7799984D01*
X9399981Y7799984D02*
G01*
X9499981Y7699984D01*
X9799980Y7699984D01*
X9224860Y8191439D02*
G01*
X9399981Y8016318D01*
X9399981Y7799984D01*
X8299958Y6599936D02*
G01*
X6199886Y8700008D01*
X5500115Y8700008D01*
X4400041Y9800081D01*
X9224860Y6149944D02*
G01*
X9074818Y6299987D01*
X8799982Y6299987D01*
X8299983Y6299987D02*
G01*
X8299983Y6599986D01*
X8799982Y6299987D02*
G01*
X8499983Y6299987D01*
X12299975Y10599978D02*
G01*
X12699974Y10599978D01*
X12099975Y10599978D02*
G01*
X12099975Y10899978D01*
X12699974Y10599978D02*
G01*
X12825018Y10725022D01*
X12974853Y10725022D01*
X9224860Y11058522D02*
G01*
X9066316Y10899978D01*
X8999981Y10899978D01*
X8599982Y10799978D02*
G01*
X8699982Y10899978D01*
X8999981Y10899978D01*
X8399983Y10799978D02*
G01*
X8399983Y11099977D01*
X7873085Y10183037D02*
G01*
X8016366Y10039756D01*
X8016366Y9850020D01*
X5499988Y7999984D02*
G01*
X5499988Y7599984D01*
X6099987Y7999984D02*
G01*
X5699988Y7999984D01*
X6099987Y7999984D02*
G01*
X6125108Y8025104D01*
X6125108Y8524938D01*
X5499988Y9499980D02*
G01*
X5499988Y9899975D01*
X5499994Y9899977D01*
X5699988Y9499980D02*
G01*
X5899985Y9699978D01*
X5999993Y9699978D01*
X3399993Y10099979D02*
G01*
X2999993Y10099979D01*
X2999993Y9899980D02*
G01*
X3099993Y9799980D01*
X3099993Y9599980D01*
X2625115Y9850023D02*
G01*
X2675072Y9899980D01*
X2999993Y9899980D01*
X10799978Y8399983D02*
G01*
X10899978Y8499983D01*
X11199977Y8499983D01*
X10599978Y8399983D02*
G01*
X10599978Y8899982D01*
X11083597Y9399938D02*
G01*
X10599978Y8916319D01*
X10599978Y8899982D01*
X16474947Y10625074D02*
G01*
X16699991Y10825226D01*
X16699991Y11100054D01*
X16699966Y11099977D02*
G01*
X16799966Y11199977D01*
X17099965Y11199977D01*
X16499966Y11399977D02*
G01*
X16499966Y11099977D01*
X16474947Y10625074D02*
G01*
X16499840Y10625074D01*
X16499966Y7699984D02*
G01*
X16499966Y8099983D01*
X17099965Y7999984D02*
G01*
X16999966Y8099983D01*
X16699966Y8099983D01*
X16474846Y8649939D02*
G01*
X16699966Y8424819D01*
X16699966Y8099983D01*
D11*
G01*
X3399993Y10099979D03*
D12*
G01*
X3399993Y9899977D03*
D13*
G01*
X5499986Y9899980D03*
G01*
X5699991Y9899980D03*
G01*
X5499986Y7599984D03*
G01*
X5699991Y7599984D03*
G01*
X7686621Y10528858D03*
G01*
X7886626Y10528858D03*
D11*
G01*
X11199977Y8499983D03*
D12*
G01*
X11199977Y8699985D03*
D13*
G01*
X8399980Y11099977D03*
G01*
X8599985Y11099977D03*
D14*
G01*
X3099988Y9599980D03*
G01*
X3299998Y9599980D03*
G01*
X5999982Y9699980D03*
G01*
X6199992Y9699980D03*
G01*
X6099982Y7999984D03*
G01*
X6299992Y7999984D03*
D15*
G01*
X8252757Y10205151D03*
D16*
G01*
X8252757Y10405155D03*
D14*
G01*
X10599973Y8899982D03*
G01*
X10799983Y8899982D03*
D15*
G01*
X8999981Y10899978D03*
D16*
G01*
X8999981Y11099982D03*
D13*
G01*
X9199953Y7299959D03*
G01*
X9399958Y7299959D03*
G01*
X12099871Y10899901D03*
G01*
X12299876Y10899901D03*
G01*
X13000047Y7599933D03*
G01*
X13200052Y7599933D03*
G01*
X16499913Y11400027D03*
G01*
X16699918Y11400027D03*
G01*
X16499913Y7700009D03*
G01*
X16699918Y7700009D03*
G01*
X8300031Y6599935D03*
G01*
X8500036Y6599935D03*
D15*
G01*
X9800081Y7699933D03*
D16*
G01*
X9800081Y7499929D03*
D15*
G01*
X12700000Y10600004D03*
D16*
G01*
X12700000Y10800008D03*
D15*
G01*
X13599922Y7900085D03*
D16*
G01*
X13599921Y7700081D03*
D15*
G01*
X17100041Y11199952D03*
D16*
G01*
X17100042Y11399956D03*
D15*
G01*
X17100041Y7999907D03*
D16*
G01*
X17100042Y7799903D03*
D15*
G01*
X8800084Y6300038D03*
D16*
G01*
X8800084Y6500042D03*
D15*
G01*
X2999993Y9899980D03*
D16*
G01*
X2999994Y10099984D03*
D17*
G01*
X5699993Y9499981D03*
G01*
X5499983Y9499981D03*
G01*
X5699942Y7999984D03*
G01*
X5499933Y7999984D03*
G01*
X7873166Y10183114D03*
G01*
X7673157Y10183114D03*
D14*
G01*
X10599999Y8400034D03*
G01*
X10800008Y8400034D03*
D17*
G01*
X8600114Y10800080D03*
G01*
X8400105Y10800080D03*
G01*
X9399960Y7800085D03*
G01*
X9199951Y7800085D03*
G01*
X12299878Y10599927D03*
G01*
X12099869Y10599927D03*
G01*
X13200054Y7999984D03*
G01*
X13000045Y7999984D03*
G01*
X16699920Y11100054D03*
G01*
X16499911Y11100054D03*
G01*
X16699920Y8100060D03*
G01*
X16499911Y8100060D03*
G01*
X8500038Y6299962D03*
G01*
X8300029Y6299962D03*
D15*
G01*
X17599913Y11999899D03*
D16*
G01*
X17599914Y11799895D03*
D18*
G01*
X18078030Y12124982D03*
G01*
X18332030Y12124982D03*
D19*
G01*
X1974875Y9850023D03*
G01*
X1974875Y9399935D03*
G01*
X2625115Y9850023D03*
G01*
X2625115Y9399935D03*
G01*
X6125108Y10274935D03*
G01*
X6125108Y10725022D03*
G01*
X5474868Y10274935D03*
G01*
X5474868Y10725022D03*
G01*
X6125108Y8524938D03*
G01*
X6125108Y8975026D03*
G01*
X5474868Y8524938D03*
G01*
X5474868Y8975026D03*
G01*
X8016364Y9850023D03*
G01*
X8016364Y9399935D03*
G01*
X8666606Y9850023D03*
G01*
X8666606Y9399935D03*
G01*
X11083597Y9399938D03*
G01*
X11083597Y9850023D03*
G01*
X10433357Y9399938D03*
G01*
X10433357Y9850023D03*
G01*
X9224860Y11058522D03*
G01*
X9224860Y10608434D03*
G01*
X9875100Y11058522D03*
G01*
X9875100Y10608434D03*
G01*
X9875100Y8191439D03*
G01*
X9875100Y8641527D03*
G01*
X9224860Y8191439D03*
G01*
X9224860Y8641527D03*
G01*
X12974853Y10725022D03*
G01*
X12974853Y10274935D03*
G01*
X13625093Y10725022D03*
G01*
X13625093Y10274935D03*
G01*
X13625093Y8524938D03*
G01*
X13625093Y8975026D03*
G01*
X12974853Y8524938D03*
G01*
X12974853Y8975026D03*
G01*
X16474846Y10625020D03*
G01*
X16474846Y10174932D03*
G01*
X17125086Y10625020D03*
G01*
X17125086Y10174932D03*
G01*
X17125086Y8649939D03*
G01*
X17125086Y9100027D03*
G01*
X16474846Y8649939D03*
G01*
X16474846Y9100027D03*
G01*
X9875100Y6149944D03*
G01*
X9875100Y6600032D03*
G01*
X9224860Y6149944D03*
G01*
X9224860Y6600032D03*
D20*
G01*
X4088891Y11772900D03*
G01*
X4088891Y12026900D03*
G01*
X3834891Y11772900D03*
G01*
X3834891Y12026900D03*
G01*
X3580891Y11772900D03*
G01*
X3580891Y12026900D03*
G01*
X3326891Y11772900D03*
G01*
X3326891Y12026900D03*
G01*
X3072891Y11772900D03*
G01*
X3072891Y12026900D03*
G01*
X2818891Y11772900D03*
G01*
X2818891Y12026900D03*
G01*
X2564891Y11772900D03*
G01*
X2564891Y12026900D03*
G01*
X2310891Y11772900D03*
D21*
G01*
X2310892Y12026900D03*
D20*
G01*
X4400041Y9800081D03*
G01*
X10599978Y10899978D03*
G01*
X6799986Y10199979D03*
G01*
X6499986Y9899980D03*
G01*
X10199979Y11099977D03*
G01*
X5899988Y11799976D03*
M02*
