G04 Layer: TopSilkscreenLayer*
G04 EasyEDA v6.5.38, 2023-12-05 17:56:17*
G04 681b97978217455484aa44bc4d5c6028,9f3f2715377c499da2f37e4e16011465,10*
G04 Gerber Generator version 0.2*
G04 Scale: 100 percent, Rotated: No, Reflected: No *
G04 Dimensions in millimeters *
G04 leading zeros omitted , absolute positions ,4 integer and 5 decimal *
%FSLAX45Y45*%
%MOMM*%

%ADD10C,0.6000*%
%ADD11C,0.4000*%
%ADD12C,0.1524*%
%ADD13C,0.2540*%

%LPD*%
G36*
X10705490Y12649962D02*
G01*
X10691520Y12649809D01*
X10678363Y12649047D01*
X10668254Y12647879D01*
X10658652Y12646507D01*
X10640923Y12642900D01*
X10629290Y12639751D01*
X10622737Y12637770D01*
X10610596Y12633401D01*
X10599978Y12629235D01*
X10578693Y12618720D01*
X10568445Y12612624D01*
X10586567Y12612624D01*
X10586567Y12614402D01*
X10598454Y12620142D01*
X10608564Y12624612D01*
X10622229Y12629642D01*
X10632490Y12632842D01*
X10642447Y12635433D01*
X10651032Y12637414D01*
X10662920Y12639395D01*
X10678363Y12641478D01*
X10696752Y12642392D01*
X10698327Y12641783D01*
X10698226Y12593675D01*
X10697565Y12588138D01*
X10682935Y12587427D01*
X10667015Y12585090D01*
X10698530Y12585090D01*
X10698988Y12586868D01*
X10715802Y12586817D01*
X10725912Y12585954D01*
X10737545Y12584328D01*
X10749432Y12581839D01*
X10759287Y12579248D01*
X10769396Y12575844D01*
X10780014Y12571679D01*
X10795203Y12564262D01*
X10803788Y12559284D01*
X10816234Y12551003D01*
X10829086Y12540691D01*
X10845444Y12524536D01*
X10852454Y12515951D01*
X10857484Y12509347D01*
X10864596Y12498781D01*
X10869676Y12490196D01*
X10876178Y12477038D01*
X10878566Y12471501D01*
X10882579Y12460935D01*
X10885576Y12451334D01*
X10888573Y12439700D01*
X10890961Y12425578D01*
X10892332Y12415469D01*
X10892332Y12385192D01*
X10888624Y12360960D01*
X10884966Y12346787D01*
X10881563Y12336729D01*
X10876330Y12323572D01*
X10870488Y12311989D01*
X10865612Y12303404D01*
X10856518Y12289739D01*
X10846816Y12277648D01*
X10839196Y12269622D01*
X10830102Y12260783D01*
X10822025Y12254077D01*
X10812932Y12247270D01*
X10805312Y12242190D01*
X10798403Y12238024D01*
X10797743Y12238024D01*
X10794949Y12242596D01*
X10794949Y12243308D01*
X10801807Y12247321D01*
X10813440Y12255398D01*
X10826089Y12265456D01*
X10840262Y12279680D01*
X10848340Y12289383D01*
X10856671Y12300966D01*
X10863580Y12312497D01*
X10867593Y12320066D01*
X10873333Y12332665D01*
X10876483Y12341250D01*
X10880394Y12354102D01*
X10882579Y12362942D01*
X10883950Y12371019D01*
X10886135Y12387681D01*
X10886135Y12412929D01*
X10883900Y12430099D01*
X10881512Y12442240D01*
X10878007Y12454839D01*
X10872724Y12469469D01*
X10864342Y12486894D01*
X10859008Y12495733D01*
X10852251Y12505842D01*
X10844072Y12516307D01*
X10836198Y12524892D01*
X10824057Y12536678D01*
X10813948Y12544755D01*
X10805312Y12550902D01*
X10793171Y12558217D01*
X10780522Y12564567D01*
X10769904Y12569037D01*
X10757255Y12573203D01*
X10746638Y12576149D01*
X10736021Y12578232D01*
X10720324Y12580264D01*
X10698937Y12580975D01*
X10698530Y12585090D01*
X10667015Y12585090D01*
X10656112Y12582753D01*
X10646511Y12580264D01*
X10634370Y12576200D01*
X10622381Y12571171D01*
X10613948Y12567056D01*
X10612526Y12567564D01*
X10586567Y12612624D01*
X10568445Y12612624D01*
X10555935Y12604343D01*
X10546334Y12597231D01*
X10530687Y12584074D01*
X10515498Y12568936D01*
X10506760Y12558826D01*
X10497718Y12547244D01*
X10487507Y12532106D01*
X10479906Y12518948D01*
X10488930Y12518948D01*
X10488930Y12519710D01*
X10496194Y12531598D01*
X10504830Y12544196D01*
X10512856Y12554305D01*
X10522051Y12564922D01*
X10534192Y12577013D01*
X10545826Y12587173D01*
X10553446Y12593167D01*
X10560507Y12598349D01*
X10570108Y12604750D01*
X10578693Y12610033D01*
X10579557Y12609830D01*
X10600740Y12573203D01*
X10600740Y12572644D01*
X10602569Y12569952D01*
X10606278Y12563144D01*
X10606278Y12562636D01*
X10602468Y12560706D01*
X10587837Y12550851D01*
X10578134Y12543028D01*
X10567568Y12533528D01*
X10557408Y12522504D01*
X10550855Y12514427D01*
X10540238Y12499289D01*
X10536224Y12492482D01*
X10535056Y12492482D01*
X10497820Y12513716D01*
X10496753Y12514529D01*
X10488930Y12518948D01*
X10479906Y12518948D01*
X10473131Y12505842D01*
X10466578Y12490196D01*
X10461193Y12475057D01*
X10459110Y12467996D01*
X10456621Y12458395D01*
X10454487Y12448794D01*
X10452100Y12434671D01*
X10449966Y12414961D01*
X10449966Y12404750D01*
X10457434Y12404750D01*
X10458094Y12420498D01*
X10460177Y12437160D01*
X10462158Y12448286D01*
X10464241Y12457887D01*
X10469270Y12475464D01*
X10474350Y12489688D01*
X10475264Y12490653D01*
X10475264Y12491974D01*
X10484815Y12512141D01*
X10486644Y12511430D01*
X10531500Y12485827D01*
X10531957Y12484557D01*
X10525353Y12470384D01*
X10521238Y12458903D01*
X10518851Y12451334D01*
X10515752Y12439192D01*
X10513771Y12428575D01*
X10511688Y12410998D01*
X10511688Y12403683D01*
X10510723Y12403074D01*
X10457434Y12404750D01*
X10449966Y12404750D01*
X10449966Y12397130D01*
X10468762Y12396825D01*
X10511434Y12395250D01*
X10511444Y12394946D01*
X10519105Y12394946D01*
X10520426Y12399060D01*
X10519105Y12403175D01*
X10520273Y12419990D01*
X10521289Y12427610D01*
X10523372Y12438176D01*
X10525404Y12446762D01*
X10529519Y12459919D01*
X10534548Y12472517D01*
X10539984Y12483744D01*
X10547248Y12496241D01*
X10553801Y12505842D01*
X10563047Y12517424D01*
X10567568Y12522504D01*
X10577677Y12532664D01*
X10587837Y12541250D01*
X10596067Y12547447D01*
X10607548Y12554864D01*
X10616742Y12560096D01*
X10628579Y12565684D01*
X10638891Y12569799D01*
X10651540Y12573762D01*
X10660430Y12576098D01*
X10672572Y12578334D01*
X10686948Y12580162D01*
X10697819Y12580315D01*
X10697768Y12485116D01*
X10697006Y12400838D01*
X10699699Y12395758D01*
X10715040Y12371171D01*
X10715040Y12370765D01*
X10719460Y12363958D01*
X10793933Y12243968D01*
X10793933Y12243257D01*
X10787126Y12239294D01*
X10779048Y12235180D01*
X10765891Y12229490D01*
X10756747Y12226340D01*
X10749686Y12224308D01*
X10740085Y12221870D01*
X10729976Y12219940D01*
X10721848Y12218822D01*
X10711383Y12217806D01*
X10689488Y12217857D01*
X10676331Y12219279D01*
X10664190Y12221362D01*
X10657636Y12222886D01*
X10649762Y12225020D01*
X10635894Y12229541D01*
X10625531Y12233910D01*
X10614406Y12239498D01*
X10606024Y12244273D01*
X10595406Y12251334D01*
X10585805Y12258598D01*
X10581741Y12262002D01*
X10574680Y12268555D01*
X10566247Y12277140D01*
X10559338Y12285218D01*
X10549382Y12298527D01*
X10541609Y12311481D01*
X10534497Y12325756D01*
X10530484Y12335764D01*
X10526420Y12347803D01*
X10523931Y12357404D01*
X10521746Y12367768D01*
X10520273Y12378131D01*
X10519105Y12394946D01*
X10511444Y12394946D01*
X10511637Y12389205D01*
X10513263Y12373813D01*
X10515854Y12358420D01*
X10519206Y12345771D01*
X10521188Y12339218D01*
X10524896Y12329160D01*
X10529519Y12318542D01*
X10537190Y12304166D01*
X10536224Y12303252D01*
X10491470Y12278309D01*
X10489742Y12278664D01*
X10478566Y12300610D01*
X10475061Y12309449D01*
X10474350Y12310465D01*
X10469321Y12324588D01*
X10463580Y12345111D01*
X10460126Y12362942D01*
X10458094Y12379147D01*
X10457383Y12397130D01*
X10449966Y12397130D01*
X10449966Y12385852D01*
X10452049Y12365482D01*
X10454081Y12353391D01*
X10456164Y12343790D01*
X10459110Y12332157D01*
X10463580Y12318034D01*
X10467644Y12307163D01*
X10472470Y12295835D01*
X10480141Y12280696D01*
X10485712Y12271095D01*
X10494518Y12271095D01*
X10495737Y12272213D01*
X10540288Y12297003D01*
X10541355Y12297054D01*
X10551617Y12282678D01*
X10560100Y12272568D01*
X10574578Y12258090D01*
X10589818Y12245898D01*
X10604703Y12236145D01*
X10611358Y12232690D01*
X10611358Y12231878D01*
X10585500Y12187783D01*
X10584637Y12186920D01*
X10571124Y12194743D01*
X10559491Y12202515D01*
X10548366Y12210897D01*
X10542270Y12216028D01*
X10532160Y12225121D01*
X10521696Y12235738D01*
X10512907Y12245848D01*
X10503865Y12257379D01*
X10494518Y12271095D01*
X10485712Y12271095D01*
X10496651Y12254433D01*
X10505541Y12242800D01*
X10515600Y12231217D01*
X10527131Y12219533D01*
X10534192Y12212980D01*
X10543133Y12205563D01*
X10550144Y12200077D01*
X10565079Y12189663D01*
X10576119Y12183008D01*
X10592104Y12183008D01*
X10592104Y12184126D01*
X10618419Y12228880D01*
X10628579Y12224308D01*
X10639399Y12220244D01*
X10647019Y12217857D01*
X10653064Y12216231D01*
X10663174Y12213894D01*
X10683443Y12210745D01*
X10697870Y12210084D01*
X10698327Y12209322D01*
X10697596Y12173153D01*
X10704931Y12173153D01*
X10706201Y12209983D01*
X10716818Y12210745D01*
X10726928Y12211862D01*
X10740085Y12214148D01*
X10749229Y12216282D01*
X10761319Y12219889D01*
X10774984Y12224969D01*
X10791190Y12232843D01*
X10797235Y12236450D01*
X10798352Y12236500D01*
X10825378Y12193117D01*
X10824819Y12192152D01*
X10813948Y12186056D01*
X10796219Y12177572D01*
X10784078Y12172746D01*
X10766399Y12166904D01*
X10746638Y12162332D01*
X10730738Y12159792D01*
X10715802Y12158268D01*
X10705185Y12158116D01*
X10704931Y12173153D01*
X10697596Y12173153D01*
X10697311Y12159030D01*
X10696295Y12158014D01*
X10684408Y12158268D01*
X10669270Y12159792D01*
X10656316Y12161774D01*
X10642447Y12164669D01*
X10630814Y12167768D01*
X10618673Y12171781D01*
X10610189Y12174880D01*
X10607141Y12176404D01*
X10606379Y12176404D01*
X10592104Y12183008D01*
X10576119Y12183008D01*
X10596422Y12172594D01*
X10607598Y12167870D01*
X10626242Y12161316D01*
X10636859Y12158319D01*
X10650524Y12155220D01*
X10665714Y12152630D01*
X10678363Y12151207D01*
X10700004Y12149988D01*
X10722000Y12151207D01*
X10734497Y12152680D01*
X10746638Y12154662D01*
X10756747Y12156694D01*
X10766907Y12159284D01*
X10773968Y12161418D01*
X10792155Y12167768D01*
X10803788Y12172746D01*
X10820501Y12181078D01*
X10827562Y12185142D01*
X10838230Y12191695D01*
X10848340Y12198858D01*
X10862462Y12209983D01*
X10874095Y12220651D01*
X10884814Y12231725D01*
X10889843Y12237262D01*
X10896955Y12245848D01*
X10903356Y12254433D01*
X10911890Y12266980D01*
X10920526Y12281662D01*
X10926876Y12294311D01*
X10933176Y12308941D01*
X10936173Y12317018D01*
X10940592Y12331141D01*
X10943640Y12342266D01*
X10945672Y12351867D01*
X10947654Y12363450D01*
X10949990Y12382652D01*
X10949940Y12418517D01*
X10947247Y12439192D01*
X10945672Y12448286D01*
X10943640Y12457887D01*
X10938510Y12476073D01*
X10936173Y12483134D01*
X10930890Y12496749D01*
X10925200Y12509347D01*
X10917732Y12523520D01*
X10906506Y12541351D01*
X10899698Y12550749D01*
X10891062Y12561519D01*
X10881563Y12571984D01*
X10875619Y12578029D01*
X10866526Y12586614D01*
X10854893Y12596317D01*
X10846308Y12602819D01*
X10835182Y12610439D01*
X10819993Y12619532D01*
X10801299Y12628626D01*
X10792510Y12632334D01*
X10779048Y12637109D01*
X10768634Y12640310D01*
X10759033Y12642850D01*
X10739577Y12646812D01*
X10722864Y12648946D01*
G37*
D10*
X11327353Y12553279D02*
G01*
X11200099Y12219015D01*
X11327353Y12553279D02*
G01*
X11454607Y12219015D01*
X11247597Y12330521D02*
G01*
X11406855Y12330521D01*
X11559509Y12553279D02*
G01*
X11559509Y12219015D01*
X11664411Y12441773D02*
G01*
X11664411Y12219015D01*
X11664411Y12378273D02*
G01*
X11712163Y12425771D01*
X11744167Y12441773D01*
X11791919Y12441773D01*
X11823669Y12425771D01*
X11839417Y12378273D01*
X11839417Y12219015D01*
X11839417Y12378273D02*
G01*
X11887169Y12425771D01*
X11919173Y12441773D01*
X11966671Y12441773D01*
X11998675Y12425771D01*
X12014423Y12378273D01*
X12014423Y12219015D01*
X12199081Y12441773D02*
G01*
X12167331Y12425771D01*
X12135327Y12394021D01*
X12119579Y12346269D01*
X12119579Y12314519D01*
X12135327Y12266767D01*
X12167331Y12235017D01*
X12199081Y12219015D01*
X12246833Y12219015D01*
X12278583Y12235017D01*
X12310333Y12266767D01*
X12326335Y12314519D01*
X12326335Y12346269D01*
X12310333Y12394021D01*
X12278583Y12425771D01*
X12246833Y12441773D01*
X12199081Y12441773D01*
X12606243Y12394021D02*
G01*
X12590495Y12425771D01*
X12542743Y12441773D01*
X12494991Y12441773D01*
X12447239Y12425771D01*
X12431237Y12394021D01*
X12447239Y12362271D01*
X12478989Y12346269D01*
X12558491Y12330521D01*
X12590495Y12314519D01*
X12606243Y12282769D01*
X12606243Y12266767D01*
X12590495Y12235017D01*
X12542743Y12219015D01*
X12494991Y12219015D01*
X12447239Y12235017D01*
X12431237Y12266767D01*
X12759151Y12553279D02*
G01*
X12759151Y12282769D01*
X12774899Y12235017D01*
X12806903Y12219015D01*
X12838653Y12219015D01*
X12711399Y12441773D02*
G01*
X12822651Y12441773D01*
X13188665Y12553279D02*
G01*
X13188665Y12219015D01*
X13411423Y12553279D02*
G01*
X13411423Y12219015D01*
X13188665Y12394021D02*
G01*
X13411423Y12394021D01*
X13707333Y12441773D02*
G01*
X13707333Y12219015D01*
X13707333Y12394021D02*
G01*
X13675329Y12425771D01*
X13643579Y12441773D01*
X13595827Y12441773D01*
X13564077Y12425771D01*
X13532327Y12394021D01*
X13516325Y12346269D01*
X13516325Y12314519D01*
X13532327Y12266767D01*
X13564077Y12235017D01*
X13595827Y12219015D01*
X13643579Y12219015D01*
X13675329Y12235017D01*
X13707333Y12266767D01*
X13812235Y12553279D02*
G01*
X13812235Y12219015D01*
X14044391Y12553279D02*
G01*
X14012641Y12553279D01*
X13980891Y12537277D01*
X13964889Y12489525D01*
X13964889Y12219015D01*
X13917137Y12441773D02*
G01*
X14028643Y12441773D01*
X14394403Y12553279D02*
G01*
X14394403Y12219015D01*
X14394403Y12553279D02*
G01*
X14505909Y12553279D01*
X14553661Y12537277D01*
X14585411Y12505527D01*
X14601413Y12473523D01*
X14617161Y12425771D01*
X14617161Y12346269D01*
X14601413Y12298517D01*
X14585411Y12266767D01*
X14553661Y12235017D01*
X14505909Y12219015D01*
X14394403Y12219015D01*
X14801819Y12441773D02*
G01*
X14770069Y12425771D01*
X14738065Y12394021D01*
X14722317Y12346269D01*
X14722317Y12314519D01*
X14738065Y12266767D01*
X14770069Y12235017D01*
X14801819Y12219015D01*
X14849571Y12219015D01*
X14881321Y12235017D01*
X14913071Y12266767D01*
X14929073Y12314519D01*
X14929073Y12346269D01*
X14913071Y12394021D01*
X14881321Y12425771D01*
X14849571Y12441773D01*
X14801819Y12441773D01*
X15208981Y12441773D02*
G01*
X15033975Y12219015D01*
X15033975Y12441773D02*
G01*
X15208981Y12441773D01*
X15033975Y12219015D02*
G01*
X15208981Y12219015D01*
X15314137Y12346269D02*
G01*
X15504891Y12346269D01*
X15504891Y12378273D01*
X15489143Y12410023D01*
X15473141Y12425771D01*
X15441391Y12441773D01*
X15393639Y12441773D01*
X15361889Y12425771D01*
X15329885Y12394021D01*
X15314137Y12346269D01*
X15314137Y12314519D01*
X15329885Y12266767D01*
X15361889Y12235017D01*
X15393639Y12219015D01*
X15441391Y12219015D01*
X15473141Y12235017D01*
X15504891Y12266767D01*
X15610047Y12441773D02*
G01*
X15610047Y12219015D01*
X15610047Y12378273D02*
G01*
X15657799Y12425771D01*
X15689549Y12441773D01*
X15737301Y12441773D01*
X15769051Y12425771D01*
X15785053Y12378273D01*
X15785053Y12219015D01*
D11*
X12200026Y12001779D02*
G01*
X12200026Y11810771D01*
X12200026Y12001779D02*
G01*
X12281814Y12001779D01*
X12308992Y11992635D01*
X12318136Y11983491D01*
X12327280Y11965457D01*
X12327280Y11938279D01*
X12318136Y11919991D01*
X12308992Y11910847D01*
X12281814Y11901703D01*
X12200026Y11901703D01*
X12387224Y11883669D02*
G01*
X12496444Y11883669D01*
X12496444Y11901703D01*
X12487300Y11919991D01*
X12478156Y11929135D01*
X12459868Y11938279D01*
X12432690Y11938279D01*
X12414402Y11929135D01*
X12396368Y11910847D01*
X12387224Y11883669D01*
X12387224Y11865381D01*
X12396368Y11838203D01*
X12414402Y11819915D01*
X12432690Y11810771D01*
X12459868Y11810771D01*
X12478156Y11819915D01*
X12496444Y11838203D01*
X12556388Y11938279D02*
G01*
X12556388Y11810771D01*
X12556388Y11883669D02*
G01*
X12565532Y11910847D01*
X12583566Y11929135D01*
X12601854Y11938279D01*
X12629032Y11938279D01*
X12688976Y11938279D02*
G01*
X12688976Y11747271D01*
X12688976Y11910847D02*
G01*
X12707264Y11929135D01*
X12725552Y11938279D01*
X12752730Y11938279D01*
X12770764Y11929135D01*
X12789052Y11910847D01*
X12798196Y11883669D01*
X12798196Y11865381D01*
X12789052Y11838203D01*
X12770764Y11819915D01*
X12752730Y11810771D01*
X12725552Y11810771D01*
X12707264Y11819915D01*
X12688976Y11838203D01*
X12858140Y12001779D02*
G01*
X12858140Y11810771D01*
X12858140Y11901703D02*
G01*
X12885318Y11929135D01*
X12903606Y11938279D01*
X12930784Y11938279D01*
X12949072Y11929135D01*
X12958216Y11901703D01*
X12958216Y11810771D01*
X13158114Y12001779D02*
G01*
X13158114Y11810771D01*
X13158114Y12001779D02*
G01*
X13239902Y12001779D01*
X13267334Y11992635D01*
X13276224Y11983491D01*
X13285368Y11965457D01*
X13285368Y11947169D01*
X13276224Y11929135D01*
X13267334Y11919991D01*
X13239902Y11910847D01*
X13158114Y11910847D02*
G01*
X13239902Y11910847D01*
X13267334Y11901703D01*
X13276224Y11892813D01*
X13285368Y11874525D01*
X13285368Y11847347D01*
X13276224Y11829059D01*
X13267334Y11819915D01*
X13239902Y11810771D01*
X13158114Y11810771D01*
X13390778Y11938279D02*
G01*
X13372744Y11929135D01*
X13354456Y11910847D01*
X13345312Y11883669D01*
X13345312Y11865381D01*
X13354456Y11838203D01*
X13372744Y11819915D01*
X13390778Y11810771D01*
X13418210Y11810771D01*
X13436244Y11819915D01*
X13454532Y11838203D01*
X13463676Y11865381D01*
X13463676Y11883669D01*
X13454532Y11910847D01*
X13436244Y11929135D01*
X13418210Y11938279D01*
X13390778Y11938279D01*
X13632586Y11938279D02*
G01*
X13632586Y11810771D01*
X13632586Y11910847D02*
G01*
X13614552Y11929135D01*
X13596264Y11938279D01*
X13569086Y11938279D01*
X13550798Y11929135D01*
X13532764Y11910847D01*
X13523620Y11883669D01*
X13523620Y11865381D01*
X13532764Y11838203D01*
X13550798Y11819915D01*
X13569086Y11810771D01*
X13596264Y11810771D01*
X13614552Y11819915D01*
X13632586Y11838203D01*
X13692784Y11938279D02*
G01*
X13692784Y11810771D01*
X13692784Y11883669D02*
G01*
X13701674Y11910847D01*
X13719962Y11929135D01*
X13738250Y11938279D01*
X13765428Y11938279D01*
X13934592Y12001779D02*
G01*
X13934592Y11810771D01*
X13934592Y11910847D02*
G01*
X13916304Y11929135D01*
X13898270Y11938279D01*
X13870838Y11938279D01*
X13852804Y11929135D01*
X13834516Y11910847D01*
X13825372Y11883669D01*
X13825372Y11865381D01*
X13834516Y11838203D01*
X13852804Y11819915D01*
X13870838Y11810771D01*
X13898270Y11810771D01*
X13916304Y11819915D01*
X13934592Y11838203D01*
X14134490Y12001779D02*
G01*
X14207134Y11810771D01*
X14280032Y12001779D02*
G01*
X14207134Y11810771D01*
X14339976Y11965457D02*
G01*
X14358264Y11974601D01*
X14385442Y12001779D01*
X14385442Y11810771D01*
D12*
X18205135Y11755795D02*
G01*
X18205135Y11864761D01*
X18205135Y11755795D02*
G01*
X18158399Y11755795D01*
X18142651Y11760875D01*
X18137571Y11765955D01*
X18132237Y11776369D01*
X18132237Y11786783D01*
X18137571Y11797197D01*
X18142651Y11802531D01*
X18158399Y11807611D01*
X18205135Y11807611D01*
X18168559Y11807611D02*
G01*
X18132237Y11864761D01*
X18092867Y11781703D02*
G01*
X18092867Y11776369D01*
X18087533Y11765955D01*
X18082453Y11760875D01*
X18072039Y11755795D01*
X18051211Y11755795D01*
X18040797Y11760875D01*
X18035717Y11765955D01*
X18030383Y11776369D01*
X18030383Y11786783D01*
X18035717Y11797197D01*
X18046131Y11812945D01*
X18097947Y11864761D01*
X18025303Y11864761D01*
X17928529Y11771289D02*
G01*
X17933863Y11760875D01*
X17949357Y11755795D01*
X17959771Y11755795D01*
X17975519Y11760875D01*
X17985679Y11776369D01*
X17991013Y11802531D01*
X17991013Y11828439D01*
X17985679Y11849267D01*
X17975519Y11859681D01*
X17959771Y11864761D01*
X17954691Y11864761D01*
X17938943Y11859681D01*
X17928529Y11849267D01*
X17923449Y11833519D01*
X17923449Y11828439D01*
X17928529Y11812945D01*
X17938943Y11802531D01*
X17954691Y11797197D01*
X17959771Y11797197D01*
X17975519Y11802531D01*
X17985679Y11812945D01*
X17991013Y11828439D01*
X2274595Y10095895D02*
G01*
X2274595Y9986929D01*
X2347239Y10095895D02*
G01*
X2274595Y10023251D01*
X2300503Y10049159D02*
G01*
X2347239Y9986929D01*
X2381529Y10095895D02*
G01*
X2381529Y9986929D01*
X2381529Y10095895D02*
G01*
X2449093Y10095895D01*
X2381529Y10044079D02*
G01*
X2423185Y10044079D01*
X2381529Y9986929D02*
G01*
X2449093Y9986929D01*
X2483383Y10095895D02*
G01*
X2525039Y10044079D01*
X2525039Y9986929D01*
X2566695Y10095895D02*
G01*
X2525039Y10044079D01*
X2600985Y10075067D02*
G01*
X2611145Y10080401D01*
X2626893Y10095895D01*
X2626893Y9986929D01*
X6299987Y10515295D02*
G01*
X6299987Y10406329D01*
X6372631Y10515295D02*
G01*
X6299987Y10442651D01*
X6325895Y10468559D02*
G01*
X6372631Y10406329D01*
X6406921Y10515295D02*
G01*
X6406921Y10406329D01*
X6406921Y10515295D02*
G01*
X6474485Y10515295D01*
X6406921Y10463479D02*
G01*
X6448577Y10463479D01*
X6406921Y10406329D02*
G01*
X6474485Y10406329D01*
X6508775Y10515295D02*
G01*
X6550431Y10463479D01*
X6550431Y10406329D01*
X6592087Y10515295D02*
G01*
X6550431Y10463479D01*
X6631457Y10489387D02*
G01*
X6631457Y10494467D01*
X6636537Y10504881D01*
X6641871Y10510215D01*
X6652285Y10515295D01*
X6673113Y10515295D01*
X6683527Y10510215D01*
X6688607Y10504881D01*
X6693687Y10494467D01*
X6693687Y10484053D01*
X6688607Y10473639D01*
X6678193Y10458145D01*
X6626377Y10406329D01*
X6699021Y10406329D01*
X5426354Y8388007D02*
G01*
X5426354Y8279041D01*
X5498998Y8388007D02*
G01*
X5426354Y8315363D01*
X5452262Y8341271D02*
G01*
X5498998Y8279041D01*
X5533288Y8388007D02*
G01*
X5533288Y8279041D01*
X5533288Y8388007D02*
G01*
X5600852Y8388007D01*
X5533288Y8336191D02*
G01*
X5574944Y8336191D01*
X5533288Y8279041D02*
G01*
X5600852Y8279041D01*
X5635142Y8388007D02*
G01*
X5676798Y8336191D01*
X5676798Y8279041D01*
X5718454Y8388007D02*
G01*
X5676798Y8336191D01*
X5762904Y8388007D02*
G01*
X5820054Y8388007D01*
X5789066Y8346351D01*
X5804560Y8346351D01*
X5814974Y8341271D01*
X5820054Y8336191D01*
X5825388Y8320443D01*
X5825388Y8310029D01*
X5820054Y8294535D01*
X5809894Y8284121D01*
X5794146Y8279041D01*
X5778652Y8279041D01*
X5762904Y8284121D01*
X5757824Y8289201D01*
X5752744Y8299615D01*
X8316084Y10095895D02*
G01*
X8316084Y9986929D01*
X8388728Y10095895D02*
G01*
X8316084Y10023251D01*
X8341995Y10049159D02*
G01*
X8388728Y9986929D01*
X8423018Y10095895D02*
G01*
X8423018Y9986929D01*
X8423018Y10095895D02*
G01*
X8490582Y10095895D01*
X8423018Y10044079D02*
G01*
X8464677Y10044079D01*
X8423018Y9986929D02*
G01*
X8490582Y9986929D01*
X8524875Y10095895D02*
G01*
X8566528Y10044079D01*
X8566528Y9986929D01*
X8608184Y10095895D02*
G01*
X8566528Y10044079D01*
X8694293Y10095895D02*
G01*
X8642477Y10023251D01*
X8720198Y10023251D01*
X8694293Y10095895D02*
G01*
X8694293Y9986929D01*
X10594223Y9249229D02*
G01*
X10594223Y9140263D01*
X10666867Y9249229D02*
G01*
X10594223Y9176583D01*
X10620131Y9202493D02*
G01*
X10666867Y9140263D01*
X10701157Y9249229D02*
G01*
X10701157Y9140263D01*
X10701157Y9249229D02*
G01*
X10768721Y9249229D01*
X10701157Y9197413D02*
G01*
X10742813Y9197413D01*
X10701157Y9140263D02*
G01*
X10768721Y9140263D01*
X10803011Y9249229D02*
G01*
X10844667Y9197413D01*
X10844667Y9140263D01*
X10886323Y9249229D02*
G01*
X10844667Y9197413D01*
X10982843Y9249229D02*
G01*
X10930773Y9249229D01*
X10925693Y9202493D01*
X10930773Y9207573D01*
X10946521Y9212905D01*
X10962015Y9212905D01*
X10977763Y9207573D01*
X10987923Y9197413D01*
X10993257Y9181665D01*
X10993257Y9171251D01*
X10987923Y9155755D01*
X10977763Y9145343D01*
X10962015Y9140263D01*
X10946521Y9140263D01*
X10930773Y9145343D01*
X10925693Y9150423D01*
X10920613Y9160837D01*
X9524580Y11304394D02*
G01*
X9524580Y11195428D01*
X9597224Y11304394D02*
G01*
X9524580Y11231750D01*
X9550488Y11257658D02*
G01*
X9597224Y11195428D01*
X9631514Y11304394D02*
G01*
X9631514Y11195428D01*
X9631514Y11304394D02*
G01*
X9699078Y11304394D01*
X9631514Y11252578D02*
G01*
X9673170Y11252578D01*
X9631514Y11195428D02*
G01*
X9699078Y11195428D01*
X9733368Y11304394D02*
G01*
X9775024Y11252578D01*
X9775024Y11195428D01*
X9816680Y11304394D02*
G01*
X9775024Y11252578D01*
X9913200Y11288900D02*
G01*
X9908120Y11299314D01*
X9892372Y11304394D01*
X9881958Y11304394D01*
X9866464Y11299314D01*
X9856050Y11283566D01*
X9850970Y11257658D01*
X9850970Y11231750D01*
X9856050Y11210922D01*
X9866464Y11200508D01*
X9881958Y11195428D01*
X9887292Y11195428D01*
X9902786Y11200508D01*
X9913200Y11210922D01*
X9918280Y11226416D01*
X9918280Y11231750D01*
X9913200Y11247244D01*
X9902786Y11257658D01*
X9887292Y11262738D01*
X9881958Y11262738D01*
X9866464Y11257658D01*
X9856050Y11247244D01*
X9850970Y11231750D01*
X9368640Y8061258D02*
G01*
X9368640Y7952038D01*
X9441538Y8061258D02*
G01*
X9368640Y7988360D01*
X9394802Y8014522D02*
G01*
X9441538Y7952038D01*
X9475828Y8061258D02*
G01*
X9475828Y7952038D01*
X9475828Y8061258D02*
G01*
X9543392Y8061258D01*
X9475828Y8009188D02*
G01*
X9517230Y8009188D01*
X9475828Y7952038D02*
G01*
X9543392Y7952038D01*
X9577682Y8061258D02*
G01*
X9619084Y8009188D01*
X9619084Y7952038D01*
X9660740Y8061258D02*
G01*
X9619084Y8009188D01*
X9767674Y8061258D02*
G01*
X9715858Y7952038D01*
X9695030Y8061258D02*
G01*
X9767674Y8061258D01*
X13274573Y10970895D02*
G01*
X13274573Y10861675D01*
X13347471Y10970895D02*
G01*
X13274573Y10897996D01*
X13300735Y10924159D02*
G01*
X13347471Y10861675D01*
X13381761Y10970895D02*
G01*
X13381761Y10861675D01*
X13381761Y10970895D02*
G01*
X13449325Y10970895D01*
X13381761Y10918825D02*
G01*
X13423163Y10918825D01*
X13381761Y10861675D02*
G01*
X13449325Y10861675D01*
X13483615Y10970895D02*
G01*
X13525017Y10918825D01*
X13525017Y10861675D01*
X13566673Y10970895D02*
G01*
X13525017Y10918825D01*
X13626871Y10970895D02*
G01*
X13611377Y10965561D01*
X13606043Y10955146D01*
X13606043Y10944733D01*
X13611377Y10934572D01*
X13621791Y10929238D01*
X13642365Y10924159D01*
X13658113Y10918825D01*
X13668527Y10908411D01*
X13673607Y10897996D01*
X13673607Y10882503D01*
X13668527Y10872088D01*
X13663193Y10867009D01*
X13647699Y10861675D01*
X13626871Y10861675D01*
X13611377Y10867009D01*
X13606043Y10872088D01*
X13600963Y10882503D01*
X13600963Y10897996D01*
X13606043Y10908411D01*
X13616457Y10918825D01*
X13632205Y10924159D01*
X13652779Y10929238D01*
X13663193Y10934572D01*
X13668527Y10944733D01*
X13668527Y10955146D01*
X13663193Y10965561D01*
X13647699Y10970895D01*
X13626871Y10970895D01*
X13099445Y8368789D02*
G01*
X13099445Y8259569D01*
X13172343Y8368789D02*
G01*
X13099445Y8295891D01*
X13125607Y8322053D02*
G01*
X13172343Y8259569D01*
X13206633Y8368789D02*
G01*
X13206633Y8259569D01*
X13206633Y8368789D02*
G01*
X13274197Y8368789D01*
X13206633Y8316719D02*
G01*
X13248035Y8316719D01*
X13206633Y8259569D02*
G01*
X13274197Y8259569D01*
X13308487Y8368789D02*
G01*
X13349889Y8316719D01*
X13349889Y8259569D01*
X13391545Y8368789D02*
G01*
X13349889Y8316719D01*
X13493399Y8332467D02*
G01*
X13488065Y8316719D01*
X13477651Y8306305D01*
X13462157Y8301225D01*
X13457077Y8301225D01*
X13441329Y8306305D01*
X13430915Y8316719D01*
X13425835Y8332467D01*
X13425835Y8337547D01*
X13430915Y8353041D01*
X13441329Y8363455D01*
X13457077Y8368789D01*
X13462157Y8368789D01*
X13477651Y8363455D01*
X13488065Y8353041D01*
X13493399Y8332467D01*
X13493399Y8306305D01*
X13488065Y8280397D01*
X13477651Y8264903D01*
X13462157Y8259569D01*
X13451743Y8259569D01*
X13436249Y8264903D01*
X13430915Y8275317D01*
X16774566Y10870892D02*
G01*
X16774566Y10761672D01*
X16847464Y10870892D02*
G01*
X16774566Y10797994D01*
X16800728Y10824156D02*
G01*
X16847464Y10761672D01*
X16881754Y10870892D02*
G01*
X16881754Y10761672D01*
X16881754Y10870892D02*
G01*
X16949318Y10870892D01*
X16881754Y10818822D02*
G01*
X16923156Y10818822D01*
X16881754Y10761672D02*
G01*
X16949318Y10761672D01*
X16983608Y10870892D02*
G01*
X17025010Y10818822D01*
X17025010Y10761672D01*
X17066666Y10870892D02*
G01*
X17025010Y10818822D01*
X17100956Y10850064D02*
G01*
X17111370Y10855144D01*
X17126864Y10870892D01*
X17126864Y10761672D01*
X17192396Y10870892D02*
G01*
X17176648Y10865558D01*
X17166488Y10850064D01*
X17161154Y10824156D01*
X17161154Y10808408D01*
X17166488Y10782500D01*
X17176648Y10767006D01*
X17192396Y10761672D01*
X17202810Y10761672D01*
X17218304Y10767006D01*
X17228718Y10782500D01*
X17233798Y10808408D01*
X17233798Y10824156D01*
X17228718Y10850064D01*
X17218304Y10865558D01*
X17202810Y10870892D01*
X17192396Y10870892D01*
X16599763Y8493589D02*
G01*
X16599763Y8384623D01*
X16672407Y8493589D02*
G01*
X16599763Y8420948D01*
X16625671Y8446856D02*
G01*
X16672407Y8384623D01*
X16706697Y8493589D02*
G01*
X16706697Y8384623D01*
X16706697Y8493589D02*
G01*
X16774261Y8493589D01*
X16706697Y8441773D02*
G01*
X16748353Y8441773D01*
X16706697Y8384623D02*
G01*
X16774261Y8384623D01*
X16808551Y8493589D02*
G01*
X16850207Y8441773D01*
X16850207Y8384623D01*
X16891609Y8493589D02*
G01*
X16850207Y8441773D01*
X16925899Y8472764D02*
G01*
X16936313Y8478098D01*
X16951807Y8493589D01*
X16951807Y8384623D01*
X16986097Y8472764D02*
G01*
X16996511Y8478098D01*
X17012259Y8493589D01*
X17012259Y8384623D01*
X9999903Y6615404D02*
G01*
X9999903Y6506184D01*
X10072801Y6615404D02*
G01*
X9999903Y6542506D01*
X10026065Y6568668D02*
G01*
X10072801Y6506184D01*
X10107091Y6615404D02*
G01*
X10107091Y6506184D01*
X10107091Y6615404D02*
G01*
X10174655Y6615404D01*
X10107091Y6563334D02*
G01*
X10148493Y6563334D01*
X10107091Y6506184D02*
G01*
X10174655Y6506184D01*
X10208945Y6615404D02*
G01*
X10250347Y6563334D01*
X10250347Y6506184D01*
X10292003Y6615404D02*
G01*
X10250347Y6563334D01*
X10326293Y6594576D02*
G01*
X10336707Y6599656D01*
X10352201Y6615404D01*
X10352201Y6506184D01*
X10391825Y6589242D02*
G01*
X10391825Y6594576D01*
X10396905Y6604990D01*
X10401985Y6610070D01*
X10412399Y6615404D01*
X10433227Y6615404D01*
X10443641Y6610070D01*
X10448975Y6604990D01*
X10454055Y6594576D01*
X10454055Y6584162D01*
X10448975Y6573748D01*
X10438561Y6558254D01*
X10386491Y6506184D01*
X10459135Y6506184D01*
D13*
X2630195Y9737023D02*
G01*
X2630195Y9512935D01*
X2054981Y9929779D02*
G01*
X2545008Y9929779D01*
X1969795Y9737023D02*
G01*
X1969795Y9512935D01*
X2054981Y9320179D02*
G01*
X2545008Y9320179D01*
X5469788Y10387934D02*
G01*
X5469788Y10612023D01*
X6045001Y10195179D02*
G01*
X5554974Y10195179D01*
X6130188Y10387934D02*
G01*
X6130188Y10612023D01*
X6045001Y10804779D02*
G01*
X5554974Y10804779D01*
X5469788Y8637938D02*
G01*
X5469788Y8862026D01*
X6045001Y8445182D02*
G01*
X5554974Y8445182D01*
X6130188Y8637938D02*
G01*
X6130188Y8862026D01*
X6045001Y9054782D02*
G01*
X5554974Y9054782D01*
X8671684Y9737023D02*
G01*
X8671684Y9512935D01*
X8096470Y9929779D02*
G01*
X8586495Y9929779D01*
X8011284Y9737023D02*
G01*
X8011284Y9512935D01*
X8096470Y9320179D02*
G01*
X8586495Y9320179D01*
X10428277Y9512937D02*
G01*
X10428277Y9737023D01*
X11003490Y9320179D02*
G01*
X10513463Y9320179D01*
X11088677Y9512937D02*
G01*
X11088677Y9737023D01*
X11003490Y9929779D02*
G01*
X10513463Y9929779D01*
X9880180Y10945522D02*
G01*
X9880180Y10721433D01*
X9304967Y11138278D02*
G01*
X9794994Y11138278D01*
X9219780Y10945522D02*
G01*
X9219780Y10721433D01*
X9304967Y10528678D02*
G01*
X9794994Y10528678D01*
X9219780Y8304438D02*
G01*
X9219780Y8528527D01*
X9794994Y8111683D02*
G01*
X9304967Y8111683D01*
X9880180Y8304438D02*
G01*
X9880180Y8528527D01*
X9794994Y8721283D02*
G01*
X9304967Y8721283D01*
X13630173Y10612023D02*
G01*
X13630173Y10387934D01*
X13054959Y10804779D02*
G01*
X13544986Y10804779D01*
X12969773Y10612023D02*
G01*
X12969773Y10387934D01*
X13054959Y10195179D02*
G01*
X13544986Y10195179D01*
X12969773Y8637938D02*
G01*
X12969773Y8862026D01*
X13544986Y8445182D02*
G01*
X13054959Y8445182D01*
X13630173Y8637938D02*
G01*
X13630173Y8862026D01*
X13544986Y9054782D02*
G01*
X13054959Y9054782D01*
X17130166Y10512021D02*
G01*
X17130166Y10287932D01*
X16554952Y10704776D02*
G01*
X17044979Y10704776D01*
X16469766Y10512021D02*
G01*
X16469766Y10287932D01*
X16554952Y10095176D02*
G01*
X17044979Y10095176D01*
X16469766Y8762939D02*
G01*
X16469766Y8987028D01*
X17044979Y8570183D02*
G01*
X16554952Y8570183D01*
X17130166Y8762939D02*
G01*
X17130166Y8987028D01*
X17044979Y9179783D02*
G01*
X16554952Y9179783D01*
X9219780Y6262944D02*
G01*
X9219780Y6487032D01*
X9794994Y6070188D02*
G01*
X9304967Y6070188D01*
X9880180Y6262944D02*
G01*
X9880180Y6487032D01*
X9794994Y6679788D02*
G01*
X9304967Y6679788D01*
G75*
G01
X3549993Y9624979D02*
G03X3549993Y9624979I-1249997J0D01*
G75*
G01
X17299965Y10399979D02*
G03X17299965Y10399979I-499999J0D01*
G75*
G01
X17299965Y8874981D02*
G03X17299965Y8874981I-499999J0D01*
G75*
G01
X18420994Y12125046D02*
G03X18420994Y12125046I-215900J0D01*
G75*
G01
X2160295Y9802779D02*
G03X2160295Y9802779I-50800J0D01*
G75*
G01
X2147595Y9447179D02*
G03X2147595Y9447179I-50800J0D01*
G75*
G01
X2541295Y9802779D02*
G03X2541295Y9802779I-50800J0D01*
G75*
G01
X2528595Y9447179D02*
G03X2528595Y9447179I-50800J0D01*
G75*
G01
X2414295Y9624979D02*
G03X2414295Y9624979I-114300J0D01*
G75*
G01
X2450109Y9624979D02*
G03X2450109Y9624979I-150114J0D01*
G75*
G01
X6041288Y10322179D02*
G03X6041288Y10322179I-50800J0D01*
G75*
G01
X6053988Y10677779D02*
G03X6053988Y10677779I-50800J0D01*
G75*
G01
X5660288Y10322179D02*
G03X5660288Y10322179I-50800J0D01*
G75*
G01
X5672988Y10677779D02*
G03X5672988Y10677779I-50800J0D01*
G75*
G01
X5914288Y10499979D02*
G03X5914288Y10499979I-114300J0D01*
G75*
G01
X5950102Y10499979D02*
G03X5950102Y10499979I-150114J0D01*
G75*
G01
X6041288Y8572183D02*
G03X6041288Y8572183I-50800J0D01*
G75*
G01
X6053988Y8927783D02*
G03X6053988Y8927783I-50800J0D01*
G75*
G01
X5660288Y8572183D02*
G03X5660288Y8572183I-50800J0D01*
G75*
G01
X5672988Y8927783D02*
G03X5672988Y8927783I-50800J0D01*
G75*
G01
X5914288Y8749983D02*
G03X5914288Y8749983I-114300J0D01*
G75*
G01
X5950102Y8749983D02*
G03X5950102Y8749983I-150114J0D01*
G75*
G01
X8201784Y9802779D02*
G03X8201784Y9802779I-50800J0D01*
G75*
G01
X8189084Y9447179D02*
G03X8189084Y9447179I-50800J0D01*
G75*
G01
X8582784Y9802779D02*
G03X8582784Y9802779I-50800J0D01*
G75*
G01
X8570084Y9447179D02*
G03X8570084Y9447179I-50800J0D01*
G75*
G01
X8455784Y9624979D02*
G03X8455784Y9624979I-114300J0D01*
G75*
G01
X8491598Y9624979D02*
G03X8491598Y9624979I-150114J0D01*
G75*
G01
X10999777Y9447179D02*
G03X10999777Y9447179I-50800J0D01*
G75*
G01
X11012477Y9802779D02*
G03X11012477Y9802779I-50800J0D01*
G75*
G01
X10618777Y9447179D02*
G03X10618777Y9447179I-50800J0D01*
G75*
G01
X10631477Y9802779D02*
G03X10631477Y9802779I-50800J0D01*
G75*
G01
X10872777Y9624979D02*
G03X10872777Y9624979I-114300J0D01*
G75*
G01
X10908591Y9624979D02*
G03X10908591Y9624979I-150114J0D01*
G75*
G01
X9410281Y11011278D02*
G03X9410281Y11011278I-50800J0D01*
G75*
G01
X9397581Y10655678D02*
G03X9397581Y10655678I-50800J0D01*
G75*
G01
X9791281Y11011278D02*
G03X9791281Y11011278I-50800J0D01*
G75*
G01
X9778581Y10655678D02*
G03X9778581Y10655678I-50800J0D01*
G75*
G01
X9664281Y10833478D02*
G03X9664281Y10833478I-114300J0D01*
G75*
G01
X9700095Y10833478D02*
G03X9700095Y10833478I-150114J0D01*
G75*
G01
X9791281Y8238683D02*
G03X9791281Y8238683I-50800J0D01*
G75*
G01
X9803981Y8594283D02*
G03X9803981Y8594283I-50800J0D01*
G75*
G01
X9410281Y8238683D02*
G03X9410281Y8238683I-50800J0D01*
G75*
G01
X9422981Y8594283D02*
G03X9422981Y8594283I-50800J0D01*
G75*
G01
X9664281Y8416483D02*
G03X9664281Y8416483I-114300J0D01*
G75*
G01
X9700095Y8416483D02*
G03X9700095Y8416483I-150114J0D01*
G75*
G01
X13160273Y10677779D02*
G03X13160273Y10677779I-50800J0D01*
G75*
G01
X13147573Y10322179D02*
G03X13147573Y10322179I-50800J0D01*
G75*
G01
X13541273Y10677779D02*
G03X13541273Y10677779I-50800J0D01*
G75*
G01
X13528573Y10322179D02*
G03X13528573Y10322179I-50800J0D01*
G75*
G01
X13414273Y10499979D02*
G03X13414273Y10499979I-114300J0D01*
G75*
G01
X13450087Y10499979D02*
G03X13450087Y10499979I-150114J0D01*
G75*
G01
X13541273Y8572183D02*
G03X13541273Y8572183I-50800J0D01*
G75*
G01
X13553973Y8927783D02*
G03X13553973Y8927783I-50800J0D01*
G75*
G01
X13160273Y8572183D02*
G03X13160273Y8572183I-50800J0D01*
G75*
G01
X13172973Y8927783D02*
G03X13172973Y8927783I-50800J0D01*
G75*
G01
X13414273Y8749983D02*
G03X13414273Y8749983I-114300J0D01*
G75*
G01
X13450087Y8749983D02*
G03X13450087Y8749983I-150114J0D01*
G75*
G01
X16660266Y10577779D02*
G03X16660266Y10577779I-50800J0D01*
G75*
G01
X16647566Y10222179D02*
G03X16647566Y10222179I-50800J0D01*
G75*
G01
X17041266Y10577779D02*
G03X17041266Y10577779I-50800J0D01*
G75*
G01
X17028566Y10222179D02*
G03X17028566Y10222179I-50800J0D01*
G75*
G01
X16914266Y10399979D02*
G03X16914266Y10399979I-114300J0D01*
G75*
G01
X16950080Y10399979D02*
G03X16950080Y10399979I-150114J0D01*
G75*
G01
X17041266Y8697181D02*
G03X17041266Y8697181I-50800J0D01*
G75*
G01
X17053966Y9052781D02*
G03X17053966Y9052781I-50800J0D01*
G75*
G01
X16660266Y8697181D02*
G03X16660266Y8697181I-50800J0D01*
G75*
G01
X16672966Y9052781D02*
G03X16672966Y9052781I-50800J0D01*
G75*
G01
X16914266Y8874981D02*
G03X16914266Y8874981I-114300J0D01*
G75*
G01
X16950080Y8874981D02*
G03X16950080Y8874981I-150114J0D01*
G75*
G01
X9791281Y6197186D02*
G03X9791281Y6197186I-50800J0D01*
G75*
G01
X9803981Y6552786D02*
G03X9803981Y6552786I-50800J0D01*
G75*
G01
X9410281Y6197186D02*
G03X9410281Y6197186I-50800J0D01*
G75*
G01
X9422981Y6552786D02*
G03X9422981Y6552786I-50800J0D01*
G75*
G01
X9664281Y6374986D02*
G03X9664281Y6374986I-114300J0D01*
G75*
G01
X9700095Y6374986D02*
G03X9700095Y6374986I-150114J0D01*
X12299975Y11124976D02*
G01*
X14299971Y11124976D01*
X14299971Y9874978D01*
X12299975Y9874978D01*
X12299975Y11124976D01*
X12299975Y9374979D02*
G01*
X14299971Y9374979D01*
X14299971Y8124982D01*
X12299975Y8124982D01*
X12299975Y9374979D01*
X8549982Y6874984D02*
G01*
X10549978Y6874984D01*
X10549978Y5874986D01*
X8549982Y5874986D01*
X8549982Y6874984D01*
X4799990Y11124976D02*
G01*
X6799986Y11124976D01*
X6799986Y9874978D01*
X4799990Y9874978D01*
X4799990Y11124976D01*
X4799990Y9374979D02*
G01*
X6799986Y9374979D01*
X6799986Y8124982D01*
X4799990Y8124982D01*
X4799990Y9374979D01*
X7499984Y9999979D02*
G01*
X9182981Y9999979D01*
X9182981Y9249981D01*
X7499984Y9249981D01*
X7499984Y9999979D01*
X9916980Y9999979D02*
G01*
X11599976Y9999979D01*
X11599976Y9249981D01*
X9916980Y9249981D01*
X9916980Y9999979D01*
X9174982Y11674975D02*
G01*
X9924981Y11674975D01*
X9924981Y9991978D01*
X9174982Y9991978D01*
X9174982Y11674975D01*
X9174982Y9257982D02*
G01*
X9924981Y9257982D01*
X9924981Y7574986D01*
X9174982Y7574986D01*
X9174982Y9257982D01*
M02*
