G04 Layer: BottomSolderMaskLayer*
G04 EasyEDA v6.5.38, 2023-12-05 17:56:17*
G04 681b97978217455484aa44bc4d5c6028,9f3f2715377c499da2f37e4e16011465,10*
G04 Gerber Generator version 0.2*
G04 Scale: 100 percent, Rotated: No, Reflected: No *
G04 Dimensions in millimeters *
G04 leading zeros omitted , absolute positions ,4 integer and 5 decimal *
%FSLAX45Y45*%
%MOMM*%

%AMMACRO1*1,1,$1,$2,$3*1,1,$1,$4,$5*1,1,$1,0-$2,0-$3*1,1,$1,0-$4,0-$5*20,1,$1,$2,$3,$4,$5,0*20,1,$1,$4,$5,0-$2,0-$3,0*20,1,$1,0-$2,0-$3,0-$4,0-$5,0*20,1,$1,0-$4,0-$5,$2,$3,0*4,1,4,$2,$3,$4,$5,0-$2,0-$3,0-$4,0-$5,$2,$3,0*%
%ADD10MACRO1,0.1016X0.5175X-0.5163X-0.5175X-0.5163*%
%ADD11MACRO1,0.1016X-0.675X-0.705X0.675X-0.705*%
%ADD12MACRO1,0.1016X-0.675X0.705X0.675X0.705*%
%ADD13MACRO1,0.1016X0.705X-0.675X0.705X0.675*%
%ADD14MACRO1,0.1016X-0.705X-0.675X-0.705X0.675*%
%ADD15R,1.4516X1.5116*%
%ADD16MACRO1,0.1016X0.5663X-0.6885X0.5663X0.6885*%
%ADD17MACRO1,0.1016X-0.5663X-0.6885X-0.5663X0.6885*%
%ADD18R,1.4786X1.2341*%
%ADD19C,1.9016*%
%ADD20C,1.6764*%
%ADD21MACRO1,0.1016X-0.7874X-0.7874X0.7874X-0.7874*%
%ADD22MACRO1,0.1016X-0.6885X-0.5663X0.6885X-0.5663*%
%ADD23MACRO1,0.1016X-0.6885X0.5663X0.6885X0.5663*%
%ADD24MACRO1,0.1016X-0.5663X0.6885X-0.5663X-0.6885*%
%ADD25MACRO1,0.1016X0.5663X0.6885X0.5663X-0.6885*%

%LPD*%
D10*
G01*
X18078030Y12124982D03*
G01*
X18332030Y12124982D03*
D11*
G01*
X3399993Y10099982D03*
D12*
G01*
X3399993Y9899977D03*
D13*
G01*
X5499986Y9899980D03*
D14*
G01*
X5699991Y9899980D03*
D13*
G01*
X5499986Y7599984D03*
D14*
G01*
X5699991Y7599984D03*
D13*
G01*
X7686621Y10528858D03*
D14*
G01*
X7886626Y10528858D03*
D15*
G01*
X11199977Y8499983D03*
G01*
X11199977Y8699982D03*
D13*
G01*
X8399980Y11099977D03*
D14*
G01*
X8599985Y11099977D03*
D16*
G01*
X3099988Y9599980D03*
D17*
G01*
X3299998Y9599980D03*
D16*
G01*
X5999982Y9699980D03*
D17*
G01*
X6199992Y9699980D03*
D16*
G01*
X6099982Y7999984D03*
D17*
G01*
X6299992Y7999984D03*
D18*
G01*
X8252757Y10205151D03*
G01*
X8252757Y10405150D03*
D16*
G01*
X10599973Y8899982D03*
D17*
G01*
X10799983Y8899982D03*
D18*
G01*
X8999981Y10899978D03*
G01*
X8999981Y11099977D03*
D19*
G01*
X1974875Y9850023D03*
G01*
X1974875Y9399935D03*
G01*
X2625115Y9850023D03*
G01*
X2625115Y9399935D03*
G01*
X6125108Y10274935D03*
G01*
X6125108Y10725022D03*
G01*
X5474868Y10274935D03*
G01*
X5474868Y10725022D03*
G01*
X6125108Y8524938D03*
G01*
X6125108Y8975026D03*
G01*
X5474868Y8524938D03*
G01*
X5474868Y8975026D03*
G01*
X8016364Y9850023D03*
G01*
X8016364Y9399935D03*
G01*
X8666606Y9850023D03*
G01*
X8666606Y9399935D03*
G01*
X11083597Y9399938D03*
G01*
X11083597Y9850023D03*
G01*
X10433357Y9399938D03*
G01*
X10433357Y9850023D03*
G01*
X9224860Y11058522D03*
G01*
X9224860Y10608434D03*
G01*
X9875100Y11058522D03*
G01*
X9875100Y10608434D03*
G01*
X9875100Y8191439D03*
G01*
X9875100Y8641527D03*
G01*
X9224860Y8191439D03*
G01*
X9224860Y8641527D03*
G01*
X12974853Y10725022D03*
G01*
X12974853Y10274935D03*
G01*
X13625093Y10725022D03*
G01*
X13625093Y10274935D03*
G01*
X13625093Y8524938D03*
G01*
X13625093Y8975026D03*
G01*
X12974853Y8524938D03*
G01*
X12974853Y8975026D03*
G01*
X16474846Y10625020D03*
G01*
X16474846Y10174932D03*
G01*
X17125086Y10625020D03*
G01*
X17125086Y10174932D03*
G01*
X17125086Y8649939D03*
G01*
X17125086Y9100027D03*
G01*
X16474846Y8649939D03*
G01*
X16474846Y9100027D03*
G01*
X9875100Y6149944D03*
G01*
X9875100Y6600032D03*
G01*
X9224860Y6149944D03*
G01*
X9224860Y6600032D03*
D13*
G01*
X9199953Y7299959D03*
D14*
G01*
X9399958Y7299959D03*
D13*
G01*
X12099871Y10899901D03*
D14*
G01*
X12299876Y10899901D03*
D13*
G01*
X13000047Y7599933D03*
D14*
G01*
X13200052Y7599933D03*
D13*
G01*
X16499913Y11400027D03*
D14*
G01*
X16699918Y11400027D03*
D13*
G01*
X16499913Y7700009D03*
D14*
G01*
X16699918Y7700009D03*
D13*
G01*
X8300031Y6599935D03*
D14*
G01*
X8500036Y6599935D03*
D20*
G01*
X4088891Y11772900D03*
G01*
X4088891Y12026900D03*
G01*
X3834891Y11772900D03*
G01*
X3834891Y12026900D03*
G01*
X3580891Y11772900D03*
G01*
X3580891Y12026900D03*
G01*
X3326891Y11772900D03*
G01*
X3326891Y12026900D03*
G01*
X3072891Y11772900D03*
G01*
X3072891Y12026900D03*
G01*
X2818891Y11772900D03*
G01*
X2818891Y12026900D03*
G01*
X2564891Y11772900D03*
G01*
X2564891Y12026900D03*
G01*
X2310891Y11772900D03*
D21*
G01*
X2310892Y12026900D03*
D22*
G01*
X9800081Y7699938D03*
D23*
G01*
X9800081Y7499929D03*
D18*
G01*
X12700000Y10600004D03*
G01*
X12700000Y10800003D03*
D22*
G01*
X13599921Y7900090D03*
D23*
G01*
X13599921Y7700081D03*
D18*
G01*
X17100041Y11199952D03*
G01*
X17100041Y11399951D03*
D22*
G01*
X17100042Y7999912D03*
D23*
G01*
X17100042Y7799903D03*
D18*
G01*
X8800084Y6300038D03*
G01*
X8800084Y6500037D03*
G01*
X2999993Y9899980D03*
G01*
X2999993Y10099979D03*
D24*
G01*
X5699993Y9499981D03*
D25*
G01*
X5499983Y9499981D03*
D24*
G01*
X5699942Y7999984D03*
D25*
G01*
X5499933Y7999984D03*
D24*
G01*
X7873166Y10183114D03*
D25*
G01*
X7673157Y10183114D03*
D16*
G01*
X10599999Y8400034D03*
D17*
G01*
X10800008Y8400034D03*
D24*
G01*
X8600114Y10800080D03*
D25*
G01*
X8400105Y10800080D03*
D24*
G01*
X9399960Y7800085D03*
D25*
G01*
X9199951Y7800085D03*
D24*
G01*
X12299878Y10599927D03*
D25*
G01*
X12099869Y10599927D03*
D24*
G01*
X13200054Y7999984D03*
D25*
G01*
X13000045Y7999984D03*
D24*
G01*
X16699920Y11100054D03*
D25*
G01*
X16499911Y11100054D03*
D24*
G01*
X16699920Y8100060D03*
D25*
G01*
X16499911Y8100060D03*
D24*
G01*
X8500038Y6299962D03*
D25*
G01*
X8300029Y6299962D03*
D22*
G01*
X17599914Y11999904D03*
D23*
G01*
X17599914Y11799895D03*
D20*
G01*
X4400041Y9800081D03*
G01*
X10599978Y10899978D03*
G01*
X6799986Y10199979D03*
G01*
X6499986Y9899980D03*
G01*
X10199979Y11099977D03*
G01*
X5899988Y11799976D03*
M02*
